<?xml version="1.0" encoding="utf-8"?>
<!-- Generator: Adobe Illustrator 19.1.0, SVG Export Plug-In . SVG Version: 6.00 Build 0)  -->
<!DOCTYPE svg PUBLIC "-//W3C//DTD SVG 1.0//EN" "http://www.w3.org/TR/2001/REC-SVG-20010904/DTD/svg10.dtd">
<svg version="1.0" xmlns="http://www.w3.org/2000/svg" xmlns:xlink="http://www.w3.org/1999/xlink" x="0px" y="0px"
	 viewBox="0 0 100 100" enable-background="new 0 0 100 100" xml:space="preserve">
<g id="Layer_1">
	<path id="Facebook__x28_alt_x29__3_" fill="none" stroke="#000000" stroke-width="2" stroke-miterlimit="10" d="M95.3,19.4
		c0-7.9-7.1-15-15-15h-60c-7.9,0-15,7.1-15,15v60c0,7.9,7.1,15,15,15h30h14h16c7.9,0,15-7.1,15-15V19.4z"/>
</g>
<g id="Layer_2">
	<path id="Vimeo_2_" fill="#000000" stroke="#000000" stroke-miterlimit="10" d="M75.4,20.4c-10.1-0.3-16.9,5.3-20.5,17
		c1.8-0.8,3.6-1.1,5.4-1.1c3.7,0,5.3,2.1,4.9,6.2c-0.2,2.5-1.8,6.2-4.9,11c-3,4.8-5.3,7.2-6.8,7.2c-2,0-3.8-3.7-5.4-11.1
		c-0.5-2.2-1.5-7.7-2.9-16.7c-1.3-8.3-4.8-12.2-10.4-11.6c-2.4,0.2-6,2.4-10.7,6.5c-3.5,3.2-7,6.3-10.6,9.5l3.4,4.4
		c3.3-2.3,5.2-3.4,5.7-3.4c2.5,0,4.8,3.9,7,11.8c1.9,7.2,3.9,14.4,5.9,21.6c2.9,7.9,6.5,11.8,10.7,11.8c6.8,0,15.2-6.4,25.1-19.3
		C80.7,51.8,85.6,42.1,86,35C86.4,25.5,82.9,20.7,75.4,20.4z"/>
</g>
</svg>
