<?xml version="1.0" encoding="utf-8"?>
<!-- Generator: Adobe Illustrator 21.1.0, SVG Export Plug-In . SVG Version: 6.00 Build 0)  -->
<!DOCTYPE svg PUBLIC "-//W3C//DTD SVG 1.1//EN" "http://www.w3.org/Graphics/SVG/1.1/DTD/svg11.dtd">
<svg version="1.1" id="Layer_1" xmlns="http://www.w3.org/2000/svg" xmlns:xlink="http://www.w3.org/1999/xlink" x="0px" y="0px"
	 viewBox="0 0 1009 411" style="enable-background:new 0 0 1009 411;" xml:space="preserve">
<style type="text/css">
	.st0{fill:none;}
	.st1{fill:#FFFFFF;stroke:#000000;stroke-width:3;stroke-miterlimit:10;}
</style>
<title>Luxloop_LOGO02_Outlines</title>
<path class="st0" d="M518,175.9c-0.8,1.5-1.6,3.1-2.3,4.8c-1,2-2,4-2.9,6s-1.9,4.1-2.9,6.3s-2.1,4.4-3.2,6.7
	c-1.2,2.3-2.2,4.8-3.2,7.3c-2.3,4.6-4.3,9.2-6.1,14c-1,2.1-1.9,4.3-2.8,6.4c-0.9,2.1-1.7,4.1-2.5,5.9c-0.8,2-1.4,3.7-1.9,5.1l-1.3,4
	c0.4-1,0.9-2.2,1.6-3.7c0.7-1.5,1.4-3.2,2.2-5.1c1-1.9,2-3.8,2.8-5.9c0.9-2.1,1.8-4.3,2.8-6.4c1.9-4.3,4-9,6.1-14
	c1.2-2.3,2.3-4.7,3.4-7s2.1-4.7,3.1-7c1-2.1,1.9-4.2,2.8-6.3c0.9-2.1,1.8-4.1,2.8-6c0.8-1.8,1.4-3.4,2-4.8l1.5-3.7
	c0.6-1.1,1.1-2.3,1.5-3.5c-0.4,1-0.9,2-1.5,3.2C519.2,173.5,518.6,174.7,518,175.9z"/>
<path class="st0" d="M474.4,278.8c0.7-1.6,1.3-3.2,1.9-4.8c0.8-2.2,1.7-4.5,2.6-6.9c1-2.3,1.9-4.7,2.9-7.2s1.9-5,2.9-7.8
	c2.1-5.3,4.3-10.6,6.6-16.1c2.2-5.5,4.5-10.9,6.9-16.4c2.3-5.7,4.7-11.2,7-16.5s4.7-10.6,7-15.6c2.3-5.1,4.6-9.9,6.7-14.6
	c2.1-4.7,4.1-9.1,5.8-13.2c2-4,3.7-7.7,5.2-11.1s2.7-6.2,3.7-8.5c1.2-2.7,2.2-5.3,3.2-7.6c-1,2.1-2.1,4.6-3.5,7.3l-4.2,8.5
	l-5.4,10.8c-2,4.1-4,8.4-6.3,13s-4.5,9.4-6.9,14.5c-2.3,5.1-4.7,10.3-7.2,15.6c-2.4,5.4-4.8,10.9-7.2,16.5
	c-2.3,5.7-4.6,11.2-6.7,16.7s-4.3,10.7-6.5,15.8l-2.8,7.8c-0.9,2.4-1.8,4.9-2.8,7.5s-1.8,4.9-2.6,7.2c-0.6,1.6-1.1,3.1-1.7,4.7
	C473.6,278.5,474,278.6,474.4,278.8z"/>
<path class="st0" d="M514.1,196c-0.2,0.2-0.3,0.3-0.3,0.4s-0.1,0.2-0.3,0.4c-0.2,0.4-0.4,0.7-0.7,1c-0.4,0.4-0.7,0.8-1,1.3l-1.5,1.4
	c-0.5,0.5-1,1.1-1.5,1.8l-3.5,3.5l-3.5,3.5l-3.2,3.2l-2.9,2.9c0.2,0,0.5-0.2,0.9-0.6c0.4-0.2,0.8-0.5,1.2-0.9
	c0.4-0.4,0.9-0.8,1.5-1.2c1-0.8,2.1-1.7,3.4-2.8s2.5-2.2,3.7-3.4c1.2-1.2,2.2-2.5,3.2-3.8c1.1-1,1.9-2.2,2.6-3.5
	c0.4-0.4,0.7-0.8,1-1.3c0.3-0.5,0.5-0.9,0.7-1.3l0.6-1.2c-0.1,0-0.3,0.1-0.3,0.2C514,196,514,196,514.1,196z"/>
<path class="st0" d="M519.9,186.1c-1,1.4-2,3-3.2,5c-0.6,1-1.3,2-2,3.2l-2.3,3.5c-1,1.3-1.9,2.6-2.8,3.9s-1.8,2.6-2.8,3.9
	c-1,1.4-1.9,2.7-2.8,4s-1.8,2.5-2.8,3.7c-2.1,2.3-3.9,4.4-5.3,6.1l-2.3,2.3c-0.4,0.8-1,1.4-1.8,1.8l-1.8,1.8c0.2,0,0.4-0.1,0.6-0.3
	l1.2-1.2c0.3-0.3,0.6-0.6,1-0.9c0.4-0.3,0.7-0.6,1-0.9c0.4-0.4,0.8-0.7,1.2-1c0.4-0.3,0.8-0.6,1.2-1l2.9-2.9c1-1,1.9-2,2.9-3.2
	c1-1.2,1.9-2.4,2.9-3.6c1-1.3,1.9-2.6,2.9-4l5.3-7.9c0.8-1.2,1.5-2.4,2.2-3.7c0.7-1.3,1.3-2.4,1.9-3.4c0.6-0.9,1.1-1.9,1.5-2.9
	C519,187.6,519.4,186.8,519.9,186.1z"/>
<path class="st0" d="M505.3,207.1c-1-2.5-1.8-4.8-2.5-6.9c-0.7-2-1.2-3.9-1.6-5.4c-0.3-0.6-0.6-1.3-0.7-2c-0.1-0.5-0.2-1-0.4-1.5
	c0.2,0.5,0.3,1.1,0.3,1.6c0,0.8,0.2,1.5,0.6,2.2c0.4,1.6,0.8,3.4,1.3,5.4s1.1,4.4,1.9,7.2c1.2,3.9,2.6,8,4.4,12.3l1.5-1.5
	c-1-2.1-1.8-4.1-2.5-6C506.8,210.7,506.1,208.9,505.3,207.1z"/>
<path class="st0" d="M504.5,202.8c0,0.1,0,0.1,0,0.1c-0.1,0.5-0.1,1-0.1,1.5c-0.3,1.4-0.5,2.9-0.6,4.4c-0.2,0.5-0.2,1.1-0.1,1.6
	c0.1,0.4,0.1,0.9,0.1,1.3c0.2-1,0.3-1.9,0.3-2.9c0.2-0.6,0.4-1.3,0.4-1.9c0.1-0.9,0.4-1.7,0.7-2.5c0.2-1,0.4-1.9,0.6-2.8
	c0.2-0.6,0.3-1.3,0.6-1.9C505.8,200.7,505.2,201.7,504.5,202.8z"/>
<path class="st0" d="M524.9,222.7c-0.4-0.2-0.9-0.3-1.3-0.3c-0.5,0-0.9-0.1-1.3-0.3c-1.2-0.4-2.2-0.7-2.9-0.9c-1-0.4-2-0.8-3.2-1.3
	c-1.2-0.5-2.3-1-3.5-1.6c-2.5-1.3-5-2.8-7.3-4.4c-1.2-1-2.3-2-3.5-3.1c-1.2-1.1-2.5-2.2-3.8-3.1c-2.4-2.4-4.7-5-6.7-7.8
	c-2.1-2.8-4.2-5.7-6.1-8.6c-0.5-1.2-1.2-2.2-2-3.2c-0.4,0.6-0.9,1.2-1.5,1.8l1.8,2.6c1.9,3.1,4,6,6.3,8.8c2.2,2.7,4.6,5.4,7.2,7.9
	c2.3,2.3,4.9,4.3,7.6,6.1c1.2,0.9,2.6,1.7,3.9,2.3c1.3,0.6,2.5,1.2,3.7,1.8c0.6,0.3,1.3,0.6,2,0.9l1.8,0.6l1.8,0.6
	c0.5,0.2,1,0.4,1.5,0.6c0.6,0.2,1.2,0.3,1.8,0.3c0.5,0,1,0.1,1.5,0.3c0.9,0.2,1.7,0.3,2.6,0.3c1.2,0.2,2.3,0.3,3.5,0.3
	c-0.5-0.2-1-0.3-1.5-0.3C526.3,222.9,525.6,222.8,524.9,222.7z"/>
<path class="st0" d="M491.7,238.4c0.4-1.3,0.8-2.7,1.2-4.2c0.4-1.3,0.8-2.7,1.3-4.1c0.5-1.4,1-2.8,1.6-4.4c1-2.9,2-5.9,3.2-9.1
	l3.5-9.4c2.3-6.4,4.7-12.6,7-18.4c1.2-2.9,2.3-5.7,3.4-8.3c1.1-2.6,2.1-5.1,3.1-7.5c1-2.3,1.9-4.4,2.6-6.3s1.4-3.5,2-4.8
	c0.7-1.4,1.3-2.9,1.8-4.4l-0.6,1.2c-0.2,0.4-0.4,0.9-0.4,1.3c-0.1,0.6-0.4,1.1-0.7,1.6c-1.2,2.3-2.9,6-5.3,11.1
	c-1,2.3-2.1,4.8-3.2,7.5s-2.3,5.4-3.5,8.3c-1.2,2.9-2.4,5.9-3.7,8.9c-1.1,2.5-2.1,5.1-3.1,7.8c0.1,1.1-0.1,2.2-0.6,3.2
	c-0.5,1.2-1.4,3-2.7,5.6c-0.3,0.7-0.5,1.5-0.8,2.2c-1.2,3-2.2,6.1-3.2,9.2c-0.4,1.6-0.8,3-1.3,4.4s-0.9,2.7-1.3,4.1
	c-0.4,1.6-0.7,3-1,4.2c-0.3,1.3-0.6,2.5-1,3.7c-0.4,1.2-0.6,2.4-0.9,3.7c-0.2,1-0.5,2.1-0.9,3.1c-0.2,1-0.3,1.9-0.4,2.8
	c-0.1,0.8-0.1,1.7-0.1,2.5c0.2-0.8,0.3-1.6,0.4-2.3c0.1-0.9,0.4-1.8,0.7-2.6c0.4-2.3,1-4.5,1.8-6.7
	C490.9,240.9,491.3,239.7,491.7,238.4z"/>
<path class="st0" d="M502.2,208.3l2.2-2.2c0.7-0.7,1.3-1.4,1.9-2.2l2.9-2.9l2.9-2.9c-0.3,0.2-0.6,0.4-0.9,0.6
	c-0.4,0.2-0.8,0.5-1.2,0.7c-0.4,0.3-0.8,0.6-1.2,1c-1,1-2.1,2-3.4,3.1c-1.3,1.1-2.7,2.4-4.2,4l-2.6,2.6c-0.2,0.5-0.3,1.1-0.4,1.6
	c-0.1,0.5-0.3,1.1-0.4,1.6c0.8-1,1.5-1.8,2.2-2.6S501.4,209.1,502.2,208.3z"/>
<path class="st0" d="M504.9,206.6c0.8-1.1,1.6-2.1,2.3-3.1l-0.6-1.8c-1.2,2.4-2.5,5-3.8,7.8C503.5,208.6,504.2,207.6,504.9,206.6z"
	/>
<path class="st0" d="M507,213.6c-0.4-1.1-0.7-2.2-0.9-3.4c-0.2-1.3-0.5-2.7-0.9-4.2c-0.4-1.3-0.7-2.7-0.9-4.1
	c-0.2-1.2-0.5-2.4-0.9-3.5c-0.2-0.4-0.3-0.8-0.3-1.2c0-0.4-0.1-0.8-0.3-1.2c-0.2-0.3-0.3-0.6-0.3-0.9v0.9c0,0.9,0.1,1.8,0.4,2.6
	c0.3,2.6,0.8,5.1,1.5,7.6c0.4,1.6,0.7,3,1,4.2c0.2,1.1,0.6,2.3,1,3.4c0.2,0.8,0.5,1.6,0.9,2.3c0-0.4-0.1-0.8-0.2-1.2
	C507.1,214.6,507,214.1,507,213.6z"/>
<path class="st0" d="M504.8,204.9v2.3c0-0.2,0-0.3,0.1-0.4c0.1-0.1,0.2-0.3,0.2-0.7c0-0.6,0.1-1.2,0.2-1.7L504.8,204.9z"/>
<path class="st0" d="M492.6,213.7c0.4-0.4,0.9-0.8,1.3-1.2c0.5-0.4,1-0.8,1.6-1.2s1.2-0.8,1.9-1.3s1.5-1,2.5-1.6
	c0.8-0.6,1.5-1.2,2.2-1.8c0.7-0.6,1.6-1.1,2.5-1.5c0.9-0.5,1.8-1.1,2.6-1.8c0.7-0.6,1.5-1,2.3-1.5c0.9-0.3,1.7-0.8,2.5-1.3
	c0.7-0.5,1.4-0.9,2.2-1.3c1.1-0.5,2.2-1.1,3.2-1.8l1.2-0.6v-0.3c-0.5,0.2-1,0.4-1.5,0.6c-1.1,0.4-2.2,0.9-3.2,1.5
	c-1.6,0.8-3.2,1.6-4.8,2.5c-1.8,0.9-3.5,2-5.1,3.1c-1.6,1-3.2,2.1-4.7,3.3c-1.6,1.3-2.9,2.4-4.1,3.4c-0.5,0.5-1,1-1.6,1.5
	c-0.5,0.4-0.9,0.8-1.3,1.2l-0.9,0.9h0.3L492.6,213.7z"/>
<path class="st0" d="M491,212c0.7-0.4,1.4-0.8,2-1.3c0.9-0.4,1.8-0.9,2.6-1.5c0.8-0.6,1.7-1.2,2.6-1.8c0.4-0.4,0.9-0.7,1.5-0.9
	c0.5-0.2,1.1-0.5,1.5-0.9c0.5-0.3,1-0.6,1.6-0.7c0.6-0.1,1.1-0.4,1.6-0.7c1-0.6,2.1-1.2,3.2-1.8c1-0.4,2-0.9,2.9-1.5
	c1-0.4,1.9-0.7,2.9-1c0.9-0.3,1.8-0.6,2.6-1c0.8-0.3,1.5-0.5,2.3-0.6c0.3-0.2,0.6-0.3,1-0.3c0.4,0,0.7-0.1,1-0.3h1.2
	c0.1,0,0.3-0.1,0.3-0.2c0,0,0,0,0-0.1h-3.5c-0.9,0-1.8,0.1-2.6,0.3c-1,0.1-2,0.3-2.9,0.6c-0.5,0.2-1,0.4-1.5,0.4
	c-0.5,0.1-1,0.2-1.5,0.4c-1.1,0.4-2.3,0.8-3.4,1.3c-1.1,0.5-2.2,1-3.4,1.6c-1,0.6-2,1.2-3.1,1.8c-1.1,0.6-2.1,1.2-3.1,2
	c-1.7,1.1-3.2,2.4-4.7,3.8c-1.2,0.8-2.3,1.8-3.2,2.9c-0.4,0.2-0.6,0.3-0.6,0.4s-0.1,0.2-0.3,0.4l-0.3,0.3c0.5-0.3,1-0.6,1.5-0.9
	C489.9,212.6,490.4,212.2,491,212z"/>
<path class="st0" d="M504.3,207.3c0.4-1,0.9-2,1.5-3.2l-1.2,2.3C504.4,206.7,504.3,207,504.3,207.3z"/>
<path class="st0" d="M509,201.3c-0.7,0.5-1.4,1-2,1.6c-0.9,0.8-1.6,1.6-2.3,2.5l-4.1,4.1l-1.2,1.8l-0.6,0.6c0.2,0,0.4-0.1,0.6-0.3
	c0.5-0.5,1.1-1,1.8-1.5c0.6-0.6,1.3-1.2,2-1.8c0.9-0.7,1.7-1.5,2.3-2.3l2.2-2.2c0.7-0.7,1.3-1.4,1.9-2.2c0.3-0.5,0.7-1,1.2-1.5
	l0.6-0.6c-0.3,0.1-0.6,0.3-0.9,0.6C509.9,200.4,509.4,200.8,509,201.3z"/>
<path class="st0" d="M500.8,206.1h8.3c1.3,0,2.5,0.1,3.8,0.3c1.4,0,2.6,0,3.8-0.1s2.3-0.1,3.5-0.1h6.7c-0.6-0.2-1.2-0.3-1.8-0.3H523
	c-0.9,0-1.9-0.1-2.8-0.3h-3.4c-1.3,0-2.6-0.1-4-0.3h-3.8c-1.4,0-2.7-0.1-4.1-0.3h-15.2c-0.9,0-1.9,0-2.8,0.1
	c-0.7,0.1-1.5,0.1-2.2,0.1h-1.8c0.6,0.2,1.2,0.3,1.8,0.3h5c1.1,0.2,2.1,0.3,3.2,0.3h3.8C498.1,206,499.5,206.1,500.8,206.1z"/>
<path class="st0" d="M523,206c-1,0-2-0.1-2.9-0.3c-1.1-0.2-2.2-0.3-3.4-0.3c-1.3,0-2.6-0.1-4-0.3h-4.4c-1.5,0-2.9-0.1-4.4-0.3h-16.1
	c-1,0-2.1,0-3.1,0.1c-0.7,0.1-1.5,0.1-2.2,0.1c0.7,0,1.5,0.1,2.2,0.1c1,0.1,2,0.2,3.1,0.1c1,0,2.1,0,3.4,0.1
	c1.3,0.1,2.7,0.2,4.2,0.2c1.3,0,2.7,0,4.1,0.1c1.4,0.1,2.8,0.1,4.4,0.1l23.4,0.6c-0.7,0-1.3-0.1-2-0.3
	C524.6,206.1,523.8,206,523,206z"/>
<path class="st0" d="M498.6,222.8c0.3-0.9,0.6-1.8,1-2.8c0.4-1.1,0.9-2.1,1.5-3.1c0.6-1.1,1.1-2.2,1.5-3.4c0.4-1.4,0.9-2.7,1.5-4
	c0.6-1.3,1.2-2.6,1.7-3.9c0.4-1.4,0.9-2.7,1.5-3.9c0.6-1.2,1-2.4,1.5-3.7c0.7-2.4,1.6-4.7,2.6-7c0.4-0.9,0.6-1.7,0.9-2.6
	c0.2-0.8,0.4-1.5,0.6-2c0.1-0.6,0.3-1.2,0.6-1.8l-0.9,1.8c-0.4,0.6-0.7,1.3-1,2c-0.3,0.8-0.6,1.7-1,2.6s-0.8,2-1.3,3.1
	c-0.5,1.1-0.9,2.2-1.3,3.4c-0.6,1.3-1.1,2.6-1.6,3.9s-1,2.6-1.6,3.9c-0.4,1.4-0.9,2.7-1.5,3.9c-0.6,1.2-1,2.4-1.5,3.7
	c-1,2.7-1.9,5.1-2.6,7c-0.7,1.5-1.3,3.1-1.8,4.7c-0.2,0.8-0.4,1.4-0.6,2l0.9-1.8C498,224.3,498.3,223.5,498.6,222.8z"/>
<path class="st0" d="M496.4,215.6c0.8-0.6,1.5-1.2,2.2-1.8s1.4-1.2,2.2-2l2.2-2.2c0.8-0.8,1.5-1.6,2.2-2.5c2.9-2.9,5.6-6,7.9-9.4
	c0.4-0.6,0.8-1.2,1.3-1.8c0.5-0.6,0.9-1.1,1.3-1.5c0.3-0.5,0.6-1,0.9-1.5c-0.3,0.4-0.6,0.8-0.9,1.2c-0.4,0.4-0.8,0.9-1.3,1.5
	c-0.5,0.6-0.9,1.1-1.3,1.8c-1.2,1.3-2.4,2.8-3.8,4.4s-2.8,3.3-4.4,5c-2.6,3-5.5,5.9-8.5,8.5c-0.6,0.5-1.2,1-1.8,1.6
	c-0.4,0.5-0.8,0.9-1.2,1.3c0.4-0.4,0.9-0.8,1.3-1.2C495.3,216.7,495.9,216.2,496.4,215.6z"/>
<path class="st0" d="M491.4,237.3c1.5-3.1,3-6.4,4.5-9.9c1.6-3.3,3.1-6.7,4.7-10.2s3.1-7.1,4.7-10.8c1.6-3.7,3.1-7.4,4.7-11
	s3.1-7.1,4.7-10.4c1.6-3.3,3-6.6,4.4-9.8c1.4-3.2,2.6-6.2,3.8-8.9c1.2-2.7,2.2-5.2,3.1-7.5s1.7-4.1,2.5-5.7c0.8-1.9,1.3-3.2,1.5-3.8
	l-0.7,1.5l-1,2c-1.1,1.8-2.1,3.6-2.9,5.6c-1,2.1-2.1,4.6-3.5,7.3c-1.4,2.7-2.7,5.6-4.1,8.8c-1.3,3.1-2.8,6.3-4.4,9.6
	c-1.6,3.3-3.2,6.8-4.8,10.4c-1.7,3.6-3.3,7.3-4.8,11c-1.6,3.7-3.1,7.4-4.7,11c-1.6,3.6-3.1,7.1-4.7,10.4s-3,6.6-4.2,9.8
	c-1.3,3.2-2.5,6.2-3.7,8.9c-1.2,2.7-2.1,5.3-2.9,7.6c-0.6,2-1.4,4-2.3,5.9c-0.3,0.8-0.6,1.5-0.7,2.3c-0.1,0.3-0.1,0.6-0.2,0.9
	c0.3-0.7,0.8-1.7,1.5-3.2c0.8-1.6,1.7-3.4,2.6-5.6s2-4.6,3.2-7.3C488.7,243.3,490,240.4,491.4,237.3z"/>
<path class="st0" d="M514.1,187.3c-0.1,0.2-0.3,0.4-0.4,0.6l-1.2,1.8c-0.4,0.6-0.9,1.4-1.5,2.3c-1,1.8-2.1,3.8-3.4,6.1
	s-2.5,4.7-3.7,7c-1.2,2.5-2.3,5-3.4,7.3c-1.1,2.3-2,4.4-2.8,6.1c-0.7,1.5-1.3,3.1-1.8,4.7l-0.9,1.8l0.3-0.3c0.4-0.3,0.7-0.7,0.9-1.2
	c0.8-1.5,1.7-3,2.6-4.4c1-1.6,2.1-3.5,3.4-5.9c1.3-2.3,2.5-4.7,3.7-7c1.2-2.5,2.3-5,3.4-7.3s2-4.5,2.8-6.4c0.8-1.8,1.4-3.2,1.8-4.4
	l0.9-1.8l-0.3,0.3C514.3,186.8,514.2,187,514.1,187.3z"/>
<path class="st0" d="M516.3,200.7c-0.5,0.3-1,0.6-1.6,1s-1.2,0.8-1.9,1.3c-0.7,0.5-1.4,0.9-2.2,1.3c-0.3,0.3-0.7,0.6-1.2,0.7
	c-0.4,0.1-0.9,0.4-1.2,0.7c-0.4,0.2-0.8,0.4-1.3,0.6s-0.9,0.4-1.3,0.6s-0.8,0.4-1.3,0.6s-0.9,0.4-1.3,0.6l-1.2,0.6l-1.2,0.6
	c-0.8,0.3-1.7,0.5-2.6,0.6c-0.3,0.2-0.7,0.3-1,0.4c-0.3,0.1-0.7,0.3-1,0.4c-0.3,0-0.7,0-1,0.1c-0.3,0.1-0.7,0.2-1,0.1
	c-0.5,0.2-1,0.3-1.5,0.3c-0.3,0.2-0.6,0.3-0.9,0.3h-0.3c0,0.1,0.1,0.3,0.2,0.3c0,0,0,0,0.1,0h4.7c0.8,0,1.6-0.1,2.3-0.3
	c0.9-0.1,1.8-0.3,2.6-0.6c1-0.4,1.9-0.7,2.6-1c0.8-0.3,1.7-0.6,2.6-1c1.6-0.8,3.3-1.8,5.3-2.9c0.7-0.5,1.4-1.1,2-1.8
	c0.5-0.5,1.1-1,1.8-1.5c0.5-0.3,1-0.8,1.3-1.3c0.3-0.5,0.6-0.9,1-1.3l0.9-0.9l-1.2,0.6C517.2,200.2,516.8,200.4,516.3,200.7z"/>
<path class="st0" d="M493,231.7c0.8-1.2,1.5-2.5,2-3.8c0.6-1.3,1.3-2.8,2-4.4c1.3-2.7,2.6-5.6,4-8.6c1.3-3,2.7-6,4.2-8.9
	c1.6-3.1,3-6.2,4.4-9.2c1.4-3,2.7-5.9,4.1-8.6c1.3-2.9,2.6-5.7,3.7-8.3c1.1-2.6,2.1-5.1,3.1-7.5c1-2.1,1.9-4.2,2.8-6.1
	c0.7-1.6,1.4-3.3,1.9-5c0.4-0.5,0.6-1.1,0.7-1.8c0.1-0.5,0.2-1,0.4-1.5l0,0l-1.5,2.9c-0.8,1.3-1.6,2.9-2.5,4.8s-1.9,3.9-3.1,6
	c-1,2.3-2.1,4.8-3.4,7.5c-1.3,2.6-2.6,5.3-4,8c-1.6,2.7-3,5.6-4.4,8.6c-1.4,3-2.8,6-4.4,8.9c-1.3,3.1-2.7,6.2-4.1,9.2
	c-1.4,3-2.8,6-4.1,8.9c-1.2,2.7-2.3,5.5-3.4,8.2c-1.1,2.7-2.1,5.3-3.1,7.6c-1.8,4.7-3.1,8.5-4.1,11.4c-0.3,0.6-0.5,1.2-0.6,1.9
	c0,0.5-0.1,0.9-0.3,1.3l0.6-1.2l0.9-1.8c0.2-0.8,0.4-1.6,0.7-2.3c0.3-0.8,0.6-1.7,1-2.6c0.4-1,0.8-2,1.3-3.1c0.5-1.1,1-2.1,1.6-3.1
	c0.4-1.2,0.9-2.5,1.5-3.7C491.8,234.4,492.4,233.1,493,231.7z"/>
<path class="st0" d="M526.6,177.9c-0.6,1-1.3,2.1-2.2,3.4c-0.9,1.3-1.8,2.7-2.8,4.2c-2.1,3.3-4.5,6.8-7,10.5c-1.3,2.1-2.7,4.1-4.2,6
	c-1.5,1.9-3,3.9-4.5,6c-1.6,2.1-3.1,4.1-4.5,6c-1.5,1.9-3,3.7-4.5,5.4l-4.4,5.2l-2.2,2.2c-0.7,0.7-1.3,1.4-1.9,2.2l-6.4,6.4
	c1-0.8,2-1.7,2.9-2.6c1.4-1,2.7-2.2,3.8-3.5c1.6-1.2,3.1-2.6,4.5-4.1c1.5-1.6,3-3.2,4.5-5c1.6-1.9,3.1-3.8,4.5-5.7
	c1.5-1.9,3-3.9,4.5-6c3.2-3.8,6.1-7.8,8.8-12c1.3-1.9,2.6-3.8,3.7-5.7c1.1-1.9,2.1-3.6,3.1-5.1c1-1.6,1.9-3,2.6-4.2
	c0.8-1.3,1.5-2.4,2-3.4c0.3-0.3,0.6-0.7,0.7-1.2c0.1-0.4,0.3-0.8,0.4-1.2c-0.2,0.3-0.4,0.7-0.6,1C527.2,177.2,527,177.6,526.6,177.9
	z"/>
<path class="st0" d="M505.3,205.8c-0.1-0.2-0.4-0.3-0.6-0.3L505.3,205.8z"/>
<path class="st0" d="M525.5,195.6c-0.9,1-1.9,1.9-2.9,2.8l-1.5,1.5c-0.5,0.5-1.1,1-1.8,1.5c-0.6,0.6-1.2,1.2-1.9,1.8
	c-0.7,0.6-1.3,1.2-1.9,1.8l-4.4,3.5l-4.4,3.5c-0.9,0.3-1.7,0.8-2.5,1.5c-0.7,0.6-1.4,1.1-2.2,1.5c-0.4,0.4-0.8,0.6-1.3,0.7
	c-0.5,0.1-1,0.4-1.3,0.7c-0.8,0.3-1.5,0.6-2.3,0.9c-0.3,0.3-0.7,0.6-1.2,0.6c-0.4,0-0.8,0.1-1.2,0.3c-0.8,0.3-1.6,0.5-2.3,0.9h-1.2
	c-0.3,0-0.5,0-0.7,0.1c-0.1,0.1-0.3,0.2-0.4,0.1h-2.3c-0.3,0-0.7,0-1-0.1c-0.3-0.1-0.7-0.2-1-0.1c-0.3-0.2-0.6-0.3-0.9-0.3
	c-0.3,0-0.6-0.1-0.9-0.3c-0.5-0.1-1-0.3-1.5-0.6c-0.5,0-0.9-0.2-1.2-0.6l-0.9-0.4c0.3,0.2,0.6,0.4,0.9,0.7l1.2,0.6
	c0.4,0.4,0.9,0.6,1.5,0.9l1.8,0.6c0.6,0.2,1.3,0.3,2,0.3h3.5c0.4,0.1,0.8-0.1,1.2-0.3c0.9-0.1,1.8-0.3,2.6-0.6
	c0.8-0.1,1.6-0.3,2.3-0.6c0.8-0.5,1.7-0.9,2.6-1.2c0.3-0.3,0.7-0.6,1.2-0.7c0.4-0.1,0.9-0.4,1.2-0.7c0.9-0.4,1.8-0.9,2.6-1.5
	c0.7-0.6,1.5-1,2.3-1.5l2.3-1.8l2.3-1.8c0.6-0.6,1.2-1.2,1.9-1.8s1.4-1.2,2.2-1.8l7-7c1-1,1.9-1.9,2.6-2.8c0.8-0.9,1.5-1.6,2-2.2
	c0.3-0.3,0.5-0.6,0.7-0.9c0.1-0.2,0.3-0.4,0.4-0.6l0.6-0.6l-1.8,1.8C526.9,194.1,526.1,194.8,525.5,195.6z"/>
<path class="st0" d="M514.1,183.9l-1.6,3.2c-0.4,1.4-0.9,2.8-1.6,4.1l-2.2,4.4c-0.6,1.6-1.2,3.2-1.9,4.8c-0.7,1.7-1.4,3.4-2.2,5.1
	c-0.8,1.6-1.5,3.2-2.2,4.8s-1.3,3.3-1.9,4.8c-0.8,1.6-1.4,3.1-2,4.5c-0.6,1.5-1.1,2.9-1.8,4.2c-0.4,1.3-0.8,2.5-1.2,3.5
	c-0.4,1-0.8,1.9-1.2,2.6c-0.4,0.7-0.7,1.5-0.9,2.3l1.2-2.3c0.4-0.8,0.8-1.6,1.2-2.5s0.9-2,1.5-3.4s1.2-2.7,1.9-4.1
	c0.7-1.4,1.3-2.9,1.9-4.4c0.8-1.6,1.5-3.2,2.2-4.8s1.4-3.4,2.2-5.1c1.6-3.5,2.9-6.8,4.1-9.9c1.4-2.7,2.5-5.6,3.5-8.5
	c0.4-1.1,0.8-2.3,1.3-3.4c0.5-1.1,0.9-2,1.3-2.8c0.4-0.7,0.7-1.5,0.9-2.3l-1.2,2.3L514.1,183.9z"/>
<path class="st0" d="M504.8,206.3c0.3-0.6,0.6-1.3,0.9-2h-0.3c-0.3,0.9-0.6,1.9-1,2.9C504.5,206.9,504.6,206.5,504.8,206.3z"/>
<path class="st0" d="M779.2,187.3l-1.2,2.9c-0.4,1-0.9,2-1.5,3.2c-0.6,1.2-1.1,2.5-1.5,3.8c-0.6,1.3-1.2,2.6-1.8,3.9
	c-0.6,1.3-1.2,2.7-1.8,4.2c-0.4,1.5-0.8,2.9-1.5,4.2c-0.6,1.3-1.1,2.6-1.5,4c-0.8,2.5-1.7,5-2.6,7.3c-0.8,1.7-1.3,3.5-1.8,5.3
	c-0.2,0.8-0.4,1.5-0.6,2l0.9-1.8c0.4-0.7,0.8-1.4,1-2.2l1-3.1c0.4-1,0.9-2,1.5-3.2c0.6-1.2,1.1-2.5,1.5-3.8c0.6-1.4,1.1-2.7,1.6-4.1
	s1-2.8,1.6-4.4c1-2.7,2-5.5,3.1-8.2c1.1-2.7,2-5.2,2.8-7.3c0.8-2.3,1.7-4.7,2.6-7l-0.9,1.8C779.9,185.6,779.5,186.4,779.2,187.3z"/>
<path class="st0" d="M489,225.6l1-1.5c1-1.3,2-2.8,3.2-4.4c1-1.6,2.1-3.2,3.4-4.8c1.3-1.7,2.6-3.3,4-4.8c2.3-3.1,4.9-6.2,7.6-9.4
	c2.2-2.8,4.5-5.4,7-7.9c1-1.2,1.9-2.2,2.8-3.1l2.2-2.2c0.3-0.3,0.6-0.6,0.7-1c0.1-0.3,0.2-0.5,0.4-0.7l-1.5,1.5
	c-0.6,0.6-1.4,1.3-2.3,2.2c-1,1-2,2-2.9,3.1c-1.2,1-2.4,2.2-3.5,3.4c-1.2,1.3-2.4,2.7-3.8,4.2s-2.7,3.1-4,4.7
	c-1.3,1.6-2.6,3.1-4,4.7c-1.2,1.6-2.4,3.2-3.7,4.8c-1.3,1.7-2.4,3.3-3.4,4.8c-1.1,1.5-2.1,3-3.1,4.5c-0.2,0.3-0.4,0.6-0.6,0.9
	C488.8,224.9,488.9,225.2,489,225.6z"/>
<path class="st0" d="M509.5,197.7c0.4-1.4,0.6-2.9,0.7-4.4c0.1-1.4,0.2-2.6,0.4-3.8v-7.3c0,0.2-0.1,0.5-0.2,0.7
	c-0.1,0.3-0.2,0.7-0.2,1c0,0.6,0,1.4-0.2,2.3s-0.2,2-0.4,3.2s-0.3,2.4-0.4,3.7c-0.1,1.4-0.4,2.8-0.7,4.2c-0.4,1.6-0.7,3-1,4.4
	s-0.6,2.8-1,4.4c-0.4,1.6-0.8,3.1-1.2,4.5s-0.8,3-1.2,4.5c-0.4,1.3-0.8,2.7-1.3,4c-0.5,1.3-0.9,2.4-1.3,3.4l-1,3.1
	c-0.2,0.8-0.6,1.5-1,2.2c-0.2,0.5-0.3,1-0.3,1.5l0.6-1.2c0.4-0.7,0.8-1.4,1.2-2.2c0.4-0.9,0.8-1.9,1.2-3.1c0.4-1,0.9-2.1,1.5-3.4
	c0.6-1.3,1.1-2.6,1.5-4c0.4-1.6,0.8-3.1,1.3-4.5c0.5-1.5,0.9-3,1.3-4.5c0.4-1.6,0.7-3.1,1-4.5S509.4,199,509.5,197.7z"/>
<path class="st0" d="M505.3,205.7c0.1,0,0.3-0.1,0.3-0.2c0,0,0,0,0-0.1l-1.2,0.6c0.2,0,0.3,0,0.4-0.1
	C505,205.7,505.1,205.7,505.3,205.7z"/>
<path class="st0" d="M502.2,205.5c-0.6,0.7-1.2,1.3-1.8,1.9c-0.6,0.8-1.1,1.5-1.6,2c-0.5,0.6-0.9,1.1-1.3,1.8
	c-0.7,0.8-1.3,1.7-1.8,2.6l-0.6,1.2l0.9-0.9c0.4-0.4,0.7-0.8,1-1.2c0.3-0.4,0.6-0.9,1-1.5c1-1,2-2.1,3.1-3.4
	c1.1-1.3,2.3-2.5,3.7-3.7c1-1.4,2.3-2.6,3.8-3.5l1.8-1.8c0.3-0.1,0.6-0.3,0.9-0.6c0.3-0.2,0.6-0.4,0.9-0.6c1-0.4,1.8-1,2.6-1.8
	c-1,0.3-2,0.7-2.9,1.2c-0.6,0.4-1.2,0.8-1.9,1.3s-1.3,0.9-1.9,1.3c-0.8,0.6-1.5,1.2-2.2,1.8c-0.7,0.6-1.3,1.2-1.9,1.8
	S502.8,204.9,502.2,205.5z"/>
<path class="st0" d="M491.3,223.5c0.7-1.1,1.5-2.1,2.3-3.1c0.8-1.2,1.7-2.4,2.6-3.7s1.9-2.6,2.9-4c1-1.3,2-2.7,3.1-4.1
	c1.1-1.4,2.1-2.9,3.1-4.4c1.2-1.6,2.3-3,3.4-4.4s2.1-2.7,3.1-4.1c1-1.3,1.9-2.6,2.9-3.8c1-1.2,1.9-2.3,2.9-3.2
	c0.9-0.9,1.7-1.9,2.3-2.9c0.5-0.8,1.1-1.6,1.8-2.3l-4.7,4.7c-1,1-2,2.1-2.9,3.2s-1.9,2.4-2.9,3.8c-1.2,1.3-2.3,2.7-3.4,4.1
	c-1.1,1.4-2.2,2.9-3.4,4.4c-0.9,1.5-2,3-3.1,4.4c-1.1,1.3-2.1,2.7-3.1,4.1c-1,1.6-1.9,3-2.8,4.2c-0.9,1.3-1.7,2.4-2.5,3.4
	c-0.8,1.2-1.4,2.2-2,3.2s-1.1,1.8-1.5,2.6c-0.5,0.6-0.9,1.3-1.2,2c0.4-0.6,0.9-1.3,1.5-2L491.3,223.5z"/>
<path class="st0" d="M504.9,207.1c0.2-0.6,0.4-1.2,0.5-1.8c0.4-1.3,0.7-2.4,1-3.3c-0.4,1.1-0.8,2.2-1.3,3.3c-0.5,1.1-1,2.6-1.5,4
	L504.9,207.1z"/>
<path class="st0" d="M525.6,208.5c-5.4-3.1-10.1-7.2-13.9-12.1c-3.6-4.7-6.5-9.9-8.6-15.4c-5.2,7.1-9.6,14.7-13.2,22.8
	c-3.7,8.4-5.6,17.4-5.6,26.6c7.5-0.1,14.9-2.2,21.3-6C513.1,220.1,519.8,214.7,525.6,208.5z"/>
<path class="st0" d="M523.6,156.3c-0.9,2.3-1.8,4.7-2.7,7l-25.7,64.4c-4.1,10.3-8,20-11.7,29l0.3,0.3c0.2-0.7,0.5-1.4,0.9-2
	c0.4-0.8,0.8-1.6,1.2-2.5c0.4-0.9,0.9-2,1.5-3.4c1.2-3.1,2.5-6.2,4-9.2c1.7-3.4,3.4-7.4,5.1-11.8c2-4.3,4-8.9,6.1-13.9
	s4.3-10.2,6.4-15.6c2.1-5.5,4.4-11.1,6.9-16.8s4.8-11.6,7.2-17.4c1.2-3.3,2.5-6.5,3.7-9.8C525.6,155.1,524.6,155.7,523.6,156.3z"/>
<path class="st0" d="M523.1,178.5c0.2-1.3,0.4-2.6,0.6-3.9c0.4-2.5,0.7-4.8,0.9-6.7c0.2-2,0.4-3.7,0.6-5.3c0-0.6,0-1.3,0.2-1.9
	c0.1-0.4,0.1-0.9,0.2-1.3v-1.2l-0.9,4.4c-0.4,1.6-0.8,3.3-1.2,5.3c-0.4,1.9-0.8,4.1-1.2,6.4c-0.2,1.3-0.4,2.7-0.6,3.9
	c-0.2,1.3-0.5,2.7-0.9,3.9c-0.4,1.6-0.7,3-1,4.4s-0.6,2.8-1,4.4c-0.4,1.6-0.8,3.1-1.3,4.5c-0.5,1.5-0.9,3-1.3,4.5
	c-0.4,1.6-0.8,3.1-1.3,4.7c-0.5,1.6-1.1,3.2-1.9,4.7c-0.2,1-0.4,1.8-0.6,2.5c-0.2,0.8-0.5,1.5-0.9,2.2c-0.4,0.8-0.7,1.5-1,2.3
	c-0.3,0.8-0.6,1.6-1,2.3c-0.4,0.8-0.7,1.5-1,2.2s-0.6,1.4-1,2.2c-0.4,0.6-0.7,1.2-1,1.9c-0.3,0.7-0.6,1.4-1,2.2
	c-0.9,1.2-1.7,2.6-2.3,4c-0.6,1.3-1.4,2.5-2.3,3.7l-1.2,1.8l-1.2,1.8c-0.4,0.4-0.8,0.9-1.2,1.5c-0.3,0.5-0.7,1-1.2,1.5
	c-0.8,1-1.5,1.9-2.2,2.6s-1.4,1.6-2.2,2.3c-0.5,0.7-1.1,1.4-1.8,2c-0.7,0.5-1.4,1.1-2,1.8l-3.2,3.2l0.9-0.9c0.4-0.4,0.8-0.7,1.3-1
	c0.5-0.3,1-0.6,1.6-1c0.6-0.4,1.2-0.9,1.8-1.5c0.3-0.3,0.6-0.6,1-0.9c0.4-0.3,0.7-0.6,1-0.9l2.3-2.3l2.6-2.6
	c0.4-0.4,0.8-0.9,1.2-1.5c0.4-0.6,0.9-1.1,1.5-1.5l1.2-1.8l1.2-1.8c2-2.3,3.7-4.8,5-7.6c0.4-0.6,0.8-1.2,1.2-1.9s0.8-1.4,1.2-2.2
	s0.7-1.5,1-2.2s0.6-1.4,1-2.2c0.9-1.5,1.6-3,2-4.7c0.4-0.7,0.7-1.4,0.9-2.2c0.2-0.8,0.5-1.7,0.9-2.5c0.6-1.6,1.1-3.1,1.6-4.7
	c0.5-1.6,1-3.1,1.6-4.7c0.4-1.6,0.8-3.1,1.2-4.7l1.2-4.7c0.4-1.5,0.7-3,0.9-4.5c0.2-1.5,0.5-3,0.9-4.5
	C522.8,181.1,522.9,179.8,523.1,178.5z"/>
<path class="st0" d="M513.5,241.9c4.7-7.2,8.7-14.9,11.7-23c6.4-16.5,10.9-33.6,13.5-51c1.1-7,1.7-14.1,1.8-21.2
	c-4.3,1.3-9.7,5.2-16.1,11.7c-5.7,5.5-12.9,13.7-21.6,24.7c-8.8,11-19.5,26.4-32.2,46c-0.4,3.3-0.7,7-0.9,11.1
	c-0.2,3.9,0,7.7,0.6,11.5c0.4,3.2,1.6,6.3,3.4,9.1c1.6,2.4,4.3,3.8,7.2,3.7c6.5,0,12.8-2.2,17.8-6.3
	C504.4,253.7,509.5,248.2,513.5,241.9z"/>
<path class="st0" d="M518.5,197.8c-0.7,0.9-1.5,1.8-2.3,2.6l-2.6,2.6c-1.1,0.9-2.2,1.9-3.2,2.9c-1,0.9-2.1,1.8-3.2,2.6
	c-1.2,0.7-2.4,1.5-3.5,2.3c-0.6,0.4-1.1,0.7-1.8,1c-0.6,0.3-1.2,0.6-1.8,1c-1.1,0.5-2.2,1.1-3.2,1.8l-1.8,0.6
	c-0.5,0.2-1,0.4-1.5,0.6c-2,0.8-3.6,1.4-5,1.8c-0.5,0.2-1,0.3-1.5,0.3c-0.1,0-0.3,0.1-0.3,0.2c0,0,0,0,0,0.1h0.3
	c0.5,0,1-0.1,1.5-0.3c0.8-0.2,1.6-0.4,2.5-0.6c0.9-0.2,1.9-0.5,2.8-0.9c0.5-0.2,1-0.4,1.5-0.4c0.6-0.1,1.2-0.4,1.8-0.7
	c1.2-0.4,2.4-0.9,3.5-1.5c1.2-0.6,2.4-1.2,3.5-2c1.4-0.6,2.6-1.4,3.8-2.3c2.2-1.8,4.2-3.7,6.1-5.7c1.9-2,3.6-3.9,5-5.4
	c0.8-1,1.4-1.8,1.9-2.3c0.5-0.6,0.9-1.2,1.3-1.8c0.2-0.2,0.3-0.4,0.4-0.6c0.1-0.2,0.3-0.4,0.4-0.6L518.5,197.8z"/>
<path class="st0" d="M502.2,208.3l2.2-2.2c0.7-0.7,1.3-1.4,1.9-2.2l2.9-2.9l2.9-2.9c-0.3,0.2-0.6,0.4-0.9,0.6
	c-0.4,0.2-0.8,0.5-1.2,0.7c-0.4,0.3-0.8,0.6-1.2,1c-1,1-2.1,2-3.4,3.1c-1.3,1.1-2.7,2.4-4.2,4l-2.6,2.6c-0.2,0.5-0.3,1.1-0.4,1.6
	c-0.1,0.5-0.3,1.1-0.4,1.6c0.8-1,1.5-1.8,2.2-2.6S501.4,209.1,502.2,208.3z"/>
<path class="st0" d="M513.9,194.6c0.6-1.1,1.1-2.3,1.5-3.5c1.3-4.7,2.5-8.5,3.5-11.4c0.2-1,0.5-2,0.9-2.9c-0.2,0.4-0.4,0.8-0.6,1.3
	c-0.2,0.5-0.4,1-0.6,1.6c-0.4,1.3-0.9,3-1.6,5c-0.7,2-1.5,4-2.5,6.1c-0.4,1.2-0.8,2.3-1.3,3.5c-0.5,1.2-1,2.4-1.6,3.8
	c-0.6,1.3-1.2,2.6-1.8,3.9c-0.6,1.3-1.2,2.6-2,4c-0.6,1.4-1.3,2.8-2,4.1c-0.4,0.8-0.7,1.5-1,2.2c-0.3,0.7-0.6,1.3-1,1.9
	c-1,1.6-1.9,3-2.6,4.2s-1.6,2.7-2.5,4.2c-1,1.3-1.9,2.6-2.8,4c-0.9,1.3-1.8,2.6-2.8,4c-0.4,0.7-0.9,1.4-1.5,2
	c-0.6,0.6-1.1,1.3-1.5,2h1.2l2.6-3.5c1-1.3,1.9-2.6,2.8-4c0.9-1.3,1.8-2.6,2.8-4c1-1.6,1.9-3,2.6-4.2s1.6-2.7,2.3-4.2l1-2l1-2
	c0.4-0.8,0.7-1.5,1-2.2c0.3-0.7,0.6-1.4,1-2.2c0.8-1.4,1.5-2.7,2-3.9s1.2-2.6,1.8-3.9C512.7,197.1,513.3,195.8,513.9,194.6z"/>
<path class="st0" d="M509.5,197.7c0.4-1.4,0.6-2.9,0.7-4.4c0.1-1.4,0.2-2.6,0.4-3.8v-7.3c0,0.2-0.1,0.5-0.2,0.7
	c-0.1,0.3-0.2,0.7-0.2,1c0,0.6,0,1.4-0.2,2.3s-0.2,2-0.4,3.2s-0.3,2.4-0.4,3.7c-0.1,1.4-0.4,2.8-0.7,4.2c-0.4,1.6-0.7,3-1,4.4
	s-0.6,2.8-1,4.4c-0.4,1.6-0.8,3.1-1.2,4.5s-0.8,3-1.2,4.5c-0.4,1.3-0.8,2.7-1.3,4c-0.5,1.3-0.9,2.4-1.3,3.4l-1,3.1
	c-0.2,0.8-0.6,1.5-1,2.2c-0.2,0.5-0.3,1-0.3,1.5l0.6-1.2c0.4-0.7,0.8-1.4,1.2-2.2c0.4-0.9,0.8-1.9,1.2-3.1c0.4-1,0.9-2.1,1.5-3.4
	c0.6-1.3,1.1-2.6,1.5-4c0.4-1.6,0.8-3.1,1.3-4.5c0.5-1.5,0.9-3,1.3-4.5c0.4-1.6,0.7-3.1,1-4.5S509.4,199,509.5,197.7z"/>
<path class="st0" d="M491,212c0.7-0.4,1.4-0.8,2-1.3c0.9-0.4,1.8-0.9,2.6-1.5c0.8-0.6,1.7-1.2,2.6-1.8c0.4-0.4,0.9-0.7,1.5-0.9
	c0.5-0.2,1.1-0.5,1.5-0.9c0.5-0.3,1-0.6,1.6-0.7c0.6-0.1,1.1-0.4,1.6-0.7c1-0.6,2.1-1.2,3.2-1.8c1-0.4,2-0.9,2.9-1.5
	c1-0.4,1.9-0.7,2.9-1c0.9-0.3,1.8-0.6,2.6-1c0.8-0.3,1.5-0.5,2.3-0.6c0.3-0.2,0.6-0.3,1-0.3c0.4,0,0.7-0.1,1-0.3h1.2
	c0.1,0,0.3-0.1,0.3-0.2c0,0,0,0,0-0.1h-3.5c-0.9,0-1.8,0.1-2.6,0.3c-1,0.1-2,0.3-2.9,0.6c-0.5,0.2-1,0.4-1.5,0.4
	c-0.5,0.1-1,0.2-1.5,0.4c-1.1,0.4-2.3,0.8-3.4,1.3c-1.1,0.5-2.2,1-3.4,1.6c-1,0.6-2,1.2-3.1,1.8c-1.1,0.6-2.1,1.2-3.1,2
	c-1.7,1.1-3.2,2.4-4.7,3.8c-1.2,0.8-2.3,1.8-3.2,2.9c-0.4,0.2-0.6,0.3-0.6,0.4s-0.1,0.2-0.3,0.4l-0.3,0.3c0.5-0.3,1-0.6,1.5-0.9
	C489.9,212.6,490.4,212.2,491,212z"/>
<path class="st0" d="M492.6,213.7c0.4-0.4,0.9-0.8,1.3-1.2c0.5-0.4,1-0.8,1.6-1.2s1.2-0.8,1.9-1.3s1.5-1,2.5-1.6
	c0.8-0.6,1.5-1.2,2.2-1.8c0.7-0.6,1.6-1.1,2.5-1.5c0.9-0.5,1.8-1.1,2.6-1.8c0.7-0.6,1.5-1,2.3-1.5c0.9-0.3,1.7-0.8,2.5-1.3
	c0.7-0.5,1.4-0.9,2.2-1.3c1.1-0.5,2.2-1.1,3.2-1.8l1.2-0.6v-0.3c-0.5,0.2-1,0.4-1.5,0.6c-1.1,0.4-2.2,0.9-3.2,1.5
	c-1.6,0.8-3.2,1.6-4.8,2.5c-1.8,0.9-3.5,2-5.1,3.1c-1.6,1-3.2,2.1-4.7,3.3c-1.6,1.3-2.9,2.4-4.1,3.4c-0.5,0.5-1,1-1.6,1.5
	c-0.5,0.4-0.9,0.8-1.3,1.2l-0.9,0.9h0.3L492.6,213.7z"/>
<path class="st0" d="M511.9,199.5c0-0.1-0.1-0.1-0.3-0.1l-3.2,3.2c-0.9,0.7-1.7,1.5-2.5,2.3c-0.7,0.7-1.4,1.4-2.2,2
	c-0.7,0.7-1.4,1.3-2.2,1.9c-0.6,0.4-1.1,0.8-1.6,1.3c-0.5,0.5-0.9,0.9-1.5,1.3c-0.2,0.1-0.4,0.3-0.6,0.5l2-1.5
	c0.7-0.4,1.3-0.9,1.9-1.5c0.7-0.6,1.4-1.2,2.2-1.8c0.8-0.6,1.6-1.2,2.3-1.9s1.7-1.5,2.6-2.5c0.6-0.4,1.1-0.9,1.6-1.5
	c0.5-0.6,1-1.2,1.6-1.8C512,199.7,511.9,199.6,511.9,199.5z"/>
<path class="st0" d="M524.5,207.3c2.6-6.5,4.7-13.2,6.4-20c1.5-5.6,2.2-11.4,2.3-17.2c0-4.5-1.8-6.7-5.3-6.7
	c-5.7,0-11.7,2.4-18.3,7.3c-6.8,5.1-12.8,11.1-18,17.8c2,2.6,3.6,5.5,4.7,8.6c1,2.8,1,4.7,0,5.7c-1,0.8-3.3,2.9-7,6.3
	c-4.4,4.2-8.6,8.6-12.6,13.3c-0.5,5.9,1.3,11.8,5,16.5c3.7,4.8,10.2,7.9,19.6,9.2c4.7-6.3,9.1-13,13-19.9
	C518.2,221.5,521.6,214.5,524.5,207.3z"/>
<path class="st0" d="M524.5,207.3c2.6-6.5,4.7-13.2,6.4-20c1.5-5.6,2.2-11.4,2.3-17.2c0-4.5-1.8-6.7-5.3-6.7
	c-5.7,0-11.7,2.4-18.3,7.3c-6.8,5.1-12.8,11.1-18,17.8c2,2.6,3.6,5.5,4.7,8.6c1,2.8,1,4.7,0,5.7c-1,0.8-3.3,2.9-7,6.3
	c-4.4,4.2-8.6,8.6-12.6,13.3c-0.5,5.9,1.3,11.8,5,16.5c3.7,4.8,10.2,7.9,19.6,9.2c4.7-6.3,9.1-13,13-19.9
	C518.2,221.5,521.6,214.5,524.5,207.3z"/>
<path class="st0" d="M525.6,208.5c-5.4-3.1-10.1-7.2-13.9-12.1c-3.6-4.7-6.5-9.9-8.6-15.4c-5.2,7.1-9.6,14.7-13.2,22.8
	c-3.7,8.4-5.6,17.4-5.6,26.6c7.5-0.1,14.9-2.2,21.3-6C513.1,220.1,519.8,214.7,525.6,208.5z"/>
<path class="st0" d="M513.9,194.6c0.6-1.1,1.1-2.3,1.5-3.5c1.3-4.7,2.5-8.5,3.5-11.4c0.2-1,0.5-2,0.9-2.9c-0.2,0.4-0.4,0.8-0.6,1.3
	c-0.2,0.5-0.4,1-0.6,1.6c-0.4,1.3-0.9,3-1.6,5c-0.7,2-1.5,4-2.5,6.1c-0.4,1.2-0.8,2.3-1.3,3.5c-0.5,1.2-1,2.4-1.6,3.8
	c-0.6,1.3-1.2,2.6-1.8,3.9c-0.6,1.3-1.2,2.6-2,4c-0.6,1.4-1.3,2.8-2,4.1c-0.4,0.8-0.7,1.5-1,2.2c-0.3,0.7-0.6,1.3-1,1.9
	c-1,1.6-1.9,3-2.6,4.2s-1.6,2.7-2.5,4.2c-1,1.3-1.9,2.6-2.8,4c-0.9,1.3-1.8,2.6-2.8,4c-0.4,0.7-0.9,1.4-1.5,2
	c-0.6,0.6-1.1,1.3-1.5,2h1.2l2.6-3.5c1-1.3,1.9-2.6,2.8-4c0.9-1.3,1.8-2.6,2.8-4c1-1.6,1.9-3,2.6-4.2s1.6-2.7,2.3-4.2l1-2l1-2
	c0.4-0.8,0.7-1.5,1-2.2c0.3-0.7,0.6-1.4,1-2.2c0.8-1.4,1.5-2.7,2-3.9s1.2-2.6,1.8-3.9C512.7,197.1,513.3,195.8,513.9,194.6z"/>
<path class="st1" d="M783.6,406.6c-2.8,0-5.6-0.5-8.2-1.3c-4.5-1.4-8.9-3.3-13.1-5.6c-4.6-2.5-8.9-5.5-12.9-8.9
	c-7.3-6.3-11-13.3-11-20.8c0-4,1-7.6,5.4-18.9c2.7-7.1,6.3-16.4,10.7-27.7c4.3-11.2,9.3-23.7,15.2-38.2l2.3-5.7
	c-4.2,4.3-8.7,8.2-13.5,11.9c-5.5,4.2-11.6,7.6-17.9,10.3c-6.6,2.8-13.8,4.3-21,4.4c-5.2,0-10.7-1.5-17.8-4.9
	c-6.2-3.1-12.1-7-17.3-11.6c-5.8-5.1-10.9-11-15-17.5c-1-1.6-2-3.3-2.8-5c-3.3,0.5-6.7,0.8-10,0.9c-2.6,3.1-5.2,6.1-7.9,9
	c-4.9,5.3-10.3,10.1-16,14.4c-5.5,4.2-11.6,7.6-17.9,10.3c-6.6,2.8-13.8,4.3-21,4.4c-5.2,0-10.7-1.5-17.8-4.9
	c-5.1-2.5-9.9-5.5-14.3-9.1l-1.4,1.1c-10.5,8.4-23.5,13-36.9,12.9c-6.1,0-12.5-1.4-19.6-4.4c-6.6-2.8-12.8-6.6-18.2-11.4
	c-0.5-0.4-1-0.9-1.5-1.4c-3.3,3-6.8,5.8-10.5,8.4c-8.5,5.8-17.3,8.7-26.2,8.7c-15.9,0-30-4.8-42-14.4c-4.5-3.6-8.6-7.5-12.4-11.7
	c-4.4,4.3-8.6,8.1-12.5,11.4c-4.2,3.5-8.6,6.7-13.3,9.4c-6.2,3.6-12,5.3-17.8,5.3c-5.6-0.1-11.1-1.6-16-4.5c-4-2.2-7.8-4.9-11.3-8
	c-3.5-3.1-6.6-6.6-9.3-10.4l-0.2-0.3c-4.7,4-9.7,7.8-14.9,11.3c-11.7,7.9-23.5,11.8-34.9,11.8c-6.8,0-13.6-1.8-19.4-5.3
	c-4.9-2.9-9.2-6.7-12.7-11.2c-0.6-0.8-1.2-1.6-1.8-2.5c-5.1,4.7-10.7,8.9-16.8,12.4c-7.7,4.4-15.4,6.6-23,6.6
	c-5.6-0.1-11-1.5-16-4.1l-0.7-0.4c-3,1.6-6.2,2.4-9.6,2.4c-0.7,0-1.9,0-7.3-0.3l-13.8-0.7c-5.4-0.3-11.8-0.5-18.8-0.7
	s-14.4-0.3-21.7-0.3s-14.9,0.1-22.4,0.4c-7,0.3-13.6,0.7-19.6,1.4c-2.1,0.4-4.1,0.7-5.9,0.9l-3.2,0.5c-1.5,0.4-3,0.5-4.5,0.5h-0.9
	c-8.9,0-14.8-3-18.7-6.3c-3.1-1.6-6-3.5-8.8-5.5C7,286.2,5.4,276.9,5.4,272c0-4.1,1-7.5,5.2-18.5c2.7-7,6.3-15.8,10.8-26.3
	s9.4-22,14.9-35c5.7-13.2,11.5-26.6,17.3-39.8s11.9-26.7,17.8-39.5s11.2-24.2,15.8-34c4.8-10.1,8.8-18.4,12-24.6
	c4.4-8.6,10-19.3,22.7-19.3c4.7,0,11.7,1.3,18.7,7.7c2.7,2.5,5.2,5.1,7.6,7.9c2.9,3.5,5.6,7.3,7.9,11.3l4.2,7.2
	c0.8,1.3,0.8,2.9,0.1,4.2l-4,7.3c-7.4,13.6-15,28.9-22.7,45.4c-7.8,16.7-15.4,33.7-22.6,50.5s-14,33.4-20.2,48.7l-5.4,13.6h17.1
	c8.1,0,16.3,0,24.3,0.1s14.9,0.2,21.1,0.3c0.7-2.1,1.5-4.4,2.5-6.8c2.9-7.4,6.5-15.9,10.6-25.1c4-9,8.4-18.5,13-28.4
	s8.8-18.8,12.7-27.2s7.1-15.4,9.6-21.2c2-4.6,2.7-6.6,2.9-7.3c1.7-10.6,10.3-18.1,20.6-18.1c5.8,0.1,11.3,2.2,15.7,5.9
	c2.5,2.1,4.9,4.3,7.1,6.8c2.3,2.6,4.4,5.3,6.4,8.2c1.8,2.6,3.4,5.4,4.7,8.2c1.5,3,2.5,6.2,3,9.5c5.1-8.2,9.4-14.9,13-20.4
	c5.8-9.1,11.9-18.5,23.7-18.5c8,0,15.6,3.5,20.8,9.6c3,3.6,5.5,7.6,7.2,12c1.6,3.9,2.7,7.9,3.4,12c0.5,2.9,0.8,5.8,0.8,8.8v1.9
	l-0.4,1.9c-0.4,2.1-1.2,4.5-4.4,12.9c-2.2,5.7-4.9,12.5-8,20.2l-1.4,3.5c4.4-7.5,8.9-15.5,10-17.9c2.4-5.4,5.1-11.1,8-17
	s5.7-11.5,8.4-16.9s5.3-10,7.6-13.9c3.2-5.6,5.8-9,8.6-11.5c3.7-3.6,8.6-5.5,13.7-5.6c4.5,0,9.1,0.8,13.4,2.2
	c4.3,1.3,8.4,3.2,12.2,5.5c4,2.5,7.6,5.6,10.6,9.3c4.2,5.1,6.5,11.4,6.5,18c0,7.6,0.3,14.9,1,21.8c7.1-10.6,13.7-20.5,19.7-29.5
	c6.3-9.6,11.7-17.6,16.1-23.8c5.4-7.7,12.1-17.3,23.8-17.3c4,0,11.7,1.1,18.4,8.8c2.6,3,4.8,6.3,6.5,9.9c1.8,3.6,3.2,7.3,4.2,11.2
	c0.7,2.7,1.2,5.4,1.5,8.2c2.1-4.9,4.2-9.8,6.3-14.6c5.4-12.3,10.7-24.3,15.7-35.5s9.7-21.3,13.7-29.9s7.2-15.6,9.6-21
	c1.2-2.7,1.9-4.3,2.4-5.3c1.7-10.5,10.9-18.2,21.5-18c5.8,0,10.3,2.5,14,4.8c7.1,4.5,13.2,10.5,18,17.4c4,5.4,6.2,12,6.2,18.7
	c0,4.6-1.3,9.1-5.3,18c-2.5,5.7-5.8,12.8-9.6,21.1c-4,8.6-8.5,18.4-13.5,29s-18.7,50.2-12.9,41.7c4.9-7.3,22-28.6,29.1-34.4
	c6.9-5.6,14.4-10.2,22.5-13.8c9.1-4.1,17.3-6,25.2-6c6.5,0,13.2,2.4,20.3,7.3c6.1,4.4,11.4,9.9,15.6,16.2
	c4.5,6.8,8.1,14.1,10.8,21.9c1.8,5.1,3.1,10.3,3.8,15.7l1.2-2.1c1.4-7,4.3-13.6,8.3-19.5c5-7.4,11.1-14,18.1-19.6
	c6.9-5.6,14.4-10.2,22.5-13.8c9.1-4.1,17.3-6,25.2-6c6.5,0,13.2,2.4,20.3,7.3c6.1,4.4,11.4,9.9,15.6,16.2
	c4.5,6.8,8.1,14.1,10.8,21.8c1.3,3.7,2.4,7.5,3.1,11.3c4-10.4,7.2-19.2,9.8-26.4c2-5.5,2.7-8.2,3-9.2c0.1-4,0.9-7.9,2.6-11.5
	c3.5-7.7,11.2-12.6,19.6-12.6h0.4h0.5c6.9,0.3,13.4,3.3,19.4,8.8c2.8,2.6,5.3,5.4,7.5,8.4c8.9-7,17.3-10.4,25.7-10.4
	c6.6,0.1,13.1,2.2,18.5,6c5.7,4,10.3,9.4,13.5,15.5c3.5,6.8,6,14,7.5,21.4c1.9,9.4,2.8,18.9,2.6,28.4c0,0.8,0,1.5,0,2.3
	c4.4-8.3,12.1-13.2,20.9-13.2c2.3,0,4.5,0.4,6.7,1c6.1,1.9,11.5,5.4,15.7,10.3c3.7,4.2,6.6,9,8.5,14.2c3.1,8.2,2.7,16.5-1,23.4
	c-5.2,9.9-11.2,19.4-17.9,28.4c-8,10.9-17.3,20.8-27.5,29.5c-11.3,9.6-23.9,17.5-37.5,23.6c-14.7,6.6-31.3,10.1-49.2,10.3h-2.1h-0.4
	c-6.9-0.2-13.6-1.8-19.9-4.6c-3.6-1.6-7-3.5-10.2-5.8c-1.6,4.4-3.3,8.8-4.9,13.1c-5.4,14.6-10.3,28-14.6,39.8s-7.7,21.6-10.2,29.3
	c-2.2,6.5-2.8,9.3-3,10.2C803.5,398.6,794.4,406.8,783.6,406.6z"/>
<path class="st0" d="M511.9,199.5c0-0.1-0.1-0.1-0.3-0.1l-3.2,3.2c-0.9,0.7-1.7,1.5-2.5,2.3c-0.7,0.7-1.4,1.4-2.2,2
	c-0.7,0.7-1.4,1.3-2.2,1.9c-0.6,0.4-1.1,0.8-1.6,1.3c-0.5,0.5-0.9,0.9-1.5,1.3c-0.2,0.1-0.4,0.3-0.6,0.5l2-1.5
	c0.7-0.4,1.3-0.9,1.9-1.5c0.7-0.6,1.4-1.2,2.2-1.8c0.8-0.6,1.6-1.2,2.3-1.9s1.7-1.5,2.6-2.5c0.6-0.4,1.1-0.9,1.6-1.5
	c0.5-0.6,1-1.2,1.6-1.8C512,199.7,511.9,199.6,511.9,199.5z"/>
<path class="st0" d="M501.4,207.7c0.4-1.2,0.9-2.4,1.5-3.5c0.6-1.2,1.2-2.3,1.9-3.5c0.7-1.2,1.3-2.3,1.9-3.5l4.4-7
	c0.8-1.2,1.6-2.3,2.3-3.4c0.8-1.1,1.6-2.1,2.3-3.1l-0.9-2.6L514,182c-0.8,1.2-1.6,2.3-2.3,3.4c-0.8,1.2-1.6,2.4-2.3,3.7l-4.4,7
	c-0.8,1.3-1.4,2.6-2,3.8l-1.8,3.5c-0.3,0.6-0.6,1.3-0.9,2c-0.2,0.6-0.4,1.2-0.6,1.7c-0.4,0.5-0.6,1.1-0.7,1.8
	c-0.1,0.6-0.4,1.2-0.7,1.8c-0.4,1.2-0.7,2.3-1,3.4c-0.3,1-0.6,2.1-1,3.1c-0.2,0.8-0.5,1.8-0.9,2.9c0,0.5-0.1,1-0.1,1.5
	c-0.1,0.5-0.1,1-0.1,1.5c-0.3,1.4-0.5,2.9-0.6,4.4c-0.2,0.5-0.2,1.1-0.1,1.6c0.1,0.4,0.1,0.9,0.1,1.3c0.2-1,0.3-1.9,0.3-2.9
	c0.2-0.6,0.4-1.3,0.4-1.9c0.1-0.9,0.4-1.7,0.7-2.5c0.2-1,0.4-1.9,0.6-2.8c0.2-0.9,0.5-1.9,0.9-2.8c0.6-2.1,1.4-4.1,2.3-6.1
	L501.4,207.7z"/>
<path class="st0" d="M503,207.9c0.3-1,0.6-2.1,1-3.1c0.5-2.2,1.3-4.2,2.3-6.1c0.4-1,0.8-1.9,1.2-2.6s0.8-1.7,1.2-2.6
	c0.3-0.6,0.6-1.3,0.7-2c0.1-0.6,0.3-1.1,0.7-1.5c-0.4,0.4-0.7,0.9-1,1.5c-0.3,0.6-0.6,1.2-1,1.8c-1,1.7-1.9,3.4-2.6,5.3
	c-0.4,1-0.8,2-1.3,2.9c-0.5,1-0.9,1.9-1.3,2.9c-0.4,1-0.7,2.1-0.9,3.2c-0.2,1.1-0.5,2.2-0.9,3.2c-0.3,0.9-0.5,1.9-0.6,2.9
	c0,0.4-0.1,0.9-0.1,1.3c-0.1,0.4-0.1,0.9-0.1,1.3c-0.2,0.8-0.3,1.6-0.3,2.3v2.9c0-0.2,0-0.3,0.1-0.4c0.1-0.1,0.1-0.3,0.1-0.7
	c0-0.6,0.1-1.2,0.1-1.8c0.1-0.6,0.2-1.4,0.4-2.3c0.4-1.8,0.8-3.5,1.2-5.3C502.4,210,502.7,208.9,503,207.9z"/>
<path d="M577.3,189.1l-0.5,0.8c-4.1,6-7.7,12.2-11,18.7c-2.2,4.3-4.1,8.8-5.8,13.3c-2.9,5.1-6,10.1-9.2,14.9
	c-3.5,5.3-7.4,10.3-11.7,14.9c-3.7,4.1-8,7.6-12.7,10.5c-4,2.5-8.6,3.9-13.3,4c-4.5,0-6.7-2-6.7-5.9c0-5.9,1.2-13.3,3.7-22.2
	c2.4-9,5.6-18.9,9.5-29.7c3.9-10.8,8.4-22.2,13.5-34.1c5.1-11.9,10.2-23.7,15.3-35.3c5.2-11.6,10.3-22.8,15.3-33.5
	s9.6-20.3,13.5-28.8c3.9-8.5,7.1-15.5,9.5-20.9c2.4-5.5,3.7-8.9,3.7-10.2c-0.1-2.8-1.1-5.5-2.8-7.7c-1.8-2.5-3.8-4.9-6.1-7
	c-2-1.9-4.1-3.5-6.4-5c-2-1.3-3.4-1.9-4-1.9c-2,0-2.9,1.2-2.9,3.5c0,0.4-1.2,3.3-3.7,8.6c-2.4,5.4-5.7,12.4-9.7,21.1
	c-4,8.7-8.5,18.6-13.6,29.8s-10.3,23-15.6,35.2c-5.3,12.3-10.5,24.7-15.6,37.1c-5.1,12.5-9.6,24.3-13.5,35.5l-1.6,3.2
	c-2.2,4.4-4.9,9.3-8,14.8s-6.5,11.2-10.2,17.1c-3.5,5.6-7.2,11-11.3,16.2c-3.3,4.4-7.1,8.4-11.3,12c-3.7,3.1-7.2,4.7-10.3,4.7
	c-5.1,0-10.4-2.7-16.1-8.2s-11-13.2-16.1-23.1c8.8-10.5,17.4-21.3,26-32.5c8.6-11.1,16.2-21.3,23-30.7c6.7-9.3,12.1-17.3,16.2-23.8
	c4.1-6.6,6.1-10.4,6.1-11.6c0-2.4-0.4-4.8-1-7.2c-0.7-2.6-1.6-5.1-2.8-7.5c-1-2.1-2.3-4.1-3.8-5.9c-1.4-1.6-2.7-2.3-4.1-2.3
	c-1.2,0-3.9,3.1-8.2,9.2c-4.3,6.1-9.6,13.9-15.8,23.4c-6.2,9.5-13.3,20-21,31.6c-7.8,11.6-15.9,22.8-24.3,33.8
	c-3.3-10.3-5.8-20.8-7.5-31.4c-1.9-12.1-2.8-24.4-2.8-36.7c0-2.3-0.9-4.4-2.3-6.1c-1.6-2-3.6-3.8-5.9-5.1c-2.4-1.5-5-2.7-7.8-3.5
	c-2.5-0.8-5.1-1.3-7.8-1.3c-0.2,0-0.5,0.2-0.9,0.6c-1.2,1-2.8,3.3-5,7c-2.2,3.7-4.5,8.1-7.1,13.2c-2.6,5.1-5.4,10.5-8.2,16.4
	c-2.8,5.8-5.4,11.3-7.8,16.5c-2.3,5.2-16.3,29.5-21,35.8c-5.5,7.3-11.4,14.3-17.8,20.9c-5.1,5.3-10.9,10-17.1,14
	c-5.6,3.4-10.7,5.1-15.4,5.1c-0.8,0-0.3-2.5,1.3-7.5c1.7-5,4-11.3,6.9-18.9c2.9-7.6,6.1-15.9,9.6-24.9c3.5-9,6.8-17.4,9.9-25.1
	c3.1-7.8,5.7-14.5,7.9-20s3.3-8.8,3.5-9.8c-0.1-2-0.2-3.9-0.6-5.9c-0.4-2.7-1.2-5.3-2.2-7.8c-1-2.5-2.4-4.8-4.1-6.9
	c-1.5-1.9-3.9-3-6.3-2.9c-1,0-3.6,3.3-7.8,9.8c-4.2,6.5-9.3,14.7-15.5,24.4c-6.1,9.8-13,20.4-20.5,31.9c-7.5,11.5-15,22.1-22.5,31.8
	c-6.6,8.7-13.7,16.9-21.5,24.5c-6.8,6.5-12.7,9.8-17.5,9.8c0.2-2.1,1.6-6.2,4.1-12.3s5.6-13,9.2-20.8c3.6-7.8,7.5-16,11.7-24.6
	c4.2-8.6,8.1-16.6,11.7-24c3.6-7.4,6.7-13.6,9.2-18.7s3.8-8.1,3.8-9.1c-0.2-1.5-0.6-2.9-1.3-4.2c-1-2-2.1-4-3.4-5.9
	c-1.4-2.1-3-4.1-4.7-6c-1.5-1.7-3.1-3.3-4.8-4.7c-1-1-2.4-1.6-3.8-1.8c-1.1,0-1.7,0.8-1.9,2.3c-0.2,1.8-1.6,5.7-4.2,11.7
	c-2.6,6-5.9,13.3-9.8,21.6c-3.9,8.4-8.1,17.5-12.7,27.2c-4.6,9.7-8.9,19.1-12.9,28.1c-4,9-7.4,17.1-10.2,24.3
	c-2.8,7.2-4.3,12.5-4.5,15.8c-0.1,1.2-0.1,2.4-0.1,3.6l-0.9,0c-3.8-0.2-8.8-0.3-14.9-0.4c-6.1-0.1-13.2-0.2-21.1-0.3
	c-7.9-0.1-15.9-0.1-24.1-0.1H78.7c-7.9,0-15,0.1-21.2,0.3c4.5-11.1,9.8-24.4,16.1-40c6.2-15.6,13-31.9,20.3-49.1
	c7.3-17.1,14.9-34.2,22.8-51.1s15.6-32.4,23.3-46.4c-1.8-3.1-3.8-6-6.1-8.8c-1.7-2.1-3.7-4.1-5.7-6c-2-1.8-4-2.8-6-2.8
	c-0.8,0-2.7,3-5.8,9.1c-3.1,6-7,14-11.7,24c-4.7,9.9-9.9,21.2-15.8,33.9S77,146.6,71.1,160c-5.9,13.4-11.7,26.7-17.2,39.6
	c-5.6,13-10.5,24.6-14.9,34.9c-4.4,10.3-7.9,18.9-10.5,25.7s-3.9,10.7-4,11.7c0,2.3,1.4,4.5,4.1,6.6c2.7,2,5.7,3.7,8.8,5.1
	c1.2,2,3.6,3,7.3,3h0.9c0.1,0,0.3-0.1,0.3-0.2c0,0,0,0,0-0.1l4.8-0.6c1.7-0.2,3.6-0.5,5.7-0.9c6.6-0.8,13.9-1.4,21.7-1.7
	c7.8-0.3,15.5-0.4,23.1-0.4c7.6,0,15,0.1,22.2,0.3c7.2,0.2,13.6,0.4,19.3,0.7l13.9,0.7c3.6,0.2,5.7,0.3,6.3,0.3c1,0,1.9-1.2,2.8-3.7
	c1-2.8,1.7-5.6,2.3-8.4c0-0.2,0.1-0.3,0.1-0.5c1.3,2.2,2.9,4.3,4.7,6.2c2.5,2.6,5.4,4.7,8.6,6.3c2.4,1.3,5,2,7.8,2.2
	c4.3,0,8.8-1.4,13.6-4.1c5.3-3.1,10.2-6.9,14.6-11.2c5.4-5.1,10.4-10.5,15.1-16.2c5.1-6.1,10.1-12.7,15.2-19.7
	c-2.4,6.5-4.2,12-5.5,16.6c-1,3.1-1.8,6.3-2.3,9.5c-0.1,2.6,0.3,5.2,1.3,7.6c1.1,3,2.7,5.8,4.7,8.3c2.1,2.6,4.6,4.9,7.5,6.6
	c2.9,1.8,6.3,2.7,9.6,2.6c7.6,0,15.7-2.9,24.3-8.6c9.1-6.2,17.4-13.3,25-21.2c8.1-8.4,15.6-17.3,22.5-26.8
	c3.7-5.1,20.1-34,21.6-37.4c2-4.6,4-9.2,6-14c2-4.8,3.8-9.1,5.6-13c1.5,10.5,3.6,20.9,6.1,31.1c2.7,11,6.2,21.8,10.5,32.3
	c-7.7,8.9-16.3,17.1-25.6,24.4c-8.3,6.3-15.8,9.5-22.7,9.5c-1.3,0-2.6-0.2-3.8-0.6c-1-0.4-2.1-0.6-3.2-0.6c-0.8,0-1.7,0.2-2.3,0.7
	c-0.6,0.5-0.9,1.6-0.9,3.4s0.8,3.8,2.5,6.3c1.7,2.5,3.8,4.8,6.1,6.9c2.4,2.1,5,3.9,7.8,5.4c2.1,1.3,4.5,2,7,2.2
	c2.3,0,5.1-0.9,8.3-2.8c3.8-2.2,7.3-4.8,10.7-7.6c3.9-3.2,8.1-7.1,12.6-11.5c4.5-4.5,9.1-9.4,14-14.6c5.7,10.1,13.3,19,22.3,26.3
	c8.5,6.8,19.2,10.4,30.1,10.2c5.1,0,10.2-1.8,15.5-5.4c5.7-4,10.8-8.6,15.3-13.8c2.4-2.8,4.8-5.7,7.1-8.7c0.6,1.6,1.4,3.2,2.3,4.6
	c2.8,4.6,6.3,8.7,10.4,12.3c3.9,3.4,8.3,6.2,13.1,8.1c3.9,1.8,8,2.8,12.3,2.9c9.1,0.1,18-3,25.2-8.8c4.9-3.9,9.4-8.3,13.5-13.1
	c2.7,3.7,5.8,7.1,9.2,10.1c3.9,3.5,8.3,6.4,13,8.8c4.3,2,7.5,3.1,9.7,3.1c4.7-0.1,9.4-1,13.7-2.9c4.9-2.1,9.6-4.8,13.9-8
	c4.8-3.6,9.3-7.7,13.5-12.1c4.5-4.8,8.8-9.9,12.7-15.2c0.9,0.2,1.8,0.3,2.8,0.3h2.8c9.5,0.1,19-1.9,27.5-6.1c0,0.7,0,1.3,0,2
	c-0.1,6,1.6,11.9,4.8,17c3.1,5,7,9.5,11.4,13.3c3.9,3.5,8.3,6.4,13,8.8c4.3,2,7.5,3.1,9.7,3.1c4.7-0.1,9.4-1,13.7-2.9
	c4.9-2.1,9.6-4.8,13.9-8c4.8-3.6,9.3-7.7,13.5-12.1c4.5-4.8,8.8-9.9,12.7-15.2c0.9,0.2,1.8,0.3,2.8,0.3h2.8
	c9.9,0.1,19.7-2.1,28.5-6.6l-2.6,6.6c-5.9,14.8-11.7,29.2-17.4,43.3s-10.7,26.7-15.1,38c-4.4,11.3-7.9,20.5-10.7,27.6
	c-2.7,7.1-4.1,11.1-4.1,12.1c0,1.8,1.5,3.9,4.4,6.4c2.9,2.5,6.1,4.7,9.5,6.6c3,1.7,6.2,3.1,9.5,4.1c2.9,0.9,4.4,0.6,4.4-0.7
	c0-1.8,1.3-6.6,4-14.6c2.6-8,6.1-17.9,10.4-29.8s9.2-25.2,14.6-39.9c5.5-14.7,11-29.6,16.7-44.6c1.6,3.6,3.5,7.2,5.7,10.5
	c2.2,3.5,4.9,6.6,7.9,9.4c3.1,2.8,6.6,5,10.4,6.7c4.1,1.8,8.4,2.8,12.9,2.9h1.5c15.4-0.2,29.3-3.1,41.7-8.6
	c11.9-5.3,23-12.3,32.9-20.7c9.2-7.8,17.4-16.6,24.6-26.3c6.1-8.2,11.6-16.9,16.4-26c1.2-2.1,1.2-4.8,0-7.9c-1.1-3.1-2.8-5.9-5-8.3
	c-1.8-2.2-4.1-3.8-6.7-4.7c-2.3-0.7-4.2,0.4-5.6,3.1c-2.6,5.4-5.5,10.6-8.6,15.6c-3.6,5.9-7.7,11.4-12.1,16.7
	c-4.8,5.7-10.1,11-15.8,15.9c-5.9,5.1-12.4,9.6-19.3,13.5c3.2-6,5.9-12.1,8.3-18.4c2.4-6.4,4.5-12.9,6.3-19.3
	c1.7-6.2,3.1-12.4,4.1-18.7c0.9-5.5,1.4-11.1,1.5-16.7c0.1-8.2-0.6-16.4-2.2-24.4c-1.1-5.6-3-11.1-5.6-16.2
	c-2.2-4.1-4.7-7.1-7.5-8.9c-2.3-1.7-5-2.7-7.9-2.8c-5.1,0-11.3,3.5-18.6,10.4c-8.3,8.1-16.1,16.7-23.2,25.9
	c2.1-5.8,3.7-10.7,4.8-14.5c0.8-2.3,1.3-4.7,1.6-7.2c0-2.3-1.1-5.3-3.4-8.8c-2-3.3-4.5-6.3-7.3-8.9c-2.6-2.4-5.1-3.7-7.3-3.8
	s-3.4,2.2-3.4,6.9c0,1.6-1.4,6.2-4.1,13.9s-6.3,17.3-10.7,28.8c-2.2,5.8-4.6,11.9-7.1,18.4c-2.9,5-6,10-9.5,14.8
	c-4.3,6.2-9.4,11.8-15.1,16.8c-5.1,4.6-11.3,7.9-18,9.4c4.5-8.5,8.2-17.3,11.1-26.5c2.6-7.7,3.9-15.7,4.1-23.8
	c0.1-7.8-1.1-15.5-3.6-22.8c-2.1-6.2-5-12.1-8.6-17.5c-2.8-4.4-6.5-8.2-10.7-11.3c-3.8-2.6-7-3.9-9.5-3.9c-5.1,0-10.9,1.5-17.4,4.4
	c-6.6,2.9-12.7,6.7-18.3,11.3c-5.5,4.4-10.3,9.7-14.3,15.5c-3.2,4.4-5.2,9.6-5.8,15c-2.3,4.1-4.9,8.8-7.7,14.1
	c-3.6,6.7-7.6,13.2-12,19.4c-4.3,6.2-9.4,11.8-15.1,16.8c-5.1,4.6-11.3,7.9-18,9.4c4.5-8.5,8.2-17.3,11.2-26.4
	c2.6-7.7,3.9-15.7,4.1-23.8c0.1-7.8-1.1-15.5-3.7-22.8c-2.1-6.2-5-12.1-8.6-17.5c-2.8-4.4-6.5-8.2-10.7-11.3c-3.8-2.6-7-3.9-9.5-3.9
	c-5.1,0-10.9,1.5-17.4,4.4c-6.6,2.9-12.7,6.7-18.3,11.3c-5.5,4.4-10.3,9.7-14.3,15.5c-3.9,5.8-5.8,11.5-5.8,17.1v5.6
	c-3.3,4-6.7,8.5-10.2,13.5 M282.3,190.4c0.4-1.6,1-3.2,1.8-4.7c0.8-1.9,1.7-4.3,2.6-7c0.4-1.2,0.9-2.5,1.5-3.7
	c0.6-1.3,1.1-2.6,1.5-3.9c0.6-1.3,1.1-2.6,1.6-3.9c0.5-1.3,1-2.6,1.6-3.9c0.4-1.1,0.8-2.3,1.3-3.4c0.5-1.1,0.9-2.1,1.3-3.1
	c0.4-1,0.7-1.9,1-2.6c0.3-0.7,0.6-1.4,1-2l0.9-1.8c-0.3,0.6-0.5,1.1-0.6,1.8c-0.2,0.6-0.4,1.3-0.6,2c-0.2,0.9-0.5,1.8-0.9,2.6
	c-1,2.3-1.9,4.6-2.6,7c-0.4,1.2-0.9,2.5-1.5,3.7c-0.6,1.3-1.1,2.6-1.5,3.9c-0.6,1.3-1.2,2.7-1.8,3.9c-0.6,1.3-1.1,2.6-1.5,3.9
	c-0.4,1.2-0.9,2.3-1.5,3.4c-0.5,1-1,2-1.5,3.1c-0.4,1-0.7,1.9-1,2.8c-0.2,0.8-0.6,1.5-1,2.2l-0.9,1.8
	C281.9,191.9,282.1,191.2,282.3,190.4L282.3,190.4z M80.3,157.1c-0.4,0.8-0.8,1.7-1.3,2.8c-0.5,1.1-0.9,2.2-1.3,3.4
	c-1,2.9-2.2,5.7-3.5,8.5c-1.2,3.1-2.5,6.4-4.1,9.9c-0.8,1.8-1.5,3.5-2.2,5.1s-1.4,3.3-2.2,4.8c-0.6,1.5-1.2,3-1.9,4.4
	c-0.7,1.3-1.3,2.7-1.9,4.1c-0.6,1.4-1.1,2.5-1.5,3.4c-0.4,0.9-0.8,1.7-1.2,2.5l-1.2,2.3c0.2-0.8,0.5-1.6,0.9-2.3
	c0.4-0.8,0.8-1.7,1.2-2.6s0.8-2.1,1.2-3.5c0.6-1.3,1.2-2.7,1.8-4.2s1.2-3,2-4.5c0.6-1.5,1.3-3.1,2-4.8c0.7-1.7,1.4-3.3,2.2-4.8
	c0.8-1.8,1.5-3.5,2.2-5.1s1.3-3.3,1.9-4.8l2.2-4.4c0.7-1.3,1.2-2.7,1.6-4.1l1.6-3.2l1.3-2.6l1.2-2.3C81,155.6,80.7,156.4,80.3,157.1
	L80.3,157.1z M55.4,205.9c-1,2.1-1.9,4-2.6,5.6s-1.3,2.6-1.5,3.2c0.1-0.3,0.2-0.6,0.2-0.9c0.2-0.8,0.4-1.6,0.7-2.3
	c0.9-1.9,1.7-3.8,2.3-5.8c0.8-2.3,1.8-4.9,2.9-7.6c1.2-2.7,2.4-5.7,3.7-8.9c1.3-3.2,2.7-6.5,4.2-9.8s3.1-6.8,4.7-10.4
	c1.6-3.6,3.1-7.3,4.7-11s3.2-7.4,4.8-11c1.6-3.6,3.2-7,4.8-10.3c1.6-3.3,3.1-6.5,4.4-9.6c1.3-3.1,2.7-6,4.1-8.8s2.6-5.2,3.5-7.3
	c0.9-1.9,1.8-3.8,2.9-5.6l1-2l0.7-1.5c-0.2,0.6-0.7,1.9-1.5,3.8c-0.8,1.6-1.6,3.5-2.5,5.7s-1.9,4.7-3.1,7.4
	c-1.2,2.7-2.4,5.7-3.8,8.9c-1.4,3.2-2.8,6.5-4.4,9.8c-1.6,3.3-3.1,6.8-4.7,10.4c-1.6,3.6-3.1,7.3-4.7,11c-1.6,3.7-3.1,7.3-4.7,10.8
	c-1.6,3.5-3.1,6.9-4.7,10.2c-1.6,3.5-3.1,6.8-4.5,9.9c-1.5,3.1-2.8,6-3.9,8.8C57.5,201.3,56.4,203.8,55.4,205.9z M105.1,276.1h-5
	c-0.6,0-1.2-0.1-1.8-0.3h1.8c0.7,0,1.5-0.1,2.2-0.1c0.9-0.1,1.9-0.2,2.8-0.1h15.2c1.4,0.2,2.7,0.3,4.1,0.3h3.8
	c1.3,0.2,2.6,0.3,3.9,0.3h3.4c0.9,0.2,1.8,0.3,2.8,0.3h2.2c0.6,0,1.2,0.1,1.8,0.3h-6.7c-1.2,0-2.3,0-3.5,0.1
	c-1.2,0.1-2.4,0.1-3.8,0.1c-1.3-0.2-2.5-0.3-3.8-0.3h-8.3c-1.3,0-2.6-0.1-3.9-0.3h-3.8C107.3,276.4,106.2,276.3,105.1,276.1z
	 M134.1,280.2c-1.6,0-3,0-4.4-0.1s-2.7-0.1-4.1-0.1c-1.6,0-3,0-4.2-0.1s-2.4-0.1-3.4-0.1c-1,0-2.1,0-3.1-0.1
	c-0.7-0.1-1.5-0.1-2.2-0.1c0.7,0,1.5-0.1,2.2-0.1c1-0.1,2-0.2,3.1-0.1h16.1c1.5,0.2,2.9,0.3,4.4,0.3h4.4c1.3,0.2,2.6,0.3,3.9,0.3
	c1.1,0,2.3,0.1,3.4,0.3c1,0.2,1.9,0.3,2.9,0.3c0.8,0,1.6,0.1,2.3,0.3c0.7,0.2,1.3,0.3,2,0.3L134.1,280.2z M209.8,253.7
	c0.5-0.6,1.1-1.1,1.8-1.6c3-2.6,5.9-5.5,8.5-8.5c1.6-1.8,3-3.4,4.4-5c1.4-1.6,2.6-3,3.8-4.4c0.4-0.6,0.8-1.2,1.3-1.8
	c0.5-0.6,0.9-1.1,1.3-1.5c0.3-0.4,0.6-0.8,0.9-1.2c-0.3,0.5-0.6,1-0.9,1.5c-0.4,0.4-0.8,0.9-1.3,1.5c-0.5,0.6-0.9,1.1-1.3,1.8
	c-2.3,3.4-5,6.5-7.9,9.4c-0.7,0.9-1.4,1.7-2.2,2.5l-2.2,2.2c-0.8,0.8-1.5,1.4-2.2,2s-1.4,1.1-2.2,1.8c-0.5,0.5-1,1-1.6,1.5
	c-0.5,0.4-0.9,0.8-1.3,1.2C209.1,254.6,209.5,254.2,209.8,253.7L209.8,253.7z M176.3,231.2c-0.5,1.1-0.9,2.1-1.3,3.1s-0.7,1.9-1,2.6
	c-0.3,0.8-0.5,1.5-0.7,2.3l-0.9,1.8l-0.6,1.2c0.2-0.4,0.3-0.9,0.3-1.3c0.1-0.7,0.3-1.3,0.6-1.9c1-2.9,2.3-6.7,4.1-11.4
	c1-2.3,2-4.9,3.1-7.6c1.1-2.7,2.2-5.5,3.4-8.2c1.3-2.9,2.7-5.9,4.1-8.9c1.4-3,2.8-6.1,4.1-9.2c1.6-2.9,3-5.9,4.4-8.9
	c1.4-3,2.8-5.9,4.4-8.6c1.3-2.7,2.7-5.4,3.9-8c1.3-2.6,2.4-5.1,3.4-7.5c1.2-2.1,2.2-4.1,3.1-6s1.7-3.5,2.5-4.8l1.5-2.9l0,0
	c-0.2,0.5-0.4,1-0.4,1.5c-0.1,0.6-0.4,1.2-0.7,1.8c-0.5,1.7-1.2,3.4-1.9,5c-0.9,2-1.8,4-2.8,6.1c-1,2.3-2,4.8-3.1,7.5
	c-1.1,2.6-2.3,5.4-3.7,8.3c-1.3,2.7-2.7,5.6-4.1,8.6c-1.4,3-2.9,6.1-4.4,9.2c-1.6,2.9-3,5.9-4.2,8.9c-1.3,3-2.6,5.9-3.9,8.6
	c-0.8,1.6-1.4,3-2,4.4c-0.5,1.3-1.2,2.6-2,3.8c-0.6,1.3-1.2,2.6-1.8,4c-0.6,1.2-1,2.4-1.5,3.7C177.4,229.2,176.9,230.2,176.3,231.2
	L176.3,231.2z M178.2,277.6c0.2,0,0.4,0.1,0.6,0.3L178.2,277.6z M228.2,253.9c-0.2,0.2-0.3,0.4-0.4,0.6c-0.2,0.3-0.4,0.6-0.7,0.9
	c-0.6,0.6-1.3,1.3-2,2.2s-1.7,1.8-2.6,2.8l-7,7c-0.8,0.6-1.5,1.2-2.2,1.8c-0.7,0.6-1.3,1.2-1.9,1.8l-2.3,1.8l-2.3,1.8
	c-0.8,0.4-1.6,0.9-2.3,1.5c-0.8,0.6-1.7,1.1-2.6,1.5c-0.3,0.3-0.7,0.6-1.2,0.7c-0.4,0.1-0.9,0.4-1.2,0.7c-0.9,0.3-1.8,0.7-2.6,1.2
	c-0.8,0.3-1.5,0.5-2.3,0.6c-0.8,0.3-1.7,0.5-2.6,0.6c-0.3,0.2-0.8,0.3-1.2,0.3H187c-0.7,0-1.4-0.1-2-0.3l-1.8-0.6
	c-0.5-0.2-1-0.5-1.5-0.9l-1.2-0.6c-0.3-0.3-0.6-0.5-0.9-0.7l0.9,0.4c0.3,0.3,0.7,0.6,1.2,0.6c0.5,0.3,0.9,0.5,1.5,0.6
	c0.3,0.2,0.6,0.3,0.9,0.3c0.3,0,0.6,0.1,0.9,0.3c0.3,0,0.7,0,1,0.1c0.3,0.1,0.7,0.2,1,0.1h2.3c0.2,0,0.3,0,0.4-0.1
	c0.2-0.1,0.5-0.2,0.7-0.1h1.2c0.8-0.3,1.5-0.6,2.3-0.9c0.4-0.2,0.8-0.3,1.2-0.3c0.5,0,0.9-0.2,1.2-0.6c0.8-0.2,1.6-0.5,2.3-0.9
	c0.4-0.4,0.8-0.6,1.3-0.7c0.5-0.1,1-0.4,1.3-0.7c0.8-0.4,1.5-0.9,2.2-1.5c0.7-0.6,1.6-1.1,2.5-1.4l4.4-3.5l4.4-3.5
	c0.6-0.6,1.2-1.2,1.9-1.8s1.3-1.2,1.9-1.8c0.6-0.4,1.2-0.9,1.8-1.5l1.5-1.5c1-0.9,2-1.8,2.9-2.8c0.7-0.8,1.5-1.5,2.3-2.2l1.8-1.8
	L228.2,253.9z M257.9,208.3c-0.1,0.4-0.4,0.9-0.7,1.2c-0.6,1-1.3,2.1-2,3.4s-1.7,2.7-2.6,4.2s-2,3.3-3.1,5.1s-2.3,3.8-3.7,5.7
	c-2.7,4.2-5.6,8.2-8.8,12c-1.6,2.1-3.1,4.1-4.5,6c-1.5,1.9-3,3.8-4.5,5.7c-1.6,1.8-3.1,3.4-4.5,5c-1.4,1.5-2.9,2.9-4.5,4.1
	c-1.1,1.3-2.4,2.5-3.8,3.5c-0.9,1-1.9,1.8-2.9,2.6l6.4-6.4c0.6-0.8,1.2-1.5,1.9-2.2l2.2-2.2l4.4-5.3c1.6-1.8,3.1-3.6,4.5-5.4
	c1.5-1.9,3-3.9,4.5-6c1.6-2.1,3.1-4.1,4.5-6c1.5-1.9,2.9-3.9,4.2-6c2.5-3.7,4.9-7.2,7-10.5c1-1.6,1.9-3,2.8-4.2s1.6-2.4,2.2-3.4
	c0.3-0.3,0.6-0.6,0.9-1c0.2-0.3,0.4-0.7,0.6-1C258.2,207.5,258,207.9,257.9,208.3L257.9,208.3z M361.9,138.7c-0.4,1.2-1,2.6-1.8,4.4
	c-0.8,2-1.7,4.1-2.8,6.4c-1.1,2.3-2.2,4.8-3.3,7.3c-1.2,2.3-2.4,4.7-3.7,7s-2.4,4.3-3.3,5.9c-1,1.4-1.8,2.9-2.6,4.4
	c-0.2,0.4-0.5,0.8-0.9,1.2l-0.3,0.3l0.9-1.8c0.4-1.6,1-3.2,1.8-4.7c0.8-1.8,1.7-3.8,2.8-6.1s2.2-4.8,3.4-7.3c1.2-2.3,2.4-4.7,3.7-7
	s2.4-4.4,3.4-6.1c0.6-1,1.1-1.8,1.5-2.3l1.2-1.8c0.2-0.2,0.3-0.4,0.4-0.6c0.1-0.2,0.3-0.4,0.4-0.6l0.3-0.3L361.9,138.7z
	 M363.3,254.2c-0.4,0.4-0.7,0.8-1,1.3c-0.3,0.5-0.8,1-1.3,1.3c-0.6,0.4-1.2,0.9-1.8,1.5c-0.6,0.6-1.3,1.2-2,1.8
	c-2,1.2-3.7,2.1-5.3,2.9c-1,0.4-1.9,0.7-2.6,1s-1.7,0.6-2.6,1c-0.8,0.3-1.7,0.5-2.6,0.6c-0.8,0.2-1.5,0.3-2.3,0.3H337
	c-0.1,0-0.3-0.1-0.3-0.2c0,0,0,0,0-0.1h0.3c0.3,0,0.6-0.1,0.9-0.3c0.5,0,1-0.1,1.5-0.3c0.3,0,0.7,0,1-0.1c0.3-0.1,0.7-0.2,1-0.1
	c0.3-0.2,0.7-0.3,1-0.4c0.3-0.1,0.7-0.3,1-0.4c0.9-0.1,1.8-0.3,2.6-0.6l1.2-0.6l1.2-0.6c0.4-0.2,0.8-0.4,1.3-0.6s0.9-0.4,1.3-0.6
	s0.8-0.4,1.3-0.6s0.9-0.4,1.3-0.6c0.3-0.3,0.7-0.6,1.2-0.7c0.4-0.1,0.9-0.4,1.2-0.7c0.8-0.4,1.5-0.8,2.2-1.3
	c0.7-0.5,1.3-0.9,1.9-1.3s1.1-0.7,1.6-1s0.9-0.5,1.3-0.7l1.2-0.6L363.3,254.2z M383.8,236.1c-0.5,0.4-0.9,0.9-1.2,1.5
	c-0.6,0.8-1.2,1.5-1.9,2.2l-2.2,2.2c-0.7,0.9-1.5,1.7-2.3,2.3c-0.7,0.5-1.4,1.1-2,1.8c-0.6,0.4-1.2,0.9-1.8,1.5
	c-0.1,0.2-0.4,0.3-0.6,0.3l0.6-0.6l1.2-1.8l4.1-4.1c0.7-0.9,1.5-1.7,2.3-2.5c0.6-0.6,1.3-1.1,2-1.6c0.4-0.5,0.9-0.9,1.5-1.2
	c0.3-0.2,0.6-0.4,0.9-0.6L383.8,236.1z M375.6,190.4c-0.4-1.1-0.8-2.2-1-3.4c-0.3-1.3-0.6-2.7-1-4.2c-0.7-2.5-1.2-5-1.5-7.6
	c-0.2-0.9-0.3-1.7-0.3-2.6v-0.9c0,0.3,0.1,0.6,0.3,0.9c0.2,0.4,0.3,0.8,0.3,1.2c0,0.4,0.1,0.8,0.3,1.2c0.4,1.1,0.7,2.3,0.9,3.5
	c0.2,1.4,0.5,2.7,0.9,4.1c0.4,1.6,0.7,3,0.9,4.2c0.2,1.2,0.5,2.3,0.9,3.4c0,0.5,0,1,0.1,1.5c0.1,0.4,0.1,0.8,0.1,1.2
	C376.2,192,375.8,191.2,375.6,190.4L375.6,190.4z M386.4,227c-1.8-4.3-3.2-8.4-4.4-12.3c-0.8-2.7-1.4-5.1-1.9-7.2
	c-0.5-2-0.9-3.9-1.3-5.4c-0.4-0.7-0.6-1.4-0.6-2.2c0-0.6-0.1-1.1-0.3-1.6c0.2,0.5,0.4,1,0.4,1.5c0.1,0.7,0.4,1.4,0.7,2
	c0.4,1.6,0.9,3.4,1.6,5.4c0.7,2,1.5,4.3,2.5,6.9c0.8,1.8,1.5,3.6,2.2,5.4s1.5,3.9,2.5,6L386.4,227z M439.9,281.4
	c-0.9,0-1.8-0.1-2.6-0.3c-0.5-0.2-1-0.3-1.5-0.3c-0.6,0-1.2-0.1-1.8-0.3c-0.5-0.2-1-0.4-1.5-0.6l-1.8-0.6l-1.8-0.6
	c-0.7-0.2-1.4-0.5-2-0.9c-1.2-0.6-2.4-1.2-3.7-1.8c-1.4-0.7-2.7-1.4-4-2.3c-2.7-1.8-5.3-3.8-7.6-6.1c-2.5-2.5-4.9-5.2-7.2-7.9
	c-2.3-2.8-4.4-5.7-6.3-8.8l-1.8-2.6c0.6-0.5,1.1-1.1,1.5-1.8c0.8,1,1.5,2.1,2,3.2c1.9,2.9,4,5.8,6.1,8.6c2.1,2.7,4.3,5.3,6.7,7.8
	c1.3,0.9,2.6,2,3.8,3.1c1.2,1.1,2.3,2.1,3.5,3.1c2.3,1.6,4.8,3.1,7.3,4.4c1.2,0.6,2.3,1.1,3.5,1.6c1.2,0.5,2.2,0.9,3.2,1.3
	c0.8,0.2,1.8,0.5,2.9,0.9c0.4,0.2,0.9,0.3,1.3,0.3c0.5,0,0.9,0.1,1.3,0.3c0.7,0.2,1.3,0.3,2,0.3c0.5,0,1,0.1,1.5,0.3
	C442.2,281.7,441.1,281.6,439.9,281.4L439.9,281.4z M567.1,55.7l-1.5,3.7c-0.6,1.5-1.3,3.1-2,4.8c-1,2-1.9,4-2.8,6s-1.8,4.1-2.8,6.3
	c-1,2.3-2,4.7-3.1,7s-2.2,4.7-3.4,7c-2.1,5.1-4.2,9.7-6.1,14c-1,2.1-1.9,4.3-2.8,6.4c-0.8,2-1.7,4-2.8,5.9c-0.8,2-1.5,3.7-2.2,5.1
	c-0.7,1.5-1.2,2.7-1.6,3.7c-0.6,1.2-1.1,2.2-1.5,3.2c0-0.3,0.1-0.6,0.3-0.9l1.2-2.3l1.3-3.9c0.5-1.5,1.1-3.2,1.9-5.1
	c0.8-1.8,1.6-3.7,2.5-5.9s1.8-4.3,2.8-6.4c1.8-4.8,3.9-9.4,6.1-14c1-2.5,2-5,3.2-7.3c1.2-2.3,2.2-4.6,3.2-6.7c1-2.1,1.9-4.2,2.9-6.3
	s1.9-4.1,2.9-6c0.8-1.8,1.6-3.4,2.3-4.8c0.6-1.2,1.2-2.4,1.8-3.7c0.6-1.2,1.1-2.2,1.5-3.2C568.2,53.4,567.7,54.5,567.1,55.7z
	 M510.5,174.1c1-2.5,1.9-5,2.8-7.5l2.8-7.8c2.1-5.1,4.3-10.3,6.4-15.8c2.1-5.5,4.4-11,6.7-16.7c2.3-5.7,4.7-11.2,7.2-16.5
	c2.4-5.4,4.8-10.6,7.2-15.6c2.3-5.1,4.6-9.9,6.9-14.5c2.2-4.6,4.3-8.9,6.3-13l5.4-10.8l4.2-8.5c1.3-2.7,2.5-5.2,3.5-7.3
	c-1,2.3-2.1,4.9-3.2,7.6c-1,2.3-2.2,5.2-3.7,8.5s-3.2,7-5.1,11.1c-1.8,4.1-3.7,8.5-5.8,13.2c-2.1,4.7-4.4,9.6-6.7,14.6
	c-2.3,5.1-4.7,10.3-7,15.6s-4.7,10.9-7,16.5c-2.3,5.5-4.6,10.9-6.9,16.4c-2.2,5.5-4.4,10.8-6.6,16.1c-1,2.7-1.9,5.3-2.9,7.8
	c-1,2.4-2,4.8-3,7.2c-1,2.3-1.9,4.6-2.6,6.9c-0.6,1.6-1.2,3.2-1.9,4.8c-0.4-0.2-0.8-0.3-1.2-0.4c0.5-1.6,1.1-3.1,1.7-4.7
	C508.7,179,509.6,176.6,510.5,174.1L510.5,174.1z M474.5,245.5c-0.2,0.4-0.4,0.8-0.7,1.3c-0.3,0.5-0.6,0.9-1,1.3
	c-0.7,1.3-1.6,2.5-2.6,3.5c-1,1.3-2.1,2.6-3.2,3.8c-1.2,1.2-2.4,2.3-3.7,3.4c-1.3,1.1-2.4,2-3.4,2.8c-0.5,0.3-1,0.7-1.5,1.2
	c-0.3,0.4-0.7,0.7-1.2,0.9c-0.4,0.4-0.7,0.6-0.9,0.6l2.9-2.9l3.2-3.2l3.5-3.5l3.5-3.5c0.4-0.6,0.9-1.2,1.5-1.8l1.5-1.5
	c0.3-0.5,0.6-0.9,1-1.3c0.3-0.3,0.5-0.6,0.7-1c0.2-0.2,0.3-0.3,0.3-0.4s0.1-0.2,0.3-0.4c0-0.1,0.1-0.3,0.2-0.3c0,0,0,0,0.1,0
	L474.5,245.5z M480.7,230.7c-0.7,1.3-1.4,2.5-2.2,3.7l-5.3,7.9c-1,1.3-1.9,2.7-2.9,4c-1,1.3-1.9,2.5-2.9,3.6c-1,1.2-1.9,2.2-2.9,3.2
	l-2.9,2.9c-0.4,0.4-0.8,0.7-1.2,1c-0.4,0.3-0.8,0.6-1.2,1c-0.3,0.3-0.6,0.6-1,0.9c-0.4,0.3-0.7,0.6-1,0.9l-1.3,1.2
	c-0.1,0.2-0.4,0.3-0.6,0.3l1.8-1.8c0.8-0.4,1.5-1,1.8-1.8l2.3-2.3c1.3-1.8,3.1-3.8,5.3-6.1c1-1.2,1.9-2.4,2.8-3.7
	c0.9-1.3,1.8-2.6,2.8-4s1.9-2.7,2.8-4s1.8-2.6,2.8-4l2.3-3.5c0.8-1.2,1.5-2.2,2-3.2c1.2-2,2.2-3.6,3.2-5c-0.5,0.7-0.9,1.5-1.2,2.3
	c-0.4,1-0.9,2-1.5,2.9C482.1,228.2,481.4,229.4,480.7,230.7z M518.9,200.1c1-2.6,2-5.2,3.1-7.8c1.3-3,2.5-6,3.7-8.9s2.3-5.7,3.5-8.3
	c1.2-2.6,2.2-5.1,3.2-7.5c2.3-5.1,4.1-8.8,5.3-11.1c0.3-0.5,0.6-1,0.7-1.6c0.1-0.5,0.2-0.9,0.4-1.3l0.6-1.2c-0.4,1.5-1,3-1.8,4.4
	c-0.6,1.3-1.3,2.9-2,4.8s-1.6,4-2.6,6.3c-1,2.3-2,4.8-3.1,7.5c-1.1,2.6-2.2,5.4-3.4,8.3c-2.3,5.8-4.7,12-7,18.4l-3.5,9.4
	c-1.2,3.1-2.2,6.1-3.2,9.1c-0.6,1.6-1.1,3-1.6,4.4s-0.9,2.7-1.3,4.1c-0.4,1.6-0.8,3-1.2,4.2c-0.4,1.3-0.8,2.5-1.2,3.7
	c-0.7,2.2-1.3,4.4-1.8,6.7c-0.4,0.8-0.6,1.7-0.7,2.6c-0.1,0.8-0.2,1.6-0.4,2.3c0-0.8,0.1-1.7,0.1-2.5c0.1-0.9,0.2-1.8,0.4-2.8
	c0.4-1,0.7-2,0.9-3.1c0.2-1.2,0.5-2.5,0.9-3.7c0.4-1.2,0.7-2.4,1-3.7s0.6-2.7,1-4.2c0.4-1.3,0.8-2.7,1.3-4.1
	c0.5-1.4,0.9-2.9,1.3-4.4c1-3.1,2-6.2,3.2-9.2c0.3-0.7,0.5-1.5,0.8-2.2 M610.7,139c0.2-0.2,0.3-0.3,0.3-0.4s0.2-0.2,0.6-0.4
	c0.9-1.1,2-2.1,3.2-2.9c1.4-1.4,3-2.7,4.7-3.8c1-0.8,2-1.4,3.1-2c1.1-0.6,2.1-1.2,3.1-1.8c1.2-0.6,2.3-1.1,3.4-1.6
	c1.1-0.5,2.2-0.9,3.4-1.3c0.5-0.2,1-0.4,1.5-0.4c0.5-0.1,1-0.2,1.5-0.4c1-0.3,1.9-0.5,2.9-0.6c0.9-0.2,1.7-0.3,2.6-0.3h3.5
	c0,0.1-0.1,0.3-0.2,0.3c0,0,0,0-0.1,0h-1.2c-0.3,0.2-0.6,0.3-1,0.3c-0.4,0-0.7,0.1-1,0.3c-0.8,0.1-1.6,0.3-2.3,0.6
	c-0.8,0.4-1.7,0.7-2.6,1c-1,0.3-2,0.6-2.9,1c-0.9,0.6-1.9,1.1-2.9,1.5c-1.1,0.5-2.2,1.1-3.2,1.8c-0.5,0.3-1,0.6-1.6,0.7
	c-0.6,0.1-1.1,0.4-1.6,0.7c-0.4,0.4-0.9,0.7-1.5,0.9c-0.5,0.2-1,0.5-1.5,0.9c-0.9,0.5-1.8,1.1-2.6,1.8c-0.8,0.6-1.7,1.1-2.6,1.5
	c-0.6,0.5-1.3,0.9-2,1.3c-0.5,0.3-1,0.6-1.5,1c-0.5,0.3-1,0.6-1.5,0.9L610.7,139z M606,146.3c0.4-0.4,0.9-0.8,1.3-1.2
	c0.6-0.5,1.1-0.9,1.6-1.5c1.2-1,2.5-2.1,4.1-3.4c1.5-1.2,3.1-2.3,4.7-3.4c1.7-1.1,3.4-2.1,5.1-3.1c1.7-0.9,3.3-1.7,4.8-2.5
	c1-0.5,2.1-1,3.2-1.5c0.5-0.2,1-0.4,1.5-0.6v0.3l-1.2,0.6c-1,0.6-2.1,1.2-3.2,1.8c-0.8,0.4-1.5,0.8-2.2,1.3c-0.8,0.5-1.6,1-2.5,1.3
	c-0.8,0.4-1.6,0.9-2.3,1.5c-0.8,0.6-1.7,1.2-2.6,1.8c-0.9,0.3-1.7,0.8-2.5,1.5c-0.7,0.6-1.4,1.2-2.2,1.8c-1,0.6-1.8,1.1-2.5,1.6
	s-1.3,0.9-1.9,1.3s-1.1,0.8-1.6,1.2c-0.5,0.4-0.9,0.8-1.3,1.2l-0.9,0.9h-0.3L606,146.3z M605.3,195.3c0.1-0.5,0.3-1.1,0.4-1.6
	l2.6-2.6c1.6-1.6,3-2.9,4.2-3.9c1.3-1.1,2.4-2.1,3.4-3.1c0.4-0.4,0.8-0.7,1.2-1c0.4-0.3,0.8-0.5,1.2-0.7c0.3-0.1,0.6-0.3,0.9-0.6
	l-2.9,2.9l-2.9,2.9c-0.6,0.8-1.2,1.5-1.9,2.2l-2.2,2.2c-0.8,0.8-1.5,1.6-2.2,2.3c-0.7,0.8-1.4,1.7-2.2,2.6
	C605,196.4,605.2,195.8,605.3,195.3L605.3,195.3z M594.9,209.8c-0.8,1-1.6,2-2.3,3.1c-0.7,1-1.4,2-2.1,3c1.3-2.8,2.6-5.4,3.8-7.8
	L594.9,209.8z M571.9,253.2c-0.1,0.1-0.2,0.3-0.2,0.4v-2.2l0.4-0.7c-0.1,0.6-0.1,1.2-0.2,1.7c0.1,0.4,0,0.6,0,0.7L571.9,253.2z
	 M575,248.9c-0.3,0.8-0.6,1.6-0.7,2.5c-0.1,0.6-0.2,1.3-0.4,1.9c0,1-0.1,2-0.3,2.9c0-0.4-0.1-0.9-0.2-1.3c-0.1-0.5,0-1.1,0.2-1.6
	c0.1-1.5,0.3-2.9,0.6-4.4c0-0.5,0.1-1,0.2-1.5c0,0,0-0.1,0-0.1c0.6-1,1.3-2,1.9-3.1c-0.2,0.6-0.4,1.3-0.6,1.9
	C575.4,247,575.2,247.9,575,248.9L575,248.9z M577,262.1c0-9.2,1.9-18.2,5.6-26.6c3.6-8.1,8-15.7,13.3-22.8
	c2.2,5.5,5.1,10.7,8.6,15.4c3.8,4.9,8.5,9.1,13.9,12.1c-5.8,6.3-12.5,11.6-19.9,15.9c-6.5,3.8-13.8,5.9-21.4,6L577,262.1z
	 M618.6,243.1c-0.5,0.6-1,1.1-1.6,1.5c-1,1-1.9,1.8-2.6,2.5c-0.8,0.7-1.6,1.3-2.3,1.9s-1.5,1.2-2.2,1.8c-0.6,0.5-1.2,1-1.9,1.5
	l-2,1.5c0.2-0.2,0.4-0.4,0.6-0.5c0.5-0.4,1-0.8,1.5-1.3c0.5-0.5,1-0.9,1.6-1.3c0.8-0.6,1.5-1.2,2.2-1.9c0.8-0.6,1.5-1.3,2.2-2
	c0.8-0.9,1.6-1.6,2.5-2.3l3.2-3.2c0.2,0,0.3,0,0.3,0.1s0.1,0.1,0.3,0.1c-0.6,0.5-1.1,1.1-1.6,1.7L618.6,243.1z M608.8,219
	c-3.7-4.7-5.5-10.6-5-16.5c3.9-4.7,8.1-9.1,12.6-13.3c3.7-3.4,6-5.5,7-6.3c1-1,1-2.9,0-5.7c-1.1-3.1-2.7-6-4.7-8.6
	c5.2-6.7,11.2-12.7,18-17.8c6.5-4.9,12.6-7.3,18.3-7.3c3.5,0,5.3,2.2,5.3,6.7c-0.1,5.8-0.9,11.6-2.3,17.2c-1.7,6.8-3.8,13.5-6.4,20
	c-2.9,7.2-6.2,14.2-10.1,20.9c-3.9,6.9-8.3,13.5-13,19.9c-9.3-1.4-15.8-4.4-19.5-9.2L608.8,219z M649,200.1c-0.4,0.8-0.7,1.5-1,2.2
	s-0.6,1.4-1,2.2l-1,2l-1,2c-0.8,1.6-1.6,3-2.3,4.2s-1.7,2.7-2.6,4.2c-1,1.4-1.9,2.7-2.8,4s-1.8,2.6-2.8,4l-2.6,3.5h-1.2
	c0.4-0.7,0.9-1.4,1.5-2c0.6-0.6,1.1-1.3,1.5-2c1-1.3,1.9-2.6,2.8-4c0.9-1.3,1.8-2.6,2.8-4c0.8-1.6,1.6-3,2.3-4.2s1.6-2.7,2.5-4.2
	c0.4-0.6,0.7-1.2,1-1.9c0.3-0.7,0.6-1.4,1-2.2c0.7-1.3,1.4-2.7,2-4.1c0.8-1.3,1.4-2.7,2-3.9c0.6-1.3,1.1-2.6,1.8-3.9
	c0.6-1.3,1.1-2.6,1.6-3.8c0.5-1.2,0.9-2.4,1.3-3.5c1-2.1,1.8-4.2,2.5-6.1c0.7-2,1.2-3.6,1.6-5c0.2-0.6,0.4-1.1,0.6-1.6
	s0.4-0.9,0.6-1.3c-0.4,0.9-0.7,1.9-0.9,2.9c-1,2.9-2.2,6.7-3.5,11.4c-0.4,1.2-0.9,2.4-1.5,3.5c-0.6,1.2-1.1,2.5-1.5,3.8
	c-0.6,1.3-1.2,2.7-1.8,3.9C650.5,197.4,649.8,198.7,649,200.1z M660.3,178.6c-0.5,1.5-0.9,3-1.3,4.5c-0.4,1.4-0.9,2.7-1.5,3.9
	c-0.6,1.3-1.1,2.4-1.5,3.4c-0.4,1.2-0.8,2.2-1.2,3.1c-0.3,0.8-0.7,1.5-1.2,2.2l-0.6,1.2c0-0.5,0.1-1,0.3-1.5c0.4-0.7,0.8-1.4,1-2.2
	l1-3.1c0.4-1,0.8-2.1,1.3-3.4s0.9-2.6,1.3-3.9c0.4-1.6,0.8-3.1,1.2-4.5c0.4-1.5,0.8-3,1.2-4.5c0.4-1.6,0.7-3,1-4.4
	c0.3-1.4,0.6-2.8,1-4.4c0.4-1.4,0.6-2.8,0.7-4.2c0.1-1.3,0.2-2.5,0.4-3.7c0.2-1.2,0.3-2.2,0.4-3.2s0.2-1.8,0.2-2.3
	c0-0.3,0-0.7,0.2-1c0.1-0.2,0.1-0.5,0.2-0.7v7.3c-0.2,1.2-0.3,2.4-0.4,3.8c-0.1,1.5-0.4,3-0.7,4.4c-0.2,1.3-0.4,2.7-0.7,4.2
	s-0.6,3-1,4.5C661.2,175.6,660.8,177.1,660.3,178.6z M736.4,139c0.2-0.2,0.3-0.3,0.3-0.4s0.2-0.2,0.6-0.4c0.9-1.1,2-2.1,3.2-2.9
	c1.4-1.4,3-2.7,4.7-3.8c1-0.8,2-1.4,3.1-2c1.1-0.6,2.1-1.2,3.1-1.8c1.2-0.6,2.3-1.1,3.4-1.6c1.1-0.5,2.2-0.9,3.4-1.3
	c0.5-0.2,1-0.4,1.5-0.4c0.5-0.1,1-0.2,1.5-0.4c1-0.3,1.9-0.5,2.9-0.6c0.9-0.2,1.7-0.3,2.6-0.3h3.5c0,0.1-0.1,0.3-0.2,0.3
	c0,0,0,0-0.1,0h-1.2c-0.3,0.2-0.6,0.3-1,0.3c-0.4,0-0.7,0.1-1,0.3c-0.8,0.1-1.6,0.3-2.3,0.6c-0.8,0.4-1.7,0.7-2.6,1
	c-1,0.3-2,0.6-2.9,1c-0.9,0.6-1.9,1.1-2.9,1.5c-1.1,0.5-2.2,1.1-3.2,1.8c-0.5,0.3-1,0.6-1.6,0.7c-0.6,0.1-1.1,0.4-1.6,0.7
	c-0.4,0.4-0.9,0.7-1.5,0.9c-0.5,0.2-1,0.5-1.5,0.9c-0.9,0.5-1.8,1.1-2.6,1.8c-0.8,0.6-1.7,1.1-2.6,1.5c-0.6,0.5-1.3,0.9-2,1.3
	c-0.5,0.3-1,0.6-1.5,1c-0.5,0.3-1,0.6-1.5,0.9L736.4,139z M731.8,146.3c0.4-0.4,0.9-0.8,1.3-1.2c0.6-0.5,1.1-0.9,1.6-1.5
	c1.2-1,2.5-2.1,4.1-3.4c1.5-1.2,3.1-2.3,4.7-3.4c1.7-1.1,3.4-2.1,5.1-3.1c1.7-0.9,3.3-1.7,4.8-2.5c1-0.5,2.1-1,3.2-1.5
	c0.5-0.2,1-0.4,1.5-0.6v0.3l-1.2,0.6c-1,0.6-2.1,1.2-3.2,1.8c-0.8,0.4-1.5,0.8-2.2,1.3c-0.8,0.5-1.6,1-2.5,1.3
	c-0.8,0.4-1.6,0.9-2.3,1.5c-0.8,0.6-1.7,1.2-2.6,1.8c-0.9,0.3-1.7,0.8-2.5,1.5c-0.7,0.6-1.4,1.2-2.2,1.8c-1,0.6-1.8,1.1-2.5,1.6
	s-1.3,0.9-1.9,1.3s-1.1,0.8-1.6,1.2c-0.5,0.4-0.9,0.7-1.4,1.1l-0.9,0.9h-0.3L731.8,146.3z M731,195.3c0.1-0.5,0.3-1.1,0.4-1.6
	l2.6-2.6c1.6-1.6,3-2.9,4.2-3.9c1.3-1.1,2.4-2.1,3.4-3.1c0.4-0.4,0.8-0.7,1.2-1c0.4-0.3,0.8-0.5,1.2-0.7c0.3-0.1,0.6-0.3,0.9-0.6
	l-2.9,2.9l-2.9,2.9c-0.6,0.8-1.2,1.5-1.9,2.2l-2.2,2.2c-0.8,0.8-1.5,1.6-2.2,2.3c-0.7,0.8-1.4,1.7-2.2,2.6
	C730.8,196.3,730.9,195.8,731,195.3L731,195.3z M698.4,248.4c-0.2,1-0.3,1.8-0.4,2.3c-0.1,0.6-0.1,1.2-0.2,1.8c0,0.4,0,0.6-0.2,0.7
	c-0.1,0.1-0.2,0.3-0.2,0.4v-2.9c0-0.8,0.1-1.6,0.3-2.3c0-0.4,0.1-0.9,0.2-1.3c0.1-0.4,0.1-0.9,0.2-1.3c0-1,0.2-2,0.6-2.9
	c0.4-1,0.7-2.1,0.9-3.2c0.2-1.1,0.5-2.2,0.9-3.2c0.4-1,0.8-1.9,1.3-2.9c0.5-1,0.9-1.9,1.3-2.9c0.7-1.8,1.6-3.6,2.6-5.3
	c0.4-0.6,0.7-1.1,1-1.8c0.3-0.5,0.6-1,1-1.5c-0.4,0.4-0.6,0.9-0.7,1.5c-0.1,0.7-0.4,1.4-0.7,2c-0.4,1-0.8,1.9-1.2,2.6
	s-0.8,1.7-1.1,2.7c-1.1,1.9-1.9,4-2.3,6.1c-0.4,1-0.7,2-1,3.1c-0.3,1-0.6,2.1-1,3.1C699.3,244.8,698.9,246.6,698.4,248.4
	L698.4,248.4z M701.3,246.2c-0.2,0.9-0.4,1.8-0.6,2.8c-0.3,0.8-0.6,1.6-0.7,2.5c-0.1,0.6-0.2,1.3-0.4,1.9c0,1-0.1,2-0.3,2.9
	c0-0.4-0.1-0.9-0.2-1.3c-0.1-0.5,0-1.1,0.2-1.6c0.1-1.5,0.3-2.9,0.6-4.4c0-0.5,0.1-1,0.2-1.5c0.1-0.5,0.1-1,0.2-1.5
	c0.4-1.2,0.7-2.1,0.9-2.9c0.4-1,0.7-2,1-3.1c0.3-1.1,0.6-2.2,1-3.4c0.4-0.5,0.6-1.1,0.7-1.8c0.1-0.6,0.4-1.2,0.7-1.8
	c0.2-0.6,0.4-1.2,0.6-1.8c0.2-0.7,0.5-1.4,0.9-2l1.8-3.5c0.6-1.2,1.3-2.4,2-3.8l4.4-7c0.7-1.3,1.5-2.5,2.3-3.7
	c0.8-1.1,1.6-2.2,2.3-3.4l0.9-0.9l0.9,2.6c-0.8,1-1.6,2-2.3,3.1c-0.8,1.1-1.5,2.2-2.2,3.3l-4.4,7c-0.6,1.2-1.2,2.3-1.9,3.5
	s-1.3,2.3-1.9,3.5c-0.6,1.1-1.1,2.3-1.5,3.5l-1.8,3.5c-0.9,2-1.7,4-2.3,6.1C701.9,244.3,701.6,245.2,701.3,246.2L701.3,246.2z
	 M702.8,262.1c0-9.2,1.9-18.2,5.6-26.6c3.5-8.1,7.9-15.7,13.2-22.8c2.2,5.5,5.1,10.7,8.6,15.4c3.8,4.9,8.5,9,13.8,12.1
	c-5.8,6.3-12.5,11.6-19.9,15.9C717.7,259.9,710.3,262,702.8,262.1L702.8,262.1z M744.5,243.1c-0.5,0.6-1,1.1-1.6,1.5
	c-1,1-1.9,1.8-2.6,2.5c-0.8,0.7-1.6,1.3-2.3,1.9s-1.5,1.2-2.2,1.8c-0.6,0.5-1.2,1-1.9,1.5l-2,1.5c0.2-0.2,0.4-0.4,0.6-0.5
	c0.5-0.4,1-0.8,1.5-1.3c0.5-0.5,1-0.9,1.6-1.3c0.8-0.6,1.5-1.2,2.2-1.9c0.8-0.6,1.5-1.3,2.2-2c0.8-0.9,1.6-1.6,2.5-2.3l3.2-3.2
	c0.2,0,0.3,0,0.3,0.1s0.1,0.1,0.3,0.1C745.5,241.9,745,242.5,744.5,243.1L744.5,243.1z M734.7,219c-3.7-4.7-5.5-10.6-5-16.5
	c3.9-4.7,8.1-9.1,12.6-13.3c3.7-3.4,6-5.5,7-6.3c1-1,1-2.9,0-5.7c-1.1-3.1-2.7-6-4.7-8.6c5.2-6.7,11.2-12.7,18-17.8
	c6.5-4.9,12.6-7.3,18.3-7.3c3.5,0,5.3,2.2,5.3,6.7c-0.1,5.8-0.9,11.6-2.3,17.2c-1.7,6.8-3.8,13.5-6.4,20
	c-2.9,7.2-6.2,14.2-10.1,20.9c-3.9,6.9-8.3,13.5-13,19.9C744.9,226.8,738.4,223.7,734.7,219L734.7,219z M774.7,200.1
	c-0.4,0.8-0.7,1.5-1,2.2s-0.6,1.4-1,2.2l-1,2l-1,2c-0.8,1.6-1.6,3-2.3,4.2c-0.8,1.3-1.7,2.7-2.6,4.2c-1,1.4-1.9,2.7-2.8,4
	s-1.8,2.6-2.8,4l-2.6,3.5h-1.2c0.4-0.7,0.9-1.4,1.5-2c0.6-0.6,1.1-1.3,1.5-2c1-1.3,1.9-2.6,2.8-4s1.8-2.6,2.8-4
	c0.8-1.6,1.6-3,2.3-4.2c0.8-1.3,1.7-2.7,2.6-4.2c0.4-0.6,0.7-1.2,1-1.9c0.3-0.7,0.6-1.4,1-2.2c0.7-1.3,1.4-2.7,2-4.1
	c0.8-1.3,1.4-2.7,2-3.9c0.6-1.3,1.1-2.6,1.8-3.9c0.6-1.3,1.1-2.6,1.6-3.8c0.5-1.2,0.9-2.4,1.3-3.5c1-2.1,1.8-4.2,2.5-6.1
	c0.7-2,1.2-3.6,1.6-5c0.2-0.6,0.4-1.1,0.6-1.6s0.4-0.9,0.6-1.3c-0.4,0.9-0.7,1.9-0.9,2.9c-1,2.9-2.2,6.7-3.5,11.4
	c-0.4,1.2-0.9,2.4-1.5,3.5c-0.6,1.2-1.1,2.5-1.5,3.8c-0.6,1.3-1.2,2.7-1.8,3.9C776.2,197.4,775.5,198.7,774.7,200.1L774.7,200.1z
	 M786,178.6c-0.5,1.5-0.9,3-1.3,4.5c-0.4,1.4-0.9,2.7-1.5,3.9c-0.6,1.3-1.1,2.4-1.5,3.4c-0.4,1.2-0.8,2.2-1.2,3.1
	c-0.3,0.8-0.7,1.5-1.2,2.2l-0.6,1.2c0-0.5,0.1-1,0.3-1.5c0.4-0.7,0.8-1.4,1-2.2l1-3.1c0.4-1,0.8-2.1,1.3-3.4s0.9-2.6,1.3-3.9
	c0.4-1.6,0.8-3.1,1.2-4.5c0.4-1.5,0.8-3,1.2-4.5c0.4-1.6,0.7-3,1-4.4c0.3-1.4,0.6-2.8,1-4.4c0.4-1.4,0.6-2.8,0.7-4.2
	c0.1-1.3,0.2-2.5,0.4-3.7c0.2-1.2,0.3-2.2,0.4-3.2s0.2-1.8,0.2-2.3c0-0.3,0-0.7,0.2-1c0.1-0.2,0.1-0.5,0.2-0.7v7.3
	c-0.2,1.2-0.3,2.4-0.4,3.8c-0.1,1.5-0.4,3-0.7,4.4c-0.2,1.3-0.4,2.7-0.7,4.2s-0.6,3-1,4.5C786.9,175.6,786.5,177.1,786,178.6z
	 M896.4,142.5c0.6-0.4,1.2-0.8,1.9-1.3s1.3-0.9,1.9-1.3c0.9-0.5,1.9-0.8,2.9-1.2l1.2-0.6c0,0.1-0.1,0.3-0.2,0.3c0,0,0,0-0.1,0
	c-0.2,0-0.3,0-0.4,0.1c-0.1,0.1-0.3,0.2-0.4,0.1c-0.8,0.7-1.7,1.3-2.6,1.8c-0.3,0.1-0.6,0.3-0.9,0.6c-0.3,0.2-0.6,0.4-0.9,0.6
	l-1.7,1.8c-1.5,0.9-2.8,2.1-3.8,3.5c-1.3,1.1-2.5,2.3-3.7,3.7c-1.1,1.3-2.1,2.4-3.1,3.4c-0.4,0.6-0.7,1.1-1,1.5
	c-0.3,0.4-0.6,0.8-1,1.2l-0.9,0.9l0.6-1.2c0.4-1,1-1.9,1.8-2.6c0.4-0.6,0.8-1.2,1.3-1.8c0.5-0.6,1-1.3,1.6-2
	c0.6-0.6,1.2-1.2,1.8-1.9s1.2-1.3,1.8-1.9s1.2-1.2,1.9-1.8S895.6,143.1,896.4,142.5z M857.5,196c0.4-0.8,0.9-1.7,1.5-2.6
	s1.3-2,2-3.2c0.8-1,1.6-2.1,2.5-3.4c0.9-1.3,1.8-2.7,2.8-4.2c1-1.3,2-2.7,3.1-4.1c1.1-1.4,2.1-2.9,3.1-4.4c1.2-1.6,2.3-3,3.4-4.4
	c1.1-1.4,2.2-2.7,3.4-4.1c1-1.3,1.9-2.6,2.9-3.8c1-1.2,1.9-2.3,2.9-3.2l4.7-4.7c-0.7,0.7-1.3,1.5-1.8,2.3c-0.7,1.1-1.4,2-2.3,2.9
	c-1,1-2,2.1-2.9,3.2s-1.9,2.4-2.9,3.8c-1,1.3-2,2.7-3.1,4.1c-1.1,1.4-2.2,2.9-3.3,4.4c-0.9,1.5-2,3-3.1,4.4
	c-1.1,1.3-2.1,2.7-3.1,4.1c-1,1.4-1.9,2.7-2.9,3.9c-1,1.3-1.8,2.5-2.6,3.7c-0.8,1-1.6,2-2.3,3.1l-1.5,2.2c-0.6,0.8-1.1,1.5-1.5,2
	C856.6,197.3,857,196.6,857.5,196z M863.3,169.1c1-1.6,2.1-3.2,3.4-4.8c1.3-1.7,2.5-3.3,3.7-4.8c1.3-1.6,2.7-3.1,4-4.7
	s2.6-3.1,4-4.7c1.3-1.6,2.6-3,3.8-4.2c1.1-1.2,2.3-2.3,3.5-3.4c0.9-1.1,1.9-2.1,2.9-3.1c1-0.9,1.8-1.6,2.3-2.2l1.5-1.5
	c-0.2,0.2-0.4,0.5-0.4,0.7c-0.2,0.4-0.4,0.7-0.7,1l-2.2,2.2c-0.9,0.9-1.8,1.9-2.8,3.1c-2.5,2.5-4.8,5.1-7,7.9
	c-2.7,3.1-5.3,6.2-7.6,9.4c-1.3,1.6-2.7,3.2-4,4.8s-2.4,3.3-3.4,4.9c-1.2,1.6-2.2,3-3.2,4.4l-1,1.5c0-0.4-0.1-0.7-0.2-1.1
	c0.2-0.3,0.4-0.6,0.6-0.9C861.2,172.1,862.2,170.6,863.3,169.1L863.3,169.1z M844.9,154.2c-0.2,0.7-0.5,1.4-0.9,2
	c-0.1,0.3-0.3,0.6-0.4,0.9c0.3-1,0.7-2,1-2.9L844.9,154.2z M842.9,159c-0.3,0.9-0.6,2-1,3.3c-0.2,0.6-0.3,1.2-0.5,1.8l-1.3,2.2
	c0.6-1.4,1.1-2.8,1.5-4S842.5,160.1,842.9,159L842.9,159z M779.1,328.5c-0.8,2.1-1.7,4.6-2.8,7.3s-2.1,5.5-3.1,8.2
	c-0.6,1.6-1.1,3-1.6,4.4c-0.5,1.4-1,2.7-1.6,4.1c-0.4,1.3-0.9,2.6-1.5,3.8c-0.6,1.2-1.1,2.2-1.5,3.2l-1,3.1c-0.2,0.8-0.6,1.5-1,2.2
	l-0.9,1.8c0.2-0.6,0.4-1.3,0.6-2c0.4-1.8,1-3.6,1.8-5.3c1-2.3,1.9-4.8,2.6-7.3c0.4-1.4,0.9-2.7,1.5-4c0.6-1.4,1.1-2.8,1.4-4.3
	c0.6-1.6,1.2-3,1.8-4.2c0.6-1.3,1.2-2.6,1.8-4c0.4-1.3,0.9-2.6,1.5-3.8c0.6-1.2,1.1-2.2,1.5-3.2l1.2-2.9c0.3-0.8,0.7-1.6,1.2-2.3
	l0.9-1.8C780.8,323.8,779.9,326.1,779.1,328.5z M803,265.7c-2.4,5.8-4.7,11.4-6.9,16.8c-2.1,5.5-4.3,10.7-6.4,15.6
	c-2.1,5-4.2,9.6-6.1,13.9c-1.8,4.5-3.5,8.4-5.1,11.8c-1.5,3-2.8,6.1-4,9.2c-0.6,1.4-1.1,2.5-1.5,3.4s-0.8,1.7-1.2,2.5
	c-0.3,0.6-0.6,1.3-0.9,2l-0.3-0.3c3.7-9,7.6-18.6,11.7-29l25.7-64.3c0.9-2.4,1.8-4.7,2.7-7c1-0.6,2-1.2,3-1.9
	c-1.2,3.3-2.5,6.5-3.7,9.8C807.8,254.2,805.4,260,803,265.7z M853.7,268.5c-2.9,0.1-5.6-1.3-7.2-3.7c-1.8-2.7-2.9-5.8-3.4-9.1
	c-0.6-3.8-0.8-7.7-0.6-11.5c0.2-4.1,0.5-7.8,0.9-11.1c12.7-19.7,23.4-35,32.2-46.1s16-19.2,21.6-24.7c6.4-6.5,11.8-10.4,16.1-11.7
	c-0.1,7.1-0.7,14.2-1.8,21.2c-2.6,17.4-7.1,34.5-13.5,51c-3,8.1-7,15.8-11.7,23c-4,6.2-9.1,11.8-14.9,16.4
	C866.5,266.3,860.2,268.5,853.7,268.5z M891.7,251c-0.4,0.6-0.8,1.2-1.3,1.8c-0.5,0.6-1.1,1.4-1.9,2.3c-1.3,1.6-3,3.4-5,5.4
	c-1.9,2-4,3.9-6.1,5.7c-1.2,0.9-2.4,1.7-3.8,2.3c-1.1,0.8-2.3,1.4-3.5,2c-1.1,0.6-2.3,1.1-3.5,1.5c-0.5,0.4-1.1,0.6-1.8,0.7
	c-0.5,0.1-1,0.2-1.5,0.4c-0.9,0.4-1.8,0.7-2.8,0.9c-0.9,0.2-1.7,0.4-2.5,0.6c-0.5,0.2-1,0.3-1.5,0.3h-0.3c0-0.1,0.1-0.3,0.2-0.3
	c0,0,0,0,0.1,0c0.5,0,1-0.1,1.5-0.3c1.3-0.4,3-1,5-1.8c0.5-0.2,1-0.4,1.5-0.6l1.8-0.6c1-0.6,2.1-1.2,3.2-1.8c0.6-0.4,1.1-0.7,1.8-1
	c0.6-0.3,1.2-0.6,1.8-1c1.1-0.9,2.3-1.7,3.5-2.3c1.1-0.8,2.2-1.7,3.2-2.6c1-1,2.1-2,3.2-2.9l2.6-2.6c0.8-0.8,1.6-1.7,2.3-2.6
	l4.7-4.7c-0.2,0.2-0.3,0.4-0.4,0.6C892,250.6,891.9,250.8,891.7,251L891.7,251z M910.4,201.6l-1.2,4.7c-0.4,1.6-0.8,3.1-1.2,4.7
	c-0.6,1.6-1.1,3.1-1.6,4.7s-1,3.1-1.6,4.7c-0.3,0.8-0.6,1.6-0.9,2.5c-0.2,0.8-0.5,1.5-0.9,2.2c-0.4,1.6-1.1,3.2-2,4.7
	c-0.4,0.8-0.7,1.5-1,2.2s-0.6,1.4-1,2.2s-0.8,1.5-1.2,2.2s-0.8,1.3-1.2,1.9c-1.3,2.8-3,5.3-5,7.6l-1.2,1.8l-1.2,1.8
	c-0.6,0.4-1.1,0.9-1.5,1.5c-0.3,0.5-0.7,1-1.2,1.5l-2.6,2.6l-2.3,2.3c-0.3,0.3-0.6,0.6-1,0.9c-0.4,0.3-0.7,0.6-1,0.9
	c-0.5,0.6-1.1,1.1-1.8,1.5c-0.6,0.4-1.1,0.7-1.6,1c-0.5,0.3-0.9,0.6-1.3,1l-0.9,0.9l3.2-3.2c0.6-0.6,1.3-1.2,2-1.8
	c0.6-0.6,1.2-1.3,1.8-2c0.8-0.8,1.5-1.6,2.2-2.3c0.7-0.8,1.4-1.7,2.2-2.6c0.4-0.4,0.8-0.9,1.2-1.5c0.3-0.5,0.7-1,1.2-1.5l1.2-1.8
	l1.2-1.8c0.9-1.1,1.7-2.3,2.3-3.7c0.7-1.4,1.4-2.7,2.3-4c0.4-0.8,0.7-1.5,1-2.2c0.3-0.7,0.6-1.3,1-1.9c0.4-0.8,0.7-1.5,1-2.2
	c0.3-0.7,0.6-1.4,1-2.2c0.4-0.8,0.7-1.5,1-2.3c0.3-0.8,0.6-1.6,1-2.3c0.4-0.7,0.7-1.4,0.9-2.2c0.2-0.7,0.4-1.5,0.6-2.5
	c0.8-1.5,1.4-3.1,1.9-4.7c0.5-1.6,0.9-3.1,1.3-4.7s0.8-3.1,1.3-4.5c0.5-1.5,0.9-3,1.3-4.5s0.7-3,1-4.4c0.3-1.3,0.6-2.8,1-4.4
	c0.4-1.3,0.7-2.6,0.9-3.9c0.2-1.3,0.4-2.6,0.6-3.9c0.4-2.3,0.8-4.5,1.2-6.4s0.8-3.7,1.2-5.3l0.9-4.4v1.2c0,0.4-0.1,0.9-0.2,1.3
	c-0.1,0.6-0.2,1.3-0.2,1.9c-0.2,1.6-0.4,3.3-0.6,5.3s-0.5,4.2-0.9,6.7c-0.2,1.3-0.4,2.6-0.6,3.9s-0.4,2.6-0.6,3.9
	c-0.4,1.5-0.7,3-0.9,4.5C911,198.5,910.7,200.1,910.4,201.6L910.4,201.6z"/>
</svg>
