<?xml version="1.0" encoding="UTF-8" standalone="no"?>
<!DOCTYPE svg  PUBLIC '-//W3C//DTD SVG 1.1//EN'  'http://www.w3.org/Graphics/SVG/1.1/DTD/svg11.dtd'>
<svg xmlns="http://www.w3.org/2000/svg">
<defs>
<font id="Bookmania-Light" horiz-adv-x="544">
<font-face underline-position="-50" font-weight="300" descent="-200" panose-1="2 4 3 3 6 5 6 6 2 3" units-per-em="1000" unicode-range="U+0020-25CA" bbox="-195 -269 1200 924" x-height="446" underline-thickness="50" font-family="Bookmania Light" ascent="800" cap-height="700"/>
<missing-glyph horiz-adv-x="1000"/>
<glyph glyph-name=".notdef" horiz-adv-x="1000"/>
<glyph glyph-name=".null" horiz-adv-x="0"/>
<glyph glyph-name="nonmarkingreturn" horiz-adv-x="333"/>
<glyph glyph-name="space" horiz-adv-x="258" unicode=" "/>
<glyph glyph-name="exclam" horiz-adv-x="226" unicode="!" d="M66 40q0 20 14 33t33 13t33 -13t14 -33q0 -22 -13.5 -35t-33.5 -13t-33.5 13t-13.5 35zM125 162h-24q0 171 -17.5 291.5t-17.5 160.5q0 101 47 101t47 -101q0 -40 -17.5 -160.5t-17.5 -291.5z"/>
<glyph glyph-name="quotedbl" horiz-adv-x="386" unicode='&quot;' d="M123 459h-20q-3 66 -16.5 130.5t-13.5 79.5q0 20 11.5 33t28.5 13t28.5 -13t11.5 -33q0 -15 -13.5 -79.5t-16.5 -130.5zM283 459h-20q-3 66 -16.5 130.5t-13.5 79.5q0 20 11.5 33t28.5 13t28.5 -13t11.5 -33q0 -15 -13.5 -79.5t-16.5 -130.5z"/>
<glyph glyph-name="numbersign" d="M222 460l-62 -220h161l62 220h-161zM254 0l59 211h-161l-59 -211h-33l59 211h-108v29h116l62 220h-131v29h139l60 211h33l-60 -211h161l60 211h33l-60 -211h109v-29h-117l-62 -220h132v-29h-140l-59 -211h-33z" unicode="#"/>
<glyph glyph-name="dollar" horiz-adv-x="572" unicode="$" d="M135 549q0 -59 36.5 -90.5t106.5 -56.5v279q-68 -4 -105.5 -38t-37.5 -94zM467 160q0 66 -40 100t-116 61v-302q81 6 118.5 48.5t37.5 92.5zM278 -111v96q-77 4 -132 51l-15 -36h-20l-71 209l15 6q54 -100 112 -147t111 -50v315q-37 13 -59 21.5t-52 26t-46.5 36.5 t-28.5 50t-12 70q0 61 47.5 116.5t150.5 60.5v46h33v-46q64 -5 103 -40l11 26h20l68 -192l-15 -6q-42 90 -87.5 132t-99.5 47v-290q41 -14 62.5 -22.5t54.5 -27t50 -38.5t30.5 -53t13.5 -74q0 -77 -55.5 -130t-155.5 -60v-97h-33z"/>
<glyph glyph-name="percent" horiz-adv-x="817" unicode="%" d="M534 210q0 -95 19.5 -145.5t73.5 -50.5q55 0 74.5 50.5t19.5 145.5q0 96 -19.5 146t-74.5 50q-54 0 -73.5 -50t-19.5 -146zM474 210q0 97 39.5 158t113.5 61t114 -61t40 -158t-40 -158t-114 -61t-113.5 61t-39.5 158zM164 0l456 700h33l-456 -700h-33zM96 490 q0 -95 19.5 -145.5t73.5 -50.5q55 0 74.5 50.5t19.5 145.5q0 96 -19.5 146t-74.5 50q-54 0 -73.5 -50t-19.5 -146zM36 490q0 97 39.5 158t113.5 61t114 -61t40 -158t-40 -158t-114 -61t-113.5 61t-39.5 158z"/>
<glyph glyph-name="ampersand" horiz-adv-x="736" unicode="&amp;" d="M194 580q0 -38 20 -67.5t66 -65.5q60 36 91 67t31 72q0 42 -26.5 69t-74.5 27t-77.5 -27.5t-29.5 -74.5zM261 25q104 0 183 71q-54 137 -90.5 198.5t-87.5 104.5q-37 -23 -60.5 -41t-49.5 -45t-38.5 -59.5t-12.5 -71.5q0 -61 41 -109t115 -48zM600 357q-12 -136 -94 -240 q23 -57 46 -77t60 -20q47 0 89 18v-28q-41 -24 -114 -24q-46 0 -76.5 18t-53.5 62q-92 -81 -210 -81q-98 0 -155 52.5t-57 126.5q0 47 16.5 86.5t50 72t61.5 52t75 47.5q-90 77 -90 156q0 47 37.5 92t115.5 45q63 0 101 -38.5t38 -90.5q0 -50 -33.5 -86t-97.5 -75 q55 -44 95.5 -102.5t87.5 -172.5q69 97 69 213q0 46 -21.5 64t-77.5 23v16h239v-16q-55 -5 -76 -23.5t-25 -69.5z"/>
<glyph glyph-name="quotesingle" horiz-adv-x="226" unicode="&apos;" d="M123 459h-20q-3 66 -16.5 130.5t-13.5 79.5q0 20 11.5 33t28.5 13t28.5 -13t11.5 -33q0 -15 -13.5 -79.5t-16.5 -130.5z"/>
<glyph glyph-name="parenleft" horiz-adv-x="298" unicode="(" d="M36 260q0 142 67 271.5t169 203.5l20 -23q-85 -62 -140.5 -190.5t-55.5 -261.5t55.5 -261.5t140.5 -190.5l-20 -23q-102 74 -169 203.5t-67 271.5z"/>
<glyph glyph-name="parenright" horiz-adv-x="298" unicode=")" d="M262 260q0 -142 -67 -271.5t-169 -203.5l-20 23q85 62 140.5 190.5t55.5 261.5t-55.5 261.5t-140.5 190.5l20 23q102 -74 169 -203.5t67 -271.5z"/>
<glyph glyph-name="asterisk" horiz-adv-x="392" unicode="*" d="M229 677q0 -15 -11.5 -53.5t-14.5 -77.5q33 22 61 51.5t40 36.5q10 6 21 6q19 0 29 -16q4 -7 4 -15q0 -20 -21 -33q-13 -8 -52 -17.5t-74 -25.5q36 -17 75 -26.5t51 -16.5q21 -12 21 -33q0 -8 -4 -15q-10 -16 -28 -16q-12 0 -22 6q-12 7 -40 36t-61 51q3 -39 14.5 -77.5 t11.5 -52.5q0 -17 -9.5 -27.5t-23.5 -10.5t-23.5 10.5t-9.5 27.5q0 14 11 52.5t14 78.5q-33 -23 -60.5 -52t-39.5 -36q-11 -6 -22 -6q-18 0 -28 16q-4 7 -4 15q0 21 21 33q12 7 50.5 16.5t73.5 26.5q-34 16 -72.5 25.5t-51.5 17.5q-21 13 -21 33q0 8 4 15q10 16 29 16 q11 0 21 -6q12 -7 40 -36.5t60 -51.5q-3 39 -14 78t-11 53q0 16 9.5 27t23.5 11t23.5 -11t9.5 -27z"/>
<glyph glyph-name="plus" d="M11 329v43h239v239h43v-239h240v-43h-240v-240h-43v240h-239z" unicode="+"/>
<glyph glyph-name="comma" horiz-adv-x="226" unicode="," d="M66 40q0 20 14 33t33 13q20 0 33.5 -15t13.5 -43q0 -44 -24 -95.5t-56 -81.5l-13 10q52 68 58 131q-59 0 -59 48z"/>
<glyph glyph-name="hyphen" horiz-adv-x="224" unicode="-" d="M11 201v43h202v-43h-202z"/>
<glyph glyph-name="period" horiz-adv-x="226" unicode="." d="M66 40q0 20 14 33t33 13t33 -13t14 -33q0 -22 -13.5 -35t-33.5 -13t-33.5 13t-13.5 35z"/>
<glyph glyph-name="slash" horiz-adv-x="298" unicode="/" d="M0 -214l265 944h33l-265 -944h-33z"/>
<glyph glyph-name="zero" horiz-adv-x="572" unicode="0" d="M120 350q0 -73 6.5 -127.5t23.5 -103.5t51.5 -75t84.5 -26t84.5 26t51.5 75t23.5 103.5t6.5 127.5t-6.5 127.5t-23.5 103.5t-51.5 75t-84.5 26t-84.5 -26t-51.5 -75t-23.5 -103.5t-6.5 -127.5zM50 350q0 101 24.5 182t79.5 132t132 51t132 -51t79.5 -132t24.5 -182 t-24.5 -182t-79.5 -132t-132 -51t-132 51t-79.5 132t-24.5 182z"/>
<glyph glyph-name="one" horiz-adv-x="572" unicode="1" d="M452 0h-332v16q88 4 112 19t24 77v461q0 19 -8 26.5t-26 7.5h-100v11l174 97h20v-603q0 -62 24 -77t112 -19v-16z"/>
<glyph glyph-name="two" horiz-adv-x="572" unicode="2" d="M109 507h-38q0 95 59 151.5t142 56.5q93 0 152.5 -57t59.5 -146q0 -48 -19.5 -98.5t-45.5 -90t-75.5 -91t-85.5 -84.5t-100 -88h266q26 0 37 15.5t22 80.5h17l-21 -178h-17q0 22 -14 22h-369v18l55 55t60.5 61t53.5 57.5t55 64t42.5 60t38.5 67t20.5 62.5t9.5 67 q0 170 -142 170q-71 0 -117 -44.5t-46 -130.5z"/>
<glyph glyph-name="three" horiz-adv-x="572" unicode="3" d="M479 560q0 -60 -32 -102t-87 -59q61 -11 105 -64t44 -117q0 -102 -66.5 -167.5t-184.5 -65.5q-76 0 -131.5 24.5t-55.5 67.5q0 18 11.5 30t26.5 12q25 0 42.5 -16t27 -34.5t30 -34.5t49.5 -16q181 0 181 175q0 71 -48.5 123t-136.5 52h-18v32h26q72 0 109.5 44t37.5 102 q0 56 -32.5 96t-97.5 40q-62 0 -103.5 -37t-46.5 -108h-38q8 81 59 129.5t137 48.5q91 0 141.5 -48t50.5 -107z"/>
<glyph glyph-name="four" horiz-adv-x="572" unicode="4" d="M340 617l-247 -397h247v397zM400 0h-60v187h-290v26l302 487h48v-480h122v-33h-122v-187z"/>
<glyph glyph-name="five" horiz-adv-x="572" unicode="5" d="M248 463q117 0 185.5 -71.5t68.5 -173.5q0 -96 -64 -164.5t-172 -68.5q-77 0 -137 24.5t-60 67.5q0 18 11.5 30t26.5 12q25 0 44 -16t30 -34.5t33.5 -34.5t51.5 -16q89 0 135 51t46 135q0 83 -56 136t-143 53q-76 0 -132 -28l-16 7l47 328h271q26 0 29 22h17l-11 -82 h-282l-26 -193q42 16 103 16z"/>
<glyph glyph-name="six" horiz-adv-x="572" unicode="6" d="M286 418q-44 0 -89.5 -21t-73.5 -53q-3 -27 -3 -56q0 -128 37 -199t129 -71q80 0 123 55t43 141q0 87 -43 145.5t-123 58.5zM472 715v-33q-294 -35 -343 -291q30 25 73 42.5t85 17.5q109 0 172 -70t63 -167q0 -94 -67.5 -161.5t-168.5 -67.5q-110 0 -173 85t-63 219 q0 178 115.5 293.5t306.5 132.5z"/>
<glyph glyph-name="seven" horiz-adv-x="572" unicode="7" d="M256 0h-70q15 158 82 325.5t169 314.5h-295q-26 0 -37 -15.5t-22 -80.5h-17l21 178h17q0 -22 14 -22h379v-18q-205 -290 -241 -682z"/>
<glyph glyph-name="eight" horiz-adv-x="572" unicode="8" d="M135 557q0 -34 12.5 -59.5t40 -45t50.5 -30.5t65 -27q73 30 112 64t39 92t-41 95t-117 37t-118.5 -33.5t-42.5 -92.5zM94 170q0 -62 47.5 -107.5t144.5 -45.5q50 0 87 14t56.5 36.5t28.5 45.5t9 47q0 21 -5.5 39t-12.5 31.5t-23 27t-26.5 21t-33.5 18.5t-34 15.5t-39 15 t-38 14.5q-78 -31 -119.5 -68.5t-41.5 -103.5zM493 557q0 -68 -38.5 -108t-108.5 -71q40 -15 67 -30t54 -38t41 -57t14 -77q0 -83 -62 -137t-174 -54t-174 56t-62 123q0 75 43 118.5t121 76.5q-63 29 -98.5 72t-35.5 115q0 24 11 51t33.5 54.5t67.5 45.5t104 18 q90 0 143.5 -47t53.5 -111z"/>
<glyph glyph-name="nine" horiz-adv-x="572" unicode="9" d="M286 282q44 0 89.5 20.5t73.5 52.5l3 57q0 128 -37 199t-129 71q-80 0 -123 -55t-43 -141q0 -87 43 -145.5t123 -58.5zM100 -15v33q148 17 233 91.5t109 198.5q-30 -25 -73 -42t-84 -17q-109 0 -172 70t-63 167q0 94 67.5 161.5t168.5 67.5q110 0 173 -85t63 -219 q0 -178 -115.5 -293.5t-306.5 -132.5z"/>
<glyph glyph-name="colon" horiz-adv-x="226" unicode=":" d="M66 40q0 20 14 33t33 13t33 -13t14 -33q0 -22 -13.5 -35t-33.5 -13t-33.5 13t-13.5 35zM66 408q0 20 14 33t33 13t33 -13t14 -33q0 -22 -13.5 -35t-33.5 -13t-33.5 13t-13.5 35z"/>
<glyph glyph-name="semicolon" horiz-adv-x="226" unicode=";" d="M66 40q0 20 14 33t33 13q20 0 33.5 -15t13.5 -43q0 -44 -24 -95.5t-56 -81.5l-13 10q52 68 58 131q-59 0 -59 48zM66 408q0 20 14 33t33 13t33 -13t14 -33q0 -22 -13.5 -35t-33.5 -13t-33.5 13t-13.5 35z"/>
<glyph glyph-name="less" d="M513 174v-47l-482 199v47l482 199v-47l-425 -176z" unicode="&lt;"/>
<glyph glyph-name="equal" d="M11 230v43h522v-43h-522zM11 428v43h522v-43h-522z" unicode="="/>
<glyph glyph-name="greater" d="M31 127v47l425 175l-425 176v47l482 -199v-47z" unicode="&gt;"/>
<glyph glyph-name="question" horiz-adv-x="461" unicode="?" d="M137 40q0 20 14 33t33 13t33 -13t14 -33q0 -22 -13.5 -35t-33.5 -13t-33.5 13t-13.5 35zM200 279v-117h-33l-1 184q96 0 150 37t54 128q0 67 -47.5 116t-118.5 49q-27 0 -44.5 -13t-24.5 -28t-22.5 -28t-38.5 -13q-15 0 -26.5 12t-11.5 30q0 39 36 59t91 20 q125 0 193.5 -69.5t68.5 -158.5q0 -103 -60.5 -154.5t-164.5 -53.5z"/>
<glyph glyph-name="at" horiz-adv-x="947" unicode="@" d="M427 70q79 0 133 77l60 242q-18 63 -96 63q-131 0 -178 -191q-12 -47 -12 -87q0 -104 93 -104zM631 41q-68 0 -75 62q-59 -62 -142 -62q-69 0 -107 46t-38 118q0 38 10 74q20 83 88 142.5t156 59.5q78 0 107 -52l56 52h17l-83 -331q-6 -26 -6 -38q0 -40 44 -40 q78 0 144 81.5t66 194.5q0 79 -28.5 140.5t-78 98.5t-111.5 56t-132 19q-113 0 -213.5 -54.5t-160.5 -147.5t-60 -200q0 -185 114.5 -294t291.5 -109q168 0 316 110l16 -24q-76 -55 -154 -85t-179 -30q-122 0 -220.5 49t-158.5 148.5t-60 234.5q0 112 65.5 212t173.5 159.5 t228 59.5q166 0 273 -91.5t107 -251.5q0 -129 -78 -218t-188 -89z"/>
<glyph glyph-name="A" horiz-adv-x="640" unicode="A" d="M309 599l-128 -341h259zM312 700h25l229 -607q14 -37 33 -55t56 -22v-16h-231v16q90 5 90 40q0 9 -5 22l-57 147h-283l-55 -147q-3 -9 -3 -17q0 -39 98 -45v-16h-224v16q72 7 96 71z"/>
<glyph glyph-name="B" horiz-adv-x="693" unicode="B" d="M553 530q0 137 -189 137h-133q-30 0 -30 -30v-241h177q175 0 175 134zM573 199q0 71 -47.5 117.5t-127.5 46.5h-197v-300q0 -30 30 -30h149q96 0 144.5 46.5t48.5 119.5zM643 199q0 -90 -74.5 -144.5t-188.5 -54.5h-345v16q69 4 87.5 19t18.5 77v476q0 62 -18.5 77 t-87.5 19v16h329q116 0 187.5 -41.5t71.5 -128.5q0 -60 -42 -98.5t-119 -52.5q85 -15 133 -65t48 -115z"/>
<glyph glyph-name="C" horiz-adv-x="703" unicode="C" d="M597 700l68 -192l-14 -6q-103 180 -274 180q-125 0 -191 -90.5t-66 -241.5t66 -241.5t191 -90.5q88 0 159.5 41.5t97.5 121.5l34 -11q-69 -185 -291 -185q-141 0 -234 105t-93 260t93 260t234 105q117 0 185 -53l15 38h20z"/>
<glyph glyph-name="D" horiz-adv-x="760" unicode="D" d="M710 350q0 -175 -99 -262.5t-269 -87.5h-307v16q69 4 87.5 19t18.5 77v476q0 62 -18.5 77t-87.5 19v16h305q171 0 270.5 -87.5t99.5 -262.5zM640 350q0 79 -16 136.5t-42.5 92t-67 54.5t-81 27t-93.5 7h-109q-30 0 -30 -30v-574q0 -30 30 -30h111q67 0 115.5 12 t92.5 44.5t67 98t23 162.5z"/>
<glyph glyph-name="E" horiz-adv-x="685" unicode="E" d="M231 33h129q60 0 105 9.5t80.5 32t59.5 45.5t57 63l13 -9l-98 -174h-542v16q69 4 87.5 19t18.5 77v476q0 62 -18.5 77t-87.5 19v16h545l71 -154l-13 -9q-50 67 -109 98.5t-152 31.5h-146q-30 0 -30 -30v-255h184q53 0 72.5 23t25.5 80h16v-239h-16q-6 57 -25.5 80 t-72.5 23h-184v-286q0 -30 30 -30z"/>
<glyph glyph-name="F" horiz-adv-x="661" unicode="F" d="M201 637v-255h184q53 0 72.5 23t25.5 80h16v-239h-16q-6 57 -25.5 80t-72.5 23h-184v-237q0 -62 18 -77t85 -19v-16h-269v16q69 4 87.5 19t18.5 77v476q0 62 -18.5 77t-87.5 19v16h545l71 -154l-13 -9q-50 67 -109 98.5t-152 31.5h-146q-30 0 -30 -30z"/>
<glyph glyph-name="G" horiz-adv-x="764" unicode="G" d="M631 0l-35 59q-79 -74 -221 -74q-140 0 -232.5 105t-92.5 260t93 260t233 105q108 0 176 -53l15 38h20l68 -192l-14 -6q-103 180 -264 180q-125 0 -191 -90.5t-66 -241.5t66.5 -241.5t192.5 -90.5q72 0 128.5 27.5t79.5 57.5v100q0 62 -18 77t-87 19v16h272v-16 q-69 -4 -88 -19t-19 -77v-203h-16z"/>
<glyph glyph-name="H" horiz-adv-x="778" unicode="H" d="M743 0h-272v16q69 4 87.5 19t18.5 77v237h-376v-237q0 -62 18.5 -77t87.5 -19v-16h-272v16q69 4 87.5 19t18.5 77v476q0 62 -18.5 77t-87.5 19v16h272v-16q-69 -4 -87.5 -19t-18.5 -77v-206h376v206q0 62 -18.5 77t-87.5 19v16h272v-16q-69 -4 -87.5 -19t-18.5 -77v-476 q0 -62 18.5 -77t87.5 -19v-16z"/>
<glyph glyph-name="I" horiz-adv-x="342" unicode="I" d="M307 0h-272v16q69 4 87.5 19t18.5 77v476q0 62 -18.5 77t-87.5 19v16h272v-16q-69 -4 -87.5 -19t-18.5 -77v-476q0 -62 18.5 -77t87.5 -19v-16z"/>
<glyph glyph-name="J" horiz-adv-x="332" unicode="J" d="M201 588v-565q0 -217 -174 -217q-60 0 -90.5 25.5t-30.5 51.5q0 20 11 32t27 12q19 0 31 -13.5t17 -30.5t18 -30.5t33 -13.5q49 0 73.5 39.5t24.5 144.5v565q0 62 -18.5 77t-87.5 19v16h272v-16q-70 -4 -88 -19t-18 -77z"/>
<glyph glyph-name="K" horiz-adv-x="723" unicode="K" d="M307 0h-272v16q69 4 87.5 19t18.5 77v476q0 62 -18.5 77t-87.5 19v16h272v-16q-69 -4 -87.5 -19t-18.5 -77v-264l324 292q13 11 13 26q0 37 -93 42v16h268v-16q-44 -4 -73 -20t-83 -65l-210 -189l284 -336q24 -28 55.5 -43t52.5 -15h4v-16h-277v16q84 4 84 41 q0 21 -24 49l-224 264l-101 -91v-167q0 -62 18.5 -77t87.5 -19v-16z"/>
<glyph glyph-name="L" horiz-adv-x="639" unicode="L" d="M231 33h83q60 0 105 9.5t80.5 32t59.5 45.5t57 63l13 -9l-98 -174h-496v16q69 4 87.5 19t18.5 77v476q0 62 -18.5 77t-87.5 19v16h272v-16q-69 -4 -87.5 -19t-18.5 -77v-525q0 -30 30 -30z"/>
<glyph glyph-name="M" horiz-adv-x="884" unicode="M" d="M849 0h-272v16q70 4 88 19t18 77v547l-241 -659h-20l-242 659v-547q0 -62 18.5 -77t87.5 -19v-16h-251v16q69 4 88 19t19 77v476q0 62 -19 77t-88 19v16h195l214 -587l214 587h191v-16q-69 -4 -87.5 -19t-18.5 -77v-476q0 -62 18.5 -77t87.5 -19v-16z"/>
<glyph glyph-name="N" horiz-adv-x="774" unicode="N" d="M287 0h-252v16q69 4 88 19t19 77v476q0 62 -19 77t-88 19v16h191l381 -577v465q0 63 -17.5 77.5t-86.5 18.5v16h246v-16q-69 -4 -86.5 -19t-17.5 -77v-588h-28l-437 660v-548q0 -62 19 -77t88 -19v-16z"/>
<glyph glyph-name="O" horiz-adv-x="734" unicode="O" d="M120 350q0 -154 60 -243t187 -89t187 89t60 243t-60 243t-187 89t-187 -89t-60 -243zM50 350q0 158 87 261.5t230 103.5t230 -103.5t87 -261.5t-87 -261.5t-230 -103.5t-230 103.5t-87 261.5z"/>
<glyph glyph-name="P" horiz-adv-x="678" unicode="P" d="M573 525q0 69 -48.5 105.5t-141.5 36.5h-152q-30 0 -30 -30v-251h182q190 0 190 139zM307 0h-272v16q69 4 87.5 19t18.5 77v476q0 63 -16.5 77.5t-89.5 18.5v16h348q116 0 188 -43.5t72 -131.5q0 -85 -72.5 -128.5t-187.5 -43.5h-182v-241q0 -62 18.5 -77t87.5 -19v-16z "/>
<glyph glyph-name="Q" horiz-adv-x="734" unicode="Q" d="M120 350q0 -154 60 -243t187 -89t187 89t60 243t-60 243t-187 89t-187 -89t-60 -243zM50 350q0 158 87 261.5t230 103.5t230 -103.5t87 -261.5q0 -148 -77 -249t-205 -114q2 -72 30 -104.5t82 -32.5q56 0 92.5 36t36.5 97h38q0 -79 -49 -122.5t-118 -43.5 q-82 0 -129.5 45.5t-52.5 124.5q-129 13 -205.5 114t-76.5 249z"/>
<glyph glyph-name="R" horiz-adv-x="707" unicode="R" d="M573 525q0 69 -48.5 105.5t-141.5 36.5h-152q-30 0 -30 -30v-251h182q190 0 190 139zM643 525q0 -84 -70 -127t-182 -45l204 -277q20 -26 47.5 -41.5t79.5 -18.5v-16h-146l-260 353h-115v-241q0 -62 18.5 -77t87.5 -19v-16h-272v16q69 4 87.5 19t18.5 77v476 q0 63 -16.5 77.5t-89.5 18.5v16h348q116 0 188 -43.5t72 -131.5z"/>
<glyph glyph-name="S" horiz-adv-x="693" unicode="S" d="M135 561q0 -22 7.5 -39.5t25 -31.5t34 -24t47.5 -20t50.5 -15.5t57.5 -14.5q45 -11 70 -18t64 -21t61.5 -29t46 -37t34 -51.5t10.5 -65.5q0 -90 -72.5 -149.5t-187.5 -59.5q-127 0 -233 61l-19 -46h-20l-71 209l15 6q106 -197 328 -197q89 0 150 45.5t61 116.5 q0 38 -18 65.5t-60 47t-71 28.5t-92 24q-11 3 -16 4q-48 12 -76 20t-66 24t-59 34.5t-36 47.5t-15 66q0 71 66.5 122.5t163.5 51.5q125 0 204 -53l15 38h20l68 -192l-15 -6q-46 90 -116.5 135t-175.5 45q-82 0 -131 -35.5t-49 -85.5z"/>
<glyph glyph-name="T" horiz-adv-x="655" unicode="T" d="M293 112v525q0 30 -30 30q-100 0 -149 -25t-100 -104l-14 8l82 176h17q7 -22 28 -22h399q21 0 28 22h17l84 -176l-14 -8q-50 78 -103.5 103.5t-154.5 25.5q-30 0 -30 -30v-525q0 -62 18.5 -77t87.5 -19v-16h-272v16q69 4 87.5 19t18.5 77z"/>
<glyph glyph-name="U" horiz-adv-x="765" unicode="U" d="M191 588v-384q0 -93 57 -139.5t158 -46.5q80 0 135 44.5t55 130.5v395q0 62 -18.5 77t-87.5 19v16h250v-16q-69 -4 -87.5 -19t-18.5 -77v-396q0 -82 -59 -144.5t-177 -62.5q-125 0 -196 53t-71 155v395q0 62 -18.5 77t-87.5 19v16h272v-16q-70 -4 -88 -19t-18 -77z"/>
<glyph glyph-name="V" horiz-adv-x="640" unicode="V" d="M328 0h-25l-229 607q-14 37 -33 55t-56 22v16h231v-16q-90 -5 -90 -40q0 -9 5 -22l200 -521l195 521q3 9 3 17q0 39 -98 45v16h224v-16q-72 -7 -96 -71z"/>
<glyph glyph-name="W" horiz-adv-x="972" unicode="W" d="M222 684q-49 -3 -69.5 -15t-20.5 -38q0 -16 8 -43l157 -482l169 512q-13 34 -29.5 48.5t-50.5 17.5v16h237v-16q-50 -3 -70.5 -15t-20.5 -37q0 -18 9 -44l158 -481l158 481q10 30 10 46q0 25 -20.5 36t-69.5 14v16h210v-16q-39 -4 -58 -24.5t-37 -71.5l-194 -588h-27 l-188 567l-186 -567h-27l-194 588q-18 55 -34 74t-57 22v16h237v-16z"/>
<glyph glyph-name="X" horiz-adv-x="677" unicode="X" d="M248 0h-258v16q63 4 95 24.5t64 71.5l160 246l-155 230q-3 4 -12 17.5l-11 16.5t-9.5 13.5t-10.5 13t-10 9.5t-12 8.5t-13.5 6t-16.5 6t-18.5 3t-22.5 2.5v16h253v-16q-77 -4 -77 -31q0 -17 28 -59l122 -181l117 179q27 41 27 59q0 29 -77 33v16h246v-16 q-62 -4 -95 -24.5t-66 -71.5l-131 -205l184 -271q36 -53 61.5 -72.5t76.5 -23.5v-16h-256v16q77 4 77 31q0 17 -29 61l-149 220l-145 -221q-23 -35 -23 -54q0 -33 86 -37v-16z"/>
<glyph glyph-name="Y" horiz-adv-x="607" unicode="Y" d="M170 16q69 4 87.5 19t18.5 77v185l-182 291q-26 41 -35 54t-28.5 26.5t-45.5 15.5v16h232v-16q-76 -5 -76 -40q0 -19 19 -50l160 -259l147 257q17 31 17 49q0 39 -78 43v16h216v-16q-45 -3 -67.5 -23t-52.5 -73l-166 -290v-186q0 -62 18.5 -77t87.5 -19v-16h-272v16z"/>
<glyph glyph-name="Z" horiz-adv-x="649" unicode="Z" d="M35 16l477 651h-176q-93 0 -152 -31.5t-109 -98.5l-13 9l71 154h466v-16l-476 -651h176q60 0 105 9.5t80.5 32t59.5 45.5t57 63l13 -9l-98 -174h-481v16z"/>
<glyph glyph-name="bracketleft" horiz-adv-x="319" unicode="[" d="M97 -200v920h201v-33h-141v-854h141v-33h-201z"/>
<glyph glyph-name="backslash" horiz-adv-x="298" unicode="\" d="M33 730l265 -944h-33l-265 944h33z"/>
<glyph glyph-name="bracketright" horiz-adv-x="319" unicode="]" d="M222 720v-920h-201v33h141v854h-141v33h201z"/>
<glyph glyph-name="asciicircum" d="M460 350l-189 254l-188 -254h-26l199 350h31l199 -350h-26z" unicode="^"/>
<glyph glyph-name="underscore" d="M0 -106v33h545v-33h-545z" unicode="_"/>
<glyph glyph-name="grave" horiz-adv-x="505" unicode="`" d="M181 651l96 -140h-31l-134 118q-17 15 -17 23q0 13 14 13h47q16 0 25 -14z"/>
<glyph glyph-name="a" horiz-adv-x="504" unicode="a" d="M184 18q68 0 158 63v148q-119 -16 -178 -45.5t-59 -91.5q0 -74 79 -74zM409 -10q-56 0 -66 62q-95 -65 -168 -65q-135 0 -135 103q0 72 74 108t228 59v67q0 59 -18 84t-64 25q-103 0 -119 -76q-8 -42 -36 -42q-30 0 -30 37q0 40 51 74.5t134 34.5q138 0 138 -137v-237 q0 -62 35 -62q16 0 41 13v-28q-28 -20 -65 -20z"/>
<glyph glyph-name="b" horiz-adv-x="529" unicode="b" d="M276 432q-81 0 -127 -62v-294q46 -62 127 -62q148 0 148 209t-148 209zM20 629v11l111 75h18v-308q48 54 135 54q98 0 151.5 -68t53.5 -170t-53.5 -170t-151.5 -68q-90 0 -137 55l-30 -55h-24v605q0 22 -8 30.5t-26 8.5h-39z"/>
<glyph glyph-name="c" horiz-adv-x="472" unicode="c" d="M417 353q0 -17 -10 -26t-25 -9q-28 0 -36 40q-14 74 -96 74q-75 0 -110 -57.5t-35 -151.5q0 -92 40.5 -150.5t117.5 -58.5q100 0 152 120l27 -13q-55 -136 -179 -136q-106 0 -164.5 67t-58.5 171q0 100 60 169t150 69q71 0 119 -34.5t48 -73.5z"/>
<glyph glyph-name="d" horiz-adv-x="539" unicode="d" d="M253 14q81 0 127 62v294q-46 62 -127 62q-148 0 -148 -209t148 -209zM307 629v11l110 75h19v-643q0 -30 14.5 -41t58.5 -15v-16q-66 0 -129 -15v54q-48 -54 -135 -54q-98 0 -151.5 68t-53.5 170t53.5 170t151.5 68q87 0 135 -54v188q0 19 -8 26.5t-27 7.5h-38z"/>
<glyph glyph-name="e" horiz-adv-x="498" unicode="e" d="M256 432q-117 0 -143 -121h265q0 57 -34 89t-88 32zM439 282h-331q-3 -28 -3 -59q0 -94 41 -151.5t131 -57.5q51 0 91.5 31.5t61.5 86.5l28 -11q-24 -62 -71.5 -99t-109.5 -37q-113 0 -175 67t-62 171q0 103 57.5 170.5t158.5 67.5q81 0 132 -47t51 -132z"/>
<glyph glyph-name="f" horiz-adv-x="290" unicode="f" d="M30 417v29h73v78q0 86 43 138.5t115 52.5q26 0 42.5 -11.5t16.5 -28.5q0 -16 -10 -26t-25 -10q-16 0 -33.5 16.5t-38.5 16.5q-25 0 -39.5 -21.5t-14.5 -63.5v-141h105v-29h-105v-345q0 -29 16.5 -40.5t61.5 -15.5v-16h-207v16q44 4 58.5 15t14.5 41v345h-73z"/>
<glyph glyph-name="g" horiz-adv-x="520" unicode="g" d="M273 -34q-88 3 -135 13q-52 -19 -52 -65q0 -84 183 -84q81 0 128 23t47 58q0 34 -33.5 43.5t-137.5 11.5zM125 281q0 -150 116 -150t116 150q0 151 -116 151t-116 -151zM471 425h-2q-10 0 -30 13q-16 12 -27 12q-22 0 -41 -37q51 -50 51 -132q0 -78 -48.5 -128.5 t-132.5 -50.5q-35 0 -68 10q-17 5 -38 5q-29 0 -45.5 -12.5t-16.5 -29.5q0 -28 37.5 -36.5t161.5 -12.5q116 -4 160.5 -28t44.5 -75q0 -57 -54.5 -89.5t-153.5 -32.5q-114 0 -171 23.5t-57 82.5q0 53 57 83q-56 20 -56 75q0 35 21 56.5t53 23.5q-56 48 -56 136 q0 78 48.5 129t132.5 51q67 0 113 -34q18 32 44.5 51t52.5 19q22 0 35.5 -11t13.5 -29q0 -31 -29 -32z"/>
<glyph glyph-name="h" horiz-adv-x="553" unicode="h" d="M523 0h-202v16q44 4 58.5 15t14.5 41v263q0 92 -85 92q-77 0 -150 -49v-306q0 -30 14.5 -41t58.5 -15v-16h-202v16q44 4 58.5 15t14.5 41v523q0 19 -8 26.5t-26 7.5h-39v11l111 75h18v-304q83 50 157 50q22 0 43 -5.5t43 -18t35 -39t13 -62.5v-264q0 -30 14.5 -41 t58.5 -15v-16z"/>
<glyph glyph-name="i" horiz-adv-x="262" unicode="i" d="M88 630q0 19 12.5 31.5t31.5 12.5t31.5 -12.5t12.5 -31.5q0 -18 -12.5 -30.5t-31.5 -12.5t-31.5 12.5t-12.5 30.5zM232 0h-202v16q44 4 58.5 15t14.5 41v269q0 19 -8 26.5t-26 7.5h-39v11l111 75h18v-389q0 -30 14.5 -41t58.5 -15v-16z"/>
<glyph glyph-name="j" horiz-adv-x="252" unicode="j" d="M88 630q0 19 12.5 31.5t31.5 12.5t31.5 -12.5t12.5 -31.5q0 -18 -12.5 -30.5t-31.5 -12.5t-31.5 12.5t-12.5 30.5zM1 -199q-24 0 -39.5 10t-15.5 29q0 14 9.5 24t23.5 10q15 0 31 -15t34 -15q26 0 42.5 20.5t16.5 64.5v412q0 19 -8 26.5t-26 7.5h-39v11l111 75h18v-453 q0 -103 -43 -155t-115 -52z"/>
<glyph glyph-name="k" horiz-adv-x="508" unicode="k" d="M232 0h-202v16q44 4 58.5 15t14.5 41v523q0 19 -8 26.5t-26 7.5h-39v11l111 75h18v-492l156 159q11 11 11 21q0 23 -66 27v16h223v-16q-46 -4 -76 -18.5t-64 -48.5l-84 -85l176 -204q28 -32 46.5 -43t46.5 -15v-16h-227v16q68 4 68 35q0 12 -12 26l-137 161l-61 -62v-104 q0 -30 14.5 -41t58.5 -15v-16z"/>
<glyph glyph-name="l" horiz-adv-x="262" unicode="l" d="M232 0h-202v16q44 4 58.5 15t14.5 41v523q0 19 -8 26.5t-26 7.5h-39v11l111 75h18v-643q0 -30 14.5 -41t58.5 -15v-16z"/>
<glyph glyph-name="m" horiz-adv-x="844" unicode="m" d="M523 0h-202v16q44 4 58.5 15t14.5 41v263q0 92 -85 92q-77 0 -150 -49v-306q0 -30 14.5 -41t58.5 -15v-16h-202v16q44 4 58.5 15t14.5 41v269q0 19 -8 26.5t-26 7.5h-39v11l111 75h18v-50q83 50 157 50q86 0 119 -59q36 24 84 41.5t88 17.5q22 0 43 -5.5t43 -18t35 -39 t13 -62.5v-264q0 -30 14.5 -41t58.5 -15v-16h-202v16q44 4 58.5 15t14.5 41v263q0 92 -85 92q-79 0 -155 -52q5 -20 5 -39v-264q0 -30 14.5 -41t58.5 -15v-16z"/>
<glyph glyph-name="n" horiz-adv-x="553" unicode="n" d="M523 0h-202v16q44 4 58.5 15t14.5 41v263q0 92 -85 92q-77 0 -150 -49v-306q0 -30 14.5 -41t58.5 -15v-16h-202v16q44 4 58.5 15t14.5 41v269q0 19 -8 26.5t-26 7.5h-39v11l111 75h18v-50q83 50 157 50q22 0 43 -5.5t43 -18t35 -39t13 -62.5v-264q0 -30 14.5 -41 t58.5 -15v-16z"/>
<glyph glyph-name="o" horiz-adv-x="526" unicode="o" d="M105 223q0 -93 39 -151t119 -58t119 58t39 151t-39 151t-119 58t-119 -58t-39 -151zM40 223q0 101 62.5 169.5t160.5 68.5t160.5 -68.5t62.5 -169.5t-62.5 -169.5t-160.5 -68.5t-160.5 68.5t-62.5 169.5z"/>
<glyph glyph-name="p" horiz-adv-x="534" unicode="p" d="M281 432q-81 0 -127 -62v-294q46 -62 127 -62q148 0 148 209t-148 209zM227 -184h-202v16q44 4 58.5 15t14.5 41v453q0 19 -8 26.5t-26 7.5h-44v11l116 75h18v-54q48 54 135 54q98 0 151.5 -68t53.5 -170t-53.5 -170t-151.5 -68q-87 0 -135 54v-151q0 -30 14.5 -41 t58.5 -15v-16z"/>
<glyph glyph-name="q" horiz-adv-x="524" unicode="q" d="M253 14q81 0 127 62v294q-46 62 -127 62q-148 0 -148 -209t148 -209zM509 -184h-202v16q44 4 58.5 15t14.5 41v151q-48 -54 -135 -54q-98 0 -151.5 68t-53.5 170t53.5 170t151.5 68q89 0 137 -56l35 56h19v-573q0 -30 14.5 -41t58.5 -15v-16z"/>
<glyph glyph-name="r" horiz-adv-x="378" unicode="r" d="M368 410q0 -37 -38 -37q-17 0 -39.5 21t-38.5 21q-23 0 -48.5 -16t-44.5 -46v-281q0 -30 14.5 -41t58.5 -15v-16h-202v16q44 4 58.5 15t14.5 41v269q0 19 -8 26.5t-26 7.5h-39v11l111 75h18v-70q28 33 65.5 51.5t72.5 18.5q38 0 54.5 -15t16.5 -36z"/>
<glyph glyph-name="s" horiz-adv-x="453" unicode="s" d="M88 358q0 -15 5 -26.5t19 -20.5t23 -14.5t34 -12t34.5 -8.5t40.5 -8q41 -9 66 -16.5t54.5 -23t44 -41.5t14.5 -62q0 -62 -46 -101t-118 -39q-100 0 -162 50l-12 -35h-19l-36 144l15 6q48 -75 96 -105.5t118 -30.5q51 0 87.5 23.5t36.5 70.5q0 25 -12 42.5t-40.5 29 t-47.5 16.5t-62 13q-34 7 -53 11.5t-46 14.5t-41 22.5t-25 33.5t-11 48q0 50 41 86t108 36q89 0 139 -40l9 25h19l28 -121l-15 -6q-35 62 -78 87.5t-102 25.5q-51 0 -78.5 -21t-27.5 -53z"/>
<glyph glyph-name="t" horiz-adv-x="303" unicode="t" d="M273 38v-28q-36 -20 -81 -20q-99 0 -99 108v319h-73v11q54 19 77 57t33 107h19v-146h124v-29h-124v-321q0 -36 13.5 -53.5t45.5 -17.5t65 13z"/>
<glyph glyph-name="u" horiz-adv-x="543" unicode="u" d="M311 375v11l110 75h19v-389q0 -30 14.5 -41t58.5 -15v-16q-66 0 -129 -15v49q-81 -49 -157 -49q-22 0 -43 5.5t-43 18t-35 39t-13 62.5v231q0 19 -8 26.5t-26 7.5h-39v11l111 75h18v-350q0 -92 85 -92q75 0 150 49v273q0 19 -8 26.5t-27 7.5h-38z"/>
<glyph glyph-name="v" horiz-adv-x="445" unicode="v" d="M236 0h-38l-123 334q-20 56 -35 74t-50 22v16h192v-16q-66 -4 -66 -34q0 -14 12 -45l102 -278l107 272q10 27 10 41q0 38 -65 44v16h173v-16q-29 -4 -48 -24.5t-39 -71.5z"/>
<glyph glyph-name="w" horiz-adv-x="752" unicode="w" d="M506 0l-129 332l-134 -332h-34l-132 334q-22 57 -36.5 74.5t-50.5 21.5v16h199v-16q-38 -2 -53.5 -11t-15.5 -27q0 -16 17 -58l100 -255l122 293q-15 30 -33.5 43t-51.5 15v16h211v-16q-67 -4 -67 -36q0 -13 18 -60l100 -259l102 259q12 30 12 50q0 42 -73 46v16h185v-16 q-30 -4 -48.5 -24t-40.5 -72l-132 -334h-35z"/>
<glyph glyph-name="x" horiz-adv-x="500" unicode="x" d="M349 67l-108 138l-106 -138q-11 -14 -11 -24q0 -21 62 -27v-16h-176v16q28 4 46.5 14.5t38.5 36.5l126 164l-114 148q-23 29 -37 39t-41 12v16h192v-16q-57 -4 -57 -26q0 -10 12 -25l81 -105l81 105q10 13 10 23q0 24 -60 28v16h183v-16q-33 -4 -53 -15t-39 -36 l-101 -131l140 -181q21 -27 36 -37t36 -14v-16h-185v16q59 3 59 21q0 10 -15 30z"/>
<glyph glyph-name="y" horiz-adv-x="445" unicode="y" d="M368 334l-169 -424q-44 -109 -133 -109q-39 0 -65 14t-26 38q0 14 11.5 25t28.5 11q21 0 42 -25t38 -25q43 0 74 81l30 76l-124 338q-21 57 -35.5 74.5t-49.5 21.5v16h192v-16q-65 -4 -65 -36q0 -16 17 -60l96 -260l103 260q12 32 12 51q0 41 -63 45v16h173v-16 q-29 -4 -48 -24.5t-39 -71.5z"/>
<glyph glyph-name="z" horiz-adv-x="459" unicode="z" d="M30 16l296 401h-73q-82 0 -124.5 -18t-79.5 -73l-16 7l44 113h326v-16l-296 -401h97q77 0 122 28t91 91l12 -7l-64 -141h-335v16z"/>
<glyph glyph-name="braceleft" horiz-adv-x="298" unicode="{" d="M277 -192v-19q-90 0 -125 52t-35 153v162q0 49 -20 71t-76 22v26q56 0 76 22t20 71v162q0 101 35 153t125 52v-19q-46 0 -70.5 -32t-24.5 -90v-168q0 -142 -105 -164q105 -24 105 -164v-168q0 -58 24.5 -90t70.5 -32z"/>
<glyph glyph-name="bar" horiz-adv-x="298" unicode="|" d="M132 -214v944h33v-944h-33z"/>
<glyph glyph-name="braceright" horiz-adv-x="298" unicode="}" d="M21 -211v19q46 0 70.5 32t24.5 90v168q0 141 105 164q-105 21 -105 164v168q0 58 -24.5 90t-70.5 32v19q90 0 125 -52t35 -153v-162q0 -49 20 -71t76 -22v-26q-56 0 -76 -22t-20 -71v-162q0 -101 -35 -153t-125 -52z"/>
<glyph glyph-name="asciitilde" horiz-adv-x="505" unicode="~" d="M419 405h25q0 -128 -107 -128q-24 0 -47.5 10t-36 20t-32.5 29q-47 43 -74 43q-60 0 -60 -84h-27q0 128 107 128q24 0 47.5 -10t36.5 -20t34 -29q46 -42 73 -42q61 0 61 83z"/>
<glyph glyph-name="uni00A0" horiz-adv-x="258" unicode=" "/>
<glyph glyph-name="exclamdown" horiz-adv-x="226" unicode="¡" d="M160 406q0 -20 -14 -33t-33 -13t-33 13t-14 33q0 22 13.5 35t33.5 13t33.5 -13t13.5 -35zM101 284h24q0 -171 17.5 -291.5t17.5 -160.5q0 -101 -47 -101t-47 101q0 40 17.5 160.5t17.5 291.5z"/>
<glyph glyph-name="cent" horiz-adv-x="572" unicode="¢" d="M125 356q0 -82 33 -138.5t96 -68.5v415q-67 -6 -98 -63t-31 -145zM437 486q0 -17 -10 -26t-25 -9q-28 0 -36 40q-12 65 -79 73v-417q95 1 148 120l27 -13q-55 -135 -175 -136v-148h-33v149q-92 9 -143 75t-51 162t55 163t139 74v137h33v-137q65 -4 107.5 -37.5 t42.5 -69.5z"/>
<glyph glyph-name="sterling" horiz-adv-x="572" unicode="£" d="M118 18q52 0 76 62q-36 25 -63 25q-28 0 -44.5 -11.5t-16.5 -32.5q0 -19 12.5 -31t35.5 -12zM25 334v29h124q-30 78 -30 161q0 77 56 134t156 57q80 0 126 -46t46 -102q0 -42 -20.5 -67.5t-51.5 -25.5q-25 0 -38 14.5t-13 34.5q0 24 18 38.5t45 14.5q15 0 15 11 q0 41 -35 68t-92 27q-51 0 -84.5 -25.5t-45.5 -59.5t-12 -74q0 -79 27 -160h158v-29h-148q33 -97 33 -162q0 -38 -9 -68q9 -5 30.5 -17t33 -17.5t29.5 -13t35.5 -11t35.5 -3.5q88 0 101 80h33q-9 -66 -49 -101.5t-102 -35.5q-52 0 -90.5 18.5t-78.5 50.5q-42 -69 -110 -69 q-33 0 -59.5 20t-26.5 56q0 35 28.5 56t70.5 21q34 0 74 -14q0 4 0.5 10t0.5 9q0 15 -1.5 29.5t-2.5 25t-5 26.5t-5.5 22.5t-7.5 24t-7 20.5t-9 22.5t-8 20.5h-135z"/>
<glyph glyph-name="currency" horiz-adv-x="572" unicode="¤" d="M81 350q0 73 43 127l-102 103l34 34l102 -103q55 44 128 44q72 0 127 -44l104 104l34 -34l-104 -104q44 -55 44 -127q0 -73 -44 -128l104 -103l-34 -34l-104 103q-54 -43 -127 -43q-74 0 -128 43l-102 -102l-34 34l102 102q-43 54 -43 128zM128 350q0 -65 46.5 -111.5 t111.5 -46.5t111.5 46.5t46.5 111.5t-46.5 111.5t-111.5 46.5t-111.5 -46.5t-46.5 -111.5z"/>
<glyph glyph-name="yen" horiz-adv-x="572" unicode="¥" d="M42 301v29h207l-126 248q-2 4 -10 19.5t-9.5 19t-8.5 15.5t-9.5 15t-9 11t-11 10.5t-12 7t-15 6t-16.5 2.5v16h197v-16q-55 -4 -55 -35q0 -21 25 -71l112 -229l102 227q23 51 23 71q0 33 -58 37v16h182v-16q-24 -2 -40 -8.5t-29 -23.5t-20 -30.5t-22 -45.5l-113 -246h204 v-29h-211v-103h211v-29h-211v-57q0 -62 18.5 -77t87.5 -19v-16h-272v16q69 4 87.5 19t18.5 77v57h-217v29h217v103h-217z"/>
<glyph glyph-name="brokenbar" horiz-adv-x="298" unicode="¦" d="M132 306v424h33v-424h-33zM132 -214v424h33v-424h-33z"/>
<glyph glyph-name="section" horiz-adv-x="446" unicode="§" d="M88 413q0 -69 27 -122.5t102 -141.5q37 -43 55 -66.5t36 -62.5t18 -76q12 29 16.5 43t10 46.5t5.5 72.5t-10 75.5t-33 71.5t-38.5 56t-47.5 58q-37 43 -55 66.5t-36 62.5t-18 76q-32 -78 -32 -159zM270 416q72 -81 99 -148.5t27 -157.5q0 -134 -63.5 -221.5t-163.5 -87.5 q-26 0 -42.5 11.5t-16.5 28.5q0 16 10 26t25 10q17 0 32 -15q18 -18 40 -18q24 0 39 19t15 49q0 37 -14.5 72t-29.5 55t-47 56q-25 29 -37.5 45t-33.5 48t-31.5 60t-19 70t-8.5 88q0 134 63.5 221.5t163.5 87.5q26 0 42.5 -11.5t16.5 -27.5t-10 -26.5t-25 -10.5 q-17 0 -32 15q-18 18 -40 18q-24 0 -39 -19t-15 -49q0 -38 15.5 -74t30.5 -56t49 -58z"/>
<glyph glyph-name="dieresis" horiz-adv-x="483" unicode="¨" d="M270 617q0 19 12.5 31.5t31.5 12.5t31.5 -12.5t12.5 -31.5q0 -18 -12.5 -30.5t-31.5 -12.5t-31.5 12.5t-12.5 30.5zM124 617q0 19 12.5 31.5t31.5 12.5t31.5 -12.5t12.5 -31.5q0 -18 -12.5 -30.5t-31.5 -12.5t-31.5 12.5t-12.5 30.5z"/>
<glyph glyph-name="copyright" horiz-adv-x="802" unicode="©" d="M533 562l37 -117l-13 -5q-59 105 -153 105q-69 0 -103.5 -52.5t-34.5 -140.5t34.5 -140.5t103.5 -52.5q51 0 91 26.5t54 72.5l27 -9q-43 -116 -175 -116q-88 0 -144.5 61.5t-56.5 157.5t56.5 157.5t144.5 61.5q66 0 106 -30l9 21h17zM65 350q0 -139 98.5 -237.5 t237.5 -98.5t237.5 98.5t98.5 237.5t-98.5 237.5t-237.5 98.5t-237.5 -98.5t-98.5 -237.5zM36 350q0 151 107 258t258 107t258 -107t107 -258t-107 -258t-258 -107t-258 107t-107 258z"/>
<glyph glyph-name="ordfeminine" horiz-adv-x="397" unicode="ª" d="M148 298q49 0 114 44v114q-86 -11 -129.5 -34t-43.5 -67q0 -28 16.5 -42.5t42.5 -14.5zM318 269q-46 0 -55 47q-71 -49 -129 -49q-49 0 -76.5 21.5t-27.5 60.5q0 56 58.5 85t173.5 46v54q0 43 -13 61t-47 18q-73 0 -87 -59q-9 -34 -33 -34q-26 0 -26 31q0 32 41.5 59.5 t106.5 27.5q112 0 112 -105v-190q0 -43 26 -43q15 0 30 9v-24q-22 -16 -54 -16z"/>
<glyph glyph-name="guillemotleft" horiz-adv-x="509" unicode="«" d="M437 29l-15 -10l-164 194q-7 9 -7 20q0 13 7 21l164 194l15 -10l-102 -205zM258 29l-15 -10l-164 194q-7 9 -7 20q0 13 7 21l164 194l15 -10l-102 -205z"/>
<glyph glyph-name="logicalnot" d="M11 428v43h522v-234h-43v191h-479z" unicode="¬"/>
<glyph glyph-name="uni00AD" horiz-adv-x="224" unicode="­" d="M11 211v43h202v-43h-202z"/>
<glyph glyph-name="registered" horiz-adv-x="458" unicode="®" d="M281 574q0 18 -10 25.5t-34 7.5h-28q-9 0 -9 -9v-60h37q44 0 44 36zM325 574q0 -48 -57 -56l47 -67q11 -16 32 -18v-15h-58l-68 98h-21v-57q0 -17 5 -20.5t24 -5.5v-15h-100v15q19 2 24 5.5t5 20.5v130q0 9 -0.5 13t-5 6.5t-7.5 3t-16 1.5v15h115q81 0 81 -54zM62 519 q0 -70 48.5 -118t118.5 -48t118.5 48t48.5 118t-48.5 118.5t-118.5 48.5t-118.5 -48.5t-48.5 -118.5zM33 519q0 81 57.5 138.5t138.5 57.5t138.5 -57.5t57.5 -138.5q0 -80 -57.5 -137.5t-138.5 -57.5t-138.5 57.5t-57.5 137.5z"/>
<glyph glyph-name="macron" horiz-adv-x="505" unicode="¯" d="M136 585v43h232v-43h-232z"/>
<glyph glyph-name="degree" horiz-adv-x="304" unicode="°" d="M65 599q0 -37 25 -61.5t62 -24.5t62 24.5t25 61.5t-25 62t-62 25t-62 -25t-25 -62zM36 599q0 48 34 82t82 34t82 -34t34 -82q0 -47 -34 -81t-82 -34t-82 34t-34 81z"/>
<glyph glyph-name="plusminus" d="M11 0v36h522v-36h-522zM11 329v43h239v239h43v-239h240v-43h-240v-240h-43v240h-239z" unicode="±"/>
<glyph glyph-name="twosuperior" horiz-adv-x="379" unicode="²" d="M76 579h-27q0 60 38 95t95 35q60 0 97 -34t37 -88q0 -66 -52.5 -126t-149.5 -132h161q17 0 24 8.5t14 44.5h16l-14 -115h-16q0 13 -10 13h-235v22q42 38 59 53.5t52 51.5t50 59.5t29 57t14 63.5q0 97 -84 97q-42 0 -70 -27t-28 -78z"/>
<glyph glyph-name="threesuperior" horiz-adv-x="379" unicode="³" d="M314 616q0 -34 -21.5 -59t-57.5 -36q41 -6 70.5 -37.5t29.5 -71.5q0 -59 -44 -100t-120 -41q-50 0 -87 15.5t-37 44.5q0 13 8.5 22t19.5 9q17 0 29 -10.5t18 -22.5t19 -22.5t32 -10.5q102 0 102 101q0 42 -29.5 72t-82.5 30h-11v24h15q42 0 64.5 24.5t22.5 58.5 q0 32 -19 55t-57 23q-36 0 -62 -22.5t-30 -63.5h-26q5 51 38.5 81t90.5 30q59 0 92 -28t33 -65z"/>
<glyph glyph-name="acute" horiz-adv-x="505" unicode="´" d="M231 511l96 140q9 14 25 14h47q14 0 14 -13q0 -8 -17 -23l-134 -118h-31z"/>
<glyph glyph-name="uni00B5" horiz-adv-x="515" unicode="µ" d="M218 -15q-61 0 -98 32q9 -27 24 -62.5t24.5 -59.5t9.5 -40q0 -24 -13.5 -39t-33.5 -15t-33.5 15t-13.5 39v591h56v-335q0 -92 85 -92q76 0 151 49q-1 7 -1 22v356h56v-357q0 -64 35 -64q16 0 41 13v-28q-28 -20 -54 -20q-57 0 -72 48q-82 -53 -163 -53z"/>
<glyph glyph-name="paragraph" horiz-adv-x="376" unicode="¶" d="M36 528q0 71 50 121.5t121 50.5h144v-16q-67 -4 -86.5 -17.5t-19.5 -66.5v-522q0 -127 -64 -197.5t-167 -70.5q-63 0 -107 24.5t-44 56.5q0 17 11.5 28.5t26.5 11.5q14 0 25.5 -8.5t20 -20t19 -23.5t28.5 -20.5t42 -8.5q72 0 121.5 59t49.5 169v278q-71 0 -121 50 t-50 122z"/>
<glyph glyph-name="periodcentered" horiz-adv-x="226" unicode="·" d="M66 233q0 20 14 33t33 13t33 -13t14 -33q0 -22 -13.5 -35t-33.5 -13t-33.5 13t-13.5 35z"/>
<glyph glyph-name="cedilla" horiz-adv-x="505" unicode="¸" d="M308 -61q36 0 59 -17.5t23 -50.5q0 -34 -33 -60.5t-89 -26.5q-44 0 -72 15t-28 35q0 12 7.5 20t19.5 8q9 0 15.5 -4t9 -7.5t6.5 -11.5q12 -29 47 -29q31 0 47.5 14t16.5 35q0 17 -12 27.5t-33 10.5q-29 0 -46 -16l-20 9l46 110h33l-28 -66q13 5 31 5z"/>
<glyph glyph-name="onesuperior" horiz-adv-x="379" unicode="¹" d="M278 280h-177v15q41 2 51.5 10.5t10.5 41.5v272q0 20 -19 20h-43v12l97 58h18v-362q0 -33 11 -41.5t51 -10.5v-15z"/>
<glyph glyph-name="ordmasculine" horiz-adv-x="413" unicode="º" d="M85 452q0 -71 29 -116t92 -45t92 44.5t29 116.5q0 71 -29 115.5t-92 44.5t-92 -44.5t-29 -115.5zM24 452q0 78 50.5 132t131.5 54q82 0 132.5 -54t50.5 -132t-50.5 -132t-132.5 -54q-81 0 -131.5 54t-50.5 132z"/>
<glyph glyph-name="guillemotright" horiz-adv-x="516" unicode="»" d="M251 29l102 204l-102 205l15 10l164 -194q7 -8 7 -21q0 -11 -7 -20l-164 -194zM72 29l102 204l-102 205l15 10l164 -194q7 -8 7 -21q0 -11 -7 -20l-164 -194z"/>
<glyph glyph-name="onequarter" horiz-adv-x="857" unicode="¼" d="M693 353l-145 -218h145v218zM745 0h-52v110h-179v19l197 300h34v-294h77v-25h-77v-110zM184 0l456 700h33l-456 -700h-33zM278 280h-177v15q41 2 51.5 10.5t10.5 41.5v272q0 20 -19 20h-43v12l97 58h18v-362q0 -33 11 -41.5t51 -10.5v-15z"/>
<glyph glyph-name="onehalf" horiz-adv-x="857" unicode="½" d="M554 299h-27q0 60 38 95t95 35q60 0 97 -34t37 -88q0 -66 -52.5 -126t-149.5 -132h161q17 0 24 8.5t14 44.5h16l-14 -115h-16q0 13 -10 13h-235v22q42 38 59 53.5t52 51.5t50 59.5t29 57t14 63.5q0 97 -84 97q-42 0 -70 -27t-28 -78zM184 0l456 700h33l-456 -700h-33z M278 280h-177v15q41 2 51.5 10.5t10.5 41.5v272q0 20 -19 20h-43v12l97 58h18v-362q0 -33 11 -41.5t51 -10.5v-15z"/>
<glyph glyph-name="threequarters" horiz-adv-x="857" unicode="¾" d="M693 353l-145 -218h145v218zM745 0h-52v110h-179v19l197 300h34v-294h77v-25h-77v-110zM184 0l456 700h33l-456 -700h-33zM314 616q0 -34 -21.5 -59t-57.5 -36q41 -6 70.5 -37.5t29.5 -71.5q0 -59 -44 -100t-120 -41q-50 0 -87 15.5t-37 44.5q0 13 8.5 22t19.5 9 q17 0 29 -10.5t18 -22.5t19 -22.5t32 -10.5q102 0 102 101q0 42 -29.5 72t-82.5 30h-11v24h15q42 0 64.5 24.5t22.5 58.5q0 32 -19 55t-57 23q-36 0 -62 -22.5t-30 -63.5h-26q5 51 38.5 81t90.5 30q59 0 92 -28t33 -65z"/>
<glyph glyph-name="questiondown" horiz-adv-x="461" unicode="¿" d="M324 406q0 -20 -14 -33t-33 -13t-33 13t-14 33q0 22 13.5 35t33.5 13t33.5 -13t13.5 -35zM261 167v117h33l1 -184q-96 0 -150 -37t-54 -128q0 -67 47.5 -116t118.5 -49q27 0 44.5 13t24.5 28t22.5 28t38.5 13q15 0 26.5 -12t11.5 -30q0 -39 -36 -59t-91 -20 q-125 0 -193.5 69.5t-68.5 158.5q0 103 60.5 154.5t164.5 53.5z"/>
<glyph glyph-name="Agrave" horiz-adv-x="640" unicode="À" d="M257 885l96 -140h-31l-134 118q-17 15 -17 23q0 13 14 13h47q16 0 25 -14zM309 599l-128 -341h259zM312 700h25l229 -607q14 -37 33 -55t56 -22v-16h-231v16q90 5 90 40q0 9 -5 22l-57 147h-283l-55 -147q-3 -9 -3 -17q0 -39 98 -45v-16h-224v16q72 7 96 71z"/>
<glyph glyph-name="Aacute" horiz-adv-x="640" unicode="Á" d="M298 745l96 140q9 14 25 14h47q14 0 14 -13q0 -8 -17 -23l-134 -118h-31zM309 599l-128 -341h259zM312 700h25l229 -607q14 -37 33 -55t56 -22v-16h-231v16q90 5 90 40q0 9 -5 22l-57 147h-283l-55 -147q-3 -9 -3 -17q0 -39 98 -45v-16h-224v16q72 7 96 71z"/>
<glyph glyph-name="Acircumflex" horiz-adv-x="640" unicode="Â" d="M177 745l98 143q10 15 27 15h43q17 0 27 -15l98 -143h-32l-115 114l-114 -114h-32zM309 599l-128 -341h259zM312 700h25l229 -607q14 -37 33 -55t56 -22v-16h-231v16q90 5 90 40q0 9 -5 22l-57 147h-283l-55 -147q-3 -9 -3 -17q0 -39 98 -45v-16h-224v16q72 7 96 71z"/>
<glyph glyph-name="Atilde" horiz-adv-x="640" unicode="Ã" d="M424 888h22q-4 -43 -23.5 -66.5t-52.5 -23.5q-24 0 -65 31q-33 25 -50 25q-31 0 -38 -46h-23q4 43 23.5 66.5t52.5 23.5q24 0 65 -31q35 -25 51 -25q31 0 38 46zM309 599l-128 -341h259zM312 700h25l229 -607q14 -37 33 -55t56 -22v-16h-231v16q90 5 90 40q0 9 -5 22 l-57 147h-283l-55 -147q-3 -9 -3 -17q0 -39 98 -45v-16h-224v16q72 7 96 71z"/>
<glyph glyph-name="Adieresis" horiz-adv-x="640" unicode="Ä" d="M349 851q0 19 12.5 31.5t31.5 12.5t31.5 -12.5t12.5 -31.5q0 -18 -12.5 -30.5t-31.5 -12.5t-31.5 12.5t-12.5 30.5zM203 851q0 19 12.5 31.5t31.5 12.5t31.5 -12.5t12.5 -31.5q0 -18 -12.5 -30.5t-31.5 -12.5t-31.5 12.5t-12.5 30.5zM309 599l-128 -341h259zM312 700h25 l229 -607q14 -37 33 -55t56 -22v-16h-231v16q90 5 90 40q0 9 -5 22l-57 147h-283l-55 -147q-3 -9 -3 -17q0 -39 98 -45v-16h-224v16q72 7 96 71z"/>
<glyph glyph-name="Aring" horiz-adv-x="640" unicode="Å" d="M250 824q0 -30 20 -50t49 -20q30 0 50.5 20t20.5 50t-21 50.5t-50 20.5t-49 -20.5t-20 -50.5zM220 824q0 42 28.5 71t70.5 29q41 0 70.5 -29.5t29.5 -70.5q0 -40 -29.5 -69.5t-70.5 -29.5t-70 29.5t-29 69.5zM309 599l-128 -341h259zM312 700h25l229 -607q14 -37 33 -55 t56 -22v-16h-231v16q90 5 90 40q0 9 -5 22l-57 147h-283l-55 -147q-3 -9 -3 -17q0 -39 98 -45v-16h-224v16q72 7 96 71z"/>
<glyph glyph-name="AE" horiz-adv-x="1052" unicode="Æ" d="M508 588q0 26 -6 44l-257 -371h263v327zM598 33h129q60 0 105 9.5t80.5 32t59.5 45.5t57 63l13 -9l-98 -174h-542v16q69 4 87.5 19t18.5 77v116h-286l-83 -121q-15 -23 -15 -39q0 -45 85 -52v-16h-229v16q55 0 122 96l380 550q-21 17 -105 22v16h570l71 -154l-13 -9 q-50 67 -109 98.5t-152 31.5h-146q-30 0 -30 -30v-255h184q53 0 72.5 23t25.5 80h16v-239h-16q-6 57 -25.5 80t-72.5 23h-184v-286q0 -30 30 -30z"/>
<glyph glyph-name="Ccedilla" horiz-adv-x="703" unicode="Ç" d="M406 -61q36 0 59 -17.5t23 -50.5q0 -34 -33 -60.5t-89 -26.5q-44 0 -72 15t-28 35q0 12 7.5 20t19.5 8q9 0 15.5 -4t9 -7.5t6.5 -11.5q12 -29 47 -29q31 0 47.5 14t16.5 35q0 17 -12 27.5t-33 10.5q-29 0 -46 -16l-20 9l40 96q-137 5 -225.5 109t-88.5 255q0 155 93 260 t234 105q117 0 185 -53l15 38h20l68 -192l-14 -6q-103 180 -274 180q-125 0 -191 -90.5t-66 -241.5t66 -241.5t191 -90.5q88 0 159.5 41.5t97.5 121.5l34 -11q-65 -175 -271 -184l-22 -52q13 5 31 5z"/>
<glyph glyph-name="Egrave" horiz-adv-x="685" unicode="È" d="M281 885l96 -140h-31l-134 118q-17 15 -17 23q0 13 14 13h47q16 0 25 -14zM231 33h129q60 0 105 9.5t80.5 32t59.5 45.5t57 63l13 -9l-98 -174h-542v16q69 4 87.5 19t18.5 77v476q0 62 -18.5 77t-87.5 19v16h545l71 -154l-13 -9q-50 67 -109 98.5t-152 31.5h-146 q-30 0 -30 -30v-255h184q53 0 72.5 23t25.5 80h16v-239h-16q-6 57 -25.5 80t-72.5 23h-184v-286q0 -30 30 -30z"/>
<glyph glyph-name="Eacute" horiz-adv-x="685" unicode="É" d="M322 745l96 140q9 14 25 14h47q14 0 14 -13q0 -8 -17 -23l-134 -118h-31zM231 33h129q60 0 105 9.5t80.5 32t59.5 45.5t57 63l13 -9l-98 -174h-542v16q69 4 87.5 19t18.5 77v476q0 62 -18.5 77t-87.5 19v16h545l71 -154l-13 -9q-50 67 -109 98.5t-152 31.5h-146 q-30 0 -30 -30v-255h184q53 0 72.5 23t25.5 80h16v-239h-16q-6 57 -25.5 80t-72.5 23h-184v-286q0 -30 30 -30z"/>
<glyph glyph-name="Ecircumflex" horiz-adv-x="685" unicode="Ê" d="M210 745l98 143q10 15 27 15h43q17 0 27 -15l98 -143h-32l-115 114l-114 -114h-32zM231 33h129q60 0 105 9.5t80.5 32t59.5 45.5t57 63l13 -9l-98 -174h-542v16q69 4 87.5 19t18.5 77v476q0 62 -18.5 77t-87.5 19v16h545l71 -154l-13 -9q-50 67 -109 98.5t-152 31.5h-146 q-30 0 -30 -30v-255h184q53 0 72.5 23t25.5 80h16v-239h-16q-6 57 -25.5 80t-72.5 23h-184v-286q0 -30 30 -30z"/>
<glyph glyph-name="Edieresis" horiz-adv-x="685" unicode="Ë" d="M366 851q0 19 12.5 31.5t31.5 12.5t31.5 -12.5t12.5 -31.5q0 -18 -12.5 -30.5t-31.5 -12.5t-31.5 12.5t-12.5 30.5zM220 851q0 19 12.5 31.5t31.5 12.5t31.5 -12.5t12.5 -31.5q0 -18 -12.5 -30.5t-31.5 -12.5t-31.5 12.5t-12.5 30.5zM231 33h129q60 0 105 9.5t80.5 32 t59.5 45.5t57 63l13 -9l-98 -174h-542v16q69 4 87.5 19t18.5 77v476q0 62 -18.5 77t-87.5 19v16h545l71 -154l-13 -9q-50 67 -109 98.5t-152 31.5h-146q-30 0 -30 -30v-255h184q53 0 72.5 23t25.5 80h16v-239h-16q-6 57 -25.5 80t-72.5 23h-184v-286q0 -30 30 -30z"/>
<glyph glyph-name="Igrave" horiz-adv-x="342" unicode="Ì" d="M104 885l96 -140h-31l-134 118q-17 15 -17 23q0 13 14 13h47q16 0 25 -14zM307 0h-272v16q69 4 87.5 19t18.5 77v476q0 62 -18.5 77t-87.5 19v16h272v-16q-69 -4 -87.5 -19t-18.5 -77v-476q0 -62 18.5 -77t87.5 -19v-16z"/>
<glyph glyph-name="Iacute" horiz-adv-x="342" unicode="Í" d="M145 745l96 140q9 14 25 14h47q14 0 14 -13q0 -8 -17 -23l-134 -118h-31zM307 0h-272v16q69 4 87.5 19t18.5 77v476q0 62 -18.5 77t-87.5 19v16h272v-16q-69 -4 -87.5 -19t-18.5 -77v-476q0 -62 18.5 -77t87.5 -19v-16z"/>
<glyph glyph-name="Icircumflex" horiz-adv-x="342" unicode="Î" d="M25 745l98 143q10 15 27 15h43q17 0 27 -15l98 -143h-32l-115 114l-114 -114h-32zM307 0h-272v16q69 4 87.5 19t18.5 77v476q0 62 -18.5 77t-87.5 19v16h272v-16q-69 -4 -87.5 -19t-18.5 -77v-476q0 -62 18.5 -77t87.5 -19v-16z"/>
<glyph glyph-name="Idieresis" horiz-adv-x="342" unicode="Ï" d="M200 851q0 19 12.5 31.5t31.5 12.5t31.5 -12.5t12.5 -31.5q0 -18 -12.5 -30.5t-31.5 -12.5t-31.5 12.5t-12.5 30.5zM54 851q0 19 12.5 31.5t31.5 12.5t31.5 -12.5t12.5 -31.5q0 -18 -12.5 -30.5t-31.5 -12.5t-31.5 12.5t-12.5 30.5zM307 0h-272v16q69 4 87.5 19t18.5 77 v476q0 62 -18.5 77t-87.5 19v16h272v-16q-69 -4 -87.5 -19t-18.5 -77v-476q0 -62 18.5 -77t87.5 -19v-16z"/>
<glyph glyph-name="Eth" horiz-adv-x="760" unicode="Ð" d="M640 350q0 79 -16 136.5t-42.5 92t-67 54.5t-81 27t-93.5 7h-109q-30 0 -30 -30v-255h107v-33h-107v-286q0 -30 30 -30h111q67 0 115.5 12t92.5 44.5t67 98t23 162.5zM35 349v33h106v206q0 62 -18.5 77t-87.5 19v16h305q171 0 270.5 -87.5t99.5 -262.5t-99 -262.5 t-269 -87.5h-307v16q69 4 87.5 19t18.5 77v237h-106z"/>
<glyph glyph-name="Ntilde" horiz-adv-x="774" unicode="Ñ" d="M489 888h22q-4 -43 -23.5 -66.5t-52.5 -23.5q-24 0 -65 31q-33 25 -50 25q-31 0 -38 -46h-23q4 43 23.5 66.5t52.5 23.5q24 0 65 -31q35 -25 51 -25q31 0 38 46zM287 0h-252v16q69 4 88 19t19 77v476q0 62 -19 77t-88 19v16h191l381 -577v465q0 63 -17.5 77.5t-86.5 18.5 v16h246v-16q-69 -4 -86.5 -19t-17.5 -77v-588h-28l-437 660v-548q0 -62 19 -77t88 -19v-16z"/>
<glyph glyph-name="Ograve" horiz-adv-x="734" unicode="Ò" d="M303 885l96 -140h-31l-134 118q-17 15 -17 23q0 13 14 13h47q16 0 25 -14zM120 350q0 -154 60 -243t187 -89t187 89t60 243t-60 243t-187 89t-187 -89t-60 -243zM50 350q0 158 87 261.5t230 103.5t230 -103.5t87 -261.5t-87 -261.5t-230 -103.5t-230 103.5t-87 261.5z "/>
<glyph glyph-name="Oacute" horiz-adv-x="734" unicode="Ó" d="M342 745l96 140q9 14 25 14h47q14 0 14 -13q0 -8 -17 -23l-134 -118h-31zM120 350q0 -154 60 -243t187 -89t187 89t60 243t-60 243t-187 89t-187 -89t-60 -243zM50 350q0 158 87 261.5t230 103.5t230 -103.5t87 -261.5t-87 -261.5t-230 -103.5t-230 103.5t-87 261.5z"/>
<glyph glyph-name="Ocircumflex" horiz-adv-x="734" unicode="Ô" d="M220 745l98 143q10 15 27 15h43q17 0 27 -15l98 -143h-32l-115 114l-114 -114h-32zM120 350q0 -154 60 -243t187 -89t187 89t60 243t-60 243t-187 89t-187 -89t-60 -243zM50 350q0 158 87 261.5t230 103.5t230 -103.5t87 -261.5t-87 -261.5t-230 -103.5t-230 103.5 t-87 261.5z"/>
<glyph glyph-name="Otilde" horiz-adv-x="734" unicode="Õ" d="M471 888h22q-4 -43 -23.5 -66.5t-52.5 -23.5q-24 0 -65 31q-33 25 -50 25q-31 0 -38 -46h-23q4 43 23.5 66.5t52.5 23.5q24 0 65 -31q35 -25 51 -25q31 0 38 46zM120 350q0 -154 60 -243t187 -89t187 89t60 243t-60 243t-187 89t-187 -89t-60 -243zM50 350 q0 158 87 261.5t230 103.5t230 -103.5t87 -261.5t-87 -261.5t-230 -103.5t-230 103.5t-87 261.5z"/>
<glyph glyph-name="Odieresis" horiz-adv-x="734" unicode="Ö" d="M396 851q0 19 12.5 31.5t31.5 12.5t31.5 -12.5t12.5 -31.5q0 -18 -12.5 -30.5t-31.5 -12.5t-31.5 12.5t-12.5 30.5zM250 851q0 19 12.5 31.5t31.5 12.5t31.5 -12.5t12.5 -31.5q0 -18 -12.5 -30.5t-31.5 -12.5t-31.5 12.5t-12.5 30.5zM120 350q0 -154 60 -243t187 -89 t187 89t60 243t-60 243t-187 89t-187 -89t-60 -243zM50 350q0 158 87 261.5t230 103.5t230 -103.5t87 -261.5t-87 -261.5t-230 -103.5t-230 103.5t-87 261.5z"/>
<glyph glyph-name="multiply" d="M97 146l-30 30l174 174l-174 174l30 30l174 -174l175 175l30 -30l-175 -175l175 -175l-30 -30l-175 175z" unicode="×"/>
<glyph glyph-name="Oslash" horiz-adv-x="734" unicode="Ø" d="M614 350q0 138 -47 222l-380 -475q62 -79 180 -79q127 0 187 89t60 243zM120 350q0 -139 47 -223l380 475q-62 80 -180 80q-127 0 -187 -89t-60 -243zM50 350q0 158 87 261.5t230 103.5q122 0 207 -80l52 65h43l-72 -89q87 -103 87 -261t-87 -261.5t-230 -103.5 q-123 0 -207 79l-51 -64h-43l71 89q-87 101 -87 261z"/>
<glyph glyph-name="Ugrave" horiz-adv-x="765" unicode="Ù" d="M314 885l96 -140h-31l-134 118q-17 15 -17 23q0 13 14 13h47q16 0 25 -14zM191 588v-384q0 -93 57 -139.5t158 -46.5q80 0 135 44.5t55 130.5v395q0 62 -18.5 77t-87.5 19v16h250v-16q-69 -4 -87.5 -19t-18.5 -77v-396q0 -82 -59 -144.5t-177 -62.5q-125 0 -196 53 t-71 155v395q0 62 -18.5 77t-87.5 19v16h272v-16q-70 -4 -88 -19t-18 -77z"/>
<glyph glyph-name="Uacute" horiz-adv-x="765" unicode="Ú" d="M369 745l96 140q9 14 25 14h47q14 0 14 -13q0 -8 -17 -23l-134 -118h-31zM191 588v-384q0 -93 57 -139.5t158 -46.5q80 0 135 44.5t55 130.5v395q0 62 -18.5 77t-87.5 19v16h250v-16q-69 -4 -87.5 -19t-18.5 -77v-396q0 -82 -59 -144.5t-177 -62.5q-125 0 -196 53 t-71 155v395q0 62 -18.5 77t-87.5 19v16h272v-16q-70 -4 -88 -19t-18 -77z"/>
<glyph glyph-name="Ucircumflex" horiz-adv-x="765" unicode="Û" d="M236 745l98 143q10 15 27 15h43q17 0 27 -15l98 -143h-32l-115 114l-114 -114h-32zM191 588v-384q0 -93 57 -139.5t158 -46.5q80 0 135 44.5t55 130.5v395q0 62 -18.5 77t-87.5 19v16h250v-16q-69 -4 -87.5 -19t-18.5 -77v-396q0 -82 -59 -144.5t-177 -62.5 q-125 0 -196 53t-71 155v395q0 62 -18.5 77t-87.5 19v16h272v-16q-70 -4 -88 -19t-18 -77z"/>
<glyph glyph-name="Udieresis" horiz-adv-x="765" unicode="Ü" d="M411 851q0 19 12.5 31.5t31.5 12.5t31.5 -12.5t12.5 -31.5q0 -18 -12.5 -30.5t-31.5 -12.5t-31.5 12.5t-12.5 30.5zM265 851q0 19 12.5 31.5t31.5 12.5t31.5 -12.5t12.5 -31.5q0 -18 -12.5 -30.5t-31.5 -12.5t-31.5 12.5t-12.5 30.5zM191 588v-384q0 -93 57 -139.5 t158 -46.5q80 0 135 44.5t55 130.5v395q0 62 -18.5 77t-87.5 19v16h250v-16q-69 -4 -87.5 -19t-18.5 -77v-396q0 -82 -59 -144.5t-177 -62.5q-125 0 -196 53t-71 155v395q0 62 -18.5 77t-87.5 19v16h272v-16q-70 -4 -88 -19t-18 -77z"/>
<glyph glyph-name="Yacute" horiz-adv-x="607" unicode="Ý" d="M281 745l96 140q9 14 25 14h47q14 0 14 -13q0 -8 -17 -23l-134 -118h-31zM170 16q69 4 87.5 19t18.5 77v185l-182 291q-26 41 -35 54t-28.5 26.5t-45.5 15.5v16h232v-16q-76 -5 -76 -40q0 -19 19 -50l160 -259l147 257q17 31 17 49q0 39 -78 43v16h216v-16 q-45 -3 -67.5 -23t-52.5 -73l-166 -290v-186q0 -62 18.5 -77t87.5 -19v-16h-272v16z"/>
<glyph glyph-name="Thorn" horiz-adv-x="678" unicode="Þ" d="M573 366q0 69 -48.5 105.5t-141.5 36.5h-182v-281h182q190 0 190 139zM35 700h272v-16q-69 -4 -87.5 -19t-18.5 -77v-47h182q116 0 188 -43.5t72 -131.5q0 -85 -72.5 -128.5t-187.5 -43.5h-182v-82q0 -62 18.5 -77t87.5 -19v-16h-272v16q69 4 87.5 19t18.5 77v476 q0 62 -18.5 77t-87.5 19v16z"/>
<glyph glyph-name="germandbls" horiz-adv-x="586" unicode="ß" d="M30 417v29h73v43q0 117 52 171.5t135 54.5q75 0 121.5 -37.5t46.5 -103.5q0 -40 -37 -81t-100 -55q101 -13 164 -72t63 -164q0 -99 -45.5 -158t-134.5 -59q-76 0 -116.5 41t-40.5 87q0 17 10 26t25 9q29 0 36 -40q9 -47 29 -70.5t57 -23.5q64 0 89.5 49t25.5 139 q0 112 -56.5 163.5t-172.5 51.5h-29v29q87 0 131.5 38.5t44.5 89.5q0 52 -30.5 82t-79.5 30q-59 0 -95.5 -36.5t-36.5 -114.5v-463q0 -28 13 -40t40 -16v-16h-182v16q44 4 58.5 15t14.5 41v345h-73z"/>
<glyph glyph-name="agrave" horiz-adv-x="504" unicode="à" d="M179 651l96 -140h-31l-134 118q-17 15 -17 23q0 13 14 13h47q16 0 25 -14zM184 18q68 0 158 63v148q-119 -16 -178 -45.5t-59 -91.5q0 -74 79 -74zM409 -10q-56 0 -66 62q-95 -65 -168 -65q-135 0 -135 103q0 72 74 108t228 59v67q0 59 -18 84t-64 25q-103 0 -119 -76 q-8 -42 -36 -42q-30 0 -30 37q0 40 51 74.5t134 34.5q138 0 138 -137v-237q0 -62 35 -62q16 0 41 13v-28q-28 -20 -65 -20z"/>
<glyph glyph-name="aacute" horiz-adv-x="504" unicode="á" d="M234 511l96 140q9 14 25 14h47q14 0 14 -13q0 -8 -17 -23l-134 -118h-31zM184 18q68 0 158 63v148q-119 -16 -178 -45.5t-59 -91.5q0 -74 79 -74zM409 -10q-56 0 -66 62q-95 -65 -168 -65q-135 0 -135 103q0 72 74 108t228 59v67q0 59 -18 84t-64 25q-103 0 -119 -76 q-8 -42 -36 -42q-30 0 -30 37q0 40 51 74.5t134 34.5q138 0 138 -137v-237q0 -62 35 -62q16 0 41 13v-28q-28 -20 -65 -20z"/>
<glyph glyph-name="acircumflex" horiz-adv-x="504" unicode="â" d="M111 511l98 143q10 15 27 15h43q17 0 27 -15l98 -143h-32l-115 114l-114 -114h-32zM184 18q68 0 158 63v148q-119 -16 -178 -45.5t-59 -91.5q0 -74 79 -74zM409 -10q-56 0 -66 62q-95 -65 -168 -65q-135 0 -135 103q0 72 74 108t228 59v67q0 59 -18 84t-64 25 q-103 0 -119 -76q-8 -42 -36 -42q-30 0 -30 37q0 40 51 74.5t134 34.5q138 0 138 -137v-237q0 -62 35 -62q16 0 41 13v-28q-28 -20 -65 -20z"/>
<glyph glyph-name="atilde" horiz-adv-x="504" unicode="ã" d="M361 654h22q-4 -43 -23.5 -66.5t-52.5 -23.5q-24 0 -65 31q-33 25 -50 25q-31 0 -38 -46h-23q4 43 23.5 66.5t52.5 23.5q24 0 65 -31q35 -25 51 -25q31 0 38 46zM184 18q68 0 158 63v148q-119 -16 -178 -45.5t-59 -91.5q0 -74 79 -74zM409 -10q-56 0 -66 62 q-95 -65 -168 -65q-135 0 -135 103q0 72 74 108t228 59v67q0 59 -18 84t-64 25q-103 0 -119 -76q-8 -42 -36 -42q-30 0 -30 37q0 40 51 74.5t134 34.5q138 0 138 -137v-237q0 -62 35 -62q16 0 41 13v-28q-28 -20 -65 -20z"/>
<glyph glyph-name="adieresis" horiz-adv-x="504" unicode="ä" d="M286 617q0 19 12.5 31.5t31.5 12.5t31.5 -12.5t12.5 -31.5q0 -18 -12.5 -30.5t-31.5 -12.5t-31.5 12.5t-12.5 30.5zM140 617q0 19 12.5 31.5t31.5 12.5t31.5 -12.5t12.5 -31.5q0 -18 -12.5 -30.5t-31.5 -12.5t-31.5 12.5t-12.5 30.5zM184 18q68 0 158 63v148 q-119 -16 -178 -45.5t-59 -91.5q0 -74 79 -74zM409 -10q-56 0 -66 62q-95 -65 -168 -65q-135 0 -135 103q0 72 74 108t228 59v67q0 59 -18 84t-64 25q-103 0 -119 -76q-8 -42 -36 -42q-30 0 -30 37q0 40 51 74.5t134 34.5q138 0 138 -137v-237q0 -62 35 -62q16 0 41 13v-28 q-28 -20 -65 -20z"/>
<glyph glyph-name="aring" horiz-adv-x="504" unicode="å" d="M177 615q0 -30 20 -50t49 -20q30 0 50.5 20t20.5 50t-21 50.5t-50 20.5t-49 -20.5t-20 -50.5zM147 615q0 42 28.5 71t70.5 29q41 0 70.5 -29.5t29.5 -70.5q0 -40 -29.5 -69.5t-70.5 -29.5t-70 29.5t-29 69.5zM184 18q68 0 158 63v148q-119 -16 -178 -45.5t-59 -91.5 q0 -74 79 -74zM409 -10q-56 0 -66 62q-95 -65 -168 -65q-135 0 -135 103q0 72 74 108t228 59v67q0 59 -18 84t-64 25q-103 0 -119 -76q-8 -42 -36 -42q-30 0 -30 37q0 40 51 74.5t134 34.5q138 0 138 -137v-237q0 -62 35 -62q16 0 41 13v-28q-28 -20 -65 -20z"/>
<glyph glyph-name="ae" horiz-adv-x="800" unicode="æ" d="M558 432q-117 0 -143 -121h265q0 57 -34 89t-88 32zM372 95q-30 56 -30 134q-119 -16 -178 -45.5t-59 -91.5q0 -74 79 -74q90 0 188 77zM260 461q104 0 129 -89q54 89 169 89q81 0 132 -47t51 -132h-331q-3 -29 -3 -59q0 -94 41 -151.5t131 -57.5q51 0 91.5 31.5 t61.5 86.5l28 -11q-24 -62 -71.5 -99t-109.5 -37q-130 0 -194 88q-107 -86 -210 -86q-135 0 -135 103q0 72 74 108t228 59v67q0 59 -18 84t-64 25q-103 0 -119 -76q-8 -42 -36 -42q-30 0 -30 37q0 40 51 74.5t134 34.5z"/>
<glyph glyph-name="ccedilla" horiz-adv-x="472" unicode="ç" d="M289 -61q36 0 59 -17.5t23 -50.5q0 -34 -33 -60.5t-89 -26.5q-44 0 -72 15t-28 35q0 12 7.5 20t19.5 8q20 0 31 -23q12 -29 47 -29q31 0 47.5 14t16.5 35q0 17 -12 27.5t-33 10.5q-29 0 -46 -16l-20 9l40 96q-99 5 -153 71t-54 166t60 169t150 69q71 0 119 -34.5 t48 -73.5q0 -17 -10 -26t-25 -9q-28 0 -36 40q-14 74 -96 74q-75 0 -110 -57.5t-35 -151.5q0 -92 40.5 -150.5t117.5 -58.5q100 0 152 120l27 -13q-51 -127 -162 -135l-22 -52q13 5 31 5z"/>
<glyph glyph-name="egrave" horiz-adv-x="498" unicode="è" d="M178 651l96 -140h-31l-134 118q-17 15 -17 23q0 13 14 13h47q16 0 25 -14zM256 432q-117 0 -143 -121h265q0 57 -34 89t-88 32zM439 282h-331q-3 -28 -3 -59q0 -94 41 -151.5t131 -57.5q51 0 91.5 31.5t61.5 86.5l28 -11q-24 -62 -71.5 -99t-109.5 -37q-113 0 -175 67 t-62 171q0 103 57.5 170.5t158.5 67.5q81 0 132 -47t51 -132z"/>
<glyph glyph-name="eacute" horiz-adv-x="498" unicode="é" d="M233 511l96 140q9 14 25 14h47q14 0 14 -13q0 -8 -17 -23l-134 -118h-31zM256 432q-117 0 -143 -121h265q0 57 -34 89t-88 32zM439 282h-331q-3 -28 -3 -59q0 -94 41 -151.5t131 -57.5q51 0 91.5 31.5t61.5 86.5l28 -11q-24 -62 -71.5 -99t-109.5 -37q-113 0 -175 67 t-62 171q0 103 57.5 170.5t158.5 67.5q81 0 132 -47t51 -132z"/>
<glyph glyph-name="ecircumflex" horiz-adv-x="498" unicode="ê" d="M110 511l98 143q10 15 27 15h43q17 0 27 -15l98 -143h-32l-115 114l-114 -114h-32zM256 432q-117 0 -143 -121h265q0 57 -34 89t-88 32zM439 282h-331q-3 -28 -3 -59q0 -94 41 -151.5t131 -57.5q51 0 91.5 31.5t61.5 86.5l28 -11q-24 -62 -71.5 -99t-109.5 -37 q-113 0 -175 67t-62 171q0 103 57.5 170.5t158.5 67.5q81 0 132 -47t51 -132z"/>
<glyph glyph-name="edieresis" horiz-adv-x="498" unicode="ë" d="M285 617q0 19 12.5 31.5t31.5 12.5t31.5 -12.5t12.5 -31.5q0 -18 -12.5 -30.5t-31.5 -12.5t-31.5 12.5t-12.5 30.5zM139 617q0 19 12.5 31.5t31.5 12.5t31.5 -12.5t12.5 -31.5q0 -18 -12.5 -30.5t-31.5 -12.5t-31.5 12.5t-12.5 30.5zM256 432q-117 0 -143 -121h265 q0 57 -34 89t-88 32zM439 282h-331q-3 -28 -3 -59q0 -94 41 -151.5t131 -57.5q51 0 91.5 31.5t61.5 86.5l28 -11q-24 -62 -71.5 -99t-109.5 -37q-113 0 -175 67t-62 171q0 103 57.5 170.5t158.5 67.5q81 0 132 -47t51 -132z"/>
<glyph glyph-name="igrave" horiz-adv-x="262" unicode="ì" d="M62 651l96 -140h-31l-134 118q-17 15 -17 23q0 13 14 13h47q16 0 25 -14zM232 0h-202v16q44 4 58.5 15t14.5 41v269q0 19 -8 26.5t-26 7.5h-39v11l111 75h18v-389q0 -30 14.5 -41t58.5 -15v-16z"/>
<glyph glyph-name="iacute" horiz-adv-x="262" unicode="í" d="M105 511l96 140q9 14 25 14h47q14 0 14 -13q0 -8 -17 -23l-134 -118h-31zM232 0h-202v16q44 4 58.5 15t14.5 41v269q0 19 -8 26.5t-26 7.5h-39v11l111 75h18v-389q0 -30 14.5 -41t58.5 -15v-16z"/>
<glyph glyph-name="icircumflex" horiz-adv-x="262" unicode="î" d="M-15 511l98 143q10 15 27 15h43q17 0 27 -15l98 -143h-32l-115 114l-114 -114h-32zM232 0h-202v16q44 4 58.5 15t14.5 41v269q0 19 -8 26.5t-26 7.5h-39v11l111 75h18v-389q0 -30 14.5 -41t58.5 -15v-16z"/>
<glyph glyph-name="idieresis" horiz-adv-x="262" unicode="ï" d="M160 617q0 19 12.5 31.5t31.5 12.5t31.5 -12.5t12.5 -31.5q0 -18 -12.5 -30.5t-31.5 -12.5t-31.5 12.5t-12.5 30.5zM14 617q0 19 12.5 31.5t31.5 12.5t31.5 -12.5t12.5 -31.5q0 -18 -12.5 -30.5t-31.5 -12.5t-31.5 12.5t-12.5 30.5zM232 0h-202v16q44 4 58.5 15t14.5 41 v269q0 19 -8 26.5t-26 7.5h-39v11l111 75h18v-389q0 -30 14.5 -41t58.5 -15v-16z"/>
<glyph glyph-name="eth" horiz-adv-x="531" unicode="ð" d="M419 278q0 33 -5 75q-60 79 -150 79q-81 0 -119 -58.5t-38 -154.5q0 -91 39 -148t123 -57q150 0 150 264zM193 551v30l124 50q-31 48 -72 84h41q39 -32 69 -68l131 53v-30l-113 -46q113 -151 113 -345q0 -137 -59 -215.5t-158 -78.5q-102 0 -165.5 68t-63.5 170 q0 101 62.5 169.5t160.5 68.5q81 0 143 -58q-20 109 -74 204z"/>
<glyph glyph-name="ntilde" horiz-adv-x="553" unicode="ñ" d="M383 654h22q-4 -43 -23.5 -66.5t-52.5 -23.5q-24 0 -65 31q-33 25 -50 25q-31 0 -38 -46h-23q4 43 23.5 66.5t52.5 23.5q24 0 65 -31q35 -25 51 -25q31 0 38 46zM523 0h-202v16q44 4 58.5 15t14.5 41v263q0 92 -85 92q-77 0 -150 -49v-306q0 -30 14.5 -41t58.5 -15v-16 h-202v16q44 4 58.5 15t14.5 41v269q0 19 -8 26.5t-26 7.5h-39v11l111 75h18v-50q83 50 157 50q22 0 43 -5.5t43 -18t35 -39t13 -62.5v-264q0 -30 14.5 -41t58.5 -15v-16z"/>
<glyph glyph-name="ograve" horiz-adv-x="526" unicode="ò" d="M185 651l96 -140h-31l-134 118q-17 15 -17 23q0 13 14 13h47q16 0 25 -14zM105 223q0 -93 39 -151t119 -58t119 58t39 151t-39 151t-119 58t-119 -58t-39 -151zM40 223q0 101 62.5 169.5t160.5 68.5t160.5 -68.5t62.5 -169.5t-62.5 -169.5t-160.5 -68.5t-160.5 68.5 t-62.5 169.5z"/>
<glyph glyph-name="oacute" horiz-adv-x="526" unicode="ó" d="M240 511l96 140q9 14 25 14h47q14 0 14 -13q0 -8 -17 -23l-134 -118h-31zM105 223q0 -93 39 -151t119 -58t119 58t39 151t-39 151t-119 58t-119 -58t-39 -151zM40 223q0 101 62.5 169.5t160.5 68.5t160.5 -68.5t62.5 -169.5t-62.5 -169.5t-160.5 -68.5t-160.5 68.5 t-62.5 169.5z"/>
<glyph glyph-name="ocircumflex" horiz-adv-x="526" unicode="ô" d="M126 511l98 143q10 15 27 15h43q17 0 27 -15l98 -143h-32l-115 114l-114 -114h-32zM105 223q0 -93 39 -151t119 -58t119 58t39 151t-39 151t-119 58t-119 -58t-39 -151zM40 223q0 101 62.5 169.5t160.5 68.5t160.5 -68.5t62.5 -169.5t-62.5 -169.5t-160.5 -68.5 t-160.5 68.5t-62.5 169.5z"/>
<glyph glyph-name="otilde" horiz-adv-x="526" unicode="õ" d="M377 654h22q-4 -43 -23.5 -66.5t-52.5 -23.5q-24 0 -65 31q-33 25 -50 25q-31 0 -38 -46h-23q4 43 23.5 66.5t52.5 23.5q24 0 65 -31q35 -25 51 -25q31 0 38 46zM105 223q0 -93 39 -151t119 -58t119 58t39 151t-39 151t-119 58t-119 -58t-39 -151zM40 223 q0 101 62.5 169.5t160.5 68.5t160.5 -68.5t62.5 -169.5t-62.5 -169.5t-160.5 -68.5t-160.5 68.5t-62.5 169.5z"/>
<glyph glyph-name="odieresis" horiz-adv-x="526" unicode="ö" d="M302 617q0 19 12.5 31.5t31.5 12.5t31.5 -12.5t12.5 -31.5q0 -18 -12.5 -30.5t-31.5 -12.5t-31.5 12.5t-12.5 30.5zM156 617q0 19 12.5 31.5t31.5 12.5t31.5 -12.5t12.5 -31.5q0 -18 -12.5 -30.5t-31.5 -12.5t-31.5 12.5t-12.5 30.5zM105 223q0 -93 39 -151t119 -58 t119 58t39 151t-39 151t-119 58t-119 -58t-39 -151zM40 223q0 101 62.5 169.5t160.5 68.5t160.5 -68.5t62.5 -169.5t-62.5 -169.5t-160.5 -68.5t-160.5 68.5t-62.5 169.5z"/>
<glyph glyph-name="divide" d="M224 180q0 20 14 33t33 13t33 -13t14 -33q0 -22 -13.5 -35t-33.5 -13t-33.5 13t-13.5 35zM224 523q0 20 14 33t33 13t33 -13t14 -33q0 -22 -13.5 -35t-33.5 -13t-33.5 13t-13.5 35zM11 329v43h522v-43h-522z" unicode="÷"/>
<glyph glyph-name="oslash" horiz-adv-x="526" unicode="ø" d="M105 223q0 -78 26 -130l247 285q-41 54 -115 54q-80 0 -119 -58t-39 -151zM421 223q0 76 -27 130l-247 -286q42 -53 116 -53q80 0 119 58t39 151zM40 223q0 101 62.5 169.5t160.5 68.5q84 0 142 -52l32 37h38l-49 -57q60 -66 60 -166q0 -101 -62.5 -169.5t-160.5 -68.5 q-82 0 -143 51l-31 -36h-38l49 56q-60 68 -60 167z"/>
<glyph glyph-name="ugrave" horiz-adv-x="543" unicode="ù" d="M202 651l96 -140h-31l-134 118q-17 15 -17 23q0 13 14 13h47q16 0 25 -14zM311 375v11l110 75h19v-389q0 -30 14.5 -41t58.5 -15v-16q-66 0 -129 -15v49q-81 -49 -157 -49q-22 0 -43 5.5t-43 18t-35 39t-13 62.5v231q0 19 -8 26.5t-26 7.5h-39v11l111 75h18v-350 q0 -92 85 -92q75 0 150 49v273q0 19 -8 26.5t-27 7.5h-38z"/>
<glyph glyph-name="uacute" horiz-adv-x="543" unicode="ú" d="M242 511l96 140q9 14 25 14h47q14 0 14 -13q0 -8 -17 -23l-134 -118h-31zM311 375v11l110 75h19v-389q0 -30 14.5 -41t58.5 -15v-16q-66 0 -129 -15v49q-81 -49 -157 -49q-22 0 -43 5.5t-43 18t-35 39t-13 62.5v231q0 19 -8 26.5t-26 7.5h-39v11l111 75h18v-350 q0 -92 85 -92q75 0 150 49v273q0 19 -8 26.5t-27 7.5h-38z"/>
<glyph glyph-name="ucircumflex" horiz-adv-x="543" unicode="û" d="M120 511l98 143q10 15 27 15h43q17 0 27 -15l98 -143h-32l-115 114l-114 -114h-32zM311 375v11l110 75h19v-389q0 -30 14.5 -41t58.5 -15v-16q-66 0 -129 -15v49q-81 -49 -157 -49q-22 0 -43 5.5t-43 18t-35 39t-13 62.5v231q0 19 -8 26.5t-26 7.5h-39v11l111 75h18v-350 q0 -92 85 -92q75 0 150 49v273q0 19 -8 26.5t-27 7.5h-38z"/>
<glyph glyph-name="udieresis" horiz-adv-x="543" unicode="ü" d="M295 617q0 19 12.5 31.5t31.5 12.5t31.5 -12.5t12.5 -31.5q0 -18 -12.5 -30.5t-31.5 -12.5t-31.5 12.5t-12.5 30.5zM149 617q0 19 12.5 31.5t31.5 12.5t31.5 -12.5t12.5 -31.5q0 -18 -12.5 -30.5t-31.5 -12.5t-31.5 12.5t-12.5 30.5zM311 375v11l110 75h19v-389 q0 -30 14.5 -41t58.5 -15v-16q-66 0 -129 -15v49q-81 -49 -157 -49q-22 0 -43 5.5t-43 18t-35 39t-13 62.5v231q0 19 -8 26.5t-26 7.5h-39v11l111 75h18v-350q0 -92 85 -92q75 0 150 49v273q0 19 -8 26.5t-27 7.5h-38z"/>
<glyph glyph-name="yacute" horiz-adv-x="445" unicode="ý" d="M191 511l96 140q9 14 25 14h47q14 0 14 -13q0 -8 -17 -23l-134 -118h-31zM368 334l-169 -424q-44 -109 -133 -109q-39 0 -65 14t-26 38q0 14 11.5 25t28.5 11q21 0 42 -25t38 -25q43 0 74 81l30 76l-124 338q-21 57 -35.5 74.5t-49.5 21.5v16h192v-16q-65 -4 -65 -36 q0 -16 17 -60l96 -260l103 260q12 32 12 51q0 41 -63 45v16h173v-16q-29 -4 -48 -24.5t-39 -71.5z"/>
<glyph glyph-name="thorn" horiz-adv-x="534" unicode="þ" d="M281 432q-81 0 -127 -62v-294q46 -62 127 -62q148 0 148 209t-148 209zM227 -184h-202v16q44 4 58.5 15t14.5 41v707q0 19 -8 26.5t-26 7.5h-44v11l116 75h18v-308q48 54 135 54q98 0 151.5 -68t53.5 -170t-53.5 -170t-151.5 -68q-87 0 -135 54v-151q0 -30 14.5 -41 t58.5 -15v-16z"/>
<glyph glyph-name="OE" horiz-adv-x="1157" unicode="Œ" d="M120 350q0 -332 271 -332q222 0 222 203v258q0 108 -53 155.5t-169 47.5q-271 0 -271 -332zM703 33h129q60 0 105 9.5t80.5 32t59.5 45.5t57 63l13 -9l-98 -174h-516q-65 -15 -142 -15q-159 0 -250 102.5t-91 262.5t91 262.5t250 102.5q79 0 142 -15h519l71 -154l-13 -9 q-50 67 -109 98.5t-152 31.5h-146q-30 0 -30 -30v-255h184q53 0 72.5 23t25.5 80h16v-239h-16q-6 57 -25.5 80t-72.5 23h-184v-286q0 -30 30 -30z"/>
<glyph glyph-name="oe" horiz-adv-x="859" unicode="œ" d="M637 432q-117 0 -143 -121h265q0 57 -34 89t-88 32zM105 223q0 -93 39 -151t119 -58t119 58t39 151t-39 151t-119 58t-119 -58t-39 -151zM820 282h-331q-3 -24 -3 -49q0 -219 172 -219q51 0 91.5 31.5t61.5 86.5l28 -11q-24 -62 -71.5 -99t-109.5 -37q-145 0 -206 108 q-45 -77 -129 -100q-30 -8 -60 -8q-98 0 -160.5 68.5t-62.5 169.5t62.5 169.5t160.5 68.5q61 0 110 -28.5t78 -78.5q41 76 125 99q30 8 61 8q81 0 132 -47t51 -132z"/>
<glyph glyph-name="Scaron" horiz-adv-x="693" unicode="Š" d="M292 760l-98 143h32l114 -114l115 114h32l-98 -143q-10 -15 -27 -15h-43q-17 0 -27 15zM135 561q0 -22 7.5 -39.5t25 -31.5t34 -24t47.5 -20t50.5 -15.5t57.5 -14.5q45 -11 70 -18t64 -21t61.5 -29t46 -37t34 -51.5t10.5 -65.5q0 -90 -72.5 -149.5t-187.5 -59.5 q-127 0 -233 61l-19 -46h-20l-71 209l15 6q106 -197 328 -197q89 0 150 45.5t61 116.5q0 38 -18 65.5t-60 47t-71 28.5t-92 24q-11 3 -16 4q-48 12 -76 20t-66 24t-59 34.5t-36 47.5t-15 66q0 71 66.5 122.5t163.5 51.5q125 0 204 -53l15 38h20l68 -192l-15 -6 q-46 90 -116.5 135t-175.5 45q-82 0 -131 -35.5t-49 -85.5z"/>
<glyph glyph-name="scaron" horiz-adv-x="453" unicode="š" d="M178 526l-98 143h32l114 -114l115 114h32l-98 -143q-10 -15 -27 -15h-43q-17 0 -27 15zM88 358q0 -15 5 -26.5t19 -20.5t23 -14.5t34 -12t34.5 -8.5t40.5 -8q41 -9 66 -16.5t54.5 -23t44 -41.5t14.5 -62q0 -62 -46 -101t-118 -39q-100 0 -162 50l-12 -35h-19l-36 144 l15 6q48 -75 96 -105.5t118 -30.5q51 0 87.5 23.5t36.5 70.5q0 25 -12 42.5t-40.5 29t-47.5 16.5t-62 13q-34 7 -53 11.5t-46 14.5t-41 22.5t-25 33.5t-11 48q0 50 41 86t108 36q89 0 139 -40l9 25h19l28 -121l-15 -6q-35 62 -78 87.5t-102 25.5q-51 0 -78.5 -21t-27.5 -53z "/>
<glyph glyph-name="Ydieresis" horiz-adv-x="607" unicode="Ÿ" d="M332 851q0 19 12.5 31.5t31.5 12.5t31.5 -12.5t12.5 -31.5q0 -18 -12.5 -30.5t-31.5 -12.5t-31.5 12.5t-12.5 30.5zM186 851q0 19 12.5 31.5t31.5 12.5t31.5 -12.5t12.5 -31.5q0 -18 -12.5 -30.5t-31.5 -12.5t-31.5 12.5t-12.5 30.5zM170 16q69 4 87.5 19t18.5 77v185 l-182 291q-26 41 -35 54t-28.5 26.5t-45.5 15.5v16h232v-16q-76 -5 -76 -40q0 -19 19 -50l160 -259l147 257q17 31 17 49q0 39 -78 43v16h216v-16q-45 -3 -67.5 -23t-52.5 -73l-166 -290v-186q0 -62 18.5 -77t87.5 -19v-16h-272v16z"/>
<glyph glyph-name="circumflex" horiz-adv-x="505" unicode="ˆ" d="M105 511l98 143q10 15 27 15h43q17 0 27 -15l98 -143h-32l-115 114l-114 -114h-32z"/>
<glyph glyph-name="tilde" horiz-adv-x="505" unicode="˜" d="M356 654h22q-4 -43 -23.5 -66.5t-52.5 -23.5q-24 0 -65 31q-33 25 -50 25q-31 0 -38 -46h-23q4 43 23.5 66.5t52.5 23.5q24 0 65 -31q35 -25 51 -25q31 0 38 46z"/>
<glyph glyph-name="uni0394" horiz-adv-x="632" unicode="Δ" d="M305 601l-213 -568h430zM308 700h25l264 -700h-553z"/>
<glyph glyph-name="uni03BC" horiz-adv-x="515" unicode="μ" d="M218 -15q-61 0 -98 32q9 -27 24 -62.5t24.5 -59.5t9.5 -40q0 -24 -13.5 -39t-33.5 -15t-33.5 15t-13.5 39v591h56v-335q0 -92 85 -92q76 0 151 49q-1 7 -1 22v356h56v-357q0 -64 35 -64q16 0 41 13v-28q-28 -20 -54 -20q-57 0 -72 48q-82 -53 -163 -53z"/>
<glyph glyph-name="pi" horiz-adv-x="515" unicode="π" d="M66 -15q-24 0 -39.5 10t-15.5 29q0 14 9.5 24t23.5 10q16 0 31 -15t34 -15q26 0 42.5 20.5t16.5 64.5v277h-21q-37 0 -59.5 -21.5t-22.5 -54.5h-26q0 21 4.5 41t17 42t39 35.5t64.5 13.5h200q103 0 140 18v-21q-19 -26 -45 -39t-83 -14v-303q0 -62 35 -62q16 0 41 13v-28 q-28 -20 -65 -20q-31 0 -49 21.5t-18 63.5v315h-123v-252q0 -70 -32.5 -111.5t-98.5 -41.5z"/>
<glyph glyph-name="endash" d="M11 208v29h522v-29h-522z" unicode="–"/>
<glyph glyph-name="emdash" horiz-adv-x="805" unicode="—" d="M11 208v29h783v-29h-783z"/>
<glyph glyph-name="quoteleft" horiz-adv-x="226" unicode="‘" d="M160 536q0 -20 -14 -33t-33 -13q-20 0 -33.5 15t-13.5 43q0 44 24 95.5t56 81.5l13 -10q-52 -68 -58 -131q59 0 59 -48z"/>
<glyph glyph-name="quotesinglbase" horiz-adv-x="226" unicode="‚" d="M66 40q0 20 14 33t33 13q20 0 33.5 -15t13.5 -43q0 -44 -24 -95.5t-56 -81.5l-13 10q52 68 58 131q-59 0 -59 48z"/>
<glyph glyph-name="quotedblleft" horiz-adv-x="386" unicode="“" d="M160 536q0 -20 -14 -33t-33 -13q-20 0 -33.5 15t-13.5 43q0 44 24 95.5t56 81.5l13 -10q-52 -68 -58 -131q59 0 59 -48zM320 536q0 -20 -14 -33t-33 -13q-20 0 -33.5 15t-13.5 43q0 44 24 95.5t56 81.5l13 -10q-52 -68 -58 -131q59 0 59 -48z"/>
<glyph glyph-name="quotedblright" horiz-adv-x="386" unicode="”" d="M66 669q0 20 14 33t33 13q20 0 33.5 -15t13.5 -43q0 -44 -24 -95.5t-56 -81.5l-13 10q52 68 58 131q-59 0 -59 48zM226 669q0 20 14 33t33 13q20 0 33.5 -15t13.5 -43q0 -44 -24 -95.5t-56 -81.5l-13 10q52 68 58 131q-59 0 -59 48z"/>
<glyph glyph-name="dagger" horiz-adv-x="430" unicode="†" d="M248 677q0 -15 -11.5 -55t-14.5 -82q42 3 82.5 14.5t54.5 11.5q17 0 27.5 -9.5t10.5 -23.5t-10.5 -23.5t-27.5 -9.5q-14 0 -54.5 11t-82.5 14q3 -41 14.5 -57t11.5 -29q0 -40 -10.5 -162t-22.5 -122t-22.5 122t-10.5 162q0 13 11 29t14 57q-42 -3 -81.5 -14t-54.5 -11 q-16 0 -27 9.5t-11 23.5t11 23.5t27 9.5q15 0 54.5 -11.5t81.5 -14.5q-3 42 -14 82t-11 55q0 16 9.5 27t23.5 11t23.5 -11t9.5 -27z"/>
<glyph glyph-name="daggerdbl" horiz-adv-x="430" unicode="‡" d="M182 -161q0 15 11 55t14 82q-42 -3 -82 -14.5t-54 -11.5q-17 0 -27.5 9.5t-10.5 23.5t10.5 23.5t27.5 9.5q14 0 54 -11t82 -14q-3 40 -14 56.5t-11 29.5q0 29 10.5 100t22.5 71t22.5 -71t10.5 -100q0 -13 -11.5 -29.5t-14.5 -56.5q42 3 82 14t55 11q16 0 27 -9.5 t11 -23.5t-11 -23.5t-27 -9.5q-15 0 -55 11.5t-82 14.5q3 -42 14.5 -82t11.5 -55q0 -16 -9.5 -27t-23.5 -11t-23.5 11t-9.5 27zM248 677q0 -15 -11.5 -55t-14.5 -82q42 3 82.5 14.5t54.5 11.5q17 0 27.5 -9.5t10.5 -23.5t-10.5 -23.5t-27.5 -9.5q-14 0 -54.5 11t-82.5 14 q3 -41 14.5 -57t11.5 -29q0 -29 -10.5 -100t-22.5 -71t-22.5 71t-10.5 100q0 13 11 29t14 57q-42 -3 -81.5 -14t-54.5 -11q-16 0 -27 9.5t-11 23.5t11 23.5t27 9.5q15 0 54.5 -11.5t81.5 -14.5q-3 42 -14 82t-11 55q0 16 9.5 27t23.5 11t23.5 -11t9.5 -27z"/>
<glyph glyph-name="ellipsis" horiz-adv-x="678" unicode="…" d="M518 40q0 20 14 33t33 13t33 -13t14 -33q0 -22 -13.5 -35t-33.5 -13t-33.5 13t-13.5 35zM292 40q0 20 14 33t33 13t33 -13t14 -33q0 -22 -13.5 -35t-33.5 -13t-33.5 13t-13.5 35zM66 40q0 20 14 33t33 13t33 -13t14 -33q0 -22 -13.5 -35t-33.5 -13t-33.5 13t-13.5 35z "/>
<glyph glyph-name="perthousand" horiz-adv-x="1236" unicode="‰" d="M953 210q0 -95 19.5 -145.5t73.5 -50.5q55 0 74.5 50.5t19.5 145.5q0 96 -19.5 146t-74.5 50q-54 0 -73.5 -50t-19.5 -146zM893 210q0 97 39.5 158t113.5 61t114 -61t40 -158t-40 -158t-114 -61t-113.5 61t-39.5 158zM574 210q0 -95 19.5 -145.5t73.5 -50.5 q55 0 74.5 50.5t19.5 145.5q0 96 -19.5 146t-74.5 50q-54 0 -73.5 -50t-19.5 -146zM514 210q0 97 39.5 158t113.5 61t114 -61t40 -158t-40 -158t-114 -61t-113.5 61t-39.5 158zM184 0l456 700h33l-456 -700h-33zM96 490q0 -95 19.5 -145.5t73.5 -50.5q55 0 74.5 50.5 t19.5 145.5q0 96 -19.5 146t-74.5 50q-54 0 -73.5 -50t-19.5 -146zM36 490q0 97 39.5 158t113.5 61t114 -61t40 -158t-40 -158t-114 -61t-113.5 61t-39.5 158z"/>
<glyph glyph-name="guilsinglleft" horiz-adv-x="330" unicode="‹" d="M258 29l-15 -10l-164 194q-7 9 -7 20q0 13 7 21l164 194l15 -10l-102 -205z"/>
<glyph glyph-name="guilsinglright" horiz-adv-x="330" unicode="›" d="M72 29l102 204l-102 205l15 10l164 -194q7 -8 7 -21q0 -11 -7 -20l-164 -194z"/>
<glyph glyph-name="fraction" horiz-adv-x="99" unicode="⁄" d="M-195 0l456 700h33l-456 -700h-33z"/>
<glyph glyph-name="Euro" horiz-adv-x="572" unicode="€" d="M49 400v29h66q14 139 75.5 212.5t159.5 73.5q76 0 120.5 -46t44.5 -102q0 -42 -20.5 -67.5t-51.5 -25.5q-25 0 -38 14.5t-13 34.5q0 24 18 38.5t45 14.5q15 0 15 11q0 41 -33.5 68t-86.5 27q-82 0 -120.5 -64t-45.5 -189h214v-29h-216v-50q0 -39 1 -57h215v-29h-213 q21 -246 173 -246q97 0 148 116l31 -13q-55 -136 -179 -136q-103 0 -165.5 71t-76.5 208h-67v29h65q-2 36 -2 57q0 34 1 50h-64z"/>
<glyph glyph-name="trademark" horiz-adv-x="474" unicode="™" d="M83 524v153q0 9 -9 9q-23 0 -36 -8t-27 -31l-7 3l23 57h8q3 -7 9 -7h112q8 0 9 7h9l22 -57l-7 -3q-13 22 -27 30.5t-37 8.5q-9 0 -9 -9v-153q0 -16 5 -20t23 -6v-8h-89v8q13 1 18 2.5t7.5 6.5t2.5 17zM457 490h-89v8q19 2 24 5.5t5 20.5v151l-68 -185h-11l-67 185v-151 q0 -16 5 -20t23 -6v-8h-73v8q13 1 18 2.5t8 7t3 16.5v142q0 16 -5 20t-24 6v8h70l56 -155l56 155h69v-8q-13 -1 -18 -2.5t-7.5 -6.5t-2.5 -17v-142q0 -16 5 -20t23 -6v-8z"/>
<glyph glyph-name="partialdiff" horiz-adv-x="524" unicode="∂" d="M412 278q0 13 -0.5 36t-0.5 34q-61 84 -154 84q-81 0 -119 -58.5t-38 -154.5q0 -91 39 -148t123 -57q150 0 150 264zM479 279q0 -137 -59 -215.5t-158 -78.5q-102 0 -165.5 68t-63.5 170q0 101 62.5 169.5t160.5 68.5q88 0 152 -66q-9 149 -44 215t-101 66 q-16 0 -37 -24.5t-38 -24.5q-38 0 -38 37q0 21 16.5 36t54.5 15q130 0 194 -117.5t64 -318.5z"/>
<glyph glyph-name="product" horiz-adv-x="778" unicode="∏" d="M743 0h-272v16q69 4 87.5 19t18.5 77v525q0 30 -30 30h-316q-30 0 -30 -30v-525q0 -62 18.5 -77t87.5 -19v-16h-272v16q69 4 87.5 19t18.5 77v476q0 62 -18.5 77t-87.5 19v16h708v-16q-69 -4 -87.5 -19t-18.5 -77v-476q0 -62 18.5 -77t87.5 -19v-16z"/>
<glyph glyph-name="summation" horiz-adv-x="613" unicode="∑" d="M98 56h215q81 0 132 14t82 38.5t73 74.5l13 -9l-98 -174h-480v16l221 343l-220 325v16h482l71 -154l-13 -9q-50 67 -109 98.5t-152 31.5h-195l192 -283z"/>
<glyph glyph-name="minus" d="M11 329v43h522v-43h-522z" unicode="−"/>
<glyph glyph-name="radical" d="M11 223v43h135l86 -209l267 643h47l-290 -700h-47l-92 223h-106z" unicode="√"/>
<glyph glyph-name="infinity" horiz-adv-x="859" unicode="∞" d="M645 510q-70 0 -111.5 -39.5t-80.5 -114.5q20 -39 34.5 -61.5t37.5 -48.5t52.5 -38t67.5 -12q66 0 109.5 44t43.5 110q0 67 -44 113.5t-109 46.5zM214 191q70 0 111.5 39t80.5 114q-17 32 -27 49.5t-29 42t-36.5 37.5t-43.5 22.5t-56 9.5q-66 0 -109.5 -44t-43.5 -111 t44 -113t109 -46zM645 148q-82 0 -130 41t-89 116q-39 -75 -86 -116t-126 -41t-137.5 59t-58.5 143q0 85 58.5 144t137.5 59q82 0 129.5 -41t88.5 -117q41 76 87.5 117t125.5 41t137.5 -59t58.5 -144q0 -84 -58.5 -143t-137.5 -59z"/>
<glyph glyph-name="approxequal" d="M533 480v-33q-46 23 -96 23q-79 0 -166 -34t-165 -34q-45 0 -95 19v32q44 -22 95 -22q79 0 166 34t165 34q44 0 96 -19zM533 282v-33q-46 23 -96 23q-79 0 -166 -34t-165 -34q-45 0 -95 19v32q44 -22 95 -22q79 0 166 34t165 34q44 0 96 -19z" unicode="≈"/>
<glyph glyph-name="notequal" d="M11 428v43h271l40 140h45l-40 -140h206v-43h-218l-44 -155h262v-43h-274l-39 -141h-45l39 141h-203v43h215l44 155h-259z" unicode="≠"/>
<glyph glyph-name="lessequal" d="M11 0v36h522v-36h-522zM513 174v-47l-482 199v47l482 199v-47l-425 -176z" unicode="≤"/>
<glyph glyph-name="greaterequal" d="M533 36v-36h-522v36h522zM31 127v47l425 175l-425 176v47l482 -199v-47z" unicode="≥"/>
<glyph glyph-name="lozenge" d="M96 350l175 -309l176 309l-176 308zM49 350l199 350h47l199 -350l-199 -350h-47z" unicode="◊"/>
</font>
</defs>
</svg>
