<?xml version="1.0" encoding="UTF-8" standalone="no"?>
<!DOCTYPE svg  PUBLIC '-//W3C//DTD SVG 1.1//EN'  'http://www.w3.org/Graphics/SVG/1.1/DTD/svg11.dtd'>
<svg xmlns="http://www.w3.org/2000/svg">
<defs>
<font id="Bookmania-Regular" horiz-adv-x="552">
<font-face underline-position="-50" font-weight="400" descent="-200" panose-1="2 4 5 3 6 5 6 6 2 3" units-per-em="1000" unicode-range="U+0020-25CA" bbox="-196 -264 1218 924" x-height="451" underline-thickness="50" font-family="Bookmania" ascent="800" cap-height="700"/>
<missing-glyph horiz-adv-x="1000"/>
<glyph glyph-name=".notdef" horiz-adv-x="1000"/>
<glyph glyph-name=".null" horiz-adv-x="0"/>
<glyph glyph-name="nonmarkingreturn" horiz-adv-x="333"/>
<glyph glyph-name="space" horiz-adv-x="251" unicode=" "/>
<glyph glyph-name="exclam" horiz-adv-x="240" unicode="!" d="M57 53q0 27 17.5 44.5t45.5 17.5t45.5 -17.5t17.5 -44.5t-18 -45t-45 -18q-28 0 -45.5 18t-17.5 45zM138 186h-36q-1 112 -12 192.5t-22 132t-11 95.5q0 109 63 109t63 -109q0 -44 -11 -95.5t-22 -132t-12 -192.5z"/>
<glyph glyph-name="quotedbl" horiz-adv-x="423" unicode='&quot;' d="M134 436h-28q-6 66 -23 133.5t-17 86.5q0 26 15.5 42.5t38.5 16.5t38.5 -16t15.5 -42q0 -20 -17 -87.5t-23 -133.5zM317 436h-28q-6 66 -23 133.5t-17 86.5q0 26 15.5 42.5t38.5 16.5t38.5 -16t15.5 -42q0 -20 -17 -87.5t-23 -133.5z"/>
<glyph glyph-name="numbersign" d="M232 457l-60 -214h147l60 214h-147zM251 0l57 204h-148l-57 -204h-43l57 204h-107v39h119l60 214h-125v40h136l58 203h43l-58 -203h147l58 203h43l-58 -203h109v-40h-120l-60 -214h125v-39h-136l-57 -204h-43z" unicode="#"/>
<glyph glyph-name="dollar" horiz-adv-x="578" unicode="$" d="M163 550q0 -50 30 -79t85 -52v252q-55 -6 -85 -37t-30 -84zM446 158q0 56 -33 88.5t-94 57.5v-275q64 9 95.5 46.5t31.5 82.5zM277 -111v97q-80 6 -133 48l-14 -34h-30l-65 215l23 7q50 -95 107.5 -144t111.5 -51v293q-40 15 -60 23.5t-52.5 27.5t-48.5 38.5t-29 51.5 t-13 72q0 65 51.5 120.5t152.5 60.5v46h42v-47q65 -6 99 -39l12 26h29l62 -195l-22 -8q-41 87 -84 128.5t-96 46.5v-270q31 -11 44.5 -16.5t41.5 -18t41.5 -22.5t33.5 -27.5t29 -35.5t16.5 -44t7.5 -56q0 -80 -57 -134.5t-158 -61.5v-97h-42z"/>
<glyph glyph-name="percent" horiz-adv-x="823" unicode="%" d="M553 210q0 -97 16.5 -143t62.5 -46q47 0 63.5 46t16.5 143q0 98 -16.5 143.5t-63.5 45.5q-46 0 -62.5 -45.5t-16.5 -143.5zM473 210q0 101 41.5 160t117.5 59q77 0 118.5 -59t41.5 -160t-41.5 -160t-118.5 -59q-76 0 -117.5 59t-41.5 160zM162 0l456 700h43l-456 -700 h-43zM111 490q0 -97 16.5 -143t62.5 -46q47 0 63.5 46t16.5 143q0 98 -16.5 143.5t-63.5 45.5q-46 0 -62.5 -45.5t-16.5 -143.5zM31 490q0 101 41.5 160t117.5 59q77 0 118.5 -59t41.5 -160t-41.5 -160t-118.5 -59q-76 0 -117.5 59t-41.5 160z"/>
<glyph glyph-name="ampersand" horiz-adv-x="748" unicode="&amp;" d="M214 576q0 -36 19 -63t63 -60q55 32 84 61.5t29 67.5q0 40 -25 65.5t-71 25.5q-44 0 -71.5 -26t-27.5 -71zM288 42q85 0 153 52q-50 122 -88 185.5t-84 103.5q-60 -39 -93 -82.5t-33 -107.5q0 -63 38 -107t107 -44zM620 350q-15 -124 -87 -219q23 -56 45 -77.5t57 -21.5 q44 0 83 15v-36q-41 -25 -115 -25q-97 0 -143 72q-94 -73 -213 -73q-99 0 -156.5 52.5t-57.5 129.5q0 46 16 84.5t47.5 69t60.5 51t73 44.5q-45 39 -65.5 75t-20.5 80q0 52 42 98t122 46q69 0 109 -38.5t40 -94.5q0 -50 -31.5 -85t-90.5 -72q56 -42 98 -98t83 -154 q56 84 56 184q0 46 -21 62.5t-72 20.5v26h239v-26q-50 -4 -71 -21.5t-27 -68.5z"/>
<glyph glyph-name="quotesingle" horiz-adv-x="240" unicode="&apos;" d="M134 436h-28q-6 66 -23 133.5t-17 86.5q0 26 15.5 42.5t38.5 16.5t38.5 -16t15.5 -42q0 -20 -17 -87.5t-23 -133.5z"/>
<glyph glyph-name="parenleft" horiz-adv-x="309" unicode="(" d="M31 260q0 150 71 276t179 199l22 -26q-82 -62 -135.5 -187.5t-53.5 -261.5q0 -135 53.5 -260.5t135.5 -188.5l-22 -26q-108 73 -179 199t-71 276z"/>
<glyph glyph-name="parenright" horiz-adv-x="309" unicode=")" d="M279 260q0 -150 -71.5 -276t-179.5 -199l-22 26q82 63 135.5 188.5t53.5 260.5q0 136 -53.5 261.5t-135.5 187.5l22 26q108 -73 179.5 -199t71.5 -276z"/>
<glyph glyph-name="asterisk" horiz-adv-x="384" unicode="*" d="M229 674q0 -15 -11 -51.5t-15 -70.5q28 21 54 49t38 35q11 6 23 6q23 0 32 -18q5 -10 5 -18q0 -22 -22 -35q-13 -8 -50.5 -16.5t-68.5 -21.5q32 -14 69 -22.5t49 -15.5q23 -14 23 -35q0 -8 -5 -18q-9 -18 -32 -18q-11 0 -23 6q-13 7 -39 34.5t-53 48.5q4 -33 15 -69.5 t11 -51.5q0 -18 -10.5 -29.5t-26.5 -11.5q-15 0 -26 11.5t-11 29.5q0 14 11 50.5t14 71.5q-27 -21 -52.5 -48.5t-38.5 -35.5q-12 -6 -23 -6q-23 0 -32 18q-5 10 -5 18q0 21 23 35q12 7 48.5 15.5t67.5 22.5q-30 13 -66.5 21.5t-49.5 16.5q-22 12 -22 36q0 10 4 17 q9 18 32 18q12 0 23 -6q12 -7 38.5 -35t53.5 -49q-4 34 -15 70.5t-11 51.5q0 18 11 29.5t26 11.5q16 0 26.5 -11.5t10.5 -29.5z"/>
<glyph glyph-name="plus" d="M10 326v50h240v240h50v-240h242v-50h-242v-241h-50v241h-240z" unicode="+"/>
<glyph glyph-name="comma" horiz-adv-x="240" unicode="," d="M57 53q0 27 17.5 44.5t45.5 17.5t45.5 -19.5t17.5 -53.5q0 -46 -29 -103t-66 -92l-20 15q50 65 61 128q-34 0 -53 18t-19 45z"/>
<glyph glyph-name="hyphen" horiz-adv-x="243" unicode="-" d="M10 196v59h223v-59h-223z"/>
<glyph glyph-name="period" horiz-adv-x="240" unicode="." d="M57 53q0 27 17.5 44.5t45.5 17.5t45.5 -17.5t17.5 -44.5t-18 -45t-45 -18q-28 0 -45.5 18t-17.5 45z"/>
<glyph glyph-name="slash" horiz-adv-x="309" unicode="/" d="M0 -214l266 944h43l-266 -944h-43z"/>
<glyph glyph-name="zero" horiz-adv-x="578" unicode="0" d="M149 350q0 -76 5.5 -130t20.5 -99.5t43 -68.5t71 -23t71 23t43 68.5t20.5 99.5t5.5 130q0 77 -5.5 131t-20.5 99.5t-43 68.5t-71 23t-71 -23t-43 -68.5t-20.5 -99.5t-5.5 -131zM44 350q0 163 63.5 264t181.5 101t181.5 -101t63.5 -264t-63.5 -264t-181.5 -101t-181.5 101 t-63.5 264z"/>
<glyph glyph-name="one" horiz-adv-x="578" unicode="1" d="M464 0h-350v25q81 4 104 18t23 69v453q0 18 -7 25t-24 7h-95v21l185 97h37v-603q0 -55 23.5 -69t103.5 -18v-25z"/>
<glyph glyph-name="two" horiz-adv-x="578" unicode="2" d="M115 497h-49q0 100 60.5 159t150.5 59q96 0 157.5 -57t61.5 -146q0 -57 -24 -113t-72.5 -110t-98 -98t-122.5 -99h248q27 0 38 14t22 73h27l-24 -201h-27q0 22 -17 22h-372v44q60 55 91.5 85.5t82 86t76.5 97t46.5 95.5t20.5 104q0 158 -129 158q-65 0 -106 -44t-41 -129 z"/>
<glyph glyph-name="three" horiz-adv-x="578" unicode="3" d="M490 559q0 -57 -32.5 -98.5t-90.5 -58.5q66 -12 111 -64t45 -118q0 -103 -70.5 -169t-194.5 -66q-79 0 -138 27t-59 76q0 22 14.5 37t34.5 15q27 0 46 -17t28 -38t29 -38t49 -17q156 0 156 166q0 70 -45 118.5t-126 48.5h-18v44h24q64 0 98 40t34 97q0 53 -29.5 89.5 t-86.5 36.5q-56 0 -94.5 -36.5t-42.5 -104.5h-49q8 86 61 136t143 50q95 0 149 -47t54 -109z"/>
<glyph glyph-name="four" horiz-adv-x="578" unicode="4" d="M325 582l-223 -357h223v357zM421 0h-96v180h-282v34l302 486h76v-475h114v-45h-114v-180z"/>
<glyph glyph-name="five" horiz-adv-x="578" unicode="5" d="M258 464q119 0 189.5 -69t70.5 -170t-68.5 -170.5t-185.5 -69.5q-80 0 -142 27t-62 76q0 22 14 37t33 15q23 0 39.5 -11.5t28 -27.5l23 -32t30 -27.5t43.5 -11.5q79 0 121.5 45.5t42.5 120.5t-52.5 123t-136.5 48q-76 0 -134 -31l-25 10l52 354h284q25 0 28 22h27 l-13 -113h-295l-23 -164q46 19 111 19z"/>
<glyph glyph-name="six" horiz-adv-x="578" unicode="6" d="M284 406q-75 0 -131 -53q-4 -31 -4 -72q0 -121 31 -186.5t109 -65.5q69 0 104.5 52t35.5 136q0 83 -37.5 136t-107.5 53zM477 715v-42q-262 -30 -315 -266q66 44 139 44q109 0 171 -69.5t62 -164.5q0 -94 -69.5 -163t-175.5 -69q-114 0 -179.5 85.5t-65.5 222.5 q0 182 122.5 294t310.5 128z"/>
<glyph glyph-name="seven" horiz-adv-x="578" unicode="7" d="M279 0h-105q17 156 85.5 314.5t170.5 294.5h-281q-27 0 -38 -14.5t-22 -72.5h-27l23 200h27q0 -22 17 -22h380v-43q-196 -274 -230 -657z"/>
<glyph glyph-name="eight" horiz-adv-x="578" unicode="8" d="M168 560q0 -31 11 -54t34.5 -41t44.5 -29t58 -26q61 28 94 59.5t33 82.5q0 53 -35.5 86.5t-101.5 33.5q-65 0 -101.5 -29.5t-36.5 -82.5zM112 171q0 -60 43 -101.5t127 -41.5q82 0 120.5 38.5t38.5 90.5q0 19 -5 36t-11.5 29t-21 25t-23.5 20.5t-30.5 18t-31.5 15t-36 15 t-35 14.5q-65 -29 -100 -64.5t-35 -94.5zM505 556q0 -64 -34.5 -102.5t-97.5 -68.5q76 -33 118.5 -78.5t42.5 -124.5q0 -86 -65.5 -141.5t-183.5 -55.5q-112 0 -176.5 55.5t-64.5 126.5q0 70 39 113.5t109 75.5q-56 30 -87 72.5t-31 111.5q0 64 57 119.5t169 55.5 q94 0 149.5 -47t55.5 -112z"/>
<glyph glyph-name="nine" horiz-adv-x="578" unicode="9" d="M294 294q74 0 131 52q4 46 4 73q0 122 -31 187.5t-109 65.5q-69 0 -104.5 -52.5t-35.5 -136.5q0 -83 37.5 -136t107.5 -53zM101 -15v43q262 28 315 265q-68 -44 -139 -44q-108 0 -170.5 69.5t-62.5 164.5q0 94 69.5 163t175.5 69q114 0 179.5 -85t65.5 -223 q0 -182 -122.5 -294t-310.5 -128z"/>
<glyph glyph-name="colon" horiz-adv-x="240" unicode=":" d="M57 53q0 27 17.5 44.5t45.5 17.5t45.5 -17.5t17.5 -44.5t-18 -45t-45 -18q-28 0 -45.5 18t-17.5 45zM57 398q0 27 17.5 44.5t45.5 17.5t45.5 -18t17.5 -44q0 -27 -18 -45t-45 -18q-28 0 -45.5 18t-17.5 45z"/>
<glyph glyph-name="semicolon" horiz-adv-x="240" unicode=";" d="M57 398q0 27 17.5 44.5t45.5 17.5t45.5 -18t17.5 -44q0 -27 -18 -45t-45 -18q-28 0 -45.5 18t-17.5 45zM57 53q0 27 17.5 44.5t45.5 17.5t45.5 -19.5t17.5 -53.5q0 -46 -29 -103t-66 -92l-20 15q50 65 61 128q-34 0 -53 18t-19 45z"/>
<glyph glyph-name="less" d="M521 170v-55l-490 203v55l490 202v-54l-424 -176z" unicode="&lt;"/>
<glyph glyph-name="equal" d="M10 227v50h532v-50h-532zM10 425v50h532v-50h-532z" unicode="="/>
<glyph glyph-name="greater" d="M30 115v55l425 175l-425 176v54l491 -202v-55z" unicode="&gt;"/>
<glyph glyph-name="question" horiz-adv-x="469" unicode="?" d="M129 53q0 27 18 44.5t46 17.5q27 0 45 -17.5t18 -44.5t-18 -45t-45 -18q-28 0 -46 18t-18 45zM215 285l-2 -99h-42l-1 189q90 0 140 32.5t50 112.5q0 59 -41 102.5t-106 43.5q-27 0 -45 -14.5t-25.5 -32t-23.5 -32t-41 -14.5q-20 0 -33.5 14.5t-13.5 37.5q0 44 41 67 t104 23q123 0 192.5 -69t69.5 -160q0 -98 -60.5 -148.5t-162.5 -52.5z"/>
<glyph glyph-name="at" horiz-adv-x="935" unicode="@" d="M422 85q72 0 117 66l58 231q-16 56 -86 56q-119 0 -162 -177q-12 -47 -12 -84q0 -92 85 -92zM623 41q-36 0 -58 16.5t-27 43.5q-60 -60 -143 -60q-71 0 -111.5 47t-40.5 120q0 33 9 69q21 87 92.5 145.5t159.5 58.5q77 0 109 -51l71 51h28l-81 -324q-5 -18 -5 -33 q0 -36 39 -36q69 0 128.5 76.5t59.5 183.5q0 77 -27.5 136.5t-75.5 95.5t-108.5 54.5t-129.5 18.5q-110 0 -208.5 -53t-158 -145t-59.5 -198q0 -179 112.5 -285t285.5 -106q158 0 311 109l21 -32q-79 -55 -157 -85t-176 -30q-91 0 -170 28.5t-139.5 82t-95 135.5t-34.5 183 q0 113 65.5 213.5t173.5 160.5t228 60q166 0 273 -91.5t107 -251.5q0 -131 -78.5 -219t-189.5 -88z"/>
<glyph glyph-name="A" horiz-adv-x="665" unicode="A" d="M307 572l-118 -313h238zM308 700h57l229 -602q13 -36 31.5 -52.5t52.5 -20.5v-25h-260v25q44 3 63 11.5t19 26.5q0 11 -6 24l-50 128h-272l-48 -128q-4 -9 -4 -20q0 -36 89 -42v-25h-222v25q37 4 58 20t32 48z"/>
<glyph glyph-name="B" horiz-adv-x="704" unicode="B" d="M530 527q0 67 -41.5 97.5t-127.5 30.5h-105q-30 0 -30 -30v-227h141q163 0 163 129zM550 199q0 70 -43.5 112.5t-119.5 42.5h-161v-279q0 -30 30 -30h119q87 0 131 41t44 113zM660 199q0 -95 -78 -147t-207 -52h-345v25q63 4 80 18t17 69v476q0 56 -17 69.5t-80 17.5v25 h328q282 0 282 -173q0 -121 -155 -151q83 -16 129 -64t46 -113z"/>
<glyph glyph-name="C" horiz-adv-x="700" unicode="C" d="M599 700l62 -195l-23 -8q-96 175 -254 175q-115 0 -172.5 -87.5t-57.5 -234.5t57.5 -234t172.5 -87q84 0 151 44t90 121l45 -15q-72 -194 -292 -194q-146 0 -240 103t-94 262t94 262t240 103q108 0 177 -50l15 35h29z"/>
<glyph glyph-name="D" horiz-adv-x="764" unicode="D" d="M720 350q0 -172 -99.5 -261t-275.5 -89h-315v25q63 4 80 18t17 69v476q0 56 -17 69.5t-80 17.5v25h315q176 0 275.5 -89t99.5 -261zM610 350q0 73 -13.5 127t-36.5 87.5t-57.5 54.5t-72 28.5t-85.5 7.5h-89q-30 0 -30 -30v-550q0 -30 30 -30h89q48 0 85.5 7.5t72 28.5 t57.5 54.5t36.5 87.5t13.5 127z"/>
<glyph glyph-name="E" horiz-adv-x="688" unicode="E" d="M256 45h104q105 0 171.5 38t128.5 114l21 -13l-98 -184h-553v25q63 4 80 18t17 69v476q0 56 -17 69.5t-80 17.5v25h554l67 -163l-21 -11q-49 67 -109 98t-153 31h-112q-30 0 -30 -30v-237h162q52 0 70.5 22t23.5 75h26v-239h-26q-5 53 -23.5 75t-70.5 22h-162v-268 q0 -30 30 -30z"/>
<glyph glyph-name="F" horiz-adv-x="658" unicode="F" d="M226 625v-237h162q52 0 70.5 22t23.5 75h26v-239h-26q-5 53 -23.5 75t-70.5 22h-162v-231q0 -55 17 -69t80 -18v-25h-293v25q63 4 80 18t17 69v476q0 56 -17 69.5t-80 17.5v25h554l67 -163l-21 -11q-49 67 -109 98t-153 31h-112q-30 0 -30 -30z"/>
<glyph glyph-name="G" horiz-adv-x="759" unicode="G" d="M625 0l-38 57q-77 -72 -210 -72q-146 0 -239.5 103t-93.5 262t94 262t240 103q106 0 175 -50l14 35h30l61 -195l-23 -8q-96 175 -250 175q-115 0 -173 -87.5t-58 -234.5t57.5 -234t170.5 -87q60 0 107.5 22.5t66.5 48.5v108q0 55 -17 69t-79 18v25h289v-25 q-60 -4 -77 -18t-17 -69v-208h-30z"/>
<glyph glyph-name="H" horiz-adv-x="789" unicode="H" d="M759 0h-293v25q63 4 80 18t17 69v231h-337v-231q0 -55 17 -69t80 -18v-25h-293v25q63 4 80 18t17 69v476q0 56 -17 69.5t-80 17.5v25h293v-25q-63 -4 -80 -17.5t-17 -69.5v-200h337v200q0 56 -17 69.5t-80 17.5v25h293v-25q-63 -4 -80 -17.5t-17 -69.5v-476q0 -55 17 -69 t80 -18v-25z"/>
<glyph glyph-name="I" horiz-adv-x="353" unicode="I" d="M323 0h-293v25q63 4 80 18t17 69v476q0 56 -17 69.5t-80 17.5v25h293v-25q-63 -4 -80 -17.5t-17 -69.5v-476q0 -55 17 -69t80 -18v-25z"/>
<glyph glyph-name="J" horiz-adv-x="344" unicode="J" d="M226 588v-560q0 -118 -53.5 -175.5t-147.5 -57.5q-67 0 -101 27.5t-34 59.5q0 24 14.5 39t36.5 15q23 0 37 -14t19.5 -31.5t17 -31.5t30.5 -14q42 0 62 37.5t20 131.5v574q0 56 -17 69.5t-80 17.5v25h293v-25q-63 -4 -80 -17.5t-17 -69.5z"/>
<glyph glyph-name="K" horiz-adv-x="737" unicode="K" d="M323 0h-293v25q63 4 80 18t17 69v476q0 56 -17 69.5t-80 17.5v25h293v-25q-63 -4 -80 -17.5t-17 -69.5v-244l284 258q19 17 19 34q0 34 -83 39v25h270v-25q-42 -4 -69 -19t-76 -60l-191 -172l271 -340q24 -30 53 -44.5t49 -14.5v-25h-296v25q74 4 74 37q0 19 -21 46 l-202 249l-82 -73v-172q0 -55 17 -69t80 -18v-25z"/>
<glyph glyph-name="L" horiz-adv-x="639" unicode="L" d="M256 45h65q98 0 163 38t127 114l20 -13l-98 -184h-503v25q63 4 80 18t17 69v476q0 56 -17 69.5t-80 17.5v25h293v-25q-63 -4 -80 -17.5t-17 -69.5v-513q0 -30 30 -30z"/>
<glyph glyph-name="M" horiz-adv-x="894" unicode="M" d="M864 0h-293v25q63 4 80 18t17 69v513l-228 -625h-33l-228 624v-512q0 -55 17 -69t80 -18v-25h-246v25q63 4 80.5 18t17.5 69v476q0 55 -17.5 69t-80.5 18v25h227l192 -527l193 527h222v-25q-63 -4 -80 -17.5t-17 -69.5v-476q0 -55 17 -69t80 -18v-25z"/>
<glyph glyph-name="N" horiz-adv-x="758" unicode="N" d="M277 0h-247v25q63 4 80.5 18t17.5 69v476q0 55 -17.5 69t-80.5 18v25h218l342 -523v411q0 56 -16 69.5t-79 17.5v25h242v-25q-63 -4 -79.5 -17.5t-16.5 -69.5v-588h-54l-408 624v-512q0 -55 17.5 -69t80.5 -18v-25z"/>
<glyph glyph-name="O" horiz-adv-x="753" unicode="O" d="M154 350q0 -321 222 -321q223 0 223 321q0 322 -223 322q-222 0 -222 -322zM44 350q0 161 90.5 263t241.5 102q152 0 242.5 -102t90.5 -263t-90.5 -263t-242.5 -102q-151 0 -241.5 102t-90.5 263z"/>
<glyph glyph-name="P" horiz-adv-x="689" unicode="P" d="M550 522q0 133 -173 133h-121q-30 0 -30 -30v-237h150q174 0 174 134zM323 0h-293v25q63 4 80 18t17 69v476q0 56 -16 69.5t-81 17.5v25h347q283 0 283 -178t-284 -178h-150v-232q0 -55 17 -69t80 -18v-25z"/>
<glyph glyph-name="Q" horiz-adv-x="753" unicode="Q" d="M154 350q0 -321 222 -321q223 0 223 321q0 322 -223 322q-222 0 -222 -322zM44 350q0 161 90.5 263t241.5 102q152 0 242.5 -102t90.5 -263q0 -145 -75 -244.5t-202 -115.5q1 -66 27 -95.5t75 -29.5q51 0 83 33t32 88h48q0 -82 -52 -127t-129 -45q-88 0 -139.5 47 t-54.5 128q-128 17 -203 116t-75 245z"/>
<glyph glyph-name="R" horiz-adv-x="722" unicode="R" d="M550 522q0 133 -173 133h-121q-30 0 -30 -30v-237h150q174 0 174 134zM660 522q0 -82 -62 -125.5t-167 -49.5l187 -262q20 -28 45 -42.5t71 -17.5v-25h-171l-243 344h-94v-232q0 -55 17 -69t80 -18v-25h-293v25q63 4 80 18t17 69v476q0 56 -16 69.5t-81 17.5v25h347 q283 0 283 -178z"/>
<glyph glyph-name="S" horiz-adv-x="686" unicode="S" d="M162 561q0 -24 12.5 -43.5t28 -32t48.5 -25t53.5 -18.5t64.5 -17q32 -8 49.5 -13t47.5 -14.5t47 -18t40.5 -21.5t37 -28t26.5 -33.5t19 -42.5t6 -51q0 -96 -76.5 -157t-195.5 -61q-123 0 -223 56l-17 -41h-30l-65 215l23 7q51 -97 132 -145.5t177 -48.5q78 0 132 41 t53 103q0 24 -7.5 43t-25 34t-34 25.5t-47 20.5t-50 16t-56.5 15q-36 9 -54.5 14.5t-50.5 16.5t-49.5 20.5t-40.5 25.5t-34.5 33.5t-20 41.5t-8.5 53q0 79 69 131.5t170 52.5q120 0 199 -50l14 35h30l61 -195l-22 -8q-86 175 -276 175q-72 0 -114.5 -32t-42.5 -79z"/>
<glyph glyph-name="T" horiz-adv-x="667" unicode="T" d="M281 112v513q0 30 -30 30q-84 0 -134 -27t-97 -102l-22 11l77 185h25q7 -22 30 -22h407q23 0 30 22h25l77 -185l-21 -11q-47 74 -100 101.5t-138 27.5q-30 0 -30 -30v-513q0 -55 17 -69t80 -18v-25h-293v25q63 4 80 18t17 69z"/>
<glyph glyph-name="U" horiz-adv-x="766" unicode="U" d="M217 588v-382q0 -88 53.5 -131.5t144.5 -43.5q79 0 130.5 44.5t51.5 128.5v384q0 56 -17 69.5t-80 17.5v25h245v-25q-63 -4 -80 -17.5t-17 -69.5v-384q0 -94 -64.5 -156.5t-185.5 -62.5q-133 0 -206.5 56t-73.5 163v384q0 56 -17 69.5t-80 17.5v25h293v-25 q-63 -4 -80 -17.5t-17 -69.5z"/>
<glyph glyph-name="V" horiz-adv-x="665" unicode="V" d="M358 0h-57l-229 602q-14 36 -32.5 52.5t-52.5 20.5v25h261v-25q-44 -3 -63 -11t-19 -26q0 -10 6 -24l187 -485l183 485q4 9 4 19q0 36 -90 42v25h222v-25q-37 -4 -57.5 -20t-32.5 -48z"/>
<glyph glyph-name="W" horiz-adv-x="975" unicode="W" d="M251 675q-45 -3 -64 -13.5t-19 -33.5q0 -14 8 -40l139 -433l146 450q-13 37 -28.5 51.5t-49.5 18.5v25h263v-25q-45 -3 -64 -13.5t-19 -33.5q0 -14 8 -40l139 -433l140 433q8 27 8 41q0 22 -18.5 32.5t-62.5 13.5v25h211v-25q-36 -4 -54 -22t-34 -65l-189 -588h-56 l-169 528l-170 -528h-56l-188 588q-16 49 -31.5 66t-53.5 21v25h264v-25z"/>
<glyph glyph-name="X" horiz-adv-x="683" unicode="X" d="M248 0h-256v25q57 4 86 22t59 65l156 239l-154 237q-24 38 -34 50.5t-31 23.5t-56 13v25h283v-25q-69 -4 -69 -31q0 -17 24 -55l105 -158l103 157q25 38 25 55q0 28 -70 32v25h244v-25q-56 -4 -85 -22t-59 -65l-130 -202l179 -274q32 -48 55.5 -65.5t67.5 -21.5v-25h-286 v25q70 4 70 32q0 18 -25 55l-129 195l-128 -196q-21 -31 -21 -50q0 -32 76 -36v-25z"/>
<glyph glyph-name="Y" horiz-adv-x="630" unicode="Y" d="M171 25q63 4 80 18t17 69v180l-182 296q-22 36 -31.5 49.5t-26.5 24.5t-41 13v25h263v-25q-69 -5 -69 -39q0 -20 17 -47l146 -241l139 240q16 28 16 46q0 36 -71 41v25h215v-25q-39 -4 -58.5 -21t-47.5 -66l-170 -294v-182q0 -55 17 -69t80 -18v-25h-293v25z"/>
<glyph glyph-name="Z" horiz-adv-x="652" unicode="Z" d="M31 25l443 630h-141q-93 0 -151 -31t-108 -98l-21 11l67 163h486v-25l-442 -630h147q106 0 169 37t126 115l20 -13l-98 -184h-497v25z"/>
<glyph glyph-name="bracketleft" horiz-adv-x="325" unicode="[" d="M85 -200v920h219v-40h-139v-840h139v-40h-219z"/>
<glyph glyph-name="backslash" horiz-adv-x="309" unicode="\" d="M43 730l266 -944h-43l-266 944h43z"/>
<glyph glyph-name="bracketright" horiz-adv-x="325" unicode="]" d="M240 720v-920h-219v40h139v840h-139v40h219z"/>
<glyph glyph-name="asciicircum" d="M461 350l-186 233l-185 -233h-38l202 350h43l203 -350h-39z" unicode="^"/>
<glyph glyph-name="underscore" d="M0 -111v42h553v-42h-553z" unicode="_"/>
<glyph glyph-name="grave" horiz-adv-x="516" unicode="`" d="M193 654l92 -145h-41l-133 117q-21 18 -21 29q0 15 16 15h59q18 0 28 -16z"/>
<glyph glyph-name="a" horiz-adv-x="518" unicode="a" d="M202 38q57 0 132 52v139q-101 -15 -152 -42t-51 -81q0 -34 19.5 -51t51.5 -17zM414 -11q-66 0 -78 62q-92 -64 -166 -64q-63 0 -99 27.5t-36 79.5q0 39 21.5 68t65 49t92.5 32t120 24v60q0 56 -15.5 78.5t-56.5 22.5q-86 0 -104 -73q-13 -48 -50 -48q-39 0 -39 45 t55 79.5t143 34.5q156 0 156 -141v-235q0 -54 32 -54q16 0 37 11v-36q-33 -22 -78 -22z"/>
<glyph glyph-name="b" horiz-adv-x="548" unicode="b" d="M283 423q-71 0 -111 -55v-285q40 -55 111 -55q134 0 134 198q0 197 -134 197zM16 617v20l125 78h31v-300q49 51 133 51q97 0 152.5 -67.5t55.5 -172.5q0 -106 -56.5 -173.5t-157.5 -67.5q-87 0 -136 52l-44 -52h-35v595q0 21 -7 29t-24 8h-37z"/>
<glyph glyph-name="c" horiz-adv-x="482" unicode="c" d="M434 353q0 -22 -13 -34t-33 -12q-38 0 -48 48q-12 72 -83 72q-126 0 -126 -201q0 -91 37.5 -145t109.5 -54q95 0 145 117l36 -19q-57 -140 -190 -140q-109 0 -171.5 67.5t-62.5 173.5q0 103 63 171.5t159 68.5q76 0 126.5 -34.5t50.5 -78.5z"/>
<glyph glyph-name="d" horiz-adv-x="558" unicode="d" d="M265 28q71 0 111 55v285q-40 55 -111 55q-134 0 -134 -197q0 -198 134 -198zM309 617v20l124 78h31v-638q0 -27 13.5 -37.5t54.5 -14.5v-25q-80 0 -156 -15v52q-47 -52 -133 -52q-97 0 -152.5 68t-55.5 173t55.5 172.5t152.5 67.5q86 0 133 -52v170q0 18 -7.5 25.5 t-24.5 7.5h-35z"/>
<glyph glyph-name="e" horiz-adv-x="509" unicode="e" d="M262 427q-103 0 -124 -113h231q0 53 -30 83t-77 30zM458 274h-325q-2 -32 -2 -48q0 -199 156 -199q48 0 88 30.5t63 84.5l37 -17q-59 -140 -194 -140q-116 0 -181 67.5t-65 173.5q0 104 61.5 172t164.5 68q89 0 143 -50.5t54 -141.5z"/>
<glyph glyph-name="f" horiz-adv-x="300" unicode="f" d="M26 410v41h68v59q0 93 51 149t132 56q35 0 57 -15t22 -38q0 -21 -13.5 -34.5t-33.5 -13.5q-24 0 -42.5 24t-36.5 24q-22 0 -35 -19.5t-13 -55.5v-136h98v-41h-98v-333q0 -27 15.5 -37.5t56.5 -14.5v-25h-228v25q41 4 54.5 14.5t13.5 37.5v333h-68z"/>
<glyph glyph-name="g" horiz-adv-x="525" unicode="g" d="M274 -39q-80 3 -130 12q-46 -16 -46 -56q0 -77 168 -77q74 0 116.5 20.5t42.5 51.5q0 30 -29.5 38.5t-121.5 10.5zM144 289q0 -137 101 -137q100 0 100 137q0 138 -100 138q-101 0 -101 -138zM511 469q0 -16 -10 -27.5t-28 -11.5q-15 0 -32 13q-16 12 -26 12 q-21 0 -38 -31q59 -53 59 -135q0 -77 -51.5 -126.5t-139.5 -49.5q-40 0 -76 11q-15 3 -26 3q-25 0 -38.5 -10.5t-13.5 -24.5q0 -24 38.5 -32t157.5 -12q112 -4 157 -31t45 -83q0 -63 -60 -98t-163 -35q-230 0 -230 109q0 50 55 79q-54 23 -54 81q0 36 20.5 59t53.5 28 q-58 49 -58 132q0 78 51.5 127.5t140.5 49.5q59 0 101 -22q20 32 49.5 51.5t59.5 19.5q25 0 40.5 -12.5t15.5 -33.5z"/>
<glyph glyph-name="h" horiz-adv-x="572" unicode="h" d="M546 0h-223v25q41 4 54 14.5t13 37.5v254q0 84 -78 84q-68 0 -130 -43v-295q0 -27 13.5 -37.5t53.5 -14.5v-25h-223v25q41 4 54.5 14.5t13.5 37.5v507q0 33 -31 33h-37v20l125 78h31v-299q81 50 155 50q25 0 47.5 -5.5t45 -19.5t36 -42t13.5 -68v-254q0 -27 13.5 -37.5 t53.5 -14.5v-25z"/>
<glyph glyph-name="i" horiz-adv-x="276" unicode="i" d="M81 627q0 24 16.5 40.5t42.5 16.5t42.5 -16.5t16.5 -40.5q0 -23 -16.5 -39.5t-42.5 -16.5t-42.5 16.5t-16.5 39.5zM249 0h-223v25q41 4 54.5 14.5t13.5 37.5v258q0 33 -31 33h-37v20l125 78h31v-389q0 -27 13.5 -37.5t53.5 -14.5v-25z"/>
<glyph glyph-name="j" horiz-adv-x="266" unicode="j" d="M81 627q0 24 16.5 40.5t42.5 16.5t42.5 -16.5t16.5 -40.5q0 -23 -16.5 -39.5t-42.5 -16.5t-42.5 16.5t-16.5 39.5zM-2 -199q-34 0 -55.5 14.5t-21.5 41.5q0 18 13 31.5t32 13.5q23 0 41.5 -24t34.5 -24q23 0 37.5 18.5t14.5 56.5v406q0 33 -31 33h-37v20l125 78h31v-448 q0 -107 -51 -162t-133 -55z"/>
<glyph glyph-name="k" horiz-adv-x="537" unicode="k" d="M249 0h-223v25q41 4 54.5 14.5t13.5 37.5v507q0 33 -31 33h-37v20l125 78h31v-483l135 136q17 15 17 29q0 25 -63 29v25h235v-25q-43 -4 -70.5 -17.5t-62.5 -47.5l-70 -70l166 -207q27 -32 44.5 -43.5t42.5 -15.5v-25h-248v25q61 4 61 34q0 12 -12 27l-117 143l-58 -58 v-94q0 -27 13.5 -37.5t53.5 -14.5v-25z"/>
<glyph glyph-name="l" horiz-adv-x="276" unicode="l" d="M249 0h-223v25q41 4 54.5 14.5t13.5 37.5v507q0 33 -31 33h-37v20l125 78h31v-638q0 -27 13.5 -37.5t53.5 -14.5v-25z"/>
<glyph glyph-name="m" horiz-adv-x="869" unicode="m" d="M546 0h-223v25q41 4 54 14.5t13 37.5v254q0 84 -78 84q-68 0 -130 -43v-295q0 -27 13.5 -37.5t53.5 -14.5v-25h-223v25q41 4 54.5 14.5t13.5 37.5v258q0 33 -31 33h-37v20l125 78h31v-50q81 50 155 50q91 0 125 -60q35 25 83 42.5t88 17.5q57 0 99.5 -30t42.5 -105v-254 q0 -27 13.5 -37.5t54.5 -14.5v-25h-223v25q40 4 53.5 14.5t13.5 37.5v254q0 84 -78 84q-69 0 -135 -45q5 -20 5 -39v-254q0 -27 13.5 -37.5t53.5 -14.5v-25z"/>
<glyph glyph-name="n" horiz-adv-x="572" unicode="n" d="M546 0h-223v25q41 4 54 14.5t13 37.5v254q0 84 -78 84q-68 0 -130 -43v-295q0 -27 13.5 -37.5t53.5 -14.5v-25h-223v25q41 4 54.5 14.5t13.5 37.5v258q0 33 -31 33h-37v20l125 78h31v-50q81 50 155 50q25 0 47.5 -5.5t45 -19.5t36 -42t13.5 -68v-254q0 -27 13.5 -37.5 t53.5 -14.5v-25z"/>
<glyph glyph-name="o" horiz-adv-x="541" unicode="o" d="M131 226q0 -93 33.5 -147.5t105.5 -54.5t106 54.5t34 147.5t-34 147t-106 54q-139 0 -139 -201zM35 226q0 103 65.5 171.5t169.5 68.5t170 -68.5t66 -171.5q0 -104 -65.5 -172.5t-170.5 -68.5q-104 0 -169.5 68.5t-65.5 172.5z"/>
<glyph glyph-name="p" horiz-adv-x="553" unicode="p" d="M288 423q-71 0 -111 -55v-285q40 -55 111 -55q134 0 134 198q0 197 -134 197zM244 -184h-223v25q41 4 54.5 14t13.5 37v443q0 33 -31 33h-40v20l128 78h31v-51q49 51 133 51q97 0 152.5 -67.5t55.5 -172.5q0 -106 -56.5 -173.5t-157.5 -67.5q-79 0 -127 46v-139 q0 -26 13.5 -36.5t53.5 -14.5v-25z"/>
<glyph glyph-name="q" horiz-adv-x="544" unicode="q" d="M265 28q71 0 111 55v285q-40 55 -111 55q-134 0 -134 -197q0 -198 134 -198zM532 -184h-223v25q40 4 53.5 14.5t13.5 36.5v145q-47 -52 -133 -52q-97 0 -152.5 68t-55.5 173t55.5 172.5t152.5 67.5q87 0 137 -56l53 56h31v-574q0 -27 13.5 -37t54.5 -14v-25z"/>
<glyph glyph-name="r" horiz-adv-x="401" unicode="r" d="M392 405q0 -24 -13.5 -37.5t-35.5 -13.5q-23 0 -45 23t-37 23q-45 0 -79 -51v-272q0 -27 13.5 -37.5t53.5 -14.5v-25h-223v25q41 4 54.5 14.5t13.5 37.5v258q0 33 -31 33h-37v20l125 78h31v-66q26 31 62 48.5t71 17.5q39 0 58 -17.5t19 -43.5z"/>
<glyph glyph-name="s" horiz-adv-x="464" unicode="s" d="M120 363q0 -18 9.5 -31t31 -22.5t38.5 -14.5t50 -13q37 -9 55 -14t48.5 -17.5t45.5 -26t27.5 -37.5t12.5 -54q0 -67 -50.5 -107.5t-128.5 -40.5q-97 0 -159 48l-12 -33h-26l-36 151l22 7q45 -70 95 -102t115 -32q44 0 75 20.5t31 60.5q0 17 -8.5 30.5t-19.5 22t-33.5 17 t-37.5 12t-44 10.5q-34 8 -52.5 13t-46.5 16.5t-42.5 24.5t-26 34.5t-11.5 49.5q0 55 46 93t117 38q86 0 138 -40l10 25h25l29 -129l-22 -8q-65 114 -174 114q-44 0 -67.5 -18t-23.5 -47z"/>
<glyph glyph-name="t" horiz-adv-x="319" unicode="t" d="M293 47v-39q-40 -19 -91 -19q-117 0 -117 117v304h-67v21q56 20 84 60t40 108h31v-148h120v-41h-120v-305q0 -36 13.5 -53t44.5 -17t62 12z"/>
<glyph glyph-name="u" horiz-adv-x="564" unicode="u" d="M314 368v20l125 78h31v-389q0 -27 13.5 -37.5t53.5 -14.5v-25q-79 0 -155 -15v49q-80 -49 -155 -49q-25 0 -47.5 5.5t-45 19.5t-36 42t-13.5 68v215q0 33 -31 33h-36v20l125 78h30v-346q0 -84 79 -84q62 0 130 43v256q0 18 -7.5 25.5t-24.5 7.5h-36z"/>
<glyph glyph-name="v" horiz-adv-x="463" unicode="v" d="M256 0h-57l-129 339q-18 49 -32 66t-47 21v25h220v-25q-34 -2 -47.5 -10t-13.5 -23q0 -10 11 -41l91 -244l95 239q9 23 9 38q0 35 -60 41v25h176v-25q-28 -4 -45.5 -22.5t-35.5 -64.5z"/>
<glyph glyph-name="w" horiz-adv-x="762" unicode="w" d="M499 0l-118 308l-120 -308h-59l-132 339q-19 50 -32.5 67t-46.5 20v25h221v-25q-33 -2 -47 -10t-14 -25q0 -18 14 -52l88 -229l104 256q-14 31 -30 44.5t-44 15.5v25h227v-25q-33 -2 -47 -10t-14 -24q0 -15 15 -53l88 -231l90 231q11 28 11 44q0 21 -16 30.5t-51 12.5v25 h185v-25q-28 -4 -45 -22.5t-36 -64.5l-131 -339h-60z"/>
<glyph glyph-name="x" horiz-adv-x="512" unicode="x" d="M326 72l-90 119l-92 -119q-9 -12 -9 -21q0 -21 55 -26v-25h-180v25q27 3 44 13t36 34l120 156l-111 151q-19 26 -33 35.5t-40 11.5v25h220v-25q-51 -4 -51 -24q0 -9 11 -23l69 -92l71 92q9 12 9 21q0 22 -54 26v25h185v-25q-30 -3 -48.5 -13t-36.5 -34l-100 -129 l132 -178q19 -24 33.5 -34t35.5 -13v-25h-215v25q52 3 52 20q0 9 -13 27z"/>
<glyph glyph-name="y" horiz-adv-x="463" unicode="y" d="M391 339l-171 -427q-44 -111 -140 -111q-41 0 -69 17.5t-28 45.5q0 19 14 33t35 14q22 0 45 -24.5t39 -24.5q38 0 64 68l23 59l-133 350q-19 50 -32.5 66.5t-46.5 20.5v25h220v-25q-33 -2 -46.5 -10t-13.5 -24q0 -13 14 -53l87 -230l92 230q11 28 11 45q0 20 -14.5 29.5 t-45.5 12.5v25h177v-25q-28 -4 -45 -22.5t-36 -64.5z"/>
<glyph glyph-name="z" horiz-adv-x="472" unicode="z" d="M26 25l279 387h-62q-72 0 -112.5 -20t-75.5 -74l-23 10l42 123h348v-25l-279 -387h85q72 0 116 29t87 90l20 -11l-64 -147h-361v25z"/>
<glyph glyph-name="braceleft" horiz-adv-x="309" unicode="{" d="M287 -185v-27q-85 0 -129 51.5t-44 147.5v164q0 48 -19.5 71.5t-72.5 23.5v32q53 0 72.5 23t19.5 71v164q0 96 44 147.5t129 51.5v-27q-43 0 -66.5 -29t-23.5 -84v-165q0 -144 -112 -168q112 -26 112 -169v-165q0 -55 23.5 -84t66.5 -29z"/>
<glyph glyph-name="bar" horiz-adv-x="309" unicode="|" d="M133 -214v944h42v-944h-42z"/>
<glyph glyph-name="braceright" horiz-adv-x="309" unicode="}" d="M22 -212v27q43 0 66.5 29t23.5 84v165q0 143 112 169q-112 24 -112 168v165q0 55 -23.5 84t-66.5 29v27q86 0 130 -51.5t44 -147.5v-164q0 -48 19 -71t72 -23v-32q-52 0 -71.5 -23t-19.5 -72v-164q0 -96 -44 -147.5t-130 -51.5z"/>
<glyph glyph-name="asciitilde" horiz-adv-x="516" unicode="~" d="M428 414h35q0 -144 -121 -144q-24 0 -48.5 10t-37 19t-34.5 27q-49 39 -74 39q-58 0 -58 -78h-38q0 143 121 143q35 0 62 -14.5t59 -40.5q48 -39 75 -39q59 0 59 78z"/>
<glyph glyph-name="uni00A0" horiz-adv-x="251" unicode=" "/>
<glyph glyph-name="exclamdown" horiz-adv-x="240" unicode="¡" d="M182 398q0 -27 -17.5 -44.5t-45.5 -17.5q-27 0 -45 18t-18 44q0 27 18 45t45 18q28 0 45.5 -18t17.5 -45zM101 265h36q1 -112 12 -192.5t22 -132t11 -95.5q0 -109 -63 -109t-63 109q0 44 11 95.5t22 132t12 192.5z"/>
<glyph glyph-name="cent" horiz-adv-x="578" unicode="¢" d="M145 359q0 -76 27 -127.5t80 -66.5v393q-107 -18 -107 -199zM451 486q0 -22 -13 -34t-32 -12q-36 0 -46 48q-10 60 -65 70v-398q96 0 146 117l36 -19q-57 -136 -182 -140v-148h-43v150q-94 11 -146.5 77t-52.5 162t55.5 163.5t143.5 75.5v132h43v-132q68 -5 112 -38 t44 -74z"/>
<glyph glyph-name="sterling" horiz-adv-x="578" unicode="£" d="M129 27q52 0 74 60q-39 30 -67 30q-26 0 -42 -12t-16 -32q0 -21 13.5 -33.5t37.5 -12.5zM24 328v40h114q-33 75 -33 154q0 82 60 137.5t164 55.5q87 0 136.5 -44.5t49.5 -102.5q0 -43 -22.5 -69.5t-56.5 -26.5q-27 0 -42.5 16.5t-15.5 38.5q0 25 16.5 40t41.5 17 q15 0 15 10q0 33 -30 55t-79 22q-65 0 -96 -41t-31 -99q0 -73 28 -163h149v-40h-137q25 -85 25 -146q0 -33 -8 -65q32 -18 47 -25t42.5 -15.5t53.5 -8.5q86 0 99 77h42q-8 -75 -48 -117.5t-108 -42.5q-80 0 -156 66q-44 -66 -115 -66q-40 0 -70 23.5t-30 64.5q0 39 31 62.5 t76 23.5q40 0 76 -14q-1 35 -10 70.5t-18 56t-27 56.5h-133z"/>
<glyph glyph-name="currency" horiz-adv-x="578" unicode="¤" d="M79 350q0 72 40 123l-97 98l46 46l97 -97q54 40 124 40t123 -40l98 98l47 -47l-98 -97q40 -54 40 -124t-40 -124l98 -97l-47 -46l-98 97q-51 -40 -123 -40q-71 0 -124 40l-97 -97l-46 47l97 96q-40 53 -40 124zM139 350q0 -62 44 -106t106 -44t106.5 44t44.5 106 t-44.5 106.5t-106.5 44.5t-106 -44.5t-44 -106.5z"/>
<glyph glyph-name="yen" horiz-adv-x="578" unicode="¥" d="M36 299v39h192l-119 241q-31 62 -45 76q-17 17 -46 20v25h226v-25q-50 -4 -50 -34q0 -17 23 -67l100 -208l92 206q22 47 22 68q0 31 -52 35v25h182v-25q-21 -2 -34.5 -8t-25.5 -20.5t-18.5 -27t-19.5 -41.5l-111 -240h190v-39h-201v-93h201v-40h-201v-54q0 -55 17 -69 t80 -18v-25h-293v25q63 4 80 18t17 69v54h-206v40h206v93h-206z"/>
<glyph glyph-name="brokenbar" horiz-adv-x="309" unicode="¦" d="M133 306v424h42v-424h-42zM133 -214v424h42v-424h-42z"/>
<glyph glyph-name="section" horiz-adv-x="475" unicode="§" d="M129 570q-31 -72 -31 -147q0 -38 10 -73t32.5 -69t39 -55t48.5 -57q39 -44 59 -69.5t39.5 -68.5t19.5 -85q0 1 1 1q31 76 31 146q0 38 -10 73t-31.5 68.5t-39 55t-48.5 55.5q-41 46 -60.5 71t-39.5 68.5t-20 85.5zM290 429q83 -86 112.5 -152t29.5 -160 q0 -130 -66.5 -223t-179.5 -93q-34 0 -56 15t-22 38q0 21 13 34.5t34 13.5q25 0 43 -26q18 -22 36 -22q22 0 35 17.5t13 44.5q0 34 -15 66t-31 51.5t-49 52.5q-34 36 -51.5 57t-43 61t-37 88t-11.5 107q0 130 66 223t179 93q35 0 57 -14.5t22 -37.5q0 -22 -13.5 -35.5 t-34.5 -13.5q-22 0 -43 25q-17 23 -36 23q-21 0 -34 -17.5t-13 -44.5q0 -33 15 -65t30.5 -51t48.5 -53z"/>
<glyph glyph-name="dieresis" horiz-adv-x="498" unicode="¨" d="M278 616q0 22 15 37t39 15q23 0 38 -15t15 -37q0 -21 -15 -36t-38 -15q-24 0 -39 15t-15 36zM112 616q0 22 15 37t38 15t38.5 -15t15.5 -37q0 -21 -15.5 -36t-38.5 -15t-38 15t-15 36z"/>
<glyph glyph-name="copyright" horiz-adv-x="791" unicode="©" d="M532 562l33 -119l-19 -6q-53 101 -140 101q-62 0 -91.5 -50t-29.5 -136t29.5 -136t91.5 -50q48 0 85 28.5t50 71.5l34 -11q-46 -122 -176 -122q-92 0 -149 61t-57 158t57 158t149 61q61 0 101 -28l8 19h24zM64 350q0 -137 97.5 -234t234.5 -97t234 97t97 234t-97 234.5 t-234 97.5t-234.5 -97.5t-97.5 -234.5zM31 350q0 151 107 258t258 107t258 -107t107 -258t-107 -258t-258 -107t-258 107t-107 258z"/>
<glyph glyph-name="ordfeminine" horiz-adv-x="412" unicode="ª" d="M165 314q41 0 93 36v103q-73 -11 -110 -30.5t-37 -57.5q0 -24 15 -37.5t39 -13.5zM326 269q-58 0 -67 47q-69 -49 -129 -49q-47 0 -75.5 22.5t-28.5 60.5q0 30 17.5 53t52 38.5t72.5 25.5t90 18v49q0 40 -11.5 55.5t-41.5 15.5q-57 0 -73 -54q-12 -39 -47 -39 q-34 0 -34 38q0 36 46 62t116 26q128 0 128 -109v-184q0 -36 24 -36q13 0 26 8v-31q-26 -17 -65 -17z"/>
<glyph glyph-name="guillemotleft" horiz-adv-x="509" unicode="«" d="M448 30l-20 -14l-171 190q-11 13 -11 27q0 15 11 28l171 190l20 -14l-97 -204zM263 30l-20 -14l-171 190q-11 13 -11 27q0 15 11 28l171 190l20 -14l-97 -204z"/>
<glyph glyph-name="logicalnot" d="M10 425v50h532v-243h-50v193h-482z" unicode="¬"/>
<glyph glyph-name="uni00AD" horiz-adv-x="243" unicode="­" d="M10 204v58h223v-58h-223z"/>
<glyph glyph-name="registered" horiz-adv-x="449" unicode="®" d="M269 571q0 30 -39 30h-22q-9 0 -9 -9v-53h31q39 0 39 32zM323 571q0 -45 -52 -54l42 -62q11 -16 30 -18v-17h-66l-61 94h-17v-54q0 -10 2.5 -14.5t7 -6t16.5 -2.5v-17h-104v17q12 1 16.5 2.5t6.5 6t2 14.5v127q0 14 -4 16.5t-21 4.5v17h119q83 0 83 -54zM60 519 q0 -68 48 -115.5t116 -47.5t116 47.5t48 115.5q0 69 -48 116.5t-116 47.5t-116 -47.5t-48 -116.5zM28 519q0 81 57.5 138.5t138.5 57.5t138.5 -57.5t57.5 -138.5q0 -80 -57.5 -137.5t-138.5 -57.5t-138.5 57.5t-57.5 137.5z"/>
<glyph glyph-name="macron" horiz-adv-x="516" unicode="¯" d="M132 579v52h251v-52h-251z"/>
<glyph glyph-name="degree" horiz-adv-x="293" unicode="°" d="M66 599q0 -34 23.5 -56.5t57.5 -22.5t57 22.5t23 56.5t-23 57t-57 23t-57.5 -23t-23.5 -57zM31 599q0 48 34 82t82 34t82 -34t34 -82q0 -47 -34 -81t-82 -34t-82 34t-34 81z"/>
<glyph glyph-name="plusminus" d="M10 0v45h532v-45h-532zM10 326v50h240v240h50v-240h242v-50h-242v-231h-50v231h-240z" unicode="±"/>
<glyph glyph-name="twosuperior" horiz-adv-x="381" unicode="²" d="M80 572h-35q0 63 39.5 100t102.5 37q61 0 99 -34t38 -88q0 -64 -51.5 -122t-143.5 -118h148q18 0 25 7.5t14 39.5h22l-15 -127h-23q0 13 -12 13h-238v36q92 73 143.5 136.5t51.5 134.5q0 88 -76 88q-39 0 -64 -26t-25 -77z"/>
<glyph glyph-name="threesuperior" horiz-adv-x="381" unicode="³" d="M320 616q0 -33 -21 -58t-58 -35q44 -7 73.5 -38t29.5 -72q0 -60 -46 -101t-126 -41q-53 0 -93 17t-40 48q0 16 10.5 27t24.5 11q19 0 32 -11t19 -24t19 -24t32 -11q87 0 87 95q0 41 -27.5 68.5t-78.5 27.5h-11v33h14q39 0 59.5 21t20.5 56q0 30 -17.5 50t-50.5 20 t-56.5 -21t-27.5 -61h-34q5 55 40 85.5t95 30.5q62 0 96.5 -27t34.5 -66z"/>
<glyph glyph-name="acute" horiz-adv-x="516" unicode="´" d="M226 509l91 145q11 16 28 16h60q16 0 16 -15q0 -9 -21 -29l-134 -117h-40z"/>
<glyph glyph-name="uni00B5" horiz-adv-x="540" unicode="µ" d="M231 -15q-63 0 -99 35q9 -26 36.5 -80t27.5 -75q0 -29 -17 -46.5t-42 -17.5t-42.5 18t-17.5 47v585h89v-331q0 -84 78 -84q65 0 131 43q-1 9 -1 29v343h89v-360q0 -55 32 -55q16 0 37 11v-36q-33 -22 -69 -22q-66 0 -82 51q-69 -55 -150 -55z"/>
<glyph glyph-name="paragraph" horiz-adv-x="398" unicode="¶" d="M31 498q0 84 58.5 143t141.5 59h146v-25q-61 -4 -79 -16.5t-18 -61.5v-525q0 -127 -63 -198.5t-169 -71.5q-66 0 -111 26.5t-45 63.5q0 21 15 36t35 15q21 0 37 -14t25.5 -30.5t29 -30.5t46.5 -14q63 0 107 56t44 162v225q-83 0 -141.5 58.5t-58.5 142.5z"/>
<glyph glyph-name="periodcentered" horiz-adv-x="240" unicode="·" d="M57 232q0 27 17.5 44.5t45.5 17.5t45.5 -18t17.5 -44q0 -27 -18 -45t-45 -18q-28 0 -45.5 18t-17.5 45z"/>
<glyph glyph-name="cedilla" horiz-adv-x="516" unicode="¸" d="M313 -60q36 0 58 -17t22 -49q0 -36 -35.5 -64.5t-93.5 -28.5q-46 0 -76 17t-30 40q0 13 8 22t21 9q22 0 35 -25q14 -31 48 -31q28 0 44 13.5t16 34.5q0 15 -11.5 25t-29.5 10q-26 0 -41 -14l-24 10l45 108h43l-28 -65q13 5 29 5z"/>
<glyph glyph-name="onesuperior" horiz-adv-x="381" unicode="¹" d="M284 280h-187v21q37 2 46.5 9.5t9.5 36.5v267q0 19 -17 19h-39v18l104 58h27v-362q0 -29 10 -36.5t46 -9.5v-21z"/>
<glyph glyph-name="ordmasculine" horiz-adv-x="422" unicode="º" d="M108 452q0 -152 103 -152q102 0 102 152q0 151 -102 151q-103 0 -103 -151zM20 452q0 80 52.5 133t138.5 53t138.5 -53t52.5 -133t-52.5 -133t-138.5 -53t-138.5 53t-52.5 133z"/>
<glyph glyph-name="guillemotright" horiz-adv-x="515" unicode="»" d="M246 30l97 203l-97 204l20 14l171 -190q11 -13 11 -28q0 -14 -11 -27l-171 -190zM60 30l97 203l-97 204l20 14l171 -190q11 -13 11 -28q0 -14 -11 -27l-171 -190z"/>
<glyph glyph-name="onequarter" horiz-adv-x="868" unicode="¼" d="M184 0l456 700h43l-456 -700h-43zM284 280h-187v21q37 2 46.5 9.5t9.5 36.5v267q0 19 -17 19h-39v18l104 58h27v-362q0 -29 10 -36.5t46 -9.5v-21zM690 330l-127 -192h127v192zM764 0h-74v105h-173v25l197 299h50v-291h75v-33h-75v-105z"/>
<glyph glyph-name="onehalf" horiz-adv-x="868" unicode="½" d="M184 0l456 700h43l-456 -700h-43zM284 280h-187v21q37 2 46.5 9.5t9.5 36.5v267q0 19 -17 19h-39v18l104 58h27v-362q0 -29 10 -36.5t46 -9.5v-21zM567 292h-35q0 63 39.5 100t102.5 37q61 0 99 -34t38 -88q0 -64 -51.5 -122t-143.5 -118h148q18 0 25 7.5t14 39.5h22 l-15 -127h-23q0 13 -12 13h-238v36q92 73 143.5 136.5t51.5 134.5q0 88 -76 88q-39 0 -64 -26t-25 -77z"/>
<glyph glyph-name="threequarters" horiz-adv-x="868" unicode="¾" d="M184 0l456 700h43l-456 -700h-43zM320 616q0 -33 -21 -58t-58 -35q44 -7 73.5 -38t29.5 -72q0 -60 -46 -101t-126 -41q-53 0 -93 17t-40 48q0 16 10.5 27t24.5 11q19 0 32 -11t19 -24t19 -24t32 -11q87 0 87 95q0 41 -27.5 68.5t-78.5 27.5h-11v33h14q39 0 59.5 21 t20.5 56q0 30 -17.5 50t-50.5 20t-56.5 -21t-27.5 -61h-34q5 55 40 85.5t95 30.5q62 0 96.5 -27t34.5 -66zM690 330l-127 -192h127v192zM764 0h-74v105h-173v25l197 299h50v-291h75v-33h-75v-105z"/>
<glyph glyph-name="questiondown" horiz-adv-x="469" unicode="¿" d="M339 398q0 -27 -18 -44.5t-46 -17.5q-27 0 -45 18t-18 44q0 27 18 45t45 18q28 0 46 -18t18 -45zM253 166l2 99h42l1 -189q-90 0 -140 -32.5t-50 -112.5q0 -59 41 -102.5t106 -43.5q27 0 45 14.5t25.5 32t23.5 32t41 14.5q20 0 33.5 -14.5t13.5 -37.5q0 -44 -41 -67 t-104 -23q-123 0 -192.5 69t-69.5 160q0 98 60.5 148.5t162.5 52.5z"/>
<glyph glyph-name="Agrave" horiz-adv-x="665" unicode="À" d="M277 888l92 -145h-41l-133 117q-21 18 -21 29q0 15 16 15h59q18 0 28 -16zM307 572l-118 -313h238zM308 700h57l229 -602q13 -36 31.5 -52.5t52.5 -20.5v-25h-260v25q44 3 63 11.5t19 26.5q0 11 -6 24l-50 128h-272l-48 -128q-4 -9 -4 -20q0 -36 89 -42v-25h-222v25 q37 4 58 20t32 48z"/>
<glyph glyph-name="Aacute" horiz-adv-x="665" unicode="Á" d="M306 743l91 145q11 16 28 16h60q16 0 16 -15q0 -9 -21 -29l-134 -117h-40zM307 572l-118 -313h238zM308 700h57l229 -602q13 -36 31.5 -52.5t52.5 -20.5v-25h-260v25q44 3 63 11.5t19 26.5q0 11 -6 24l-50 128h-272l-48 -128q-4 -9 -4 -20q0 -36 89 -42v-25h-222v25 q37 4 58 20t32 48z"/>
<glyph glyph-name="Acircumflex" horiz-adv-x="665" unicode="Â" d="M183 742l100 147q12 18 31 18h43q19 0 30 -18l100 -147h-41l-111 106l-111 -106h-41zM307 572l-118 -313h238zM308 700h57l229 -602q13 -36 31.5 -52.5t52.5 -20.5v-25h-260v25q44 3 63 11.5t19 26.5q0 11 -6 24l-50 128h-272l-48 -128q-4 -9 -4 -20q0 -36 89 -42v-25 h-222v25q37 4 58 20t32 48z"/>
<glyph glyph-name="Atilde" horiz-adv-x="665" unicode="Ã" d="M438 892h30q-4 -50 -26 -75t-56 -25q-27 0 -68 29q-33 24 -51 24q-31 0 -38 -44h-32q4 50 26 75t56 25q25 0 69 -29q33 -24 51 -24q32 0 39 44zM307 572l-118 -313h238zM308 700h57l229 -602q13 -36 31.5 -52.5t52.5 -20.5v-25h-260v25q44 3 63 11.5t19 26.5q0 11 -6 24 l-50 128h-272l-48 -128q-4 -9 -4 -20q0 -36 89 -42v-25h-222v25q37 4 58 20t32 48z"/>
<glyph glyph-name="Adieresis" horiz-adv-x="665" unicode="Ä" d="M362 850q0 22 15 37t39 15q23 0 38 -15t15 -37q0 -21 -15 -36t-38 -15q-24 0 -39 15t-15 36zM196 850q0 22 15 37t38 15t38.5 -15t15.5 -37q0 -21 -15.5 -36t-38.5 -15t-38 15t-15 36zM307 572l-118 -313h238zM308 700h57l229 -602q13 -36 31.5 -52.5t52.5 -20.5v-25 h-260v25q44 3 63 11.5t19 26.5q0 11 -6 24l-50 128h-272l-48 -128q-4 -9 -4 -20q0 -36 89 -42v-25h-222v25q37 4 58 20t32 48z"/>
<glyph glyph-name="Aring" horiz-adv-x="665" unicode="Å" d="M271 824q0 -26 17.5 -44t42.5 -18q26 0 44.5 18t18.5 44t-18.5 44t-44.5 18q-25 0 -42.5 -18t-17.5 -44zM232 824q0 41 29 70.5t70 29.5q42 0 71.5 -29.5t29.5 -70.5q0 -40 -29.5 -69.5t-71.5 -29.5q-41 0 -70 29.5t-29 69.5zM307 572l-118 -313h238zM308 700h57 l229 -602q13 -36 31.5 -52.5t52.5 -20.5v-25h-260v25q44 3 63 11.5t19 26.5q0 11 -6 24l-50 128h-272l-48 -128q-4 -9 -4 -20q0 -36 89 -42v-25h-222v25q37 4 58 20t32 48z"/>
<glyph glyph-name="AE" horiz-adv-x="1065" unicode="Æ" d="M504 588q0 10 -2 24l-243 -350h245v326zM633 45h103q106 0 172.5 38t128.5 114l20 -13l-98 -184h-552v25q63 4 80 18t17 69v105h-277l-75 -109q-14 -20 -14 -36q0 -40 75 -47v-25h-229v25q55 1 115 87l378 544q-20 14 -95 19v25h578l67 -163l-21 -11q-49 67 -109 98 t-153 31h-111q-30 0 -30 -30v-237h162q52 0 70.5 22.5t22.5 74.5h26v-239h-26q-4 52 -22.5 74.5t-70.5 22.5h-162v-268q0 -30 30 -30z"/>
<glyph glyph-name="Ccedilla" horiz-adv-x="700" unicode="Ç" d="M408 -60q36 0 58 -17t22 -49q0 -36 -35.5 -64.5t-93.5 -28.5q-46 0 -76 17t-30 40q0 13 8 22t21 9q22 0 35 -25q14 -31 48 -31q28 0 44 13.5t16 34.5q0 15 -11.5 25t-29.5 10q-26 0 -41 -14l-24 10l39 94q-139 7 -226.5 109t-87.5 255q0 159 94 262t240 103 q108 0 177 -50l15 35h29l62 -195l-23 -8q-96 175 -254 175q-115 0 -172.5 -87.5t-57.5 -234.5t57.5 -234t172.5 -87q84 0 151 44t90 121l45 -15q-68 -183 -269 -193l-22 -51q13 5 29 5z"/>
<glyph glyph-name="Egrave" horiz-adv-x="688" unicode="È" d="M292 888l92 -145h-41l-133 117q-21 18 -21 29q0 15 16 15h59q18 0 28 -16zM256 45h104q105 0 171.5 38t128.5 114l21 -13l-98 -184h-553v25q63 4 80 18t17 69v476q0 56 -17 69.5t-80 17.5v25h554l67 -163l-21 -11q-49 67 -109 98t-153 31h-112q-30 0 -30 -30v-237h162 q52 0 70.5 22t23.5 75h26v-239h-26q-5 53 -23.5 75t-70.5 22h-162v-268q0 -30 30 -30z"/>
<glyph glyph-name="Eacute" horiz-adv-x="688" unicode="É" d="M256 45h104q105 0 171.5 38t128.5 114l21 -13l-98 -184h-553v25q63 4 80 18t17 69v476q0 56 -17 69.5t-80 17.5v25h554l67 -163l-21 -11q-49 67 -109 98t-153 31h-112q-30 0 -30 -30v-237h162q52 0 70.5 22t23.5 75h26v-239h-26q-5 53 -23.5 75t-70.5 22h-162v-268 q0 -30 30 -30zM321 743l91 145q11 16 28 16h60q16 0 16 -15q0 -9 -21 -29l-134 -117h-40z"/>
<glyph glyph-name="Ecircumflex" horiz-adv-x="688" unicode="Ê" d="M256 45h104q105 0 171.5 38t128.5 114l21 -13l-98 -184h-553v25q63 4 80 18t17 69v476q0 56 -17 69.5t-80 17.5v25h554l67 -163l-21 -11q-49 67 -109 98t-153 31h-112q-30 0 -30 -30v-237h162q52 0 70.5 22t23.5 75h26v-239h-26q-5 53 -23.5 75t-70.5 22h-162v-268 q0 -30 30 -30zM201 742l100 147q12 18 31 18h43q19 0 30 -18l100 -147h-41l-111 106l-111 -106h-41z"/>
<glyph glyph-name="Edieresis" horiz-adv-x="688" unicode="Ë" d="M256 45h104q105 0 171.5 38t128.5 114l21 -13l-98 -184h-553v25q63 4 80 18t17 69v476q0 56 -17 69.5t-80 17.5v25h554l67 -163l-21 -11q-49 67 -109 98t-153 31h-112q-30 0 -30 -30v-237h162q52 0 70.5 22t23.5 75h26v-239h-26q-5 53 -23.5 75t-70.5 22h-162v-268 q0 -30 30 -30zM368 850q0 22 15 37t39 15q23 0 38 -15t15 -37q0 -21 -15 -36t-38 -15q-24 0 -39 15t-15 36zM202 850q0 22 15 37t38 15t38.5 -15t15.5 -37q0 -21 -15.5 -36t-38.5 -15t-38 15t-15 36z"/>
<glyph glyph-name="Igrave" horiz-adv-x="353" unicode="Ì" d="M120 888l92 -145h-41l-133 117q-21 18 -21 29q0 15 16 15h59q18 0 28 -16zM323 0h-293v25q63 4 80 18t17 69v476q0 56 -17 69.5t-80 17.5v25h293v-25q-63 -4 -80 -17.5t-17 -69.5v-476q0 -55 17 -69t80 -18v-25z"/>
<glyph glyph-name="Iacute" horiz-adv-x="353" unicode="Í" d="M149 743l91 145q11 16 28 16h60q16 0 16 -15q0 -9 -21 -29l-134 -117h-40zM323 0h-293v25q63 4 80 18t17 69v476q0 56 -17 69.5t-80 17.5v25h293v-25q-63 -4 -80 -17.5t-17 -69.5v-476q0 -55 17 -69t80 -18v-25z"/>
<glyph glyph-name="Icircumflex" horiz-adv-x="353" unicode="Î" d="M25 742l100 147q12 18 31 18h43q19 0 30 -18l100 -147h-41l-111 106l-111 -106h-41zM323 0h-293v25q63 4 80 18t17 69v476q0 56 -17 69.5t-80 17.5v25h293v-25q-63 -4 -80 -17.5t-17 -69.5v-476q0 -55 17 -69t80 -18v-25z"/>
<glyph glyph-name="Idieresis" horiz-adv-x="353" unicode="Ï" d="M207 850q0 22 15 37t39 15q23 0 38 -15t15 -37q0 -21 -15 -36t-38 -15q-24 0 -39 15t-15 36zM41 850q0 22 15 37t38 15q24 0 39 -15t15 -37q0 -21 -15.5 -36t-38.5 -15t-38 15t-15 36zM323 0h-293v25q63 4 80 18t17 69v476q0 56 -17 69.5t-80 17.5v25h293v-25 q-63 -4 -80 -17.5t-17 -69.5v-476q0 -55 17 -69t80 -18v-25z"/>
<glyph glyph-name="Eth" horiz-adv-x="764" unicode="Ð" d="M610 350q0 73 -13.5 127t-36.5 87.5t-57.5 54.5t-72 28.5t-85.5 7.5h-89q-30 0 -30 -30v-237h99v-45h-99v-268q0 -30 30 -30h89q48 0 85.5 7.5t72 28.5t57.5 54.5t36.5 87.5t13.5 127zM30 343v45h97v200q0 56 -17 69.5t-80 17.5v25h315q176 0 275.5 -89t99.5 -261 t-99.5 -261t-275.5 -89h-315v25q63 4 80 18t17 69v231h-97z"/>
<glyph glyph-name="Ntilde" horiz-adv-x="758" unicode="Ñ" d="M483 892h30q-4 -50 -26 -75t-56 -25q-27 0 -68 29q-33 24 -51 24q-31 0 -38 -44h-32q4 50 26 75t56 25q26 0 69 -29q33 -24 51 -24q32 0 39 44zM277 0h-247v25q63 4 80.5 18t17.5 69v476q0 55 -17.5 69t-80.5 18v25h218l342 -523v411q0 56 -16 69.5t-79 17.5v25h242v-25 q-63 -4 -79.5 -17.5t-16.5 -69.5v-588h-54l-408 624v-512q0 -55 17.5 -69t80.5 -18v-25z"/>
<glyph glyph-name="Ograve" horiz-adv-x="753" unicode="Ò" d="M320 888l92 -145h-41l-133 117q-21 18 -21 29q0 15 16 15h59q18 0 28 -16zM154 350q0 -321 222 -321q223 0 223 321q0 322 -223 322q-222 0 -222 -322zM44 350q0 161 90.5 263t241.5 102q152 0 242.5 -102t90.5 -263t-90.5 -263t-242.5 -102q-151 0 -241.5 102t-90.5 263 z"/>
<glyph glyph-name="Oacute" horiz-adv-x="753" unicode="Ó" d="M154 350q0 -321 222 -321q223 0 223 321q0 322 -223 322q-222 0 -222 -322zM44 350q0 161 90.5 263t241.5 102q152 0 242.5 -102t90.5 -263t-90.5 -263t-242.5 -102q-151 0 -241.5 102t-90.5 263zM349 743l91 145q11 16 28 16h60q16 0 16 -15q0 -9 -21 -29l-134 -117h-40 z"/>
<glyph glyph-name="Ocircumflex" horiz-adv-x="753" unicode="Ô" d="M154 350q0 -321 222 -321q223 0 223 321q0 322 -223 322q-222 0 -222 -322zM44 350q0 161 90.5 263t241.5 102q152 0 242.5 -102t90.5 -263t-90.5 -263t-242.5 -102q-151 0 -241.5 102t-90.5 263zM223 742l100 147q12 18 31 18h43q19 0 30 -18l100 -147h-41l-111 106 l-111 -106h-41z"/>
<glyph glyph-name="Otilde" horiz-adv-x="753" unicode="Õ" d="M481 892h30q-4 -50 -26 -75t-56 -25q-27 0 -68 29q-33 24 -51 24q-31 0 -38 -44h-32q4 50 26 75t56 25q26 0 69 -29q33 -24 51 -24q32 0 39 44zM154 350q0 -321 222 -321q223 0 223 321q0 322 -223 322q-222 0 -222 -322zM44 350q0 161 90.5 263t241.5 102 q152 0 242.5 -102t90.5 -263t-90.5 -263t-242.5 -102q-151 0 -241.5 102t-90.5 263z"/>
<glyph glyph-name="Odieresis" horiz-adv-x="753" unicode="Ö" d="M154 350q0 -321 222 -321q223 0 223 321q0 322 -223 322q-222 0 -222 -322zM44 350q0 161 90.5 263t241.5 102q152 0 242.5 -102t90.5 -263t-90.5 -263t-242.5 -102q-151 0 -241.5 102t-90.5 263zM405 850q0 22 15 37t39 15q23 0 38 -15t15 -37q0 -21 -15 -36t-38 -15 q-24 0 -39 15t-15 36zM239 850q0 22 15 37t38 15q24 0 39 -15t15 -37q0 -21 -15.5 -36t-38.5 -15t-38 15t-15 36z"/>
<glyph glyph-name="multiply" d="M101 142l-35 35l174 173l-174 174l35 35l174 -174l175 175l35 -35l-175 -175l175 -174l-35 -35l-175 174z" unicode="×"/>
<glyph glyph-name="Oslash" horiz-adv-x="753" unicode="Ø" d="M599 350q0 120 -33 196l-358 -433q57 -84 168 -84q223 0 223 321zM154 350q0 -120 32 -197l359 434q-57 85 -169 85q-222 0 -222 -322zM44 350q0 161 90.5 263t241.5 102q126 0 213 -74l49 59h55l-73 -89q89 -101 89 -261q0 -161 -90.5 -263t-242.5 -102q-126 0 -213 73 l-48 -58h-55l73 88q-89 100 -89 262z"/>
<glyph glyph-name="Ugrave" horiz-adv-x="766" unicode="Ù" d="M340 888l92 -145h-41l-133 117q-21 18 -21 29q0 15 16 15h59q18 0 28 -16zM217 588v-382q0 -88 53.5 -131.5t144.5 -43.5q79 0 130.5 44.5t51.5 128.5v384q0 56 -17 69.5t-80 17.5v25h245v-25q-63 -4 -80 -17.5t-17 -69.5v-384q0 -94 -64.5 -156.5t-185.5 -62.5 q-133 0 -206.5 56t-73.5 163v384q0 56 -17 69.5t-80 17.5v25h293v-25q-63 -4 -80 -17.5t-17 -69.5z"/>
<glyph glyph-name="Uacute" horiz-adv-x="766" unicode="Ú" d="M217 588v-382q0 -88 53.5 -131.5t144.5 -43.5q79 0 130.5 44.5t51.5 128.5v384q0 56 -17 69.5t-80 17.5v25h245v-25q-63 -4 -80 -17.5t-17 -69.5v-384q0 -94 -64.5 -156.5t-185.5 -62.5q-133 0 -206.5 56t-73.5 163v384q0 56 -17 69.5t-80 17.5v25h293v-25 q-63 -4 -80 -17.5t-17 -69.5zM377 743l91 145q11 16 28 16h60q16 0 16 -15q0 -9 -21 -29l-134 -117h-40z"/>
<glyph glyph-name="Ucircumflex" horiz-adv-x="766" unicode="Û" d="M217 588v-382q0 -88 53.5 -131.5t144.5 -43.5q79 0 130.5 44.5t51.5 128.5v384q0 56 -17 69.5t-80 17.5v25h245v-25q-63 -4 -80 -17.5t-17 -69.5v-384q0 -94 -64.5 -156.5t-185.5 -62.5q-133 0 -206.5 56t-73.5 163v384q0 56 -17 69.5t-80 17.5v25h293v-25 q-63 -4 -80 -17.5t-17 -69.5zM230 742l100 147q12 18 31 18h43q20 0 30 -18l100 -147h-41l-111 106l-111 -106h-41z"/>
<glyph glyph-name="Udieresis" horiz-adv-x="766" unicode="Ü" d="M217 588v-382q0 -88 53.5 -131.5t144.5 -43.5q79 0 130.5 44.5t51.5 128.5v384q0 56 -17 69.5t-80 17.5v25h245v-25q-63 -4 -80 -17.5t-17 -69.5v-384q0 -94 -64.5 -156.5t-185.5 -62.5q-133 0 -206.5 56t-73.5 163v384q0 56 -17 69.5t-80 17.5v25h293v-25 q-63 -4 -80 -17.5t-17 -69.5zM428 850q0 22 15 37t39 15q23 0 38 -15t15 -37q0 -21 -15 -36t-38 -15q-24 0 -39 15t-15 36zM262 850q0 22 15 37t38 15t38.5 -15t15.5 -37q0 -21 -15.5 -36t-38.5 -15t-38 15t-15 36z"/>
<glyph glyph-name="Yacute" horiz-adv-x="630" unicode="Ý" d="M309 743l91 145q11 16 28 16h60q16 0 16 -15q0 -9 -21 -29l-134 -117h-40zM171 25q63 4 80 18t17 69v180l-182 296q-22 36 -31.5 49.5t-26.5 24.5t-41 13v25h263v-25q-69 -5 -69 -39q0 -20 17 -47l146 -241l139 240q16 28 16 46q0 36 -71 41v25h215v-25q-39 -4 -58.5 -21 t-47.5 -66l-170 -294v-182q0 -55 17 -69t80 -18v-25h-293v25z"/>
<glyph glyph-name="Thorn" horiz-adv-x="689" unicode="Þ" d="M550 366q0 134 -173 134h-151v-267h150q174 0 174 133zM30 700h293v-25q-63 -4 -80 -17.5t-17 -69.5v-44h151q283 0 283 -178t-284 -178h-150v-76q0 -55 17 -69t80 -18v-25h-293v25q63 4 80 18t17 69v476q0 56 -17 69.5t-80 17.5v25z"/>
<glyph glyph-name="germandbls" horiz-adv-x="613" unicode="ß" d="M26 410v41h68v33q0 117 58.5 174t151.5 57q81 0 131 -38.5t50 -104.5q0 -40 -34 -78t-94 -52q101 -15 162 -72.5t61 -161.5q0 -100 -51 -161.5t-142 -61.5q-73 0 -115.5 40.5t-42.5 90.5q0 22 12 34t31 12q40 0 45 -53q6 -42 22.5 -63.5t47.5 -21.5q54 0 75.5 47 t21.5 136q0 109 -53 157t-159 48h-29v39q78 0 117.5 36t39.5 85q0 47 -27 75.5t-73 28.5q-53 0 -85.5 -32.5t-32.5 -102.5v-464q0 -26 11.5 -37t37.5 -15v-25h-205v25q41 4 54.5 14.5t13.5 37.5v333h-68z"/>
<glyph glyph-name="agrave" horiz-adv-x="518" unicode="à" d="M198 657l92 -145h-41l-133 117q-21 18 -21 29q0 15 16 15h59q18 0 28 -16zM202 38q57 0 132 52v139q-101 -15 -152 -42t-51 -81q0 -34 19.5 -51t51.5 -17zM414 -11q-66 0 -78 62q-92 -64 -166 -64q-63 0 -99 27.5t-36 79.5q0 39 21.5 68t65 49t92.5 32t120 24v60 q0 56 -15.5 78.5t-56.5 22.5q-86 0 -104 -73q-13 -48 -50 -48q-39 0 -39 45t55 79.5t143 34.5q156 0 156 -141v-235q0 -54 32 -54q16 0 37 11v-36q-33 -22 -78 -22z"/>
<glyph glyph-name="aacute" horiz-adv-x="518" unicode="á" d="M235 512l91 145q11 16 28 16h60q16 0 16 -15q0 -9 -21 -29l-134 -117h-40zM202 38q57 0 132 52v139q-101 -15 -152 -42t-51 -81q0 -34 19.5 -51t51.5 -17zM414 -11q-66 0 -78 62q-92 -64 -166 -64q-63 0 -99 27.5t-36 79.5q0 39 21.5 68t65 49t92.5 32t120 24v60 q0 56 -15.5 78.5t-56.5 22.5q-86 0 -104 -73q-13 -48 -50 -48q-39 0 -39 45t55 79.5t143 34.5q156 0 156 -141v-235q0 -54 32 -54q16 0 37 11v-36q-33 -22 -78 -22z"/>
<glyph glyph-name="acircumflex" horiz-adv-x="518" unicode="â" d="M113 511l100 147q12 18 31 18h43q19 0 30 -18l100 -147h-41l-111 106l-111 -106h-41zM202 38q57 0 132 52v139q-101 -15 -152 -42t-51 -81q0 -34 19.5 -51t51.5 -17zM414 -11q-66 0 -78 62q-92 -64 -166 -64q-63 0 -99 27.5t-36 79.5q0 39 21.5 68t65 49t92.5 32t120 24 v60q0 56 -15.5 78.5t-56.5 22.5q-86 0 -104 -73q-13 -48 -50 -48q-39 0 -39 45t55 79.5t143 34.5q156 0 156 -141v-235q0 -54 32 -54q16 0 37 11v-36q-33 -22 -78 -22z"/>
<glyph glyph-name="atilde" horiz-adv-x="518" unicode="ã" d="M370 661h30q-4 -50 -26 -75t-56 -25q-27 0 -68 29q-33 24 -51 24q-31 0 -38 -44h-32q4 50 26 75t56 25q25 0 69 -29q33 -24 51 -24q32 0 39 44zM202 38q57 0 132 52v139q-101 -15 -152 -42t-51 -81q0 -34 19.5 -51t51.5 -17zM414 -11q-66 0 -78 62q-92 -64 -166 -64 q-63 0 -99 27.5t-36 79.5q0 39 21.5 68t65 49t92.5 32t120 24v60q0 56 -15.5 78.5t-56.5 22.5q-86 0 -104 -73q-13 -48 -50 -48q-39 0 -39 45t55 79.5t143 34.5q156 0 156 -141v-235q0 -54 32 -54q16 0 37 11v-36q-33 -22 -78 -22z"/>
<glyph glyph-name="adieresis" horiz-adv-x="518" unicode="ä" d="M294 619q0 22 15 37t39 15q23 0 38 -15t15 -37q0 -21 -15 -36t-38 -15q-24 0 -39 15t-15 36zM128 619q0 22 15 37t38 15t38.5 -15.5t15.5 -36.5t-15.5 -36t-38.5 -15t-38 15t-15 36zM202 38q57 0 132 52v139q-101 -15 -152 -42t-51 -81q0 -34 19.5 -51t51.5 -17zM414 -11 q-66 0 -78 62q-92 -64 -166 -64q-63 0 -99 27.5t-36 79.5q0 39 21.5 68t65 49t92.5 32t120 24v60q0 56 -15.5 78.5t-56.5 22.5q-86 0 -104 -73q-13 -48 -50 -48q-39 0 -39 45t55 79.5t143 34.5q156 0 156 -141v-235q0 -54 32 -54q16 0 37 11v-36q-33 -22 -78 -22z"/>
<glyph glyph-name="aring" horiz-adv-x="518" unicode="å" d="M195 615q0 -26 17.5 -44t42.5 -18q26 0 44.5 18t18.5 44t-18.5 44t-44.5 18q-25 0 -42.5 -18t-17.5 -44zM156 615q0 41 29 70.5t70 29.5q42 0 71.5 -29.5t29.5 -70.5q0 -40 -29.5 -69.5t-71.5 -29.5q-41 0 -70 29.5t-29 69.5zM202 38q57 0 132 52v139q-101 -15 -152 -42 t-51 -81q0 -34 19.5 -51t51.5 -17zM414 -11q-66 0 -78 62q-92 -64 -166 -64q-63 0 -99 27.5t-36 79.5q0 39 21.5 68t65 49t92.5 32t120 24v60q0 56 -15.5 78.5t-56.5 22.5q-86 0 -104 -73q-13 -48 -50 -48q-39 0 -39 45t55 79.5t143 34.5q156 0 156 -141v-235q0 -54 32 -54 q16 0 37 11v-36q-33 -22 -78 -22z"/>
<glyph glyph-name="ae" horiz-adv-x="807" unicode="æ" d="M561 427q-104 0 -125 -113h231q0 53 -29.5 83t-76.5 30zM362 102q-28 52 -28 127q-101 -15 -152 -42t-51 -81q0 -34 19.5 -51t51.5 -17q75 0 160 64zM267 466q102 0 131 -79q56 79 162 79q89 0 142.5 -50.5t53.5 -141.5h-324q-3 -24 -3 -48q0 -199 156 -199 q49 0 88.5 30.5t62.5 84.5l37 -17q-59 -140 -194 -140q-133 0 -200 88q-105 -86 -209 -86q-63 0 -99 27.5t-36 79.5q0 39 21.5 68t65 49t92.5 32t120 24v60q0 56 -15.5 78.5t-56.5 22.5q-86 0 -104 -73q-13 -48 -50 -48q-39 0 -39 45t55 79.5t143 34.5z"/>
<glyph glyph-name="ccedilla" horiz-adv-x="482" unicode="ç" d="M299 -60q36 0 58 -17t22 -49q0 -36 -35.5 -64.5t-93.5 -28.5q-46 0 -76 17t-30 40q0 13 8 22t21 9q22 0 35 -25q14 -31 48 -31q28 0 44 13.5t16 34.5q0 15 -11.5 25t-29.5 10q-26 0 -41 -14l-24 10l39 94q-100 7 -157 73t-57 167q0 103 63 171.5t159 68.5 q76 0 126.5 -34.5t50.5 -78.5q0 -22 -13 -34t-33 -12q-38 0 -48 48q-12 72 -83 72q-126 0 -126 -201q0 -91 37.5 -145t109.5 -54q95 0 145 117l36 -19q-53 -128 -167 -139l-22 -51q13 5 29 5z"/>
<glyph glyph-name="egrave" horiz-adv-x="509" unicode="è" d="M195 654l92 -145h-41l-133 117q-21 18 -21 29q0 15 16 15h59q18 0 28 -16zM262 427q-103 0 -124 -113h231q0 53 -30 83t-77 30zM458 274h-325q-2 -32 -2 -48q0 -199 156 -199q48 0 88 30.5t63 84.5l37 -17q-59 -140 -194 -140q-116 0 -181 67.5t-65 173.5q0 104 61.5 172 t164.5 68q89 0 143 -50.5t54 -141.5z"/>
<glyph glyph-name="eacute" horiz-adv-x="509" unicode="é" d="M262 427q-103 0 -124 -113h231q0 53 -30 83t-77 30zM458 274h-325q-2 -32 -2 -48q0 -199 156 -199q48 0 88 30.5t63 84.5l37 -17q-59 -140 -194 -140q-116 0 -181 67.5t-65 173.5q0 104 61.5 172t164.5 68q89 0 143 -50.5t54 -141.5zM232 509l91 145q11 16 28 16h60 q16 0 16 -15q0 -9 -21 -29l-134 -117h-40z"/>
<glyph glyph-name="ecircumflex" horiz-adv-x="509" unicode="ê" d="M262 427q-103 0 -124 -113h231q0 53 -30 83t-77 30zM458 274h-325q-2 -32 -2 -48q0 -199 156 -199q48 0 88 30.5t63 84.5l37 -17q-59 -140 -194 -140q-116 0 -181 67.5t-65 173.5q0 104 61.5 172t164.5 68q89 0 143 -50.5t54 -141.5zM111 508l100 147q12 18 31 18h43 q19 0 30 -18l100 -147h-41l-111 106l-111 -106h-41z"/>
<glyph glyph-name="edieresis" horiz-adv-x="509" unicode="ë" d="M262 427q-103 0 -124 -113h231q0 53 -30 83t-77 30zM458 274h-325q-2 -32 -2 -48q0 -199 156 -199q48 0 88 30.5t63 84.5l37 -17q-59 -140 -194 -140q-116 0 -181 67.5t-65 173.5q0 104 61.5 172t164.5 68q89 0 143 -50.5t54 -141.5zM293 616q0 22 15 37t39 15 q23 0 38 -15t15 -37q0 -21 -15 -36t-38 -15q-24 0 -39 15t-15 36zM127 616q0 22 15 37t38 15q24 0 39 -15t15 -37q0 -21 -15.5 -36t-38.5 -15t-38 15t-15 36z"/>
<glyph glyph-name="igrave" horiz-adv-x="276" unicode="ì" d="M79 654l92 -145h-41l-133 117q-21 18 -21 29q0 15 16 15h59q18 0 28 -16zM249 0h-223v25q41 4 54.5 14.5t13.5 37.5v258q0 33 -31 33h-37v20l125 78h31v-389q0 -27 13.5 -37.5t53.5 -14.5v-25z"/>
<glyph glyph-name="iacute" horiz-adv-x="276" unicode="í" d="M249 0h-223v25q41 4 54.5 14.5t13.5 37.5v258q0 33 -31 33h-37v20l125 78h31v-389q0 -27 13.5 -37.5t53.5 -14.5v-25zM109 509l91 145q11 16 28 16h60q16 0 16 -15q0 -9 -21 -29l-134 -117h-40z"/>
<glyph glyph-name="icircumflex" horiz-adv-x="276" unicode="î" d="M249 0h-223v25q41 4 54.5 14.5t13.5 37.5v258q0 33 -31 33h-37v20l125 78h31v-389q0 -27 13.5 -37.5t53.5 -14.5v-25zM-14 508l100 147q12 18 31 18h43q20 0 30 -18l100 -147h-41l-111 106l-111 -106h-41z"/>
<glyph glyph-name="idieresis" horiz-adv-x="276" unicode="ï" d="M249 0h-223v25q41 4 54.5 14.5t13.5 37.5v258q0 33 -31 33h-37v20l125 78h31v-389q0 -27 13.5 -37.5t53.5 -14.5v-25zM168 616q0 22 15 37t39 15q23 0 38 -15t15 -37q0 -21 -15 -36t-38 -15q-24 0 -39 15t-15 36zM2 616q0 22 15 37t38 15t38.5 -15t15.5 -37 q0 -21 -15.5 -36t-38.5 -15t-38 15t-15 36z"/>
<glyph glyph-name="eth" horiz-adv-x="543" unicode="ð" d="M408 267q0 43 -5 95q-54 65 -132 65q-138 0 -138 -205q0 -198 142 -198q72 0 102.5 63t30.5 180zM199 542v41l120 47q-28 49 -64 85h49q31 -25 67 -65l129 50v-41l-104 -41q110 -150 110 -336q0 -138 -62.5 -217.5t-168.5 -79.5q-108 0 -174 68t-66 172t64.5 172.5 t164.5 68.5q75 0 131 -49q-18 98 -60 178z"/>
<glyph glyph-name="ntilde" horiz-adv-x="572" unicode="ñ" d="M393 658h30q-4 -50 -26 -75t-56 -25q-27 0 -68 29q-33 24 -51 24q-31 0 -38 -44h-32q4 50 26 75t56 25q26 0 69 -29q33 -24 51 -24q32 0 39 44zM546 0h-223v25q41 4 54 14.5t13 37.5v254q0 84 -78 84q-68 0 -130 -43v-295q0 -27 13.5 -37.5t53.5 -14.5v-25h-223v25 q41 4 54.5 14.5t13.5 37.5v258q0 33 -31 33h-37v20l125 78h31v-50q81 50 155 50q25 0 47.5 -5.5t45 -19.5t36 -42t13.5 -68v-254q0 -27 13.5 -37.5t53.5 -14.5v-25z"/>
<glyph glyph-name="ograve" horiz-adv-x="541" unicode="ò" d="M204 654l92 -145h-41l-133 117q-21 18 -21 29q0 15 16 15h59q18 0 28 -16zM131 226q0 -93 33.5 -147.5t105.5 -54.5t106 54.5t34 147.5t-34 147t-106 54q-139 0 -139 -201zM35 226q0 103 65.5 171.5t169.5 68.5t170 -68.5t66 -171.5q0 -104 -65.5 -172.5t-170.5 -68.5 q-104 0 -169.5 68.5t-65.5 172.5z"/>
<glyph glyph-name="oacute" horiz-adv-x="541" unicode="ó" d="M131 226q0 -93 33.5 -147.5t105.5 -54.5t106 54.5t34 147.5t-34 147t-106 54q-139 0 -139 -201zM35 226q0 103 65.5 171.5t169.5 68.5t170 -68.5t66 -171.5q0 -104 -65.5 -172.5t-170.5 -68.5q-104 0 -169.5 68.5t-65.5 172.5zM241 509l91 145q11 16 28 16h60 q16 0 16 -15q0 -9 -21 -29l-134 -117h-40z"/>
<glyph glyph-name="ocircumflex" horiz-adv-x="541" unicode="ô" d="M131 226q0 -93 33.5 -147.5t105.5 -54.5t106 54.5t34 147.5t-34 147t-106 54q-139 0 -139 -201zM35 226q0 103 65.5 171.5t169.5 68.5t170 -68.5t66 -171.5q0 -104 -65.5 -172.5t-170.5 -68.5q-104 0 -169.5 68.5t-65.5 172.5zM125 508l100 147q12 18 31 18h43 q19 0 30 -18l100 -147h-41l-111 106l-111 -106h-41z"/>
<glyph glyph-name="otilde" horiz-adv-x="541" unicode="õ" d="M383 658h30q-4 -50 -26 -75t-56 -25q-27 0 -68 29q-33 24 -51 24q-31 0 -38 -44h-32q4 50 26 75t56 25q26 0 69 -29q33 -24 51 -24q32 0 39 44zM131 226q0 -93 33.5 -147.5t105.5 -54.5t106 54.5t34 147.5t-34 147t-106 54q-139 0 -139 -201zM35 226q0 103 65.5 171.5 t169.5 68.5t170 -68.5t66 -171.5q0 -104 -65.5 -172.5t-170.5 -68.5q-104 0 -169.5 68.5t-65.5 172.5z"/>
<glyph glyph-name="odieresis" horiz-adv-x="541" unicode="ö" d="M131 226q0 -93 33.5 -147.5t105.5 -54.5t106 54.5t34 147.5t-34 147t-106 54q-139 0 -139 -201zM35 226q0 103 65.5 171.5t169.5 68.5t170 -68.5t66 -171.5q0 -104 -65.5 -172.5t-170.5 -68.5q-104 0 -169.5 68.5t-65.5 172.5zM307 616q0 22 15 37t39 15q23 0 38 -15 t15 -37q0 -21 -15 -36t-38 -15q-24 0 -39 15t-15 36zM141 616q0 22 15 37t38 15q24 0 39 -15t15 -37q0 -21 -15.5 -36t-38.5 -15t-38 15t-15 36z"/>
<glyph glyph-name="divide" d="M212 176q0 27 17.5 44.5t45.5 17.5q27 0 45 -18t18 -44q0 -27 -18 -45t-45 -18q-28 0 -45.5 18t-17.5 45zM212 525q0 27 17.5 44.5t45.5 17.5q27 0 45 -17.5t18 -44.5t-18 -45t-45 -18q-28 0 -45.5 18t-17.5 45zM10 326v50h532v-50h-532z" unicode="÷"/>
<glyph glyph-name="oslash" horiz-adv-x="541" unicode="ø" d="M410 226q0 64 -16 109l-229 -258q34 -53 105 -53q72 0 106 54.5t34 147.5zM131 226q0 -66 16 -111l228 258q-35 54 -105 54q-139 0 -139 -201zM35 226q0 103 65.5 171.5t169.5 68.5q83 0 146 -47l28 32h52l-52 -58q62 -68 62 -167q0 -104 -65.5 -172.5t-170.5 -68.5 q-85 0 -145 46l-28 -31h-52l51 57q-61 67 -61 169z"/>
<glyph glyph-name="ugrave" horiz-adv-x="564" unicode="ù" d="M221 654l92 -145h-41l-133 117q-21 18 -21 29q0 15 16 15h59q18 0 28 -16zM314 368v20l125 78h31v-389q0 -27 13.5 -37.5t53.5 -14.5v-25q-79 0 -155 -15v49q-80 -49 -155 -49q-25 0 -47.5 5.5t-45 19.5t-36 42t-13.5 68v215q0 33 -31 33h-36v20l125 78h30v-346 q0 -84 79 -84q62 0 130 43v256q0 18 -7.5 25.5t-24.5 7.5h-36z"/>
<glyph glyph-name="uacute" horiz-adv-x="564" unicode="ú" d="M314 368v20l125 78h31v-389q0 -27 13.5 -37.5t53.5 -14.5v-25q-79 0 -155 -15v49q-80 -49 -155 -49q-25 0 -47.5 5.5t-45 19.5t-36 42t-13.5 68v215q0 33 -31 33h-36v20l125 78h30v-346q0 -84 79 -84q62 0 130 43v256q0 18 -7.5 25.5t-24.5 7.5h-36zM250 509l91 145 q11 16 28 16h60q16 0 16 -15q0 -9 -21 -29l-134 -117h-40z"/>
<glyph glyph-name="ucircumflex" horiz-adv-x="564" unicode="û" d="M314 368v20l125 78h31v-389q0 -27 13.5 -37.5t53.5 -14.5v-25q-79 0 -155 -15v49q-80 -49 -155 -49q-25 0 -47.5 5.5t-45 19.5t-36 42t-13.5 68v215q0 33 -31 33h-36v20l125 78h30v-346q0 -84 79 -84q62 0 130 43v256q0 18 -7.5 25.5t-24.5 7.5h-36zM125 508l100 147 q12 18 31 18h43q19 0 30 -18l100 -147h-41l-111 106l-111 -106h-41z"/>
<glyph glyph-name="udieresis" horiz-adv-x="564" unicode="ü" d="M314 368v20l125 78h31v-389q0 -27 13.5 -37.5t53.5 -14.5v-25q-79 0 -155 -15v49q-80 -49 -155 -49q-25 0 -47.5 5.5t-45 19.5t-36 42t-13.5 68v215q0 33 -31 33h-36v20l125 78h30v-346q0 -84 79 -84q62 0 130 43v256q0 18 -7.5 25.5t-24.5 7.5h-36zM306 616q0 22 15 37 t39 15q23 0 38 -15t15 -37q0 -21 -15 -36t-38 -15q-24 0 -39 15t-15 36zM140 616q0 22 15 37t38 15t38.5 -15t15.5 -37q0 -21 -15.5 -36t-38.5 -15t-38 15t-15 36z"/>
<glyph glyph-name="yacute" horiz-adv-x="463" unicode="ý" d="M214 509l91 145q11 16 28 16h60q16 0 16 -15q0 -9 -21 -29l-134 -117h-40zM391 339l-171 -427q-44 -111 -140 -111q-41 0 -69 17.5t-28 45.5q0 19 14 33t35 14q22 0 45 -24.5t39 -24.5q38 0 64 68l23 59l-133 350q-19 50 -32.5 66.5t-46.5 20.5v25h220v-25 q-33 -2 -46.5 -10t-13.5 -24q0 -13 14 -53l87 -230l92 230q11 28 11 45q0 20 -14.5 29.5t-45.5 12.5v25h177v-25q-28 -4 -45 -22.5t-36 -64.5z"/>
<glyph glyph-name="thorn" horiz-adv-x="553" unicode="þ" d="M288 423q-71 0 -111 -55v-285q40 -55 111 -55q134 0 134 198q0 197 -134 197zM244 -184h-223v25q41 4 54.5 14t13.5 37v692q0 33 -31 33h-40v20l128 78h31v-300q49 51 133 51q97 0 152.5 -67.5t55.5 -172.5q0 -106 -56.5 -173.5t-157.5 -67.5q-79 0 -127 46v-139 q0 -26 13.5 -36.5t53.5 -14.5v-25z"/>
<glyph glyph-name="OE" horiz-adv-x="1151" unicode="Œ" d="M154 350q0 -321 240 -321q201 0 201 202v243q0 102 -47 150t-154 48q-240 0 -240 -322zM719 45h103q106 0 172.5 38t128.5 114l20 -13l-97 -184h-513q-66 -15 -139 -15q-164 0 -257 101.5t-93 263.5t93 263.5t257 101.5q78 0 139 -15h514l66 -163l-20 -11q-50 67 -110 98 t-153 31h-111q-30 0 -30 -30v-237h162q52 0 70.5 22.5t22.5 74.5h27v-239h-27q-4 52 -22.5 74.5t-70.5 22.5h-162v-268q0 -30 30 -30z"/>
<glyph glyph-name="oe" horiz-adv-x="866" unicode="œ" d="M637 427q-104 0 -125 -113h231q0 53 -29.5 83t-76.5 30zM131 226q0 -93 33.5 -147.5t105.5 -54.5t106 54.5t34 147.5t-34 147t-106 54q-139 0 -139 -201zM832 274h-324q-2 -14 -2 -41q0 -206 156 -206q48 0 87.5 30.5t63.5 84.5l37 -17q-27 -65 -76.5 -102.5 t-118.5 -37.5q-137 0 -199 99q-48 -77 -141 -93q-21 -4 -49 -4h-15q-96 5 -156 72.5t-60 166.5q0 103 65.5 171.5t169.5 68.5q122 0 186 -98q46 76 134 92q25 5 47 5q11 0 17 -1q81 -5 129.5 -54.5t48.5 -135.5z"/>
<glyph glyph-name="Scaron" horiz-adv-x="686" unicode="Š" d="M162 561q0 -24 12.5 -43.5t28 -32t48.5 -25t53.5 -18.5t64.5 -17q32 -8 49.5 -13t47.5 -14.5t47 -18t40.5 -21.5t37 -28t26.5 -33.5t19 -42.5t6 -51q0 -96 -76.5 -157t-195.5 -61q-123 0 -223 56l-17 -41h-30l-65 215l23 7q51 -97 132 -145.5t177 -48.5q78 0 132 41 t53 103q0 24 -7.5 43t-25 34t-34 25.5t-47 20.5t-50 16t-56.5 15q-36 9 -54.5 14.5t-50.5 16.5t-49.5 20.5t-40.5 25.5t-34.5 33.5t-20 41.5t-8.5 53q0 79 69 131.5t170 52.5q120 0 199 -50l14 35h30l61 -195l-22 -8q-86 175 -276 175q-72 0 -114.5 -32t-42.5 -79zM287 760 l-100 147h41l111 -106l111 106h41l-100 -147q-11 -18 -30 -18h-43q-18 0 -31 18z"/>
<glyph glyph-name="scaron" horiz-adv-x="464" unicode="š" d="M120 363q0 -18 9.5 -31t31 -22.5t38.5 -14.5t50 -13q37 -9 55 -14t48.5 -17.5t45.5 -26t27.5 -37.5t12.5 -54q0 -67 -50.5 -107.5t-128.5 -40.5q-97 0 -159 48l-12 -33h-26l-36 151l22 7q45 -70 95 -102t115 -32q44 0 75 20.5t31 60.5q0 17 -8.5 30.5t-19.5 22t-33.5 17 t-37.5 12t-44 10.5q-34 8 -52.5 13t-46.5 16.5t-42.5 24.5t-26 34.5t-11.5 49.5q0 55 46 93t117 38q86 0 138 -40l10 25h25l29 -129l-22 -8q-65 114 -174 114q-44 0 -67.5 -18t-23.5 -47zM180 526l-100 147h41l111 -106l111 106h41l-100 -147q-11 -18 -30 -18h-43 q-18 0 -31 18z"/>
<glyph glyph-name="Ydieresis" horiz-adv-x="630" unicode="Ÿ" d="M344 850q0 22 15 37t39 15q23 0 38 -15t15 -37q0 -21 -15 -36t-38 -15q-24 0 -39 15t-15 36zM178 850q0 22 15 37t38 15t38.5 -15t15.5 -37q0 -21 -15.5 -36t-38.5 -15t-38 15t-15 36zM171 25q63 4 80 18t17 69v180l-182 296q-22 36 -31.5 49.5t-26.5 24.5t-41 13v25h263 v-25q-69 -5 -69 -39q0 -20 17 -47l146 -241l139 240q16 28 16 46q0 36 -71 41v25h215v-25q-39 -4 -58.5 -21t-47.5 -66l-170 -294v-182q0 -55 17 -69t80 -18v-25h-293v25z"/>
<glyph glyph-name="circumflex" horiz-adv-x="516" unicode="ˆ" d="M105 508l100 147q12 18 31 18h43q19 0 30 -18l100 -147h-41l-111 106l-111 -106h-41z"/>
<glyph glyph-name="tilde" horiz-adv-x="516" unicode="˜" d="M363 658h30q-4 -50 -26 -75t-56 -25q-27 0 -68 29q-33 24 -51 24q-31 0 -38 -44h-32q4 50 26 75t56 25q26 0 69 -29q33 -24 51 -24q32 0 39 44z"/>
<glyph glyph-name="uni0394" horiz-adv-x="659" unicode="Δ" d="M304 573l-200 -528h402zM305 700h57l266 -700h-589z"/>
<glyph glyph-name="uni03BC" horiz-adv-x="540" unicode="μ" d="M231 -15q-63 0 -99 35q9 -26 36.5 -80t27.5 -75q0 -29 -17 -46.5t-42 -17.5t-42.5 18t-17.5 47v585h89v-331q0 -84 78 -84q65 0 131 43q-1 9 -1 29v343h89v-360q0 -55 32 -55q16 0 37 11v-36q-33 -22 -69 -22q-66 0 -82 51q-69 -55 -150 -55z"/>
<glyph glyph-name="pi" horiz-adv-x="540" unicode="π" d="M85 -15q-31 0 -51.5 14t-20.5 39q0 17 13 30t31 13q21 0 37 -21.5t33 -21.5q51 0 51 75v256h-19q-34 0 -54.5 -20t-20.5 -51h-36q0 26 6 50t21 48.5t45.5 39.5t73.5 15h200q99 0 136 17v-29q-19 -30 -43.5 -46t-76.5 -21v-282q0 -54 32 -54q16 0 37 11v-36 q-30 -22 -70 -22q-78 0 -78 87v293h-111v-226q0 -72 -33 -115t-102 -43z"/>
<glyph glyph-name="endash" d="M10 206v39h532v-39h-532z" unicode="–"/>
<glyph glyph-name="emdash" horiz-adv-x="817" unicode="—" d="M10 206v39h797v-39h-797z"/>
<glyph glyph-name="quoteleft" horiz-adv-x="240" unicode="‘" d="M182 516q0 -27 -17.5 -44.5t-45.5 -17.5t-45.5 19.5t-17.5 53.5q0 46 29 103t66 92l20 -15q-50 -65 -61 -128q34 0 53 -18t19 -45z"/>
<glyph glyph-name="quotesinglbase" horiz-adv-x="240" unicode="‚" d="M57 53q0 27 17.5 44.5t45.5 17.5t45.5 -19.5t17.5 -53.5q0 -46 -29 -103t-66 -92l-20 15q50 65 61 128q-34 0 -53 18t-19 45z"/>
<glyph glyph-name="quotedblleft" horiz-adv-x="423" unicode="“" d="M182 516q0 -27 -17.5 -44.5t-45.5 -17.5t-45.5 19.5t-17.5 53.5q0 46 29 103t66 92l20 -15q-50 -65 -61 -128q34 0 53 -18t19 -45zM366 516q0 -27 -17.5 -44.5t-45.5 -17.5t-45.5 19.5t-17.5 53.5q0 46 29 103t66 92l20 -15q-50 -65 -61 -128q34 0 53 -18t19 -45z"/>
<glyph glyph-name="quotedblright" horiz-adv-x="423" unicode="”" d="M57 653q0 27 17.5 44.5t45.5 17.5t45.5 -19.5t17.5 -53.5q0 -46 -29 -103t-66 -92l-20 15q50 65 61 128q-34 0 -53 18t-19 45zM240 653q0 27 17.5 44.5t45.5 17.5t45.5 -19.5t17.5 -53.5q0 -46 -29 -103t-66 -92l-20 15q50 65 61 128q-34 0 -53 18t-19 45z"/>
<glyph glyph-name="dagger" horiz-adv-x="421" unicode="†" d="M248 674q0 -15 -12 -54t-16 -78q38 4 77 16t54 12q18 0 29.5 -10.5t11.5 -26.5q0 -15 -11.5 -26t-29.5 -11q-15 0 -54 11.5t-77 15.5q4 -37 16 -53.5t12 -29.5q0 -42 -12.5 -164.5t-25.5 -122.5t-25 122.5t-12 164.5q0 13 11.5 29.5t15.5 53.5q-38 -4 -76.5 -15.5 t-53.5 -11.5q-18 0 -30 11t-12 26q0 16 11.5 26.5t29.5 10.5q16 0 54.5 -12t76.5 -16q-4 39 -15.5 78t-11.5 54q0 18 11 29.5t26 11.5q16 0 27 -11.5t11 -29.5z"/>
<glyph glyph-name="daggerdbl" horiz-adv-x="421" unicode="‡" d="M173 -158q0 15 11.5 54t15.5 78q-38 -4 -76.5 -16t-53.5 -12q-19 0 -30.5 10.5t-11.5 26.5t11.5 26.5t30.5 10.5q15 0 53.5 -11.5t76.5 -15.5q-4 37 -15.5 53.5t-11.5 30.5q0 30 12 100.5t25 70.5q14 0 26 -70t12 -101q0 -13 -12 -30t-16 -54q38 4 77 15.5t54 11.5 q18 0 29.5 -10.5t11.5 -26.5t-11.5 -26.5t-29.5 -10.5q-16 0 -54.5 12t-76.5 16q4 -39 16 -78t12 -54q0 -18 -11 -29.5t-27 -11.5q-15 0 -26 11.5t-11 29.5zM248 674q0 -15 -12 -54t-16 -78q38 4 77 16t54 12q18 0 29.5 -10.5t11.5 -26.5q0 -15 -11.5 -26t-29.5 -11 q-15 0 -54 11.5t-77 15.5q4 -37 16 -53.5t12 -29.5q0 -32 -12 -102.5t-26 -70.5q-13 0 -25 71t-12 102q0 13 11.5 29.5t15.5 53.5q-38 -4 -76.5 -15.5t-53.5 -11.5q-18 0 -30 11t-12 26q0 16 11.5 26.5t29.5 10.5q16 0 54.5 -12t76.5 -16q-4 39 -15.5 78t-11.5 54 q0 18 11 29.5t26 11.5q16 0 27 -11.5t11 -29.5z"/>
<glyph glyph-name="ellipsis" horiz-adv-x="719" unicode="…" d="M536 53q0 27 17.5 44.5t45.5 17.5q27 0 45 -17.5t18 -44.5t-18 -45t-45 -18q-28 0 -45.5 18t-17.5 45zM296 53q0 27 17.5 44.5t45.5 17.5q27 0 45 -17.5t18 -44.5t-18 -45t-45 -18q-28 0 -45.5 18t-17.5 45zM57 53q0 27 17.5 44.5t45.5 17.5t45.5 -17.5t17.5 -44.5 t-18 -45t-45 -18q-28 0 -45.5 18t-17.5 45z"/>
<glyph glyph-name="perthousand" horiz-adv-x="1249" unicode="‰" d="M979 210q0 -97 16.5 -143t62.5 -46q47 0 63.5 46t16.5 143q0 98 -16.5 143.5t-63.5 45.5q-46 0 -62.5 -45.5t-16.5 -143.5zM899 210q0 101 41.5 160t117.5 59q77 0 118.5 -59t41.5 -160t-41.5 -160t-118.5 -59q-76 0 -117.5 59t-41.5 160zM598 210q0 -97 16.5 -143 t62.5 -46q47 0 63.5 46t16.5 143q0 98 -16.5 143.5t-63.5 45.5q-46 0 -62.5 -45.5t-16.5 -143.5zM518 210q0 101 41.5 160t117.5 59q77 0 118.5 -59t41.5 -160t-41.5 -160t-118.5 -59q-76 0 -117.5 59t-41.5 160zM184 0l456 700h43l-456 -700h-43zM111 490q0 -97 16.5 -143 t62.5 -46q47 0 63.5 46t16.5 143q0 98 -16.5 143.5t-63.5 45.5q-46 0 -62.5 -45.5t-16.5 -143.5zM31 490q0 101 41.5 160t117.5 59q77 0 118.5 -59t41.5 -160t-41.5 -160t-118.5 -59q-76 0 -117.5 59t-41.5 160z"/>
<glyph glyph-name="guilsinglleft" horiz-adv-x="324" unicode="‹" d="M263 30l-20 -14l-171 190q-11 13 -11 27q0 15 11 28l171 190l20 -14l-97 -204z"/>
<glyph glyph-name="guilsinglright" horiz-adv-x="324" unicode="›" d="M60 30l97 203l-97 204l20 14l171 -190q11 -13 11 -28q0 -14 -11 -27l-171 -190z"/>
<glyph glyph-name="fraction" horiz-adv-x="107" unicode="⁄" d="M-196 0l456 700h43l-456 -700h-43z"/>
<glyph glyph-name="Euro" horiz-adv-x="578" unicode="€" d="M41 395v39h62q16 137 82 209t166 72q79 0 128 -45t49 -102q0 -43 -22.5 -69.5t-56.5 -26.5q-28 0 -43.5 16t-15.5 39q0 25 16.5 40t41.5 17q15 0 15 10q0 34 -29 56.5t-75 22.5q-75 0 -109 -59.5t-40 -179.5h201v-39h-203v-45q0 -35 1 -51h202v-40h-200q20 -229 156 -229 q95 0 144 114l39 -19q-59 -140 -192 -140q-103 0 -170 70t-84 204h-63v40h59q-2 32 -2 51q0 30 1 45h-58z"/>
<glyph glyph-name="trademark" horiz-adv-x="483" unicode="™" d="M79 524v149q0 9 -9 9q-34 0 -57 -39l-10 4l21 60h11q3 -7 10 -7h116q8 0 9 7h12l20 -60l-10 -4q-22 39 -58 39q-9 0 -9 -9v-149q0 -10 2.5 -14.5t7 -6t15.5 -2.5v-11h-96v11q12 1 16.5 2.5t6.5 6t2 14.5zM468 490h-96v11q12 1 16.5 2.5t7 6t2.5 14.5v139l-64 -173h-15 l-62 173v-139q0 -10 2 -14.5t6.5 -6t16.5 -2.5v-11h-72v11q12 1 16.5 2.5t7 6t2.5 14.5v142q0 10 -2.5 14.5t-7 6t-16.5 2.5v11h81l49 -135l49 135h79v-11q-12 -1 -16.5 -2.5t-6.5 -6t-2 -14.5v-142q0 -10 2 -14.5t6.5 -6t16.5 -2.5v-11z"/>
<glyph glyph-name="partialdiff" horiz-adv-x="537" unicode="∂" d="M396 267q0 18 -0.5 49t-0.5 44q-54 67 -130 67q-134 0 -134 -205q0 -198 137 -198q70 0 99 63t29 180zM499 282q0 -138 -62.5 -217.5t-168.5 -79.5q-107 0 -173.5 68t-66.5 172q0 103 64.5 172t164.5 69q76 0 134 -53q-8 131 -37.5 188.5t-83.5 57.5q-17 0 -41.5 -26 t-44.5 -26q-21 0 -33.5 12t-12.5 33q0 27 21 45t64 18q126 0 201 -117.5t75 -315.5z"/>
<glyph glyph-name="product" horiz-adv-x="789" unicode="∏" d="M759 0h-293v25q63 4 80 18t17 69v513q0 30 -30 30h-277q-30 0 -30 -30v-513q0 -55 17 -69t80 -18v-25h-293v25q63 4 80 18t17 69v476q0 56 -17 69.5t-80 17.5v25h729v-25q-63 -4 -80 -17.5t-17 -69.5v-476q0 -55 17 -69t80 -18v-25z"/>
<glyph glyph-name="summation" horiz-adv-x="624" unicode="∑" d="M130 84h198q79 0 127.5 11.5t79.5 34t68 67.5l21 -13l-98 -184h-496v25l216 323l-214 327v25h495l67 -163l-21 -11q-49 67 -109 98t-152 31h-148l173 -263z"/>
<glyph glyph-name="minus" d="M10 326v50h532v-50h-532z" unicode="−"/>
<glyph glyph-name="radical" d="M10 222v50h141l84 -206l264 634h54l-290 -700h-54l-92 222h-107z" unicode="√"/>
<glyph glyph-name="infinity" horiz-adv-x="857" unicode="∞" d="M644 501q-65 0 -105.5 -37.5t-82.5 -109.5q28 -49 48 -76.5t57 -51t83 -23.5q62 0 104 42.5t42 104.5q0 63 -42 107t-104 44zM213 199q65 0 106 37.5t82 108.5q-22 38 -36.5 59t-37.5 46t-51 36.5t-63 11.5q-62 0 -104 -42.5t-42 -105.5t42 -107t104 -44zM644 150 q-78 0 -126.5 39.5t-91.5 111.5q-43 -73 -90 -112t-123 -39q-79 0 -137.5 58.5t-58.5 141.5q0 84 58.5 142.5t137.5 58.5q78 0 126.5 -40t91.5 -112q42 72 89.5 112t123.5 40q79 0 137.5 -58.5t58.5 -142.5q0 -83 -58.5 -141.5t-137.5 -58.5z"/>
<glyph glyph-name="approxequal" d="M542 487v-43q-47 22 -97 22q-78 0 -168 -35t-171 -35q-49 0 -96 18v42q51 -21 96 -21q78 0 168 35t171 35q47 0 97 -18zM542 289v-43q-47 22 -97 22q-78 0 -168 -35t-171 -35q-49 0 -96 18v42q51 -21 96 -21q78 0 168 35t171 35q47 0 97 -18z" unicode="≈"/>
<glyph glyph-name="notequal" d="M10 425v50h274l40 141h52l-40 -141h206v-50h-220l-42 -148h262v-50h-276l-40 -142h-52l40 142h-204v50h218l42 148h-260z" unicode="≠"/>
<glyph glyph-name="lessequal" d="M10 0v45h532v-45h-532zM521 170v-55l-490 203v55l490 202v-54l-424 -176z" unicode="≤"/>
<glyph glyph-name="greaterequal" d="M542 45v-45h-532v45h532zM30 115v55l425 175l-425 176v54l491 -202v-55z" unicode="≥"/>
<glyph glyph-name="lozenge" d="M100 350l175 -303l176 303l-176 303zM46 350l202 350h55l203 -350l-203 -350h-55z" unicode="◊"/>
</font>
</defs>
</svg>
