<?xml version="1.0" encoding="utf-8"?>
<!-- Generator: Adobe Illustrator 21.1.0, SVG Export Plug-In . SVG Version: 6.00 Build 0)  -->
<!DOCTYPE svg PUBLIC "-//W3C//DTD SVG 1.1//EN" "http://www.w3.org/Graphics/SVG/1.1/DTD/svg11.dtd">
<svg version="1.1" id="Layer_1" xmlns="http://www.w3.org/2000/svg" xmlns:xlink="http://www.w3.org/1999/xlink" x="0px" y="0px"
	 viewBox="0 0 1006 424" style="enable-background:new 0 0 1006 424;" xml:space="preserve">
<style type="text/css">
	.st0{fill:none;}
	.st1{fill:#FFFFFF;stroke:#000000;stroke-width:3;stroke-miterlimit:10;}
	.st2{fill:none;stroke:#000000;stroke-width:3;stroke-miterlimit:10;}
</style>
<title>Luxloop_LOGO02_Outlines</title>
<path class="st0" d="M516.7,181.6c-0.8,1.4-1.5,3-2.3,4.7c-1,1.9-1.9,3.9-2.8,5.9c-0.9,2-1.9,4-2.8,6.1c-1,2.1-2,4.3-3.1,6.6
	s-2.2,4.7-3.1,7.1c-2.2,4.5-4.2,9-6,13.7c-1,2.1-1.9,4.2-2.7,6.3s-1.7,4-2.4,5.7c-0.8,1.9-1.4,3.6-1.9,5l-1.3,3.9
	c0.4-0.9,0.9-2.1,1.6-3.6c0.7-1.4,1.4-3.1,2.1-5c1-1.8,1.9-3.8,2.7-5.7c0.9-2.1,1.8-4.2,2.7-6.3c1.9-4.2,3.9-8.8,6-13.7
	c1.1-2.3,2.2-4.6,3.3-6.9c1-2.3,2-4.6,3-6.9c1-2.1,1.9-4.1,2.7-6.1s1.8-3.9,2.7-5.9c0.8-1.7,1.4-3.3,2-4.7l1.4-3.6
	c0.6-1.1,1-2.3,1.4-3.4c-0.4,1-0.9,2-1.4,3.1C517.9,179.2,517.3,180.4,516.7,181.6z"/>
<path class="st0" d="M474.1,282.1c0.7-1.5,1.3-3.1,1.8-4.7c0.8-2.2,1.6-4.4,2.6-6.7c1-2.3,1.9-4.6,2.9-7s1.9-4.9,2.9-7.6
	c2.1-5.1,4.2-10.4,6.4-15.7c2.2-5.3,4.4-10.7,6.7-16c2.3-5.5,4.6-10.9,6.8-16.1c2.3-5.2,4.6-10.3,6.8-15.3c2.3-4.9,4.5-9.7,6.6-14.3
	s4-8.8,5.7-12.9c1.9-4,3.6-7.6,5-10.9s2.6-6,3.6-8.3c1.1-2.7,2.2-5.1,3.1-7.4c-1,2.1-2.1,4.5-3.4,7.1l-4.1,8.3l-5.3,10.6
	c-1.9,4-4,8.2-6.1,12.7c-2.2,4.5-4.4,9.2-6.7,14.1c-2.3,5-4.6,10-7,15.3c-2.4,5.2-4.7,10.6-7,16.1s-4.5,10.9-6.6,16.3
	s-4.2,10.5-6.3,15.4l-2.7,7.6c-0.9,2.4-1.8,4.8-2.7,7.3c-1,2.5-1.8,4.8-2.6,7c-0.5,1.6-1.1,3.1-1.6,4.6
	C473.3,281.8,473.7,281.9,474.1,282.1z"/>
<path class="st0" d="M512.8,201.3c-0.2,0.2-0.3,0.3-0.3,0.4c0,0.1-0.1,0.2-0.3,0.4c-0.2,0.4-0.4,0.7-0.7,1c-0.4,0.4-0.7,0.8-1,1.3
	l-1.4,1.4c-0.5,0.5-1,1.1-1.4,1.7l-3.4,3.4l-3.4,3.4l-3.1,3.1l-2.9,2.9c0.2,0,0.5-0.2,0.9-0.6c0.4-0.2,0.8-0.5,1.1-0.9
	c0.4-0.4,0.9-0.8,1.4-1.1c1-0.8,2-1.7,3.3-2.7s2.4-2.1,3.6-3.3c1.1-1.2,2.2-2.4,3.1-3.7c1-1,1.9-2.2,2.6-3.4c0.4-0.4,0.7-0.8,1-1.3
	s0.5-0.9,0.7-1.3l0.6-1.1C513,201,512.9,201.1,512.8,201.3C512.8,201.2,512.8,201.3,512.8,201.3z"/>
<path class="st0" d="M518.6,191.6c-1,1.3-2,3-3.1,4.9c-0.6,1-1.2,2-2,3.1l-2.3,3.4c-1,1.3-1.9,2.6-2.7,3.9c-0.9,1.2-1.8,2.5-2.7,3.9
	c-1,1.3-1.9,2.6-2.7,3.9s-1.8,2.4-2.7,3.6c-2.1,2.3-3.8,4.3-5.1,6l-2.3,2.3c-0.4,0.7-1,1.4-1.7,1.7l-1.7,1.7c0.2,0,0.4-0.1,0.6-0.3
	l1.1-1.1c0.3-0.3,0.6-0.6,1-0.9s0.7-0.5,1-0.9c0.4-0.4,0.7-0.7,1.1-1s0.8-0.6,1.1-1l2.9-2.9c1-0.9,1.9-2,2.9-3.1
	c0.9-1.1,1.9-2.3,2.9-3.6c1-1.2,1.9-2.5,2.8-3.9l5.1-7.7c0.8-1.1,1.5-2.3,2.1-3.6c0.7-1.2,1.3-2.3,1.9-3.3c0.6-0.9,1-1.9,1.4-2.9
	C517.7,193.1,518.1,192.3,518.6,191.6z"/>
<path class="st0" d="M504.3,212.1c-1-2.5-1.8-4.7-2.4-6.7c-0.7-2-1.2-3.8-1.6-5.3c-0.3-0.6-0.6-1.3-0.7-2c-0.1-0.5-0.2-1-0.4-1.4
	c0.2,0.5,0.3,1,0.3,1.6c0,0.7,0.2,1.5,0.6,2.1c0.4,1.5,0.8,3.3,1.3,5.3s1.1,4.3,1.9,7c1.1,3.8,2.6,7.8,4.3,12l1.4-1.4
	c-1-2.1-1.8-4-2.4-5.9C505.8,215.6,505,213.9,504.3,212.1z"/>
<path class="st0" d="M503.5,207.9c0,0.1,0,0.1,0,0.1c-0.1,0.5-0.1,1-0.1,1.4c-0.3,1.4-0.5,2.8-0.6,4.3c-0.2,0.5-0.2,1-0.1,1.6
	c0.1,0.4,0.1,0.9,0.1,1.3c0.2-0.9,0.3-1.9,0.3-2.9c0.2-0.6,0.3-1.2,0.4-1.9c0.1-0.8,0.4-1.6,0.7-2.4c0.2-0.9,0.4-1.8,0.6-2.7
	c0.1-0.6,0.3-1.3,0.5-1.9C504.8,205.9,504.2,206.9,503.5,207.9z"/>
<path class="st0" d="M523.4,227.3c-0.4-0.2-0.8-0.3-1.3-0.3c-0.4,0-0.9-0.1-1.3-0.3c-1.1-0.4-2.1-0.7-2.8-0.9c-1-0.4-2-0.8-3.1-1.3
	s-2.3-1-3.4-1.6c-2.5-1.3-4.8-2.7-7.1-4.3c-1.1-1-2.3-2-3.4-3c-1.2-1.1-2.4-2.1-3.7-3c-2.4-2.4-4.6-4.9-6.6-7.6
	c-2.1-2.8-4.1-5.6-6-8.4c-0.5-1.1-1.2-2.2-2-3.1c-0.4,0.6-0.9,1.2-1.4,1.7l1.7,2.6c1.9,3,3.9,5.8,6.1,8.6c2.2,2.7,4.5,5.2,7,7.7
	c2.3,2.2,4.8,4.3,7.4,6c1.2,0.9,2.5,1.6,3.9,2.3c1.2,0.6,2.4,1.1,3.6,1.7c0.6,0.3,1.3,0.6,2,0.9l1.7,0.6l1.7,0.6
	c0.5,0.2,1,0.3,1.4,0.6c0.6,0.2,1.1,0.3,1.7,0.3c0.5,0,1,0.1,1.4,0.3c0.8,0.2,1.7,0.3,2.6,0.3c1.1,0.2,2.3,0.3,3.4,0.3
	c-0.4-0.2-0.9-0.3-1.4-0.3C524.7,227.5,524.1,227.4,523.4,227.3z"/>
<path class="st0" d="M491,242.7c0.4-1.2,0.8-2.6,1.1-4.1c0.4-1.3,0.8-2.7,1.3-4s1-2.8,1.6-4.3c1-2.9,2-5.8,3.1-8.9l3.4-9.1
	c2.3-6.3,4.6-12.3,6.9-18c1.1-2.9,2.2-5.6,3.3-8.1s2-5,3-7.3s1.8-4.3,2.6-6.1s1.4-3.4,2-4.7c0.7-1.4,1.3-2.8,1.7-4.3l-0.6,1.1
	c-0.2,0.4-0.3,0.8-0.4,1.3c-0.1,0.6-0.4,1.1-0.7,1.6c-1.1,2.3-2.9,5.9-5.1,10.9c-1,2.3-2,4.7-3.1,7.3s-2.3,5.3-3.4,8.1
	c-1.1,2.9-2.3,5.8-3.6,8.7c-1,2.5-2,5-3,7.6c0.1,1.1-0.1,2.2-0.6,3.1c-0.5,1.1-1.4,3-2.6,5.4c-0.3,0.7-0.5,1.4-0.8,2.1
	c-1.1,3-2.2,6-3.1,9c-0.4,1.5-0.8,3-1.3,4.3s-0.9,2.7-1.3,4c-0.4,1.5-0.7,2.9-1,4.1s-0.6,2.4-1,3.6c-0.3,1.2-0.6,2.4-0.9,3.6
	c-0.2,1-0.5,2-0.9,3c-0.2,1-0.3,1.9-0.4,2.7c-0.1,0.8-0.2,1.7-0.2,2.5c0.2-0.8,0.3-1.5,0.4-2.3c0.1-0.9,0.4-1.7,0.7-2.6
	c0.4-2.2,1-4.4,1.7-6.6C490.2,245.1,490.6,243.9,491,242.7z"/>
<path class="st0" d="M501.3,213.3l2.1-2.1c0.7-0.7,1.3-1.4,1.9-2.1l2.8-2.9l2.8-2.9c-0.3,0.2-0.5,0.4-0.9,0.6
	c-0.4,0.2-0.8,0.4-1.1,0.7c-0.4,0.3-0.8,0.6-1.1,1c-1,1-2,2-3.3,3c-1.2,1-2.6,2.3-4.1,3.9l-2.6,2.6c-0.2,0.5-0.3,1-0.4,1.6
	c-0.1,0.5-0.3,1.1-0.4,1.6c0.8-0.9,1.5-1.8,2.1-2.6C499.8,214.8,500.5,214,501.3,213.3z"/>
<path class="st0" d="M503.9,211.6c0.8-1,1.5-2,2.3-3l-0.6-1.7c-1.2,2.4-2.4,4.9-3.7,7.6C502.5,213.5,503.2,212.5,503.9,211.6z"/>
<path class="st0" d="M506,218.4c-0.4-1.1-0.7-2.2-0.9-3.3c-0.2-1.2-0.5-2.6-0.9-4.1c-0.4-1.3-0.7-2.6-0.9-4
	c-0.2-1.2-0.4-2.3-0.9-3.4c-0.2-0.4-0.3-0.7-0.3-1.1c0-0.4-0.1-0.8-0.3-1.1c-0.2-0.3-0.2-0.6-0.3-0.9v0.9c0,0.9,0.1,1.7,0.3,2.6
	c0.3,2.5,0.8,5,1.4,7.4c0.4,1.5,0.7,2.9,1,4.1c0.2,1.1,0.6,2.2,1,3.3c0.2,0.8,0.5,1.6,0.9,2.3c0-0.4,0-0.8-0.1-1.1
	C506,219.4,506,218.9,506,218.4z"/>
<path class="st0" d="M503.8,209.9v2.2c0-0.2,0-0.3,0.1-0.4s0.1-0.3,0.1-0.7c0-0.6,0-1.1,0.1-1.7L503.8,209.9z"/>
<path class="st0" d="M491.9,218.6c0.4-0.4,0.8-0.8,1.3-1.1c0.5-0.4,1-0.8,1.6-1.1s1.2-0.8,1.9-1.3s1.5-1,2.4-1.6
	c0.8-0.6,1.5-1.1,2.1-1.7c0.7-0.6,1.5-1.1,2.4-1.4c0.9-0.5,1.7-1.1,2.6-1.7c0.7-0.5,1.5-1,2.3-1.4c0.9-0.3,1.7-0.8,2.4-1.3
	s1.4-0.9,2.1-1.3c1.1-0.5,2.1-1.1,3.1-1.7l1.1-0.6v-0.3c-0.5,0.2-0.9,0.4-1.4,0.6c-1.1,0.4-2.1,0.9-3.1,1.4
	c-1.5,0.8-3.1,1.6-4.7,2.4c-1.7,0.9-3.4,1.9-5,3c-1.6,1-3.1,2.1-4.6,3.3s-2.9,2.3-4,3.3c-0.5,0.5-1,1-1.6,1.4
	c-0.5,0.4-0.9,0.7-1.3,1.1l-0.9,0.9h0.3L491.9,218.6z"/>
<path class="st0" d="M490.3,216.8c0.7-0.4,1.4-0.8,2-1.3c0.9-0.4,1.8-0.8,2.6-1.4c0.8-0.6,1.7-1.2,2.6-1.7c0.4-0.4,0.9-0.7,1.4-0.9
	c0.5-0.2,1-0.5,1.4-0.9c0.5-0.3,1-0.6,1.6-0.7c0.6-0.1,1.1-0.4,1.6-0.7c1-0.6,2.1-1.2,3.1-1.7c1-0.4,1.9-0.9,2.8-1.4
	c0.9-0.4,1.9-0.7,2.8-1c0.9-0.3,1.7-0.6,2.6-1c0.7-0.3,1.5-0.5,2.3-0.6c0.3-0.2,0.6-0.3,1-0.3s0.7-0.1,1-0.3h1.1
	c0.1,0,0.3-0.1,0.3-0.2v-0.1h-3.4c-0.9,0-1.7,0.1-2.6,0.3c-1,0.1-1.9,0.3-2.8,0.6c-0.5,0.2-0.9,0.4-1.4,0.4c-0.5,0.1-1,0.2-1.4,0.4
	c-1.1,0.4-2.2,0.8-3.3,1.3c-1,0.5-2.1,1-3.3,1.6c-1,0.6-2,1.1-3,1.7c-1.1,0.6-2.1,1.2-3,2c-1.6,1.1-3.2,2.3-4.6,3.7
	c-1.2,0.8-2.2,1.8-3.1,2.9c-0.4,0.2-0.6,0.3-0.6,0.4s-0.1,0.2-0.3,0.4l-0.3,0.3c0.5-0.3,1-0.5,1.4-0.9
	C489.3,217.4,489.8,217.1,490.3,216.8z"/>
<path class="st0" d="M503.3,212.3c0.4-0.9,0.9-2,1.4-3.1l-1.1,2.3C503.4,211.7,503.3,212,503.3,212.3z"/>
<path class="st0" d="M507.8,206.4c-0.7,0.5-1.4,1-2,1.6c-0.8,0.7-1.6,1.6-2.3,2.4l-4,4l-1.1,1.7l-0.6,0.6c0.2,0,0.4-0.1,0.6-0.3
	c0.5-0.5,1.1-1,1.7-1.4c0.6-0.6,1.3-1.2,2-1.7c0.9-0.7,1.6-1.4,2.3-2.3l2.1-2.1c0.7-0.7,1.3-1.4,1.8-2.1c0.3-0.5,0.7-1,1.1-1.4
	l0.6-0.6c-0.3,0.1-0.6,0.3-0.9,0.6C508.7,205.6,508.3,206,507.8,206.4z"/>
<path class="st0" d="M499.9,211.1h8.1c1.2,0,2.5,0.1,3.7,0.3c1.3,0,2.6,0,3.7-0.1s2.3-0.1,3.4-0.1h6.6c-0.5-0.2-1.1-0.3-1.7-0.3
	h-2.1c-0.9,0-1.8-0.1-2.7-0.3h-3.3c-1.3,0-2.6-0.1-3.8-0.3H508c-1.3,0-2.7-0.1-4-0.3h-14.8c-0.9,0-1.8,0-2.7,0.1
	c-0.7,0.1-1.4,0.1-2.1,0.1h-1.7c0.5,0.2,1.1,0.3,1.7,0.3h4.9c1,0.2,2.1,0.3,3.1,0.3h3.7C497.3,211,498.6,211.1,499.9,211.1z"/>
<path class="st0" d="M521.6,211c-1,0-1.9-0.1-2.8-0.3c-1.1-0.2-2.2-0.3-3.3-0.3c-1.3,0-2.6-0.1-3.8-0.3h-4.3c-1.4,0-2.9-0.1-4.3-0.3
	h-15.7c-1,0-2,0-3,0.1c-0.7,0.1-1.4,0.1-2.1,0.1c0.7,0,1.4,0.1,2.1,0.1c1,0.1,2,0.1,3,0.1c0.9,0,2,0,3.3,0.1
	c1.2,0.1,2.6,0.1,4.1,0.1c1.3,0,2.7,0,4,0.1s2.8,0.1,4.3,0.1l22.8,0.6c-0.7,0-1.3-0.1-2-0.3C523.1,211,522.3,211,521.6,211z"/>
<path class="st0" d="M497.7,227.4c0.3-0.9,0.6-1.8,1-2.7c0.4-1,0.9-2,1.4-3c0.6-1,1.1-2.1,1.4-3.3c0.4-1.3,0.9-2.6,1.4-3.9
	c0.6-1.2,1.1-2.5,1.7-3.9c0.4-1.3,0.9-2.6,1.4-3.9c0.5-1.2,1-2.4,1.4-3.6c0.7-2.3,1.6-4.6,2.6-6.9c0.3-0.8,0.6-1.7,0.9-2.6
	c0.2-0.8,0.4-1.4,0.6-2c0.1-0.6,0.3-1.2,0.6-1.7l-0.9,1.7c-0.4,0.6-0.7,1.3-1,2c-0.3,0.8-0.6,1.6-1,2.6s-0.8,2-1.3,3
	c-0.5,1.1-0.9,2.2-1.3,3.3c-0.6,1.3-1.1,2.6-1.6,3.9c-0.5,1.2-1,2.5-1.6,3.9c-0.4,1.3-0.9,2.6-1.4,3.9c-0.5,1.2-1,2.4-1.4,3.6
	c-1,2.7-1.8,4.9-2.6,6.9c-0.7,1.5-1.3,3-1.7,4.6c-0.2,0.8-0.4,1.4-0.6,2l0.9-1.7C497.2,228.9,497.5,228.2,497.7,227.4z"/>
<path class="st0" d="M495.6,220.4c0.8-0.6,1.5-1.1,2.1-1.7c0.7-0.6,1.4-1.2,2.1-2l2.1-2.1c0.8-0.8,1.5-1.6,2.1-2.4
	c2.9-2.8,5.4-5.8,7.7-9.1c0.4-0.6,0.8-1.2,1.3-1.7c0.5-0.6,0.9-1,1.3-1.4c0.3-0.5,0.6-0.9,0.9-1.4c-0.3,0.4-0.6,0.7-0.9,1.1
	c-0.4,0.4-0.8,0.9-1.3,1.4s-0.9,1.1-1.3,1.7c-1.1,1.3-2.4,2.8-3.7,4.3s-2.8,3.1-4.3,4.8c-2.6,2.9-5.3,5.7-8.3,8.3
	c-0.6,0.5-1.2,1-1.7,1.6c-0.4,0.5-0.7,0.9-1.1,1.3c0.4-0.4,0.8-0.8,1.3-1.1C494.6,221.4,495.1,220.9,495.6,220.4z"/>
<path class="st0" d="M490.8,241.5c1.4-3,2.9-6.3,4.4-9.7c1.5-3.2,3-6.6,4.6-10s3.1-7,4.6-10.6c1.5-3.6,3-7.2,4.6-10.7
	s3-6.9,4.6-10.1c1.5-3.2,2.9-6.4,4.3-9.6c1.3-3.1,2.6-6,3.7-8.7c1.1-2.7,2.1-5.1,3-7.3s1.7-4,2.4-5.6c0.8-1.9,1.2-3.1,1.4-3.7
	l-0.7,1.4l-1,2c-1.1,1.7-2,3.6-2.8,5.4c-1,2.1-2.1,4.5-3.4,7.1c-1.3,2.7-2.7,5.5-4,8.6c-1.3,3-2.8,6.2-4.3,9.4s-3.1,6.6-4.7,10.1
	c-1.6,3.5-3.2,7.1-4.7,10.7s-3.1,7.2-4.6,10.7s-3.1,6.9-4.6,10.1s-2.9,6.4-4.1,9.6c-1.2,3.1-2.4,6-3.6,8.7s-2.1,5.1-2.9,7.4
	c-0.6,2-1.4,3.9-2.3,5.7c-0.3,0.7-0.6,1.5-0.7,2.3c0,0.3-0.1,0.6-0.2,0.9c0.3-0.7,0.8-1.7,1.5-3.1c0.8-1.5,1.6-3.3,2.6-5.4
	s2-4.5,3.1-7.1C488,247.4,489.3,244.6,490.8,241.5z"/>
<path class="st0" d="M512.8,192.7c-0.1,0.2-0.3,0.4-0.4,0.6l-1.1,1.7c-0.4,0.6-0.9,1.3-1.4,2.3c-1,1.7-2,3.7-3.3,6
	c-1.2,2.3-2.4,4.6-3.6,6.9c-1.1,2.5-2.2,4.9-3.3,7.1c-1,2.3-1.9,4.3-2.7,6c-0.7,1.5-1.3,3-1.7,4.6l-0.9,1.7l0.3-0.3
	c0.3-0.3,0.6-0.7,0.9-1.1c0.8-1.5,1.6-2.9,2.6-4.3c0.9-1.5,2-3.4,3.3-5.7s2.4-4.6,3.6-6.9c1.1-2.5,2.2-4.9,3.3-7.1
	c1-2.3,2-4.4,2.7-6.3c0.8-1.7,1.3-3.1,1.7-4.3l0.9-1.7l-0.3,0.3C513.1,192.3,513,192.5,512.8,192.7z"/>
<path class="st0" d="M515,205.9c-0.5,0.3-1,0.6-1.6,1s-1.2,0.8-1.9,1.3s-1.4,0.9-2.1,1.3c-0.3,0.3-0.7,0.6-1.1,0.7
	c-0.4,0.1-0.8,0.4-1.1,0.7c-0.4,0.2-0.8,0.4-1.3,0.6s-0.9,0.4-1.3,0.6s-0.8,0.4-1.3,0.6s-0.9,0.4-1.3,0.6l-1.1,0.6l-1.1,0.6
	c-0.8,0.3-1.7,0.5-2.6,0.6c-0.3,0.2-0.7,0.3-1,0.4s-0.7,0.3-1,0.4c-0.3,0-0.7,0-1,0.1s-0.7,0.1-1,0.1c-0.4,0.2-0.9,0.3-1.4,0.3
	c-0.3,0.2-0.6,0.3-0.9,0.3h-0.3c0,0.1,0.1,0.3,0.2,0.3h0.1h4.6c0.8,0,1.5-0.1,2.3-0.3c0.9-0.1,1.7-0.3,2.6-0.6
	c0.9-0.4,1.8-0.7,2.6-1c0.8-0.3,1.6-0.6,2.6-1c1.5-0.8,3.2-1.7,5.1-2.9c0.7-0.5,1.4-1.1,2-1.7c0.5-0.5,1.1-1,1.7-1.4
	c0.5-0.3,1-0.8,1.3-1.3s0.6-0.9,1-1.3l0.9-0.9l-1.1,0.6C515.9,205.3,515.5,205.6,515,205.9z"/>
<path class="st0" d="M492.3,236.1c0.8-1.2,1.4-2.4,2-3.7c0.6-1.3,1.2-2.8,2-4.3c1.3-2.7,2.6-5.5,3.9-8.4s2.6-5.9,4.1-8.7
	c1.5-3,2.9-6,4.3-9c1.3-3,2.7-5.8,4-8.4c1.3-2.9,2.5-5.6,3.6-8.1s2-5,3-7.3c1-2.1,1.9-4.1,2.7-6c0.7-1.6,1.4-3.2,1.9-4.9
	c0.4-0.5,0.6-1.1,0.7-1.7c0.1-0.5,0.2-1,0.4-1.4l0,0l-1.4,2.9c-0.8,1.3-1.6,2.9-2.4,4.7s-1.9,3.8-3,5.9c-1,2.3-2,4.7-3.3,7.3
	c-1.2,2.6-2.5,5.2-3.9,7.8c-1.5,2.7-3,5.5-4.3,8.4s-2.8,5.9-4.3,8.7c-1.3,3-2.7,6-4,9s-2.7,5.9-4,8.7c-1.1,2.7-2.2,5.3-3.3,8
	c-1,2.7-2,5.1-3,7.4c-1.7,4.6-3,8.3-4,11.1c-0.3,0.6-0.5,1.2-0.6,1.9c0,0.4-0.1,0.9-0.3,1.3l0.6-1.1l0.9-1.7
	c0.2-0.8,0.4-1.5,0.7-2.3c0.3-0.8,0.6-1.6,1-2.6s0.8-2,1.3-3s1-2,1.6-3c0.4-1.2,0.9-2.4,1.4-3.6
	C491.2,238.7,491.7,237.4,492.3,236.1z"/>
<path class="st0" d="M525.1,183.6c-0.6,1-1.3,2-2.1,3.3c-0.9,1.2-1.8,2.6-2.7,4.1c-2.1,3.2-4.4,6.7-6.8,10.3c-1.3,2-2.7,4-4.1,5.9
	c-1.4,1.8-2.9,3.8-4.4,5.8c-1.5,2.1-3,4-4.4,5.9c-1.4,1.8-2.9,3.6-4.4,5.3l-4.3,5.1l-2.1,2.1c-0.7,0.7-1.3,1.4-1.9,2.1l-6.3,6.3
	c1-0.8,2-1.6,2.9-2.6c1.4-1,2.6-2.1,3.7-3.4c1.6-1.2,3.1-2.5,4.4-4c1.4-1.5,2.9-3.1,4.4-4.9c1.5-1.9,3-3.8,4.4-5.6
	c1.4-1.8,2.9-3.8,4.4-5.9c3.1-3.7,5.9-7.6,8.6-11.7c1.3-1.9,2.5-3.8,3.6-5.6c1-1.8,2-3.5,3-5s1.8-2.9,2.6-4.1c0.8-1.2,1.4-2.3,2-3.3
	c0.3-0.3,0.6-0.7,0.7-1.1c0.1-0.4,0.2-0.8,0.4-1.1c-0.2,0.3-0.4,0.7-0.6,1C525.7,182.9,525.4,183.3,525.1,183.6z"/>
<path class="st0" d="M504.3,210.8c-0.1-0.2-0.3-0.3-0.6-0.3L504.3,210.8z"/>
<path class="st0" d="M524,200.9c-0.9,1-1.8,1.9-2.8,2.7l-1.4,1.4c-0.5,0.5-1.1,1-1.7,1.4c-0.6,0.6-1.2,1.1-1.9,1.7
	c-0.7,0.6-1.3,1.1-1.9,1.7l-4.3,3.4l-4.3,3.4c-0.9,0.3-1.7,0.8-2.4,1.4c-0.7,0.6-1.4,1-2.1,1.4c-0.3,0.4-0.8,0.6-1.3,0.7
	s-0.9,0.4-1.3,0.7c-0.7,0.3-1.5,0.6-2.3,0.9c-0.3,0.3-0.7,0.5-1.1,0.6c-0.4,0-0.8,0.1-1.2,0.3c-0.8,0.2-1.5,0.5-2.3,0.9h-1.1
	c-0.2,0-0.5,0-0.7,0.1c-0.1,0.1-0.3,0.2-0.4,0.1h-2.3c-0.3,0-0.7,0-1-0.1s-0.7-0.1-1-0.1c-0.3-0.2-0.6-0.2-0.9-0.3
	c-0.3,0-0.6-0.1-0.9-0.3c-0.5-0.1-1-0.3-1.4-0.6c-0.4,0-0.9-0.2-1.1-0.6l-0.9-0.4c0.3,0.2,0.6,0.4,0.9,0.7l1.1,0.6
	c0.4,0.3,0.9,0.6,1.4,0.9l1.7,0.6c0.6,0.2,1.3,0.3,2,0.3h3.4c0.4,0,0.8-0.1,1.1-0.3c0.9-0.1,1.7-0.3,2.6-0.6
	c0.8-0.1,1.5-0.3,2.3-0.6c0.8-0.5,1.7-0.9,2.6-1.1c0.3-0.3,0.7-0.6,1.1-0.7s0.8-0.4,1.1-0.7c0.9-0.4,1.8-0.8,2.6-1.4
	c0.7-0.5,1.5-1,2.3-1.4l2.3-1.7l2.3-1.7c0.6-0.6,1.2-1.1,1.9-1.7s1.4-1.1,2.1-1.7l6.8-6.9c0.9-0.9,1.8-1.9,2.6-2.7
	c0.8-0.9,1.4-1.6,2-2.1c0.3-0.3,0.5-0.5,0.7-0.9c0.1-0.2,0.3-0.4,0.4-0.6l0.6-0.6l-1.7,1.7C525.4,199.3,524.7,200.1,524,200.9z"/>
<path class="st0" d="M512.8,189.4l-1.6,3.1c-0.4,1.4-0.9,2.7-1.6,4l-2.1,4.3c-0.6,1.5-1.2,3.1-1.9,4.7s-1.4,3.3-2.1,5
	c-0.8,1.5-1.5,3.1-2.1,4.7s-1.3,3.2-1.9,4.7c-0.8,1.5-1.4,3-2,4.4s-1.1,2.8-1.7,4.1c-0.4,1.3-0.8,2.5-1.1,3.4s-0.8,1.8-1.1,2.6
	c-0.4,0.7-0.7,1.5-0.9,2.3l1.1-2.3c0.4-0.8,0.8-1.6,1.1-2.4s0.9-2,1.4-3.3s1.2-2.7,1.9-4c0.7-1.4,1.3-2.8,1.9-4.3
	c0.8-1.5,1.5-3.1,2.1-4.7c0.7-1.6,1.4-3.3,2.1-5c1.5-3.4,2.9-6.7,4-9.7c1.3-2.7,2.5-5.4,3.4-8.3c0.4-1.1,0.8-2.2,1.3-3.3
	c0.5-1,0.9-1.9,1.3-2.7c0.4-0.7,0.7-1.5,0.9-2.3l-1.1,2.3L512.8,189.4z"/>
<path class="st0" d="M503.8,211.3c0.3-0.6,0.6-1.3,0.9-2h-0.3c-0.3,0.9-0.6,1.9-1,2.9C503.5,211.8,503.6,211.5,503.8,211.3z"/>
<path class="st0" d="M510.6,192.7l-1.1,2.9c-0.4,0.9-0.9,2-1.4,3.1c-0.6,1.2-1.1,2.4-1.4,3.7c-0.6,1.3-1.1,2.6-1.7,3.9
	c-0.6,1.2-1.1,2.6-1.7,4.1c-0.3,1.4-0.8,2.8-1.4,4.1c-0.6,1.2-1.1,2.5-1.4,3.9c-0.8,2.5-1.6,4.8-2.6,7.1c-0.7,1.7-1.3,3.4-1.7,5.2
	c-0.2,0.8-0.4,1.4-0.6,2l0.9-1.7c0.4-0.7,0.8-1.4,1-2.1l1-3c0.4-1,0.9-2,1.4-3.1c0.6-1.2,1.1-2.4,1.4-3.7c0.6-1.3,1.1-2.7,1.6-4
	s1-2.8,1.6-4.3c1-2.7,2-5.3,3-8s2-5,2.7-7.1c0.8-2.3,1.6-4.6,2.6-6.9l-0.9,1.7C511.3,191.2,510.9,191.9,510.6,192.7z"/>
<path class="st0" d="M488.3,230.1l1-1.4c0.9-1.3,2-2.8,3.1-4.3c1-1.5,2-3.1,3.3-4.7s2.5-3.2,3.9-4.7c2.3-3,4.8-6.1,7.4-9.1
	c2.1-2.7,4.4-5.3,6.8-7.7c1-1.1,1.9-2.1,2.7-3l2.1-2.1c0.3-0.3,0.5-0.6,0.7-1c0.1-0.3,0.2-0.5,0.4-0.7l-1.4,1.4
	c-0.6,0.6-1.3,1.3-2.3,2.1c-1,0.9-2,1.9-2.8,3c-1.2,1-2.4,2.1-3.4,3.3c-1.1,1.2-2.4,2.6-3.7,4.1s-2.6,3-3.9,4.6
	c-1.2,1.5-2.5,3.1-3.9,4.6c-1.1,1.5-2.3,3.1-3.6,4.7c-1.2,1.6-2.3,3.2-3.3,4.7c-1.1,1.4-2.1,2.9-3,4.4c-0.2,0.3-0.4,0.5-0.5,0.8
	C488.2,229.4,488.3,229.8,488.3,230.1z"/>
<path class="st0" d="M508.4,202.9c0.4-1.4,0.6-2.8,0.7-4.3c0.1-1.3,0.2-2.6,0.4-3.7v-7.2c0,0.2-0.1,0.5-0.1,0.7
	c-0.1,0.3-0.1,0.7-0.1,1c0,0.6,0,1.3-0.1,2.3s-0.2,2-0.4,3.1s-0.3,2.3-0.4,3.6c-0.1,1.4-0.4,2.8-0.7,4.1c-0.4,1.5-0.7,3-1,4.3
	s-0.6,2.8-1,4.3s-0.8,3-1.1,4.4c-0.4,1.4-0.8,2.9-1.1,4.4c-0.4,1.3-0.8,2.6-1.3,3.9s-0.9,2.3-1.3,3.3l-1,3c-0.2,0.8-0.6,1.5-1,2.1
	c-0.2,0.5-0.3,0.9-0.3,1.4l0.6-1.1c0.4-0.7,0.8-1.4,1.1-2.1c0.4-0.9,0.8-1.9,1.1-3c0.4-0.9,0.9-2,1.4-3.3c0.6-1.2,1.1-2.5,1.4-3.9
	c0.4-1.5,0.8-3,1.3-4.4s0.9-2.9,1.3-4.4c0.4-1.5,0.7-3,1-4.4S508.2,204.2,508.4,202.9z"/>
<path class="st0" d="M504.3,210.7c0.1,0,0.3-0.1,0.3-0.2v-0.1l-1.1,0.6c0.2,0,0.3,0,0.4-0.1C504,210.7,504.1,210.7,504.3,210.7z"/>
<path class="st0" d="M501.3,210.6c-0.6,0.7-1.1,1.3-1.7,1.9c-0.6,0.8-1.1,1.4-1.6,2c-0.5,0.5-0.9,1.1-1.3,1.7
	c-0.7,0.8-1.3,1.6-1.7,2.6l-0.6,1.1l0.9-0.9c0.4-0.4,0.7-0.7,1-1.1s0.6-0.9,1-1.4c1-0.9,2-2,3-3.3c1.1-1.3,2.3-2.5,3.6-3.6
	c1-1.4,2.3-2.6,3.7-3.4l1.7-1.7c0.3-0.1,0.6-0.3,0.9-0.6c0.3-0.2,0.5-0.4,0.9-0.6c0.9-0.4,1.8-1,2.6-1.7c-1,0.3-1.9,0.7-2.8,1.1
	c-0.6,0.4-1.2,0.8-1.9,1.3s-1.3,0.9-1.9,1.3c-0.8,0.6-1.5,1.1-2.1,1.7c-0.7,0.6-1.3,1.1-1.9,1.7S501.9,209.9,501.3,210.6z"/>
<path class="st0" d="M490.6,228.1c0.7-1,1.5-2,2.3-3c0.8-1.1,1.6-2.3,2.6-3.6c1-1.2,1.9-2.5,2.9-3.9c1-1.3,2-2.7,3-4
	c1.1-1.4,2.1-2.8,3-4.3c1.1-1.5,2.2-2.9,3.3-4.3s2-2.7,3-4c0.9-1.3,1.9-2.6,2.8-3.7c1-1.1,1.9-2.2,2.8-3.1c0.9-0.9,1.6-1.8,2.3-2.9
	c0.5-0.8,1.1-1.6,1.7-2.3l-4.6,4.6c-1,1-1.9,2-2.8,3.1c-0.9,1.1-1.9,2.4-2.9,3.7c-1.1,1.3-2.2,2.7-3.3,4s-2.1,2.8-3.3,4.3
	c-0.9,1.5-1.9,2.9-3,4.3c-1,1.3-2,2.7-3,4c-1,1.5-1.9,2.9-2.7,4.1s-1.7,2.3-2.4,3.3c-0.8,1.1-1.4,2.2-2,3.1c-0.6,1-1,1.8-1.4,2.6
	c-0.5,0.6-0.9,1.3-1.1,2c0.4-0.6,0.9-1.2,1.4-2L490.6,228.1z"/>
<path class="st0" d="M503.9,212.1c0.2-0.6,0.4-1.2,0.5-1.8c0.4-1.2,0.7-2.3,0.9-3.2c-0.4,1.1-0.8,2.1-1.2,3.2c-0.4,1.1-1,2.6-1.5,4
	L503.9,212.1z"/>
<path class="st0" d="M524.1,213.4c-5.3-3-9.9-7-13.6-11.9c-3.5-4.6-6.3-9.6-8.4-15c-5.1,6.9-9.4,14.4-12.9,22.3
	c-3.6,8.2-5.5,17-5.4,26c7.3-0.1,14.5-2.1,20.8-5.9C511.9,224.8,518.5,219.5,524.1,213.4z"/>
<path class="st0" d="M522.1,162.5c-0.9,2.3-1.8,4.6-2.7,6.9l-25.1,62.8c-4,10.1-7.8,19.5-11.4,28.3l0.3,0.3c0.2-0.7,0.5-1.4,0.9-2
	c0.4-0.8,0.8-1.6,1.1-2.4s0.9-2,1.4-3.3c1.1-3.1,2.4-6.1,3.9-9c1.6-3.3,3.3-7.2,5-11.6c1.9-4.2,3.9-8.7,6-13.6s4.2-9.9,6.3-15.3
	c2.1-5.3,4.3-10.8,6.7-16.4c2.4-5.6,4.7-11.3,7-17c1.2-3.2,2.4-6.4,3.6-9.6C524.1,161.3,523.1,161.9,522.1,162.5z"/>
<path class="st0" d="M521.7,184.2c0.2-1.2,0.4-2.5,0.6-3.9c0.4-2.5,0.7-4.7,0.9-6.6c0.2-1.9,0.4-3.6,0.6-5.1c0-0.6,0-1.2,0.1-1.9
	c0.1-0.4,0.1-0.8,0.1-1.3v-1.1l-0.9,4.3c-0.4,1.5-0.8,3.2-1.1,5.1c-0.4,1.9-0.8,4-1.1,6.3c-0.2,1.3-0.4,2.6-0.6,3.9
	c-0.2,1.3-0.5,2.6-0.9,3.9c-0.4,1.5-0.7,3-1,4.3s-0.6,2.8-1,4.3s-0.8,3-1.3,4.4s-0.9,2.9-1.3,4.4c-0.4,1.5-0.8,3-1.3,4.6
	c-0.5,1.6-1.1,3.1-1.9,4.6c-0.2,1-0.4,1.8-0.6,2.4c-0.2,0.7-0.5,1.5-0.9,2.1c-0.4,0.7-0.7,1.5-1,2.3s-0.6,1.5-1,2.3s-0.7,1.5-1,2.1
	s-0.6,1.4-1,2.1c-0.4,0.6-0.7,1.2-1,1.9c-0.3,0.7-0.6,1.4-1,2.1c-0.9,1.2-1.6,2.5-2.3,3.9c-0.6,1.3-1.4,2.5-2.3,3.6l-1.1,1.7
	l-1.1,1.7c-0.4,0.4-0.8,0.9-1.1,1.4c-0.3,0.5-0.7,1-1.1,1.4c-0.8,1-1.5,1.8-2.1,2.6s-1.4,1.5-2.1,2.3c-0.5,0.7-1.1,1.4-1.7,2
	c-0.7,0.5-1.4,1.1-2,1.7l-3.1,3.2l0.9-0.9c0.4-0.4,0.8-0.7,1.3-1s1-0.6,1.6-1s1.2-0.9,1.7-1.4c0.3-0.3,0.6-0.6,1-0.9s0.7-0.5,1-0.9
	l2.3-2.3l2.6-2.6c0.4-0.4,0.8-0.9,1.1-1.4c0.4-0.6,0.9-1.1,1.4-1.4l1.1-1.7l1.1-1.7c2-2.2,3.6-4.7,4.8-7.4c0.4-0.6,0.8-1.2,1.1-1.9
	s0.8-1.4,1.1-2.1s0.7-1.5,1-2.1s0.6-1.4,1-2.1c0.9-1.4,1.6-3,2-4.6c0.4-0.7,0.6-1.4,0.9-2.1c0.2-0.8,0.5-1.6,0.9-2.4
	c0.6-1.5,1.1-3,1.6-4.6c0.5-1.5,1-3,1.6-4.6c0.4-1.5,0.8-3,1.1-4.6l1.1-4.6c0.4-1.5,0.7-2.9,0.9-4.4s0.5-3,0.9-4.4
	C521.3,186.7,521.5,185.4,521.7,184.2z"/>
<path class="st0" d="M512.3,246.1c4.6-7,8.4-14.5,11.4-22.4c6.2-16.1,10.6-32.8,13.1-49.8c1.1-6.9,1.6-13.8,1.7-20.7
	c-4.2,1.3-9.4,5.1-15.7,11.4c-5.5,5.3-12.6,13.4-21.1,24.1c-8.6,10.7-19,25.7-31.4,45c-0.4,3.2-0.7,6.9-0.9,10.9
	c-0.2,3.8,0,7.6,0.6,11.3c0.4,3.2,1.5,6.2,3.3,8.9c1.5,2.3,4.2,3.7,7,3.6c6.3,0,12.5-2.2,17.4-6.1
	C503.5,257.6,508.4,252.2,512.3,246.1z"/>
<path class="st0" d="M517.1,203c-0.7,0.9-1.5,1.8-2.3,2.6l-2.6,2.6c-1.1,0.9-2.2,1.8-3.1,2.8c-1,0.9-2,1.8-3.1,2.6
	c-1.2,0.7-2.3,1.4-3.4,2.3c-0.5,0.4-1.1,0.7-1.7,1s-1.2,0.6-1.7,1c-1.1,0.5-2.1,1.1-3.1,1.7l-1.7,0.6c-0.5,0.2-1,0.3-1.4,0.6
	c-1.9,0.8-3.5,1.3-4.9,1.7c-0.4,0.2-0.9,0.3-1.4,0.3c-0.1,0-0.3,0.1-0.3,0.2v0.1h0.3c0.5,0,1-0.1,1.4-0.3c0.8-0.2,1.6-0.4,2.4-0.6
	c0.9-0.2,1.8-0.5,2.7-0.9c0.5-0.2,0.9-0.4,1.4-0.4c0.6-0.1,1.2-0.4,1.7-0.7c1.2-0.4,2.3-0.8,3.4-1.4c1.2-0.6,2.3-1.2,3.4-2
	c1.3-0.6,2.6-1.4,3.7-2.3c2.1-1.7,4.1-3.6,6-5.6s3.5-3.8,4.8-5.3c0.8-1,1.4-1.7,1.9-2.3s0.9-1.1,1.3-1.7c0.2-0.2,0.3-0.4,0.4-0.6
	c0.1-0.2,0.3-0.4,0.4-0.6L517.1,203z"/>
<path class="st0" d="M501.3,213.3l2.1-2.1c0.7-0.7,1.3-1.4,1.9-2.1l2.8-2.9l2.8-2.9c-0.3,0.2-0.5,0.4-0.9,0.6
	c-0.4,0.2-0.8,0.4-1.1,0.7c-0.4,0.3-0.8,0.6-1.1,1c-1,1-2,2-3.3,3c-1.2,1-2.6,2.3-4.1,3.9l-2.6,2.6c-0.2,0.5-0.3,1-0.4,1.6
	c-0.1,0.5-0.3,1.1-0.4,1.6c0.8-0.9,1.5-1.8,2.1-2.6C499.8,214.8,500.5,214,501.3,213.3z"/>
<path class="st0" d="M512.7,199.9c0.6-1.1,1-2.3,1.4-3.4c1.3-4.6,2.5-8.3,3.4-11.1c0.2-1,0.5-1.9,0.9-2.9c-0.2,0.4-0.4,0.8-0.6,1.3
	c-0.2,0.5-0.4,1-0.6,1.6c-0.4,1.3-0.9,2.9-1.6,4.9s-1.5,3.9-2.4,6c-0.4,1.1-0.8,2.3-1.3,3.4s-1,2.4-1.6,3.7s-1.1,2.6-1.7,3.9
	s-1.2,2.5-2,3.8c-0.6,1.4-1.3,2.7-2,4c-0.4,0.8-0.7,1.5-1,2.1s-0.6,1.3-1,1.9c-1,1.5-1.8,2.9-2.6,4.1c-0.8,1.2-1.5,2.6-2.3,4.1
	c-1,1.3-1.9,2.6-2.7,3.9s-1.8,2.5-2.7,3.9c-0.4,0.7-0.8,1.4-1.4,2s-1.1,1.3-1.4,2h1.1l2.6-3.4c0.9-1.3,1.9-2.6,2.7-3.9
	c0.9-1.2,1.8-2.5,2.7-3.9c0.9-1.5,1.8-2.9,2.6-4.1c0.8-1.2,1.5-2.6,2.3-4.1l1-2l1-2c0.4-0.8,0.7-1.5,1-2.1c0.3-0.7,0.6-1.4,1-2.1
	c0.8-1.3,1.4-2.6,2-3.9s1.1-2.5,1.7-3.9C511.6,202.3,512.1,201,512.7,199.9z"/>
<path class="st0" d="M508.4,202.9c0.4-1.4,0.6-2.8,0.7-4.3c0.1-1.3,0.2-2.6,0.4-3.7v-7.2c0,0.2-0.1,0.5-0.1,0.7
	c-0.1,0.3-0.1,0.7-0.1,1c0,0.6,0,1.3-0.1,2.3s-0.2,2-0.4,3.1s-0.3,2.3-0.4,3.6c-0.1,1.4-0.4,2.8-0.7,4.1c-0.4,1.5-0.7,3-1,4.3
	s-0.6,2.8-1,4.3s-0.8,3-1.1,4.4c-0.4,1.4-0.8,2.9-1.1,4.4c-0.4,1.3-0.8,2.6-1.3,3.9s-0.9,2.3-1.3,3.3l-1,3c-0.2,0.8-0.6,1.5-1,2.1
	c-0.2,0.5-0.3,0.9-0.3,1.4l0.6-1.1c0.4-0.7,0.8-1.4,1.1-2.1c0.4-0.9,0.8-1.9,1.1-3c0.4-0.9,0.9-2,1.4-3.3c0.6-1.2,1.1-2.5,1.4-3.9
	c0.4-1.5,0.8-3,1.3-4.4s0.9-2.9,1.3-4.4c0.4-1.5,0.7-3,1-4.4S508.2,204.2,508.4,202.9z"/>
<path class="st0" d="M490.3,216.8c0.7-0.4,1.4-0.8,2-1.3c0.9-0.4,1.8-0.8,2.6-1.4c0.8-0.6,1.7-1.2,2.6-1.7c0.4-0.4,0.9-0.7,1.4-0.9
	c0.5-0.2,1-0.5,1.4-0.9c0.5-0.3,1-0.6,1.6-0.7c0.6-0.1,1.1-0.4,1.6-0.7c1-0.6,2.1-1.2,3.1-1.7c1-0.4,1.9-0.9,2.8-1.4
	c0.9-0.4,1.9-0.7,2.8-1c0.9-0.3,1.7-0.6,2.6-1c0.7-0.3,1.5-0.5,2.3-0.6c0.3-0.2,0.6-0.3,1-0.3s0.7-0.1,1-0.3h1.1
	c0.1,0,0.3-0.1,0.3-0.2v-0.1h-3.4c-0.9,0-1.7,0.1-2.6,0.3c-1,0.1-1.9,0.3-2.8,0.6c-0.5,0.2-0.9,0.4-1.4,0.4c-0.5,0.1-1,0.2-1.4,0.4
	c-1.1,0.4-2.2,0.8-3.3,1.3c-1,0.5-2.1,1-3.3,1.6c-1,0.6-2,1.1-3,1.7c-1.1,0.6-2.1,1.2-3,2c-1.6,1.1-3.2,2.3-4.6,3.7
	c-1.2,0.8-2.2,1.8-3.1,2.9c-0.4,0.2-0.6,0.3-0.6,0.4s-0.1,0.2-0.3,0.4l-0.3,0.3c0.5-0.3,1-0.5,1.4-0.9
	C489.3,217.4,489.8,217.1,490.3,216.8z"/>
<path class="st0" d="M491.9,218.6c0.4-0.4,0.8-0.8,1.3-1.1c0.5-0.4,1-0.8,1.6-1.1s1.2-0.8,1.9-1.3s1.5-1,2.4-1.6
	c0.8-0.6,1.5-1.1,2.1-1.7c0.7-0.6,1.5-1.1,2.4-1.4c0.9-0.5,1.7-1.1,2.6-1.7c0.7-0.5,1.5-1,2.3-1.4c0.9-0.3,1.7-0.8,2.4-1.3
	s1.4-0.9,2.1-1.3c1.1-0.5,2.1-1.1,3.1-1.7l1.1-0.6v-0.3c-0.5,0.2-0.9,0.4-1.4,0.6c-1.1,0.4-2.1,0.9-3.1,1.4
	c-1.5,0.8-3.1,1.6-4.7,2.4c-1.7,0.9-3.4,1.9-5,3c-1.6,1-3.1,2.1-4.6,3.3s-2.9,2.3-4,3.3c-0.5,0.5-1,1-1.6,1.4
	c-0.5,0.4-0.9,0.7-1.3,1.1l-0.9,0.9h0.3L491.9,218.6z"/>
<path class="st0" d="M510.7,204.7c0-0.1-0.1-0.1-0.3-0.1l-3.1,3.1c-0.9,0.7-1.7,1.5-2.4,2.3c-0.6,0.7-1.4,1.4-2.1,2
	c-0.7,0.7-1.4,1.3-2.1,1.9c-0.6,0.4-1.1,0.8-1.6,1.3c-0.4,0.5-0.9,0.9-1.4,1.3c-0.2,0.1-0.4,0.3-0.6,0.5l2-1.5
	c0.6-0.4,1.3-0.9,1.9-1.4c0.7-0.6,1.4-1.1,2.1-1.7c0.8-0.6,1.5-1.2,2.3-1.9s1.6-1.5,2.6-2.4c0.6-0.4,1.1-0.9,1.6-1.4
	c0.5-0.6,1-1.1,1.6-1.7C510.8,204.8,510.7,204.8,510.7,204.7z"/>
<path class="st0" d="M523,212.3c2.5-6.4,4.6-12.9,6.3-19.6c1.4-5.5,2.2-11.2,2.3-16.8c0-4.4-1.7-6.6-5.1-6.6
	c-5.5,0-11.5,2.4-17.8,7.1c-6.6,5-12.5,10.9-17.6,17.4c1.9,2.6,3.5,5.4,4.6,8.4c1,2.8,1,4.6,0,5.6c-1,0.8-3.2,2.8-6.9,6.1
	c-4.3,4.1-8.4,8.4-12.3,13c-0.5,5.8,1.3,11.6,4.9,16.1c3.6,4.7,10,7.7,19.1,9c4.7-6.2,8.9-12.7,12.7-19.4
	C516.9,226.1,520.2,219.3,523,212.3z"/>
<path class="st0" d="M523,212.3c2.5-6.4,4.6-12.9,6.3-19.6c1.4-5.5,2.2-11.2,2.3-16.8c0-4.4-1.7-6.6-5.1-6.6
	c-5.5,0-11.5,2.4-17.8,7.1c-6.6,5-12.5,10.9-17.6,17.4c1.9,2.6,3.5,5.4,4.6,8.4c1,2.8,1,4.6,0,5.6c-1,0.8-3.2,2.8-6.9,6.1
	c-4.3,4.1-8.4,8.4-12.3,13c-0.5,5.8,1.3,11.6,4.9,16.1c3.6,4.7,10,7.7,19.1,9c4.7-6.2,8.9-12.7,12.7-19.4
	C516.9,226.1,520.2,219.3,523,212.3z"/>
<path class="st1" d="M776,416.6c-3.7,0-7.3-0.6-10.8-1.7c-5.1-1.6-10-3.7-14.6-6.2c-5.1-2.8-9.9-6.1-14.3-9.9
	c-11.6-10.1-14.1-20.6-14.1-27.7c0-5.8,1.4-10.3,5.9-22c2.7-7,6.1-16,10.5-27.1c1.4-3.6,2.8-7.2,4.3-11.1c-1.7,0.9-3.4,1.6-5.2,2.4
	c-7.7,3.3-15.9,5-24.3,5c-6.6,0-13.3-1.8-21.6-5.8c-6.9-3.4-13.3-7.7-19-12.7c-6.3-5.4-11.7-11.7-16.2-18.7c-1.7,2-3.4,3.9-5.1,5.7
	c-5.2,5.6-10.8,10.6-16.9,15.2c-6,4.5-12.6,8.3-19.6,11.3c-7.7,3.3-15.9,5-24.3,5c-6.6,0-13.3-1.8-21.6-5.8
	c-3.4-1.6-6.6-3.5-9.7-5.5c-11.1,7.5-24.1,11.4-37.5,11.3c-7.3,0-14.8-1.6-22.9-5c-5.5-2.3-10.6-5.2-15.4-8.7
	c-1.6,1.2-3.2,2.4-4.8,3.5c-9.9,6.8-20.4,10.2-31.1,10.2c-17.8,0-33.6-5.4-47-16.1c-2.1-1.7-4.2-3.5-6.3-5.4c-2,1.8-3.9,3.4-5.7,5
	c-4.5,3.8-9.3,7.2-14.3,10.1c-7.6,4.4-14.8,6.5-22.3,6.5c-7.1-0.1-14.1-2-20.2-5.5c-4.6-2.5-9-5.5-12.9-9c-1.5-1.3-2.9-2.7-4.3-4.1
	c-2.5,1.9-5,3.7-7.6,5.4c-13.1,8.8-26.4,13.2-39.5,13.2c-8.5,0-16.8-2.2-24-6.6c-3.7-2.2-7.2-4.9-10.3-8c-3.3,2.5-6.7,4.8-10.3,6.9
	c-9,5.1-18.2,7.7-27.3,7.7c-5.7-0.1-11.3-1.2-16.5-3.5c-3,1-6.1,1.4-9.2,1.5c-0.9,0-2.1,0-7.7-0.3l-13.5-0.7
	c-5.2-0.3-11.3-0.5-18.1-0.7s-13.9-0.3-20.9-0.3s-14.3,0.1-21.5,0.4c-6.5,0.2-12.6,0.7-18.1,1.3c-2.1,0.4-4,0.7-5.8,0.9l-2.6,0.4
	c-2.1,0.5-4.2,0.7-6.3,0.7h-0.9c-9.2,0-17.3-2.7-23.7-7.8c-3.1-1.7-6.1-3.6-9-5.8C8.6,294.5,6.6,282,6.6,275.4
	c0-5.8,1.4-10.2,5.7-21.6c2.7-6.9,6.2-15.7,10.6-26c4.2-10.1,9.1-21.5,14.5-34.2c5.5-12.9,11.2-26,17-39s11.6-26,17.5-38.7
	s11-23.7,15.5-33.3c4.7-10,8.7-18.2,11.9-24.3c4.7-9,12.5-24.2,30.9-24.2c6.3,0,15.7,1.7,24.8,10c3,2.7,5.8,5.6,8.4,8.8
	c3.2,3.8,6.1,7.9,8.6,12.3l4.1,7c2.5,4.2,2.6,9.4,0.2,13.7l-3.9,7.1c-7.1,13.1-14.5,27.9-21.9,43.8c-7.6,16.2-14.9,32.7-21.9,49
	c-7,16.5-13.6,32.4-19.6,47.2h2.2c8,0,16,0,23.9,0.1l13.7,0.2l0.1-0.3c2.9-7.4,6.4-15.8,10.5-24.9c3.9-8.9,8.2-18.2,12.8-27.9
	c4.5-9.5,8.6-18.3,12.4-26.5c3.7-8,6.8-14.9,9.3-20.5c1.4-3.1,2-4.9,2.3-5.7c2.6-14.4,15.1-24.9,29.7-25c7.6,0,14.8,2.7,21.4,7.9
	c2.9,2.4,5.6,4.9,8,7.7c2.6,2.9,4.9,5.9,7.1,9.1c0.4,0.6,0.8,1.2,1.2,1.8l2.7-4.2c6.1-9.5,14.5-22.6,31.4-22.6
	c10.7-0.1,20.8,4.6,27.7,12.8c3.6,4.3,6.6,9.2,8.7,14.4c0.4,1,0.8,2,1.1,3c1.7-3.2,3.3-6,4.8-8.6c3.7-6.3,6.8-10.4,10.2-13.6
	c5.4-5.1,12.6-8,20-8c5.4,0,10.8,0.9,16,2.6c5,1.5,9.7,3.7,14.2,6.4c4.8,3,9.1,6.8,12.7,11.3c3.7,4.6,6.3,9.9,7.6,15.7l3.2-4.8
	c6.2-9.4,11.5-17.3,15.8-23.4c5.9-8.4,14.7-21.1,31.2-21.1c5.5,0,16.2,1.6,25.3,11.9c2.1,2.4,4,5,5.6,7.8
	c3.9-8.9,7.8-17.6,11.5-25.8c5-11,9.5-20.9,13.4-29.3s7-15.2,9.4-20.4c0.8-1.8,1.4-3.1,1.8-4.1c3-14.3,15.7-24.5,30.4-24.4
	c8.9,0,15.6,4.1,18.8,6.1c8,5.1,15,11.7,20.5,19.5c5.1,6.9,7.8,15.3,7.9,23.9c0,6.8-2.1,12.8-6,21.5c-2.5,5.6-5.7,12.6-9.4,20.7
	c-3.1,6.8-6.6,14.2-10.3,22.1c6.8-5.2,14.1-9.6,21.9-13.1c10.1-4.5,19.5-6.8,28.5-6.8c8.5,0,16.8,2.9,25.4,8.9
	c7,5,13,11.2,17.7,18.3c3.1,4.6,5.8,9.5,8.1,14.6c5.3-7.6,11.7-14.4,18.9-20.2c7.4-6,15.5-11,24.1-14.8c10.1-4.5,19.5-6.7,28.5-6.7
	c8.4,0,16.8,2.9,25.4,8.9c7,5,13,11.2,17.7,18.3c2.1,3.1,3.9,6.2,5.6,9.5l0.2-0.6c1.4-3.9,2.1-6.2,2.5-7.4c0.2-4.7,1.4-9.4,3.4-13.7
	c5-11,15.9-18,28-18h0.6h0.7c9.1,0.4,17.6,4.2,25.2,11.2c0.8,0.8,1.6,1.5,2.4,2.4c7.8-4.6,15.5-6.9,23.3-6.9
	c8.5,0.1,16.7,2.7,23.6,7.6c6.8,4.8,12.4,11.2,16.2,18.5c3.9,7.4,6.6,15.3,8.3,23.4c0.8,3.8,1.4,7.7,1.8,11.6
	c3.7-1.4,7.6-2.1,11.5-2.1c3.1,0,6.2,0.5,9.2,1.3c7.7,2.3,14.6,6.9,19.9,13c4.4,5,7.8,10.7,10.1,16.9c4,10.6,3.5,21.5-1.4,30.8
	c-5.3,10.1-11.4,19.8-18.2,29c-8.3,11.2-17.8,21.5-28.4,30.5c-11.7,10-24.9,18.2-39,24.5c-15.6,7-33.1,10.7-51.9,10.9h-2.3h-0.6
	c-7.9-0.3-15.7-2.1-23-5.3l-0.8-0.4l-0.7,1.9c-5.3,14.2-10,27.2-14.2,38.7s-7.4,20.9-9.9,28.4c-1.6,4.9-2.3,7.4-2.6,8.5
	C804.3,405.3,791.6,416.6,776,416.6z"/>
<path class="st0" d="M524.1,213.4c-5.3-3-9.9-7-13.6-11.9c-3.5-4.6-6.3-9.6-8.4-15c-5.1,6.9-9.4,14.4-12.9,22.3
	c-3.6,8.2-5.5,17-5.4,26c7.3-0.1,14.5-2.1,20.8-5.9C511.9,224.8,518.5,219.5,524.1,213.4z"/>
<path class="st0" d="M512.7,199.9c0.6-1.1,1-2.3,1.4-3.4c1.3-4.6,2.5-8.3,3.4-11.1c0.2-1,0.5-1.9,0.9-2.9c-0.2,0.4-0.4,0.8-0.6,1.3
	c-0.2,0.5-0.4,1-0.6,1.6c-0.4,1.3-0.9,2.9-1.6,4.9s-1.5,3.9-2.4,6c-0.4,1.1-0.8,2.3-1.3,3.4s-1,2.4-1.6,3.7s-1.1,2.6-1.7,3.9
	s-1.2,2.5-2,3.8c-0.6,1.4-1.3,2.7-2,4c-0.4,0.8-0.7,1.5-1,2.1s-0.6,1.3-1,1.9c-1,1.5-1.8,2.9-2.6,4.1c-0.8,1.2-1.5,2.6-2.3,4.1
	c-1,1.3-1.9,2.6-2.7,3.9s-1.8,2.5-2.7,3.9c-0.4,0.7-0.8,1.4-1.4,2s-1.1,1.3-1.4,2h1.1l2.6-3.4c0.9-1.3,1.9-2.6,2.7-3.9
	c0.9-1.2,1.8-2.5,2.7-3.9c0.9-1.5,1.8-2.9,2.6-4.1c0.8-1.2,1.5-2.6,2.3-4.1l1-2l1-2c0.4-0.8,0.7-1.5,1-2.1c0.3-0.7,0.6-1.4,1-2.1
	c0.8-1.3,1.4-2.6,2-3.9s1.1-2.5,1.7-3.9C511.6,202.3,512.1,201,512.7,199.9z"/>
<path class="st0" d="M510.7,204.7c0-0.1-0.1-0.1-0.3-0.1l-3.1,3.1c-0.9,0.7-1.7,1.5-2.4,2.3c-0.6,0.7-1.4,1.4-2.1,2
	c-0.7,0.7-1.4,1.3-2.1,1.9c-0.6,0.4-1.1,0.8-1.6,1.3c-0.4,0.5-0.9,0.9-1.4,1.3c-0.2,0.1-0.4,0.3-0.6,0.5l2-1.5
	c0.6-0.4,1.3-0.9,1.9-1.4c0.7-0.6,1.4-1.1,2.1-1.7c0.8-0.6,1.5-1.2,2.3-1.9s1.6-1.5,2.6-2.4c0.6-0.4,1.1-0.9,1.6-1.4
	c0.5-0.6,1-1.1,1.6-1.7C510.8,204.8,510.7,204.8,510.7,204.7z"/>
<path class="st0" d="M500.5,212.7c0.4-1.2,0.8-2.3,1.4-3.4c0.6-1.1,1.2-2.3,1.9-3.4c0.7-1.1,1.3-2.3,1.9-3.4l4.3-6.9
	c0.8-1.1,1.5-2.2,2.3-3.3s1.5-2,2.3-3l-0.9-2.6l-0.9,0.9c-0.8,1.1-1.5,2.2-2.3,3.3s-1.6,2.3-2.3,3.6l-4.2,6.9
	c-0.8,1.3-1.4,2.6-2,3.7l-1.7,3.4c-0.3,0.6-0.6,1.3-0.9,2c-0.2,0.6-0.4,1.1-0.6,1.7c-0.4,0.5-0.6,1.1-0.7,1.7s-0.4,1.2-0.7,1.7
	c-0.4,1.1-0.7,2.2-1,3.3c-0.3,1-0.6,2-1,3c-0.2,0.8-0.5,1.7-0.9,2.9c0,0.5-0.1,1-0.1,1.4c-0.1,0.5-0.1,1-0.1,1.4
	c-0.3,1.4-0.5,2.8-0.6,4.3c-0.2,0.5-0.2,1-0.1,1.6c0.1,0.4,0.1,0.9,0.1,1.3c0.2-0.9,0.3-1.9,0.3-2.9c0.2-0.6,0.3-1.2,0.4-1.9
	c0.1-0.8,0.4-1.6,0.7-2.4c0.2-0.9,0.4-1.9,0.6-2.7c0.2-0.9,0.5-1.8,0.9-2.7c0.6-2,1.4-4.1,2.3-6L500.5,212.7z"/>
<path class="st0" d="M502,212.8c0.3-1,0.6-2,1-3c0.5-2.1,1.2-4.1,2.3-6c0.4-0.9,0.8-1.8,1.1-2.6s0.8-1.6,1.1-2.6
	c0.3-0.6,0.6-1.3,0.7-2c0.1-0.5,0.3-1,0.7-1.4c-0.4,0.4-0.7,0.9-1,1.4c-0.3,0.6-0.6,1.2-1,1.7c-1,1.6-1.9,3.4-2.6,5.1
	c-0.4,1-0.8,1.9-1.3,2.9c-0.5,0.9-0.9,1.9-1.3,2.9s-0.7,2.1-0.9,3.1c-0.2,1.1-0.5,2.1-0.9,3.1c-0.3,0.9-0.5,1.9-0.6,2.9
	c0,0.4,0,0.9-0.1,1.3s-0.1,0.8-0.1,1.3c-0.2,0.7-0.3,1.5-0.3,2.3v2.9c0-0.2,0-0.3,0.1-0.4s0.1-0.3,0.1-0.7c0-0.6,0-1.1,0.1-1.7
	s0.2-1.3,0.4-2.3c0.4-1.7,0.8-3.4,1.1-5.1C501.4,214.8,501.7,213.8,502,212.8z"/>
<path d="M574.6,194.5l-0.5,0.8c-4,5.8-7.5,12-10.7,18.3c-2.1,4.2-4,8.6-5.7,13c-2.9,5-5.8,9.8-9,14.5c-3.4,5.2-7.2,10-11.4,14.6
	c-3.6,4-7.8,7.4-12.4,10.3c-3.9,2.5-8.4,3.8-13,3.9c-4.4,0-6.6-1.9-6.6-5.7c0-5.7,1.2-13,3.6-21.7s5.5-18.4,9.3-29
	s8.2-21.7,13.1-33.3c4.9-11.6,9.9-23.1,15-34.4c5-11.3,10-22.2,15-32.7s9.3-19.9,13.1-28.1c3.8-8.3,6.9-15.1,9.3-20.4
	c2.4-5.3,3.6-8.7,3.6-10c-0.1-2.7-1-5.4-2.7-7.6c-1.7-2.5-3.8-4.8-6-6.9c-1.9-1.8-4-3.4-6.3-4.9c-2-1.2-3.3-1.9-3.8-1.9
	c-1.9,0-2.9,1.1-2.8,3.4c0,0.4-1.2,3.2-3.6,8.4c-2.4,5.2-5.5,12.1-9.4,20.5s-8.3,18.2-13.3,29.1s-10,22.4-15.3,34.4
	c-5.2,12-10.3,24.1-15.2,36.2c-4.9,12.2-9.3,23.7-13.2,34.7l-1.6,3.1c-2.2,4.3-4.8,9.1-7.9,14.4c-3,5.3-6.4,10.9-10,16.7
	c-3.4,5.5-7.1,10.8-11,15.8c-3.3,4.3-6.9,8.2-11,11.7c-3.6,3-7,4.6-10,4.6c-5,0-10.2-2.7-15.7-8s-10.7-12.9-15.7-22.5
	c8.6-10.3,17-20.8,25.4-31.7c8.4-10.8,15.8-20.8,22.4-30c6.6-9.1,11.8-16.9,15.8-23.3c4-6.4,6-10.1,6-11.3c0-2.4-0.4-4.7-1-7
	c-0.6-2.5-1.6-5-2.7-7.3c-1-2-2.2-3.9-3.7-5.7c-1.3-1.5-2.7-2.3-4-2.3c-1.1,0-3.8,3-8,9s-9.3,13.6-15.4,22.8s-12.9,19.5-20.5,30.8
	s-15.5,22.3-23.7,33c-3.2-10-5.6-20.3-7.3-30.7c-1.9-11.9-2.8-23.8-2.7-35.8c0-2.2-0.8-4.3-2.3-6c-1.6-2-3.5-3.7-5.7-5
	c-2.4-1.5-4.9-2.6-7.6-3.4c-2.4-0.8-5-1.2-7.6-1.3c-0.2,0-0.5,0.2-0.9,0.6c-1.1,1-2.8,3.2-4.9,6.9s-4.4,7.9-7,12.9s-5.2,10.3-8,16
	s-5.3,11.1-7.5,16.1c-2.3,5-15.9,28.8-20.5,35c-5.4,7.2-11.2,14-17.5,20.4c-5,5.2-10.6,9.8-16.7,13.7c-5.4,3.3-10.4,5-15,5
	c-0.8,0-0.3-2.4,1.3-7.3s3.9-11,6.7-18.4c2.9-7.4,6-15.5,9.4-24.3s6.7-16.9,9.8-24.6c3-7.6,5.6-14.1,7.7-19.6s3.2-8.6,3.4-9.6
	c-0.1-1.9-0.2-3.8-0.6-5.7c-0.4-2.6-1.1-5.1-2.1-7.6c-1-2.4-2.3-4.7-4-6.7c-1.5-1.8-3.8-2.9-6.1-2.9c-1,0-3.5,3.2-7.6,9.6
	c-4.1,6.4-9.1,14.3-15.1,23.8s-12.7,19.9-20,31.1c-7.3,11.2-14.7,21.6-22,31.1c-6.4,8.5-13.4,16.4-21,23.8
	c-6.7,6.4-12.4,9.6-17.1,9.6c0.2-2.1,1.5-6.1,4-12s5.5-12.7,9-20.3c3.5-7.6,7.3-15.6,11.4-24c4.1-8.4,7.9-16.2,11.4-23.4
	s6.5-13.3,9-18.3c2.5-4.9,3.7-7.9,3.7-8.9c-0.1-1.5-0.6-2.9-1.3-4.1c-1-2-2.1-3.9-3.3-5.7c-1.4-2.1-2.9-4-4.6-5.9
	c-1.4-1.6-3-3.2-4.7-4.6c-1-1-2.3-1.6-3.7-1.7c-1,0-1.7,0.8-1.9,2.3c-0.2,1.7-1.6,5.5-4.1,11.4c-2.6,5.9-5.8,12.9-9.6,21.1
	c-3.8,8.2-7.9,17-12.4,26.6c-4.5,9.5-8.7,18.6-12.6,27.4c-3.9,8.8-7.2,16.7-10,23.7s-4.2,12.2-4.4,15.4c-0.1,1.2-0.1,2.3-0.1,3.5
	H170c-3.7-0.2-8.6-0.3-14.6-0.4s-12.8-0.2-20.6-0.3c-7.7-0.1-15.6-0.1-23.6-0.1H87.8c-7.7,0-14.6,0.1-20.7,0.3
	c4.4-10.9,9.6-23.9,15.7-39.1c6.1-15.2,12.7-31.2,19.8-47.9c7.1-16.7,14.6-33.4,22.3-49.9s15.3-31.6,22.7-45.3c-1.8-3-3.8-5.9-6-8.6
	c-1.7-2.1-3.6-4-5.6-5.8s-3.9-2.7-5.9-2.7c-0.8,0-2.7,3-5.7,8.8c-3,5.9-6.9,13.7-11.4,23.4c-4.6,9.7-9.7,20.7-15.4,33.1
	s-11.5,25.1-17.2,38.3c-5.8,13.1-11.4,26-16.8,38.7c-5.4,12.7-10.3,24-14.5,34.1c-4.3,10.1-7.7,18.5-10.3,25.1
	c-2.6,6.7-3.9,10.5-3.8,11.4c0,2.3,1.3,4.4,4,6.4c2.6,2,5.5,3.7,8.6,5c1.1,1.9,3.5,2.8,7.1,2.8h0.9c0.1,0,0.3-0.1,0.3-0.2V289
	l4.7-0.6c1.6-0.2,3.5-0.5,5.6-0.9c6.5-0.8,13.5-1.3,21.1-1.6c7.6-0.3,15.1-0.4,22.5-0.4s14.7,0.1,21.7,0.3s13.3,0.4,18.8,0.7
	l13.6,0.7c3.5,0.2,5.6,0.3,6.1,0.3c0.9,0,1.9-1.2,2.7-3.6c0.9-2.7,1.7-5.4,2.3-8.2c0-0.2,0.1-0.3,0.1-0.5c1.3,2.2,2.8,4.2,4.6,6
	c2.4,2.5,5.3,4.6,8.4,6.1c2.3,1.3,4.9,2,7.6,2.1c4.2,0,8.6-1.3,13.3-4c5.2-3,10-6.7,14.3-10.9c5.2-5,10.1-10.3,14.7-15.8
	c4.9-6,9.9-12.4,14.8-19.3c-2.3,6.3-4.1,11.7-5.4,16.1c-1,3-1.8,6.1-2.3,9.3c-0.1,2.5,0.3,5.1,1.3,7.4c1.1,2.9,2.6,5.7,4.6,8.1
	c2,2.6,4.5,4.8,7.3,6.4c2.8,1.7,6.1,2.6,9.4,2.6c7.4,0,15.3-2.8,23.7-8.4c8.8-6,17-13,24.4-20.7c7.9-8.2,15.3-16.9,22-26.1
	c3.6-5,19.6-33.2,21.1-36.5c2-4.5,4-9,5.9-13.7s3.7-8.9,5.4-12.7c1.5,10.2,3.5,20.4,6,30.4c2.7,10.7,6.1,21.3,10.3,31.5
	c-7.5,8.7-15.9,16.7-25,23.8c-8.1,6.2-15.5,9.3-22.1,9.3c-1.3,0-2.5-0.2-3.7-0.6c-1-0.4-2.1-0.5-3.1-0.6c-0.8,0-1.6,0.2-2.3,0.7
	c-0.6,0.5-0.9,1.6-0.9,3.3s0.8,3.8,2.4,6.1c1.7,2.5,3.7,4.7,6,6.7s4.9,3.8,7.6,5.3c2.1,1.3,4.4,2,6.9,2.1c2.3,0,5-0.9,8.1-2.7
	c3.7-2.2,7.2-4.7,10.4-7.4c3.8-3.1,7.9-6.9,12.3-11.3s8.9-9.1,13.7-14.3c5.6,9.8,12.9,18.6,21.7,25.7c8.3,6.7,18.7,10.2,29.4,10
	c4.9,0,10-1.8,15.1-5.3c5.5-3.9,10.6-8.4,15-13.6c2.4-2.7,4.7-5.5,7-8.5c0.6,1.6,1.4,3.1,2.2,4.5c2.8,4.5,6.2,8.5,10.1,12
	c3.8,3.3,8.1,6,12.8,8c3.8,1.7,7.9,2.7,12,2.9c8.9,0.1,17.6-3,24.5-8.6c4.8-3.8,9.2-8.1,13.2-12.8c2.6,3.6,5.6,6.9,9,9.8
	c3.8,3.4,8.1,6.3,12.7,8.6c4.2,2,7.3,3,9.4,3c4.6,0,9.2-1,13.4-2.9c4.8-2,9.4-4.7,13.6-7.9c4.7-3.6,9.1-7.5,13.1-11.9
	c4.4-4.7,8.6-9.7,12.4-14.8c0.9,0.2,1.8,0.3,2.7,0.3h2.7c9.3,0.1,18.5-1.9,26.9-5.9c0,0.7,0,1.3,0,1.9c-0.1,5.9,1.6,11.6,4.7,16.6
	c3.1,4.9,6.8,9.2,11.1,13c3.8,3.4,8.1,6.3,12.7,8.6c4.2,2,7.3,3,9.4,3c4.6,0,9.2-1,13.4-2.9c4.8-2,9.4-4.7,13.6-7.9
	c4.7-3.6,9.1-7.5,13.1-11.9c4.4-4.7,8.6-9.7,12.4-14.8c0.9,0.2,1.8,0.3,2.7,0.3h2.7c9.7,0.1,19.2-2.1,27.8-6.4l-2.6,6.4
	c-5.8,14.5-11.5,28.5-17,42.2s-10.4,26.1-14.7,37.1s-7.8,20-10.4,27c-2.7,7-4,10.9-4,11.9c0,1.7,1.4,3.8,4.3,6.3
	c2.9,2.5,6,4.6,9.3,6.4c2.9,1.6,6.1,3,9.3,4c2.9,0.9,4.3,0.6,4.3-0.7c0-1.7,1.3-6.5,3.8-14.3s5.9-17.5,10.1-29.1
	c4.2-11.6,8.9-24.6,14.3-39c5.3-14.4,10.7-28.9,16.3-43.5c1.6,3.6,3.5,7,5.6,10.3c2.1,3.4,4.7,6.5,7.7,9.1c3,2.7,6.4,4.9,10.1,6.6
	c4,1.7,8.2,2.7,12.6,2.9h1.4c15-0.2,28.6-3,40.7-8.4c11.6-5.1,22.4-11.9,32.1-20.1c9-7.6,17-16.2,24-25.7c6-8,11.3-16.5,16-25.4
	c1.1-2.1,1.1-4.7,0-7.7s-2.8-5.7-4.8-8.1c-1.7-2.1-4-3.7-6.6-4.6c-2.3-0.7-4.1,0.3-5.4,3c-2.6,5.2-5.4,10.3-8.5,15.3
	c-3.5,5.7-7.5,11.1-11.8,16.3c-4.7,5.6-9.9,10.8-15.4,15.6c-5.8,5-12.1,9.4-18.8,13.1c3.1-5.8,5.8-11.8,8.1-18
	c2.4-6.3,4.4-12.6,6.1-18.8c1.7-6,3-12.1,4-18.3c0.9-5.4,1.4-10.8,1.4-16.3c0.1-8-0.6-16-2.1-23.8c-1.1-5.5-2.9-10.8-5.4-15.8
	c-1.7-3.4-4.2-6.4-7.3-8.7c-2.2-1.7-4.9-2.6-7.7-2.7c-5,0-11,3.4-18.1,10.1c-8.1,7.9-15.7,16.3-22.7,25.3c2.1-5.7,3.7-10.4,4.7-14.1
	c0.7-2.3,1.3-4.6,1.6-7c0-2.3-1.1-5.1-3.3-8.6c-2-3.2-4.4-6.1-7.1-8.7c-2.6-2.4-4.9-3.6-7.1-3.7c-2.2-0.1-3.3,2.1-3.2,6.7
	c0,1.5-1.3,6-4,13.6c-2.7,7.5-6.1,16.9-10.4,28.1c-2.1,5.6-4.4,11.6-6.9,17.9c-2.8,4.9-5.9,9.7-9.2,14.5c-4.2,6-9.2,11.5-14.7,16.4
	c-5,4.5-11,7.7-17.6,9.1c4.4-8.3,8-16.9,10.8-25.8c2.5-7.5,3.9-15.4,4-23.3c0.1-7.6-1.1-15.1-3.6-22.3c-2.1-6-4.9-11.8-8.4-17.1
	c-2.8-4.3-6.3-8-10.4-11c-3.7-2.6-6.8-3.9-9.3-3.9c-5,0-10.6,1.4-17,4.3c-6.4,2.9-12.4,6.6-17.8,11c-5.4,4.3-10.1,9.4-14,15.1
	c-3.1,4.3-5,9.4-5.6,14.7c-2.3,4-4.8,8.6-7.5,13.7c-3.5,6.6-7.4,12.9-11.7,19c-4.2,6-9.2,11.5-14.7,16.4c-5,4.5-11,7.7-17.6,9.1
	c4.4-8.3,8-16.9,10.9-25.8c2.5-7.5,3.9-15.4,4-23.3c0.1-7.6-1.1-15.1-3.6-22.3c-2.1-6-4.9-11.8-8.4-17.1c-2.8-4.3-6.3-8-10.4-11
	c-3.7-2.6-6.8-3.9-9.3-3.9c-5,0-10.6,1.4-17,4.3c-6.4,2.9-12.4,6.6-17.8,11c-5.4,4.3-10.1,9.4-14,15.1c-3.8,5.6-5.7,11.2-5.7,16.7
	v5.4c-3.2,3.9-6.6,8.3-10,13.2 M286.5,195.8c0.4-1.6,1-3.1,1.7-4.6c0.8-1.9,1.6-4.2,2.6-6.9c0.4-1.2,0.9-2.4,1.4-3.6
	c0.6-1.2,1.1-2.5,1.4-3.9c0.6-1.3,1.1-2.6,1.6-3.9c0.5-1.2,1-2.5,1.6-3.9c0.4-1.1,0.8-2.2,1.3-3.3c0.5-1,0.9-2,1.3-3s0.7-1.8,1-2.6
	c0.3-0.7,0.6-1.4,1-2l0.9-1.7c-0.2,0.5-0.4,1.1-0.6,1.7c-0.2,0.6-0.4,1.2-0.6,2c-0.2,0.9-0.5,1.7-0.9,2.6c-1,2.2-1.9,4.5-2.6,6.9
	c-0.4,1.2-0.9,2.4-1.4,3.6c-0.6,1.2-1.1,2.5-1.4,3.9c-0.6,1.3-1.1,2.6-1.7,3.9c-0.6,1.2-1.1,2.5-1.4,3.9c-0.4,1.1-0.9,2.2-1.4,3.3
	c-0.5,1-1,2-1.4,3s-0.7,1.9-1,2.7c-0.2,0.8-0.6,1.5-1,2.1l-0.9,1.7C286.2,197.2,286.4,196.6,286.5,195.8L286.5,195.8z M89.4,163.3
	c-0.4,0.8-0.8,1.7-1.3,2.7c-0.5,1.1-0.9,2.2-1.3,3.3c-0.9,2.8-2.1,5.6-3.4,8.3c-1.1,3-2.5,6.3-4,9.7c-0.8,1.7-1.5,3.4-2.1,5
	s-1.4,3.2-2.1,4.7c-0.5,1.5-1.2,2.9-1.9,4.3c-0.7,1.3-1.3,2.7-1.9,4s-1,2.4-1.4,3.3c-0.4,0.9-0.8,1.7-1.1,2.4l-1.1,2.3
	c0.2-0.8,0.5-1.6,0.9-2.3c0.4-0.8,0.8-1.6,1.1-2.6s0.8-2.1,1.1-3.4c0.6-1.3,1.1-2.7,1.7-4.1s1.2-2.9,2-4.4c0.6-1.5,1.2-3.1,1.9-4.7
	c0.7-1.6,1.4-3.2,2.1-4.7c0.8-1.7,1.5-3.4,2.1-5c0.7-1.6,1.3-3.2,1.9-4.7l2.1-4.3c0.6-1.3,1.2-2.6,1.6-4l1.6-3.1l1.3-2.6l1.1-2.3
	C90.1,161.8,89.7,162.6,89.4,163.3z M65.1,211c-1,2.1-1.8,3.9-2.6,5.4c-0.8,1.5-1.3,2.6-1.5,3.1c0.1-0.3,0.2-0.6,0.2-0.9
	c0.2-0.8,0.4-1.5,0.7-2.3c0.9-1.8,1.7-3.7,2.3-5.7c0.8-2.3,1.7-4.8,2.8-7.4s2.3-5.6,3.6-8.7c1.2-3.1,2.6-6.3,4.1-9.6
	c1.5-3.2,3.1-6.6,4.6-10.1s3-7.1,4.6-10.7c1.5-3.6,3.1-7.2,4.7-10.7s3.2-6.9,4.7-10.1c1.5-3.2,3-6.4,4.3-9.4s2.7-5.9,4-8.6
	c1.3-2.7,2.5-5,3.4-7.1c0.8-1.9,1.8-3.7,2.8-5.4l1-2l0.7-1.4c-0.2,0.6-0.7,1.8-1.4,3.7c-0.8,1.5-1.6,3.4-2.4,5.6s-1.9,4.6-3,7.3
	s-2.4,5.6-3.7,8.7c-1.3,3.1-2.8,6.3-4.3,9.6c-1.5,3.2-3.1,6.6-4.6,10.1s-3,7.1-4.6,10.7c-1.5,3.6-3.1,7.1-4.6,10.6
	c-1.5,3.4-3,6.8-4.6,10c-1.5,3.4-3,6.7-4.4,9.7s-2.7,5.9-3.8,8.6C67.1,206.5,66.1,208.9,65.1,211z M113.6,279.5h-4.8
	c-0.6,0-1.2-0.1-1.7-0.3h1.7c0.7,0,1.4-0.1,2.1-0.1c0.9-0.1,1.8-0.1,2.7-0.1h14.8c1.3,0.2,2.7,0.3,4,0.3h3.7
	c1.3,0.2,2.6,0.3,3.9,0.3h3.3c0.9,0.2,1.8,0.2,2.7,0.2h2.1c0.6,0,1.2,0.1,1.7,0.3h-6.6c-1.1,0-2.3,0-3.4,0.1
	c-1.1,0.1-2.4,0.1-3.7,0.1c-1.2-0.2-2.5-0.3-3.7-0.3h-8.1c-1.3,0-2.6-0.1-3.9-0.3h-3.7C115.7,279.7,114.7,279.6,113.6,279.5z
	 M141.9,283.5c-1.5,0-3,0-4.3-0.1s-2.7-0.1-4-0.1c-1.5,0-2.9,0-4.1-0.1s-2.3-0.1-3.3-0.1s-2,0-3-0.1c-0.7-0.1-1.4-0.1-2.1-0.1
	c0.7,0,1.4-0.1,2.1-0.1c1-0.1,2-0.1,3-0.1h15.7c1.4,0.2,2.8,0.3,4.3,0.3h4.3c1.3,0.2,2.6,0.3,3.9,0.3c1.1,0,2.2,0.1,3.3,0.3
	c0.9,0.2,1.9,0.3,2.9,0.3c0.8,0,1.5,0.1,2.3,0.3c0.7,0.2,1.3,0.3,2,0.3L141.9,283.5z M215.8,257.6c0.5-0.6,1.1-1.1,1.7-1.6
	c2.9-2.6,5.7-5.3,8.3-8.3c1.5-1.7,2.9-3.3,4.3-4.9c1.3-1.5,2.6-2.9,3.7-4.3c0.4-0.6,0.8-1.2,1.3-1.7c0.5-0.6,0.9-1,1.3-1.4
	c0.3-0.4,0.5-0.8,0.9-1.1c-0.3,0.5-0.5,1-0.9,1.4s-0.8,0.9-1.3,1.4s-0.9,1.1-1.3,1.7c-2.3,3.3-4.9,6.3-7.7,9.1
	c-0.7,0.8-1.4,1.7-2.1,2.4l-2.1,2.1c-0.8,0.8-1.5,1.4-2.1,2c-0.7,0.6-1.4,1.1-2.1,1.7c-0.5,0.5-1,1-1.6,1.4
	c-0.5,0.4-0.9,0.7-1.3,1.1C215.1,258.5,215.5,258.1,215.8,257.6z M183.1,235.6c-0.5,1-0.9,2-1.3,3c-0.4,1-0.7,1.8-1,2.6
	c-0.3,0.7-0.5,1.5-0.7,2.3l-0.9,1.7l-0.6,1.1c0.2-0.4,0.3-0.8,0.3-1.3c0.1-0.7,0.2-1.3,0.6-1.9c1-2.9,2.3-6.6,4-11.1
	c1-2.3,2-4.8,3-7.4c1-2.7,2.1-5.3,3.3-8c1.3-2.9,2.7-5.8,4-8.7c1.3-3,2.7-6,4-9c1.5-2.9,3-5.8,4.3-8.7s2.8-5.8,4.3-8.4
	c1.3-2.7,2.6-5.3,3.9-7.9c1.2-2.6,2.3-5,3.3-7.3c1.1-2.1,2.1-4,3-5.9s1.7-3.4,2.4-4.7l1.4-2.9l0,0c-0.2,0.5-0.3,1-0.4,1.5
	c-0.1,0.6-0.4,1.2-0.7,1.7c-0.5,1.7-1.1,3.3-1.9,4.9c-0.9,1.9-1.8,3.9-2.7,6c-1,2.3-2,4.7-3,7.3s-2.2,5.3-3.6,8.2
	c-1.3,2.7-2.7,5.5-4,8.4s-2.8,5.9-4.3,9c-1.5,2.9-2.9,5.8-4.1,8.7c-1.2,3-2.5,5.8-3.9,8.4c-0.8,1.5-1.4,3-2,4.3s-1.2,2.5-2,3.7
	c-0.6,1.3-1.1,2.6-1.7,3.9c-0.5,1.2-1,2.4-1.4,3.6C184.1,233.6,183.6,234.6,183.1,235.6L183.1,235.6z M185,280.9
	c0.2,0,0.4,0.1,0.6,0.3L185,280.9z M233.8,257.8c-0.2,0.2-0.3,0.4-0.4,0.6c-0.2,0.3-0.4,0.6-0.7,0.9c-0.6,0.6-1.2,1.3-2,2.1
	s-1.6,1.8-2.6,2.7l-6.9,6.9c-0.8,0.6-1.5,1.1-2.1,1.7c-0.7,0.6-1.3,1.1-1.9,1.7l-2.3,1.7l-2.3,1.7c-0.8,0.4-1.6,0.9-2.3,1.4
	c-0.8,0.6-1.7,1.1-2.6,1.4c-0.3,0.3-0.7,0.6-1.1,0.7c-0.4,0.1-0.8,0.4-1.1,0.7c-0.9,0.3-1.8,0.7-2.6,1.1c-0.7,0.3-1.5,0.5-2.3,0.6
	c-0.8,0.3-1.7,0.5-2.6,0.6c-0.3,0.2-0.7,0.3-1.1,0.3h-3.4c-0.7,0-1.4-0.1-2-0.3l-1.7-0.6c-0.5-0.2-1-0.5-1.4-0.9l-1.1-0.6
	c-0.3-0.3-0.5-0.5-0.9-0.7l0.9,0.4c0.3,0.3,0.7,0.5,1.1,0.6c0.4,0.3,0.9,0.5,1.4,0.6c0.3,0.2,0.6,0.3,0.9,0.3c0.3,0,0.6,0.1,0.9,0.3
	c0.3,0,0.7,0,1,0.1s0.7,0.1,1,0.1h2.3c0.2,0,0.3,0,0.4-0.1c0.2-0.1,0.5-0.2,0.7-0.1h1.1c0.7-0.3,1.5-0.6,2.3-0.9
	c0.4-0.2,0.7-0.3,1.1-0.3c0.4,0,0.9-0.2,1.1-0.6c0.8-0.2,1.5-0.5,2.3-0.9c0.3-0.4,0.8-0.6,1.3-0.7s0.9-0.3,1.3-0.7
	c0.8-0.4,1.5-0.9,2.1-1.4c0.7-0.6,1.5-1.1,2.4-1.4l4.3-3.4l4.3-3.4c0.6-0.6,1.2-1.1,1.9-1.7s1.3-1.1,1.9-1.7
	c0.6-0.4,1.2-0.9,1.7-1.4l1.4-1.4c1-0.8,2-1.7,2.9-2.7c0.7-0.8,1.4-1.5,2.3-2.1l1.7-1.7L233.8,257.8z M262.8,213.2
	c-0.1,0.4-0.4,0.8-0.7,1.1c-0.6,1-1.2,2-2,3.3s-1.6,2.6-2.6,4.1s-2,3.2-3,5s-2.2,3.7-3.6,5.6c-2.6,4.1-5.5,8-8.6,11.7
	c-1.5,2.1-3,4-4.4,5.9c-1.4,1.8-2.9,3.7-4.4,5.6c-1.5,1.7-3,3.3-4.4,4.9c-1.4,1.5-2.8,2.8-4.4,4c-1.1,1.3-2.3,2.4-3.7,3.4
	c-0.9,0.9-1.8,1.8-2.9,2.6l6.3-6.3c0.6-0.8,1.2-1.5,1.9-2.1l2.1-2.1l4.3-5.1c1.5-1.7,3-3.5,4.4-5.3s2.9-3.8,4.4-5.9s3-4,4.4-5.9
	c1.5-1.9,2.9-3.8,4.1-5.9c2.5-3.6,4.8-7,6.9-10.3c0.9-1.5,1.9-2.9,2.7-4.1s1.6-2.3,2.1-3.3c0.3-0.3,0.6-0.6,0.9-1
	c0.2-0.3,0.4-0.7,0.6-1C263.1,212.5,262.9,212.8,262.8,213.2L262.8,213.2z M364.3,145.3c-0.4,1.1-1,2.6-1.7,4.3
	c-0.8,1.9-1.7,4-2.7,6.3s-2.1,4.7-3.3,7.1c-1.1,2.3-2.3,4.6-3.6,6.9c-1.2,2.3-2.3,4.2-3.3,5.7c-0.9,1.4-1.8,2.8-2.6,4.3
	c-0.2,0.4-0.5,0.8-0.9,1.1l-0.3,0.3l0.9-1.7c0.4-1.6,1-3.1,1.7-4.6c0.8-1.7,1.7-3.7,2.7-6s2.1-4.7,3.3-7.1c1.1-2.3,2.3-4.6,3.6-6.9
	c1.2-2.3,2.3-4.3,3.3-6c0.6-1,1-1.7,1.4-2.3l1.1-1.7c0.2-0.2,0.3-0.4,0.4-0.6c0.1-0.2,0.3-0.4,0.4-0.6l0.3-0.3L364.3,145.3z
	 M365.7,258.1c-0.4,0.4-0.7,0.8-1,1.3s-0.8,1-1.3,1.3c-0.6,0.4-1.2,0.9-1.7,1.4c-0.6,0.6-1.3,1.2-2,1.7c-1.9,1.1-3.6,2.1-5.1,2.9
	c-1,0.4-1.8,0.7-2.6,1s-1.6,0.6-2.6,1c-0.8,0.3-1.7,0.5-2.6,0.6c-0.7,0.2-1.5,0.3-2.3,0.3H340c-0.1,0-0.3-0.1-0.3-0.2v-0.1h0.3
	c0.3,0,0.6-0.1,0.9-0.3c0.5,0,1-0.1,1.4-0.3c0.3,0,0.7,0,1-0.1s0.7-0.1,1-0.1c0.3-0.2,0.7-0.3,1-0.4s0.7-0.3,1-0.4
	c0.9-0.1,1.7-0.3,2.6-0.6l1.1-0.6l1.1-0.6c0.4-0.2,0.8-0.4,1.3-0.6s0.9-0.4,1.3-0.6s0.8-0.4,1.3-0.6s0.9-0.4,1.3-0.6
	c0.3-0.3,0.7-0.6,1.1-0.7s0.8-0.4,1.1-0.7c0.7-0.4,1.5-0.8,2.1-1.3c0.7-0.5,1.3-0.9,1.9-1.3s1.1-0.7,1.6-1s0.9-0.5,1.3-0.7l1.1-0.6
	L365.7,258.1z M385.7,240.4c-0.4,0.4-0.8,0.9-1.1,1.4c-0.6,0.8-1.2,1.5-1.9,2.1l-2.1,2.1c-0.7,0.9-1.4,1.6-2.3,2.3
	c-0.7,0.5-1.4,1.1-2,1.7c-0.6,0.4-1.2,0.9-1.7,1.4c-0.1,0.2-0.3,0.3-0.6,0.3l0.6-0.6l1.1-1.7l4-4c0.7-0.9,1.4-1.7,2.3-2.4
	c0.6-0.6,1.3-1.1,2-1.6c0.4-0.5,0.9-0.8,1.4-1.1c0.3-0.2,0.5-0.4,0.9-0.6L385.7,240.4z M377.7,195.8c-0.4-1.1-0.8-2.2-1-3.3
	c-0.3-1.2-0.6-2.6-1-4.1c-0.7-2.4-1.1-4.9-1.4-7.4c-0.2-0.8-0.3-1.7-0.3-2.6v-0.9c0,0.3,0.1,0.6,0.3,0.9c0.2,0.4,0.3,0.7,0.3,1.1
	c0,0.4,0.1,0.8,0.3,1.1c0.4,1.1,0.7,2.3,0.9,3.4c0.2,1.4,0.5,2.7,0.9,4c0.4,1.5,0.7,2.9,0.9,4.1c0.2,1.1,0.4,2.2,0.9,3.3
	c0,0.5,0,1,0.1,1.4s0.1,0.8,0.1,1.1C378.2,197.4,377.9,196.6,377.7,195.8L377.7,195.8z M388.3,231.5c-1.7-4.2-3.1-8.2-4.3-12
	c-0.8-2.7-1.4-5-1.9-7s-0.9-3.8-1.3-5.3c-0.4-0.7-0.6-1.4-0.6-2.1c0-0.5-0.1-1.1-0.3-1.6c0.2,0.5,0.4,0.9,0.4,1.4
	c0.1,0.7,0.4,1.4,0.7,2c0.4,1.5,0.9,3.3,1.6,5.3s1.5,4.2,2.4,6.7c0.8,1.7,1.5,3.5,2.1,5.3c0.7,1.8,1.5,3.8,2.4,5.9L388.3,231.5z
	 M440.5,284.6c-0.9,0-1.7-0.1-2.6-0.3c-0.4-0.2-0.9-0.3-1.4-0.3c-0.6,0-1.2-0.1-1.7-0.3c-0.5-0.2-0.9-0.4-1.4-0.6l-1.7-0.6l-1.7-0.6
	c-0.7-0.2-1.4-0.5-2-0.9c-1.1-0.6-2.3-1.1-3.6-1.7c-1.4-0.6-2.6-1.4-3.9-2.3c-2.7-1.7-5.2-3.8-7.4-6c-2.5-2.5-4.8-5-7-7.7
	s-4.3-5.6-6.1-8.6l-1.7-2.6c0.6-0.5,1-1.1,1.4-1.7c0.8,0.9,1.5,2,2,3.1c1.9,2.9,3.9,5.7,6,8.4c2,2.7,4.2,5.2,6.6,7.6
	c1.3,0.9,2.5,1.9,3.7,3c1.1,1,2.3,2,3.4,3c2.3,1.6,4.7,3,7.1,4.3c1.1,0.6,2.3,1.1,3.4,1.6s2.2,0.9,3.1,1.3c0.8,0.2,1.7,0.5,2.9,0.9
	c0.4,0.2,0.8,0.3,1.3,0.3c0.4,0,0.9,0.1,1.3,0.3c0.7,0.2,1.3,0.3,2,0.3c0.5,0,1,0.1,1.4,0.3C442.8,284.9,441.6,284.8,440.5,284.6
	L440.5,284.6z M564.7,64.2l-1.4,3.6c-0.6,1.4-1.2,3-2,4.7c-1,1.9-1.9,3.9-2.7,5.8c-0.9,2-1.8,4-2.7,6.1c-1,2.3-2,4.6-3,6.9
	c-1,2.3-2.1,4.6-3.3,6.9c-2.1,5-4.1,9.5-6,13.7c-1,2.1-1.9,4.2-2.7,6.3c-0.8,2-1.7,3.9-2.7,5.7c-0.8,1.9-1.5,3.6-2.1,5
	s-1.2,2.6-1.6,3.6c-0.6,1.1-1,2.2-1.4,3.1c0-0.3,0.1-0.6,0.3-0.9l1.1-2.3l1.3-3.9c0.5-1.4,1.1-3.1,1.9-5c0.8-1.7,1.6-3.6,2.4-5.7
	s1.8-4.2,2.7-6.3c1.8-4.7,3.8-9.2,6-13.7c1-2.5,2-4.9,3.1-7.1s2.2-4.5,3.2-6.6C556,82,557,80,557.9,78c1-2,1.9-3.9,2.8-5.8
	c0.8-1.7,1.5-3.3,2.3-4.7c0.6-1.2,1.2-2.4,1.7-3.6c0.6-1.1,1-2.2,1.4-3.1C565.7,62,565.2,63.1,564.7,64.2z M509.4,179.8
	c1-2.5,1.9-4.9,2.7-7.3l2.7-7.6c2.1-4.9,4.2-10.1,6.3-15.4c2.1-5.3,4.3-10.8,6.6-16.3s4.6-10.9,7-16.1s4.7-10.3,7-15.3
	c2.3-4.9,4.5-9.7,6.7-14.1c2.2-4.5,4.2-8.7,6.1-12.7l5.3-10.6l4.1-8.3c1.3-2.7,2.5-5,3.4-7.1c-1,2.3-2,4.8-3.1,7.4
	c-1,2.3-2.1,5-3.6,8.3c-1.4,3.2-3.1,6.8-5,10.8c-1.7,4-3.6,8.3-5.7,12.9c-2.1,4.6-4.3,9.3-6.6,14.3s-4.6,10-6.8,15.3
	c-2.3,5.2-4.6,10.6-6.8,16.1c-2.3,5.3-4.5,10.7-6.7,16s-4.3,10.6-6.4,15.7c-1,2.7-1.9,5.2-2.8,7.6c-0.9,2.4-1.9,4.7-2.8,7
	c-1,2.3-1.8,4.5-2.6,6.7c-0.6,1.6-1.2,3.2-1.8,4.7c-0.4-0.2-0.8-0.3-1.2-0.4c0.5-1.5,1.1-3,1.6-4.6
	C507.6,184.6,508.5,182.3,509.4,179.8z M474.2,249.5c-0.2,0.4-0.4,0.8-0.7,1.3c-0.3,0.5-0.6,0.9-1,1.3c-0.7,1.3-1.5,2.4-2.6,3.4
	c-1,1.3-2,2.5-3.1,3.7c-1.1,1.1-2.3,2.2-3.6,3.3c-1.2,1-2.3,2-3.3,2.7c-0.5,0.3-1,0.7-1.4,1.1c-0.3,0.3-0.7,0.6-1.1,0.9
	c-0.4,0.4-0.7,0.6-0.9,0.6l2.9-2.9l3.1-3.1l3.4-3.4l3.4-3.4c0.4-0.6,0.9-1.2,1.4-1.7l1.4-1.4c0.3-0.5,0.6-0.9,1-1.3
	c0.3-0.3,0.5-0.6,0.7-1c0.2-0.2,0.3-0.3,0.3-0.4s0.1-0.2,0.3-0.4c0-0.1,0.1-0.3,0.2-0.3h0.1L474.2,249.5z M480.3,235.1
	c-0.7,1.2-1.4,2.4-2.1,3.6l-5.2,7.7c-1,1.3-1.9,2.6-2.9,3.9c-0.9,1.2-1.9,2.4-2.9,3.6c-1,1.1-1.9,2.2-2.9,3.1l-2.9,2.9
	c-0.4,0.4-0.7,0.7-1.1,1s-0.8,0.6-1.1,1c-0.3,0.3-0.6,0.6-1,0.9s-0.7,0.5-1,0.9l-1.1,1.1c-0.1,0.2-0.3,0.3-0.6,0.3l1.7-1.7
	c0.7-0.4,1.4-1,1.7-1.7l2.3-2.3c1.3-1.7,3-3.7,5.1-6c1-1.1,1.9-2.3,2.7-3.6c0.9-1.2,1.8-2.5,2.7-3.9s1.9-2.6,2.7-3.9
	s1.8-2.5,2.7-3.9l2.3-3.4c0.8-1.1,1.4-2.2,2-3.1c1.1-1.9,2.2-3.5,3.1-4.9c-0.5,0.7-0.8,1.5-1.1,2.3c-0.4,1-0.9,1.9-1.4,2.9
	C481.6,232.7,481,233.8,480.3,235.1L480.3,235.1z M517.6,205.2c1-2.6,2-5.1,3-7.6c1.2-2.9,2.4-5.8,3.6-8.7c1.1-2.9,2.3-5.6,3.4-8.1
	c1.1-2.6,2.2-5,3.1-7.3c2.3-4.9,4-8.6,5.1-10.9c0.3-0.5,0.6-1,0.7-1.6c0.1-0.4,0.2-0.9,0.4-1.3l0.6-1.1c-0.4,1.5-1,2.9-1.7,4.3
	c-0.6,1.3-1.2,2.9-2,4.7s-1.6,3.9-2.6,6.1c-1,2.3-2,4.7-3,7.3s-2.1,5.3-3.3,8.1c-2.3,5.7-4.6,11.7-6.8,18l-3.4,9.1
	c-1.1,3-2.2,6-3.1,8.9c-0.6,1.5-1.1,3-1.6,4.3s-0.9,2.7-1.3,4c-0.4,1.5-0.8,2.9-1.1,4.1c-0.4,1.2-0.8,2.4-1.1,3.6
	c-0.7,2.1-1.3,4.3-1.7,6.6c-0.3,0.8-0.6,1.7-0.7,2.6c-0.1,0.8-0.2,1.5-0.4,2.3c0-0.8,0-1.6,0.1-2.4c0.1-0.9,0.2-1.8,0.4-2.7
	c0.4-1,0.7-2,0.9-3c0.2-1.2,0.5-2.4,0.9-3.6c0.4-1.1,0.7-2.3,1-3.6s0.6-2.6,1-4.1c0.4-1.3,0.8-2.7,1.3-4s0.9-2.8,1.3-4.3
	c1-3,2-6,3.1-9c0.3-0.7,0.5-1.4,0.8-2.1 M607.2,145.6c0.2-0.2,0.3-0.3,0.3-0.4s0.2-0.2,0.6-0.4c0.9-1.1,2-2,3.1-2.9
	c1.4-1.4,2.9-2.6,4.6-3.7c0.9-0.8,1.9-1.4,3-2c1-0.6,2-1.1,3-1.7c1.1-0.6,2.2-1.1,3.3-1.6s2.2-0.9,3.3-1.3c0.5-0.2,0.9-0.4,1.4-0.4
	c0.5-0.1,1-0.2,1.4-0.4c0.9-0.3,1.9-0.5,2.8-0.6c0.8-0.2,1.7-0.3,2.6-0.3h3.4c0,0.1-0.1,0.3-0.2,0.3h-0.1h-1.1
	c-0.3,0.2-0.6,0.3-1,0.3s-0.7,0.1-1,0.3c-0.8,0.1-1.5,0.3-2.3,0.6c-0.8,0.4-1.7,0.7-2.6,1c-1,0.3-1.9,0.6-2.8,1
	c-0.9,0.5-1.9,1-2.9,1.4c-1.1,0.5-2.1,1.1-3.1,1.7c-0.5,0.3-1,0.6-1.6,0.7c-0.6,0.1-1.1,0.4-1.6,0.7c-0.4,0.4-0.9,0.7-1.4,0.9
	s-1,0.5-1.4,0.9c-0.9,0.5-1.7,1.1-2.6,1.7c-0.8,0.6-1.7,1.1-2.6,1.4c-0.6,0.5-1.3,0.9-2,1.3c-0.5,0.3-1,0.6-1.4,1
	c-0.5,0.3-0.9,0.6-1.4,0.9L607.2,145.6z M602.6,152.7c0.4-0.4,0.8-0.8,1.3-1.1c0.5-0.4,1.1-0.9,1.6-1.4c1.1-0.9,2.5-2,4-3.3
	c1.5-1.2,3-2.3,4.6-3.3c1.6-1.1,3.3-2.1,5-3c1.6-0.9,3.2-1.7,4.7-2.4c1-0.5,2.1-1,3.1-1.4c0.5-0.2,1-0.3,1.4-0.6v0.3l-1.1,0.6
	c-1,0.6-2.1,1.2-3.2,1.7c-0.7,0.4-1.5,0.8-2.1,1.3c-0.8,0.5-1.6,1-2.4,1.3c-0.8,0.4-1.6,0.9-2.3,1.4c-0.8,0.6-1.7,1.2-2.6,1.7
	c-0.9,0.3-1.7,0.8-2.4,1.4c-0.7,0.6-1.4,1.1-2.1,1.7c-1,0.6-1.8,1.1-2.4,1.6s-1.3,0.9-1.9,1.3s-1.1,0.8-1.6,1.1
	c-0.4,0.4-0.9,0.7-1.3,1.1l-0.9,0.9h-0.3L602.6,152.7z M601.9,200.5c0.1-0.5,0.3-1.1,0.4-1.6l2.6-2.6c1.5-1.5,2.9-2.8,4.1-3.9
	c1.2-1,2.3-2,3.3-3c0.4-0.4,0.7-0.7,1.1-1c0.4-0.3,0.7-0.5,1.1-0.7c0.3-0.1,0.6-0.3,0.9-0.6l-2.8,2.9l-2.8,2.9
	c-0.6,0.8-1.2,1.5-1.9,2.1l-2.1,2.1c-0.8,0.8-1.5,1.5-2.1,2.3c-0.7,0.8-1.4,1.6-2.1,2.6C601.7,201.6,601.8,201.1,601.9,200.5
	L601.9,200.5z M591.8,214.7c-0.8,1-1.5,2-2.3,3c-0.7,0.9-1.3,1.9-2,2.9c1.3-2.7,2.6-5.2,3.7-7.6L591.8,214.7z M569.4,257.1
	c-0.1,0.1-0.2,0.3-0.1,0.4v-2.2l0.4-0.6c-0.1,0.6-0.1,1.1-0.1,1.7C569.5,256.7,569.5,257,569.4,257.1L569.4,257.1z M572.4,253
	c-0.3,0.8-0.6,1.6-0.7,2.4c-0.1,0.6-0.2,1.3-0.4,1.9c0,1-0.1,1.9-0.3,2.9c0-0.4-0.1-0.9-0.1-1.3c-0.1-0.5,0-1.1,0.1-1.6
	c0.1-1.4,0.3-2.9,0.6-4.3c0-0.5,0.1-1,0.1-1.4v-0.1c0.6-1,1.2-2,1.8-3c-0.2,0.6-0.4,1.2-0.5,1.9C572.7,251.1,572.6,252,572.4,253
	L572.4,253z M574.4,265.8c0-9,1.8-17.8,5.4-26c3.4-7.9,7.7-15.3,12.8-22.3c2.1,5.4,4.9,10.4,8.4,15c3.7,4.8,8.3,8.8,13.6,11.9
	c-5.7,6.1-12.2,11.4-19.4,15.6C588.9,263.7,581.7,265.7,574.4,265.8L574.4,265.8z M615,247.2c-0.5,0.5-1,1-1.6,1.4
	c-1,1-1.8,1.8-2.6,2.4c-0.8,0.7-1.5,1.3-2.3,1.9s-1.5,1.1-2.1,1.7c-0.6,0.5-1.2,1-1.9,1.4l-2,1.5c0.2-0.2,0.4-0.4,0.6-0.5
	c0.5-0.4,1-0.8,1.4-1.3c0.5-0.5,1-0.9,1.6-1.3c0.8-0.6,1.5-1.2,2.1-1.9c0.8-0.6,1.5-1.3,2.1-2c0.7-0.8,1.6-1.6,2.4-2.3l3.1-3.1
	c0.2,0,0.3,0,0.3,0.1s0.1,0.1,0.3,0.1C616,246.1,615.5,246.6,615,247.2z M605.5,223.7c-3.6-4.6-5.3-10.3-4.8-16.1
	c3.8-4.6,7.9-8.9,12.3-13c3.6-3.3,5.9-5.4,6.8-6.1c1-0.9,1-2.8,0-5.6c-1.1-3-2.6-5.9-4.6-8.4c5-6.6,10.9-12.4,17.6-17.4
	c6.4-4.8,12.3-7.1,17.8-7.1c3.4,0,5.1,2.2,5.1,6.6c-0.1,5.7-0.9,11.3-2.3,16.8c-1.6,6.7-3.7,13.2-6.3,19.6c-2.8,7-6.1,13.8-9.8,20.4
	c-3.8,6.7-8.1,13.2-12.7,19.4C615.5,231.4,609.1,228.4,605.5,223.7z M644.6,205.3c-0.4,0.8-0.7,1.5-1,2.1s-0.6,1.4-1,2.1l-1,2l-1,2
	c-0.8,1.5-1.5,2.9-2.3,4.1s-1.6,2.6-2.6,4.1c-1,1.3-1.9,2.6-2.7,3.9s-1.8,2.5-2.7,3.9l-2.6,3.4h-1.1c0.4-0.7,0.8-1.4,1.4-2
	s1.1-1.3,1.4-2c1-1.3,1.9-2.6,2.7-3.9c0.9-1.2,1.8-2.5,2.7-3.9c0.8-1.5,1.5-2.9,2.3-4.1s1.6-2.6,2.6-4.1c0.4-0.6,0.7-1.2,1-1.9
	c0.3-0.7,0.6-1.4,1-2.1c0.7-1.3,1.4-2.6,2-4c0.8-1.3,1.4-2.6,2-3.9c0.6-1.2,1.1-2.5,1.7-3.9c0.6-1.3,1.1-2.6,1.6-3.7
	c0.5-1.1,0.9-2.3,1.3-3.4c0.9-2.1,1.8-4.1,2.4-6s1.2-3.5,1.6-4.9c0.2-0.6,0.4-1.1,0.6-1.6s0.4-0.9,0.6-1.3c-0.4,0.9-0.7,1.9-0.9,2.9
	c-1,2.9-2.1,6.6-3.4,11.1c-0.4,1.2-0.9,2.3-1.4,3.4c-0.6,1.2-1.1,2.4-1.4,3.7c-0.6,1.3-1.1,2.6-1.7,3.9
	C646,202.6,645.3,203.9,644.6,205.3L644.6,205.3z M655.6,184.3c-0.5,1.4-0.9,2.9-1.3,4.4c-0.4,1.3-0.9,2.6-1.4,3.9
	c-0.6,1.2-1,2.3-1.4,3.3c-0.4,1.1-0.8,2.1-1.1,3c-0.3,0.7-0.7,1.5-1.1,2.1l-0.6,1.1c0-0.5,0.1-1,0.3-1.4c0.4-0.7,0.8-1.4,1-2.1l1-3
	c0.4-0.9,0.8-2,1.3-3.3s0.9-2.5,1.3-3.9c0.4-1.5,0.8-3,1.1-4.4s0.8-2.9,1.1-4.4s0.7-2.9,1-4.3c0.3-1.3,0.6-2.8,1-4.3
	c0.3-1.4,0.6-2.7,0.7-4.1c0.1-1.2,0.2-2.4,0.4-3.6c0.2-1.1,0.3-2.2,0.4-3.1s0.1-1.7,0.1-2.3c0-0.3,0-0.7,0.1-1
	c0.1-0.2,0.1-0.5,0.1-0.7v7.1c-0.2,1.1-0.3,2.4-0.4,3.7c-0.1,1.4-0.4,2.9-0.7,4.3c-0.2,1.3-0.4,2.7-0.7,4.1s-0.6,2.9-1,4.4
	C656.5,181.4,656.1,182.8,655.6,184.3L655.6,184.3z M729.9,145.6c0.2-0.2,0.3-0.3,0.3-0.4s0.2-0.2,0.6-0.4c0.9-1.1,2-2,3.1-2.9
	c1.4-1.4,2.9-2.6,4.6-3.7c0.9-0.8,1.9-1.4,3-2c1-0.6,2-1.1,3-1.7c1.1-0.6,2.2-1.1,3.3-1.6s2.2-0.9,3.3-1.3c0.5-0.2,0.9-0.4,1.4-0.4
	c0.5-0.1,1-0.2,1.4-0.4c0.9-0.3,1.9-0.5,2.8-0.6c0.8-0.2,1.7-0.3,2.6-0.3h3.4c0,0.1-0.1,0.3-0.2,0.3h-0.1h-1.1
	c-0.3,0.2-0.6,0.3-1,0.3s-0.7,0.1-1,0.3c-0.8,0.1-1.5,0.3-2.3,0.6c-0.8,0.4-1.7,0.7-2.6,1c-1,0.3-1.9,0.6-2.8,1
	c-0.9,0.6-1.9,1-2.8,1.4c-1.1,0.5-2.1,1.1-3.1,1.7c-0.5,0.3-1,0.6-1.6,0.7c-0.6,0.1-1.1,0.4-1.6,0.7c-0.4,0.4-0.9,0.7-1.4,0.9
	s-1,0.5-1.4,0.9c-0.9,0.5-1.7,1.1-2.6,1.7c-0.8,0.6-1.7,1.1-2.6,1.4c-0.6,0.5-1.3,0.9-2,1.3c-0.5,0.3-1,0.6-1.4,1
	c-0.5,0.3-0.9,0.6-1.4,0.9L729.9,145.6z M725.4,152.7c0.4-0.4,0.8-0.8,1.3-1.1c0.5-0.4,1.1-0.9,1.6-1.4c1.1-0.9,2.5-2,4-3.3
	c1.5-1.2,3-2.3,4.6-3.3c1.6-1.1,3.3-2.1,5-3c1.6-0.9,3.2-1.7,4.7-2.4c1-0.5,2.1-1,3.1-1.4c0.5-0.2,1-0.3,1.4-0.6v0.3l-1.1,0.6
	c-1,0.6-2.1,1.2-3.1,1.7c-0.7,0.4-1.5,0.8-2.1,1.3c-0.8,0.5-1.6,1-2.4,1.3c-0.8,0.4-1.6,0.9-2.3,1.4c-0.8,0.6-1.7,1.2-2.6,1.7
	c-0.9,0.3-1.7,0.8-2.4,1.4c-0.7,0.6-1.4,1.1-2.1,1.7c-1,0.6-1.8,1.1-2.4,1.6s-1.3,0.9-1.9,1.3s-1.1,0.8-1.6,1.1
	c-0.4,0.4-0.9,0.7-1.3,1.1l-0.9,0.9h-0.3L725.4,152.7z M724.7,200.5c0.1-0.5,0.3-1.1,0.4-1.6l2.6-2.6c1.5-1.5,2.9-2.8,4.1-3.9
	c1.2-1,2.3-2,3.3-3c0.4-0.4,0.7-0.7,1.1-1c0.4-0.3,0.7-0.5,1.1-0.7c0.3-0.1,0.6-0.3,0.9-0.6l-2.8,2.9l-2.8,2.9
	c-0.6,0.8-1.2,1.5-1.9,2.1l-2.1,2.1c-0.8,0.8-1.5,1.5-2.1,2.3c-0.7,0.8-1.4,1.6-2.1,2.6C724.4,201.6,724.6,201.1,724.7,200.5
	L724.7,200.5z M692.8,252.3c-0.2,1-0.3,1.7-0.4,2.3c-0.1,0.6-0.1,1.1-0.1,1.7c0,0.4,0,0.6-0.1,0.7s-0.2,0.3-0.1,0.4v-2.9
	c0-0.8,0.1-1.5,0.3-2.3c0-0.4,0.1-0.9,0.1-1.3c0.1-0.4,0.1-0.9,0.1-1.3c0-1,0.2-1.9,0.6-2.9c0.4-1,0.7-2.1,0.9-3.1
	c0.2-1.1,0.5-2.1,0.9-3.1c0.4-0.9,0.8-1.9,1.3-2.9s0.9-1.9,1.3-2.9c0.7-1.8,1.6-3.5,2.6-5.1c0.4-0.5,0.7-1.1,1-1.7
	c0.3-0.5,0.6-1,1-1.4c-0.4,0.4-0.6,0.9-0.7,1.4c-0.1,0.7-0.4,1.4-0.7,2c-0.4,1-0.8,1.8-1.1,2.6s-0.8,1.6-1.1,2.6
	c-1.1,1.9-1.8,3.9-2.3,6c-0.4,1-0.7,2-1,3s-0.6,2-1,3C693.6,248.9,693.3,250.6,692.8,252.3L692.8,252.3z M695.7,250.2
	c-0.2,0.9-0.4,1.8-0.6,2.7c-0.3,0.8-0.6,1.6-0.7,2.4c-0.1,0.6-0.2,1.3-0.4,1.9c0,1-0.1,1.9-0.3,2.9c0-0.4-0.1-0.9-0.1-1.3
	c-0.1-0.5,0-1.1,0.1-1.6c0.1-1.4,0.3-2.9,0.6-4.3c0-0.5,0.1-1,0.1-1.4c0.1-0.5,0.1-1,0.1-1.4c0.4-1.1,0.7-2.1,0.9-2.9
	c0.4-1,0.7-2,1-3s0.6-2.1,1-3.3c0.4-0.5,0.6-1.1,0.7-1.7c0.1-0.6,0.4-1.2,0.7-1.7c0.2-0.6,0.4-1.1,0.6-1.7c0.2-0.7,0.5-1.4,0.9-2
	l1.7-3.4c0.6-1.1,1.2-2.4,2-3.7l4.3-6.9c0.7-1.2,1.5-2.4,2.3-3.6c0.8-1,1.5-2.1,2.3-3.3l0.9-0.9l0.9,2.6c-0.8,1-1.5,2-2.3,3
	s-1.5,2.1-2.2,3.3l-4.3,6.9c-0.6,1.1-1.2,2.3-1.9,3.4s-1.3,2.3-1.9,3.4c-0.6,1.1-1.1,2.2-1.4,3.4l-1.7,3.4c-0.9,1.9-1.7,4-2.3,6
	C696.2,248.4,695.9,249.3,695.7,250.2L695.7,250.2z M697.1,265.8c0-9,1.8-17.8,5.4-26c3.4-7.9,7.7-15.3,12.8-22.3
	c2.1,5.4,4.9,10.4,8.4,15c3.7,4.8,8.3,8.8,13.6,11.9c-5.6,6.1-12.2,11.4-19.4,15.6C711.7,263.7,704.5,265.7,697.1,265.8L697.1,265.8
	z M737.8,247.2c-0.5,0.5-1,1-1.6,1.4c-1,1-1.8,1.8-2.6,2.4c-0.8,0.7-1.5,1.3-2.3,1.9s-1.5,1.1-2.1,1.7c-0.6,0.5-1.2,1-1.9,1.4
	l-2,1.5c0.2-0.2,0.4-0.4,0.6-0.5c0.5-0.4,1-0.8,1.4-1.3c0.5-0.5,1-0.9,1.6-1.3c0.8-0.6,1.5-1.2,2.1-1.9c0.8-0.6,1.5-1.3,2.1-2
	c0.7-0.8,1.6-1.6,2.4-2.3l3.1-3.1c0.2,0,0.3,0,0.3,0.1s0.1,0.1,0.3,0.1C738.8,246.1,738.3,246.6,737.8,247.2z M728.2,223.7
	c-3.6-4.6-5.3-10.3-4.8-16.1c3.8-4.6,7.9-8.9,12.3-13c3.6-3.3,5.9-5.4,6.8-6.1c1-0.9,1-2.8,0-5.6c-1.1-3-2.6-5.9-4.6-8.4
	c5-6.6,10.9-12.4,17.6-17.4c6.4-4.8,12.3-7.1,17.8-7.1c3.4,0,5.1,2.2,5.1,6.6c-0.1,5.7-0.9,11.3-2.3,16.8
	c-1.6,6.7-3.7,13.2-6.3,19.6c-2.8,7-6.1,13.8-9.8,20.4c-3.8,6.7-8.1,13.2-12.7,19.4C738.2,231.4,731.8,228.4,728.2,223.7z
	 M767.3,205.3c-0.4,0.8-0.7,1.5-1,2.1s-0.6,1.4-1,2.1l-1,2l-1,2c-0.8,1.5-1.5,2.9-2.3,4.1s-1.6,2.6-2.6,4.1c-1,1.3-1.9,2.6-2.7,3.9
	s-1.8,2.5-2.7,3.9l-2.6,3.4h-1.1c0.4-0.7,0.8-1.4,1.4-2s1.1-1.3,1.4-2c1-1.3,1.9-2.6,2.7-3.9c0.9-1.2,1.8-2.5,2.7-3.9
	c0.8-1.5,1.5-2.9,2.3-4.1s1.6-2.6,2.6-4.1c0.4-0.6,0.7-1.2,1-1.9c0.3-0.7,0.6-1.4,1-2.1c0.7-1.3,1.4-2.6,2-4c0.8-1.3,1.4-2.6,2-3.9
	c0.6-1.2,1.1-2.5,1.7-3.9c0.6-1.3,1.1-2.6,1.6-3.7c0.5-1.1,0.9-2.3,1.3-3.4c0.9-2.1,1.8-4.1,2.4-6s1.2-3.5,1.6-4.9
	c0.2-0.6,0.4-1.1,0.6-1.6s0.4-0.9,0.6-1.3c-0.4,0.9-0.7,1.9-0.9,2.9c-1,2.9-2.1,6.6-3.4,11.1c-0.4,1.2-0.9,2.3-1.4,3.4
	c-0.6,1.2-1.1,2.4-1.4,3.7c-0.6,1.3-1.1,2.6-1.7,3.9C768.8,202.6,768.1,203.9,767.3,205.3L767.3,205.3z M778.3,184.3
	c-0.5,1.4-0.9,2.9-1.3,4.4c-0.4,1.3-0.9,2.6-1.4,3.9c-0.6,1.2-1.1,2.3-1.4,3.3c-0.4,1.1-0.8,2.1-1.1,3c-0.3,0.7-0.7,1.5-1.1,2.1
	l-0.6,1.1c0-0.5,0.1-1,0.3-1.4c0.4-0.7,0.8-1.4,1-2.1l1-3c0.4-0.9,0.8-2,1.3-3.3s0.9-2.5,1.3-3.9c0.4-1.5,0.8-3,1.1-4.4
	s0.8-2.9,1.1-4.4s0.7-2.9,1-4.3c0.3-1.3,0.6-2.8,1-4.3c0.3-1.4,0.6-2.7,0.7-4.1c0.1-1.2,0.2-2.4,0.4-3.6c0.2-1.1,0.3-2.2,0.4-3.1
	s0.1-1.7,0.1-2.3c0-0.3,0-0.7,0.1-1c0.1-0.2,0.1-0.5,0.1-0.7v7.1c-0.2,1.1-0.3,2.4-0.4,3.7c-0.1,1.4-0.4,2.9-0.7,4.3
	c-0.2,1.3-0.4,2.7-0.7,4.1s-0.6,2.9-1,4.4C779.2,181.4,778.8,182.8,778.3,184.3L778.3,184.3z M886.1,149c0.6-0.4,1.2-0.8,1.9-1.3
	s1.3-0.9,1.9-1.3c0.9-0.4,1.9-0.8,2.8-1.1l1.1-0.6c0,0.1-0.1,0.3-0.2,0.3h-0.1c-0.2,0-0.3,0-0.4,0.1s-0.3,0.2-0.4,0.1
	c-0.8,0.7-1.6,1.3-2.6,1.7c-0.3,0.1-0.6,0.3-0.9,0.6c-0.3,0.2-0.5,0.4-0.9,0.6l-1.7,1.7c-1.5,0.9-2.7,2-3.7,3.4
	c-1.3,1.1-2.5,2.3-3.6,3.6c-1,1.2-2,2.3-3,3.3c-0.4,0.6-0.7,1-1,1.4s-0.6,0.8-1,1.1l-0.9,0.9l0.6-1.1c0.4-0.9,1-1.8,1.7-2.6
	c0.4-0.6,0.8-1.2,1.3-1.7c0.5-0.6,1-1.2,1.6-2c0.6-0.6,1.1-1.2,1.7-1.9s1.1-1.3,1.7-1.9s1.2-1.1,1.9-1.7S885.3,149.6,886.1,149z
	 M848.1,201.2c0.4-0.8,0.9-1.6,1.4-2.6s1.2-2,2-3.1c0.8-0.9,1.6-2,2.4-3.3c0.9-1.2,1.8-2.6,2.7-4.1c1-1.3,2-2.7,3-4
	c1.1-1.4,2.1-2.8,3-4.3c1.1-1.5,2.2-2.9,3.3-4.3c1-1.3,2.1-2.7,3.3-4c1-1.3,1.9-2.6,2.8-3.7c0.9-1.1,1.9-2.2,2.9-3.1l4.6-4.6
	c-0.7,0.7-1.2,1.5-1.7,2.3c-0.6,1-1.4,2-2.3,2.9c-1,1-1.9,2-2.8,3.1c-0.9,1.1-1.9,2.4-2.8,3.7c-1,1.3-2,2.7-3,4s-2.1,2.8-3.3,4.3
	c-0.9,1.5-1.9,2.9-3,4.3c-1,1.3-2,2.7-3,4s-1.9,2.6-2.8,3.9c-1,1.2-1.8,2.4-2.6,3.6c-0.8,1-1.6,2-2.3,3l-1.4,2.1
	c-0.6,0.8-1,1.4-1.4,2C847.3,202.5,847.7,201.8,848.1,201.2L848.1,201.2z M853.8,175c1-1.5,2-3.1,3.3-4.7s2.4-3.2,3.6-4.7
	c1.3-1.5,2.6-3,3.8-4.6c1.2-1.5,2.5-3.1,3.8-4.6s2.6-2.9,3.7-4.1c1.1-1.2,2.2-2.3,3.4-3.3c0.9-1.1,1.8-2.1,2.8-3s1.7-1.6,2.3-2.1
	l1.4-1.4c-0.2,0.2-0.3,0.4-0.4,0.7c-0.2,0.4-0.4,0.7-0.7,1l-2.1,2.1c-0.9,0.9-1.8,1.9-2.7,3c-2.4,2.4-4.7,5-6.8,7.7
	c-2.7,3-5.1,6.1-7.4,9.1c-1.3,1.5-2.6,3.1-3.8,4.7c-1.2,1.6-2.3,3.2-3.3,4.7c-1.1,1.5-2.2,3-3.1,4.3l-1,1.4c0-0.3-0.1-0.7-0.2-1
	c0.2-0.3,0.4-0.5,0.5-0.8C851.8,177.9,852.8,176.4,853.8,175L853.8,175z M835.8,160.4c-0.2,0.7-0.5,1.4-0.9,2
	c-0.1,0.3-0.3,0.6-0.4,0.9c0.3-1,0.7-2,1-2.9H835.8z M833.9,165.2c-0.3,0.9-0.6,2-0.9,3.2c-0.2,0.6-0.3,1.1-0.5,1.8l-1.3,2.2
	c0.5-1.4,1-2.7,1.5-4S833.5,166.2,833.9,165.2L833.9,165.2z M771.6,330.6c-0.8,2.1-1.7,4.5-2.7,7.1c-1,2.7-2,5.3-3,8
	c-0.6,1.5-1.1,2.9-1.6,4.3c-0.5,1.3-1,2.7-1.6,4c-0.4,1.3-0.8,2.5-1.4,3.7c-0.6,1.1-1,2.2-1.4,3.1l-1,3c-0.2,0.8-0.6,1.5-1,2.1
	l-0.9,1.8c0.2-0.6,0.4-1.2,0.6-2c0.4-1.8,1-3.5,1.7-5.1c1-2.3,1.8-4.7,2.6-7.1c0.4-1.3,0.9-2.6,1.4-3.9c0.6-1.3,1.1-2.7,1.4-4.1
	c0.6-1.5,1.1-2.9,1.7-4.1c0.6-1.2,1.1-2.5,1.7-3.9c0.4-1.3,0.8-2.5,1.4-3.7c0.6-1.1,1-2.2,1.4-3.1l1.1-2.9c0.3-0.8,0.7-1.6,1.1-2.3
	l0.9-1.7C773.2,326,772.4,328.3,771.6,330.6z M794.9,269.3c-2.4,5.6-4.6,11.1-6.7,16.4c-2.1,5.3-4.2,10.4-6.3,15.3s-4.1,9.4-6,13.6
	c-1.7,4.4-3.4,8.2-5,11.6c-1.4,2.9-2.7,5.9-3.8,9c-0.6,1.3-1,2.4-1.4,3.3s-0.8,1.7-1.1,2.4c-0.3,0.6-0.6,1.3-0.9,2l-0.3-0.3
	c3.6-8.8,7.4-18.2,11.4-28.3l25.1-62.8c0.9-2.3,1.8-4.6,2.7-6.9c1-0.6,2-1.2,3-1.8c-1.2,3.2-2.4,6.4-3.6,9.6
	C799.6,258.1,797.3,263.7,794.9,269.3L794.9,269.3z M844.4,272c-2.8,0.1-5.5-1.2-7-3.6c-1.7-2.7-2.9-5.7-3.3-8.9
	c-0.6-3.7-0.8-7.5-0.6-11.3c0.2-4,0.5-7.6,0.9-10.9c12.4-19.2,22.8-34.2,31.4-45c8.6-10.8,15.6-18.8,21.2-24.1
	c6.3-6.3,11.5-10.1,15.7-11.4c-0.1,6.9-0.7,13.8-1.7,20.7c-2.5,17-6.9,33.7-13.1,49.8c-3,7.9-6.8,15.4-11.4,22.4
	c-3.9,6.1-8.9,11.5-14.6,16C856.9,269.9,850.8,272,844.4,272L844.4,272z M881.5,254.9c-0.4,0.6-0.8,1.1-1.3,1.7s-1.1,1.3-1.9,2.3
	c-1.3,1.5-2.9,3.3-4.8,5.3c-1.9,2-3.9,3.8-6,5.6c-1.1,0.9-2.4,1.7-3.7,2.3c-1.1,0.8-2.2,1.4-3.4,2c-1.1,0.6-2.2,1.1-3.4,1.4
	c-0.5,0.4-1.1,0.6-1.7,0.7c-0.5,0.1-1,0.2-1.4,0.4c-0.9,0.4-1.8,0.6-2.7,0.9c-0.9,0.2-1.7,0.4-2.4,0.6c-0.4,0.2-0.9,0.3-1.4,0.3H847
	c0-0.1,0.1-0.3,0.2-0.3h0.1c0.5,0,1-0.1,1.4-0.3c1.3-0.4,2.9-0.9,4.8-1.7c0.5-0.2,0.9-0.4,1.4-0.6l1.7-0.6c1-0.6,2.1-1.2,3.1-1.7
	c0.5-0.4,1.1-0.7,1.7-1c0.6-0.3,1.2-0.6,1.7-1c1.1-0.8,2.2-1.6,3.4-2.3c1.1-0.8,2.1-1.7,3.1-2.6c1-1,2-2,3.1-2.9l2.6-2.6
	c0.8-0.8,1.6-1.7,2.3-2.6l4.6-4.6c-0.2,0.2-0.3,0.4-0.4,0.6C881.9,254.6,881.7,254.7,881.5,254.9L881.5,254.9z M899.8,206.7
	l-1.1,4.6c-0.4,1.5-0.8,3.1-1.1,4.6c-0.6,1.5-1.1,3-1.6,4.6s-1,3-1.6,4.6c-0.3,0.8-0.6,1.6-0.9,2.4c-0.2,0.7-0.5,1.5-0.9,2.1
	c-0.4,1.6-1.1,3.2-2,4.6c-0.4,0.8-0.7,1.5-1,2.1s-0.6,1.4-1,2.1s-0.8,1.5-1.1,2.1s-0.8,1.3-1.1,1.9c-1.2,2.7-2.9,5.2-4.8,7.4
	l-1.1,1.7l-1.1,1.7c-0.6,0.4-1.1,0.9-1.4,1.4c-0.3,0.5-0.7,1-1.1,1.4l-2.6,2.6l-2.3,2.3c-0.3,0.3-0.6,0.6-1,0.9s-0.7,0.5-1,0.9
	c-0.5,0.6-1.1,1-1.7,1.4c-0.6,0.4-1.1,0.7-1.6,1s-0.9,0.6-1.3,1l-0.9,0.9l3.1-3.1c0.6-0.6,1.3-1.2,2-1.7c0.6-0.6,1.2-1.3,1.7-2
	c0.8-0.8,1.5-1.5,2.1-2.3c0.7-0.8,1.4-1.6,2.1-2.6c0.4-0.4,0.8-0.9,1.1-1.4s0.7-1,1.1-1.4l1.1-1.7l1.1-1.7c0.9-1.1,1.7-2.3,2.3-3.6
	c0.6-1.4,1.4-2.6,2.3-3.9c0.4-0.8,0.7-1.5,1-2.1s0.6-1.3,1-1.9c0.4-0.8,0.7-1.5,1-2.1c0.3-0.7,0.6-1.4,1-2.1s0.7-1.5,1-2.3
	s0.6-1.5,1-2.3c0.4-0.7,0.6-1.4,0.9-2.1c0.2-0.7,0.4-1.5,0.6-2.4c0.7-1.5,1.4-3,1.9-4.6c0.5-1.5,0.9-3,1.3-4.6
	c0.4-1.5,0.8-3,1.3-4.4s0.9-2.9,1.3-4.4s0.7-2.9,1-4.3c0.3-1.3,0.6-2.8,1-4.3c0.4-1.3,0.7-2.6,0.9-3.9c0.2-1.2,0.4-2.5,0.6-3.9
	c0.4-2.3,0.8-4.4,1.1-6.3s0.8-3.6,1.1-5.1l0.9-4.3v1.1c0,0.4-0.1,0.9-0.1,1.3c-0.1,0.6-0.2,1.2-0.1,1.9c-0.2,1.5-0.4,3.2-0.6,5.1
	c-0.2,1.9-0.5,4.1-0.9,6.6c-0.2,1.3-0.4,2.6-0.6,3.9c-0.2,1.2-0.4,2.5-0.6,3.9c-0.4,1.5-0.7,2.9-0.9,4.4
	C900.5,203.8,900.2,205.3,899.8,206.7z"/>
<path class="st2" d="M776,406.9c-2.7,0-5.4-0.5-8-1.3c-4.4-1.4-8.7-3.2-12.8-5.5c-4.5-2.4-8.7-5.4-12.6-8.7
	c-7.1-6.2-10.7-13-10.7-20.3c0-4,1-7.4,5.2-18.5c2.7-7,6.1-16,10.4-27c4.2-11,9.1-23.2,14.8-37.3l2.3-5.6
	c-4.1,4.2-8.5,8.1-13.2,11.6c-5.4,4.1-11.3,7.5-17.5,10.1c-6.5,2.8-13.5,4.2-20.5,4.3c-5.1,0-10.5-1.5-17.4-4.8
	c-6.1-3-11.8-6.8-16.9-11.3c-5.7-4.9-10.6-10.7-14.7-17.1c-1-1.6-1.9-3.2-2.8-4.9c-3.2,0.5-6.5,0.8-9.7,0.9c-2.5,3-5.1,6-7.7,8.8
	c-4.8,5.1-10,9.8-15.6,14c-5.4,4.1-11.3,7.5-17.5,10.1c-6.5,2.8-13.5,4.2-20.5,4.3c-5.1,0-10.5-1.5-17.4-4.8c-5-2.4-9.7-5.4-14-8.9
	l-1.3,1.1c-10.2,8.2-23,12.7-36.1,12.6c-6.6-0.1-13.1-1.6-19.1-4.3c-6.5-2.7-12.4-6.5-17.7-11.1c-0.5-0.4-1-0.9-1.5-1.3
	c-3.2,3-6.6,5.7-10.2,8.2c-8.2,5.7-16.9,8.5-25.6,8.5c-14.9,0.2-29.4-4.7-41-14c-4.3-3.5-8.4-7.3-12.1-11.4
	c-4.3,4.2-8.4,7.9-12.2,11.1c-4.1,3.4-8.4,6.5-13,9.2c-6,3.5-11.7,5.2-17.4,5.2c-5.5-0.1-10.9-1.6-15.6-4.3c-4-2.1-7.7-4.7-11.1-7.7
	s-6.5-6.4-9.1-10.2l-0.2-0.3c-4.6,3.9-9.5,7.6-14.5,11c-11.4,7.7-22.9,11.6-34,11.6c-6.7,0-13.3-1.8-19-5.2
	c-4.8-2.8-9-6.6-12.4-10.9c-0.6-0.8-1.2-1.6-1.8-2.4c-5,4.6-10.5,8.7-16.4,12.1c-7.5,4.3-15,6.4-22.5,6.4c-5.5-0.1-10.8-1.5-15.6-4
	l-0.7-0.3c-2.9,1.5-6.1,2.3-9.4,2.3c-0.7,0-1.8,0-7.1-0.3l-13.5-0.7c-5.3-0.3-11.5-0.5-18.4-0.7s-14.1-0.3-21.2-0.3
	S95,305,87.6,305.3c-6.8,0.3-13.3,0.7-19.1,1.4c-2.1,0.4-4,0.7-5.8,0.9l-3.1,0.5c-1.4,0.3-2.9,0.5-4.4,0.5h-0.9
	c-8.7,0-14.5-2.9-18.2-6.2c-3-1.6-5.9-3.4-8.6-5.4c-9.9-7.4-11.4-16.5-11.4-21.3c0-4,1-7.4,5.1-18.1c2.6-6.8,6.2-15.4,10.5-25.6
	s9.1-21.5,14.6-34.2c5.5-12.9,11.2-26,16.9-38.9s11.6-26,17.4-38.5s10.9-23.6,15.5-33.2c4.7-9.9,8.6-18,11.7-24
	c4.3-8.4,9.7-18.9,22.2-18.9c4.6,0,11.4,1.3,18.3,7.5c2.6,2.4,5.1,5,7.4,7.7c2.9,3.4,5.5,7.1,7.7,11l4.1,7c0.7,1.3,0.8,2.8,0.1,4.1
	l-3.9,7.2c-7.2,13.3-14.7,28.2-22.2,44.3c-7.6,16.3-15,32.9-22,49.3S106,214.7,100,229.6l-5.3,13.3h16.7c7.9,0,15.9,0,23.8,0.1
	s14.6,0.2,20.6,0.3c0.7-2,1.5-4.2,2.4-6.6c2.9-7.3,6.3-15.5,10.3-24.5c3.9-8.8,8.2-18.1,12.7-27.8s8.6-18.3,12.4-26.5
	s6.9-15,9.4-20.7c1.9-4.4,2.6-6.5,2.9-7.2c1.7-10.3,10-17.7,20.1-17.7c5.6,0.1,11,2.1,15.3,5.8c2.5,2,4.8,4.2,6.9,6.6
	c2.3,2.5,4.3,5.2,6.2,8c1.7,2.6,3.3,5.3,4.6,8.1c1.5,2.9,2.4,6.1,2.9,9.3c5-8,9.2-14.5,12.7-19.9c5.7-8.9,11.6-18.1,23.2-18.1
	c7.8-0.1,15.2,3.4,20.3,9.4c3,3.5,5.3,7.5,7.1,11.7c1.5,3.8,2.7,7.7,3.3,11.7c0.5,2.8,0.7,5.7,0.8,8.6v1.8l-0.4,1.8
	c-0.4,2-1.1,4.4-4.3,12.6c-2.1,5.5-4.8,12.2-7.8,19.8l-1.4,3.4c4.3-7.4,8.7-15.2,9.8-17.5c2.4-5.2,5-10.8,7.8-16.6
	s5.5-11.2,8.2-16.4s5.2-9.8,7.4-13.6c3.2-5.4,5.6-8.8,8.4-11.2c3.6-3.5,8.4-5.4,13.4-5.4c4.4,0,8.8,0.8,13.1,2.1
	c4.2,1.3,8.2,3.1,11.9,5.4c3.9,2.4,7.4,5.5,10.3,9.1c4.1,5,6.4,11.2,6.4,17.6c0,7.4,0.3,14.5,1,21.3c7-10.4,13.4-20,19.2-28.8
	c6.2-9.4,11.5-17.2,15.7-23.2c5.3-7.5,11.8-16.9,23.2-16.9c3.9,0,11.4,1.1,18,8.6c2.5,2.9,4.7,6.2,6.4,9.6c1.7,3.5,3.1,7.1,4.1,10.9
	c0.7,2.6,1.2,5.3,1.4,8c2-4.8,4-9.6,6-14.3c5.2-12,10.4-23.7,15.4-34.6s9.5-20.8,13.3-29.2s7-15.2,9.4-20.5c1.2-2.6,1.9-4.2,2.3-5.2
	c1.7-10.2,10.6-17.7,21-17.6c5.7,0,10,2.4,13.6,4.7C589,23.6,595,29.3,599.8,36c3.9,5.3,6,11.7,6.1,18.3c0,4.4-1.3,8.9-5.2,17.6
	c-2.5,5.6-5.6,12.5-9.4,20.6c-3.9,8.4-8.3,18-13.2,28.3s-18.3,49-12.6,40.7c4.8-7.1,21.5-28,28.4-33.6c6.7-5.4,14.1-10,21.9-13.5
	c8.9-4,16.9-5.9,24.6-5.9c6.4,0,12.9,2.3,19.8,7.1c6,4.3,11.1,9.6,15.2,15.8c4.4,6.6,7.9,13.8,10.6,21.3c1.8,5,3,10.1,3.7,15.3
	l1.1-2c1.4-6.8,4.1-13.3,8.1-19c4.9-7.2,10.9-13.7,17.7-19.1c6.7-5.4,14.1-10,21.9-13.5c8.9-4,16.9-5.9,24.6-5.9
	c6.4,0,12.9,2.3,19.8,7.1c6,4.3,11.1,9.7,15.2,15.8c4.4,6.6,7.9,13.8,10.5,21.3c1.3,3.6,2.3,7.3,3,11.1c3.8-10.1,7.1-18.8,9.5-25.8
	c1.9-5.4,2.7-8,3-9c0.1-3.9,0.9-7.7,2.5-11.2c3.4-7.5,10.9-12.3,19.2-12.4h0.4h0.5c6.7,0.3,13.1,3.2,18.9,8.6
	c2.7,2.5,5.1,5.3,7.3,8.2c8.7-6.8,16.9-10.1,25-10.1c6.5,0.1,12.8,2.1,18.1,5.9c5.5,3.9,10,9.1,13.2,15.1c3.4,6.6,5.9,13.6,7.3,20.8
	c1.8,9.1,2.7,18.5,2.6,27.8c0,0.7,0,1.5,0,2.3c4.3-8.1,11.9-12.9,20.4-12.9c2.2,0,4.4,0.3,6.5,0.9c6,1.8,11.3,5.3,15.3,10.1
	c3.6,4.1,6.4,8.8,8.3,13.9c3,8,2.7,16.1-0.9,22.8c-5.1,9.7-10.9,19-17.4,27.8c-7.8,10.6-16.8,20.3-26.9,28.9
	c-11,9.4-23.4,17.1-36.6,23c-14.4,6.5-30.5,9.8-48,10h-2h-0.4c-6.7-0.2-13.3-1.8-19.4-4.5c-3.5-1.6-6.8-3.5-9.9-5.7
	c-1.6,4.3-3.2,8.5-4.7,12.8c-5.3,14.3-10.1,27.4-14.2,38.8s-7.5,21.1-10,28.6c-2.1,6.4-2.8,9-3,9.9C795.4,399,786.5,407.1,776,406.9
	z"/>
</svg>
