<?xml version="1.0" encoding="utf-8"?>
<!-- Generator: Adobe Illustrator 18.1.0, SVG Export Plug-In . SVG Version: 6.00 Build 0)  -->
<!DOCTYPE svg PUBLIC "-//W3C//DTD SVG 1.0//EN" "http://www.w3.org/TR/2001/REC-SVG-20010904/DTD/svg10.dtd">
<svg version="1.0" id="Layer_2" xmlns="http://www.w3.org/2000/svg" xmlns:xlink="http://www.w3.org/1999/xlink" x="0px" y="0px"
	 viewBox="0 0 1494.9 483" enable-background="new 0 0 1494.9 483" xml:space="preserve">
<g>
	<path fill="#0000FF" d="M27.2,36.3c0-11.3,6.6-19.7,20.2-19.7S67.8,25,67.8,36.3v250.3c0,25,5.6,30.8,17.1,30.8
		c5.3,0,10.4-2.4,14.1-2.4c6.9,0,11.7,8.1,11.7,15.7c0,6-2.2,9.8-4.9,12.4c-4.4,4.4-12.6,8.9-29,8.9c-31.9,0-49.6-17.7-49.6-54.3
		V36.3z"/>
	<path fill="#0000FF" d="M148.8,143.2c0-11.5,6.4-21.2,20.4-21.2c13.5,0,20.2,9.7,20.2,21.2v113.5c0,44.5,19.1,63.6,50.5,63.6
		c38.6,0,57.8-38.1,57.8-38.1v-139c0-11.5,6.6-21.2,20.4-21.2s23.2,9.7,23.2,21.2v191.5c0,10.9-9,17.1-19.9,17.1
		c-11.1,0-16.4-6-18.2-18l-2-15.3h-0.7c0,0-21.3,35.2-70,35.2c-50.1,0-81.8-31.5-81.8-91.1V143.2z"/>
	<path fill="#0000FF" d="M406.5,159.6c-7.1-8.6-11.3-13.3-11.3-19.3c0-12.9,12.9-21.9,22.8-21.9c4.2,0,7.8,1.6,10.4,4
		c1.6,1.6,2.4,2.4,9.3,11.1l55,69.4l51-68.5c6.6-8.9,8-10.2,9.3-11.5c2.7-2.7,6.2-4.4,10.9-4.4c10,0,21.1,8.6,21.1,19.5
		c0,5.8-4,10.4-11.1,18.8l-59.2,71.6l63.2,76.2c7.1,8.6,12.8,13.3,12.8,19.5c0,12.9-14.6,21.7-24.3,21.7c-4.2,0-7.8-1.6-10.4-4
		c-1.6-1.6-2.7-2.4-9.3-11.1L487,255.7l-55.4,74c-6.6,8.9-7.8,10.2-9.1,11.5c-2.9,2.7-6.6,4.4-11.1,4.4c-9.5,0-20.8-8.2-20.8-19.3
		c0-6,4-10.6,11.1-19.1l63.4-76.9L406.5,159.6z"/>
	<path fill="#0000FF" d="M646.6,36.3c0-11.3,6.6-19.7,20.2-19.7s20.4,8.4,20.4,19.7v250.3c0,25,4.1,29.3,15.6,29.3
		c5.3,0,8.9-2.4,12.6-2.4c6.9,0,11.7,5.1,11.7,12.6c0,6-3.7,9.8-6.4,12.4c-4.4,4.4-8.1,13.4-24.5,13.4c-31.9,0-49.6-17.7-49.6-54.3
		V36.3z"/>
	<path fill="#0000FF" d="M863.5,117.9c61.6,0,105.7,44.1,105.7,111.7c0,75.3-44.3,119.9-111.3,119.9c-61.6,0-105.9-44.3-105.9-111.9
		C752,162.2,796.6,117.9,863.5,117.9z M861.3,316.4c38.1,0,66.5-28.6,66.5-82.4c0-53-30.1-83.3-67.4-83.3
		c-38.1,0-66.7,28.6-66.7,82.4C793.7,286.5,823.6,316.4,861.3,316.4z"/>
	<path fill="#0000FF" d="M1124.3,117.9c61.6,0,105.7,44.1,105.7,111.7c0,75.3-44.3,119.9-111.3,119.9
		c-61.6,0-105.9-44.3-105.9-111.9C1012.9,162.2,1057.4,117.9,1124.3,117.9z M1122.1,316.4c38.1,0,66.5-28.6,66.5-82.4
		c0-53-30.1-83.3-67.4-83.3c-38.1,0-66.7,28.6-66.7,82.4C1054.5,286.5,1084.5,316.4,1122.1,316.4z"/>
	<path fill="#0000FF" d="M1296.6,138.4c0-10.6,6-16.8,16.8-16.8c11.1,0,16.4,6,18.2,17.7l2,18.3h0.7c0,0,21.7-35.2,70-35.2
		c54.1,0,90.6,36.6,90.6,109.9c0,76.9-44.8,121.7-118.8,121.7c-21.9,0-46.6-5.3-46.6-5.3l2.4,0.2c0.4,8.9,0.7,18.4,0.7,28.4v60.5
		c0,11.3-6.9,18.2-20.4,18.2c-13.5,0-15.6-6.9-15.6-18.2V138.4z M1332.9,320.7c0,0,19.3,1.2,48.1,1.2c43,0,72.2-29.5,72.2-85.5
		c0-57.6-22.8-80.4-58.3-80.4c-38.6,0-62.4,38.1-62.4,38.1L1332.9,320.7z"/>
</g>
<g>
	<path fill="#00FF00" d="M17.6,41.5c0-11.3,6.6-18.2,20.2-18.2s20.4,6.9,20.4,18.2v247.3c0,25,7.1,32.4,18.6,32.4
		c5.3,0,8.9-0.9,12.6-0.9c6.9,0,11.7,5.1,11.7,12.6c0,6-2.2,9.8-4.9,12.4c-4.4,4.4-12.6,8.9-29,8.9c-31.9,0-49.6-17.7-49.6-54.3
		V41.5z"/>
	<path fill="#00FF00" d="M142.2,145.4c0-11.5,6.4-18.2,20.4-18.2c13.5,0,20.2,6.6,20.2,18.2v113.5c0,44.5,19.1,63.6,50.5,63.6
		c38.6,0,57.8-38.1,57.8-38.1v-139c0-11.5,6.6-18.2,20.4-18.2c13.7,0,20.2,6.6,20.2,18.2v191.5c0,10.9-6,17.1-16.8,17.1
		c-11.1,0-16.4-6-18.2-18l-2-15.3H294c0,0-21.3,35.2-70,35.2c-50.1,0-81.8-31.5-81.8-91.1V145.4z"/>
	<path fill="#00FF00" d="M401.5,167.8c-7.1-8.6-11.3-13.3-11.3-19.3c0-12.9,12.9-21.9,22.8-21.9c4.2,0,7.8,1.6,10.4,4
		c1.6,1.6,2.4,2.4,9.3,11.1l55,69.4l51-68.5c6.6-8.9,8-10.2,9.3-11.5c2.7-2.7,6.2-4.4,10.9-4.4c10,0,21.1,8.6,21.1,19.5
		c0,5.8-4,10.4-11.1,18.8l-59.2,71.6l63.2,76.2c7.1,8.6,11.3,13.3,11.3,19.5c0,12.9-13.1,21.7-22.8,21.7c-4.2,0-7.8-1.6-10.4-4
		c-1.6-1.6-2.7-2.4-9.3-11.1L481.9,264l-55.4,74c-6.6,8.9-7.8,10.2-9.1,11.5c-2.9,2.7-6.6,4.4-11.1,4.4c-9.5,0-20.8-8.2-20.8-19.3
		c0-6,4-10.6,11.1-19.1l63.4-76.9L401.5,167.8z"/>
	<path fill="#00FF00" d="M637,41.5c0-11.3,6.6-18.2,20.2-18.2c13.5,0,20.4,6.9,20.4,18.2v247.3c0,25,7.1,32.4,18.6,32.4
		c5.3,0,8.9-0.9,12.6-0.9c6.9,0,11.7,5.1,11.7,12.6c0,6-2.2,9.8-4.9,12.4c-4.4,4.4-12.6,8.9-29,8.9c-31.9,0-49.6-17.7-49.6-54.3
		V41.5z"/>
	<path fill="#00FF00" d="M858.4,124.6c61.6,0,105.7,44.1,105.7,111.7c0,75.3-44.3,119.9-111.3,119.9c-61.6,0-105.9-44.3-105.9-111.9
		C747,168.9,791.5,124.6,858.4,124.6z M856.2,323.2c38.1,0,66.5-28.6,66.5-82.4c0-53-30.1-83.3-67.4-83.3
		c-38.1,0-66.7,28.6-66.7,82.4C788.6,293.3,818.5,323.2,856.2,323.2z"/>
	<path fill="#00FF00" d="M1119.3,124.6c61.6,0,105.7,44.1,105.7,111.7c0,75.3-44.3,119.9-111.3,119.9
		c-61.6,0-105.9-44.3-105.9-111.9C1007.8,168.9,1052.3,124.6,1119.3,124.6z M1117.1,323.2c38.1,0,66.5-28.6,66.5-82.4
		c0-53-30.1-83.3-67.4-83.3c-38.1,0-66.7,28.6-66.7,82.4C1049.5,293.3,1079.4,323.2,1117.1,323.2z"/>
	<path fill="#00FF00" d="M1285.5,148.2c0-10.6-2.8,18.2,8.1,18.2c11.1,0,25.1-29,26.9-17.3l2,15.3h0.7c0,0,21.7-35.2,70-35.2
		c54.1,0,90.6,36.6,90.6,109.9c0,76.9-44.8,121.7-118.8,121.7c-21.9,0-39-5.3-39-5.3l-0.7,0.2c0.4,8.9,0.7,18.4,0.7,28.4v60.5
		c0,11.3-6.9,18.2-20.4,18.2s-20.2-6.9-20.2-18.2V148.2z M1326,319.5c0,0,15.1,9.1,43.9,9.1c43,0,72.2-29.5,72.2-85.5
		c0-57.6-22.8-80.4-58.3-80.4c-38.6,0-57.8,38.1-57.8,38.1V319.5z"/>
</g>
<g>
	<path fill="#FF0000" d="M0,31.7c0-11.3,6.6-18.2,20.2-18.2s20.4,6.9,20.4,18.2v247.3c0,25-3.3,42.6,8.2,42.6
		c5.3,0,17.7,8.1,21.4,8.1c6.9,0,13.4-14.1,13.4-6.6c0,6-2.2,9.8-4.9,12.4c-4.4,4.4-12.6,8.9-29,8.9C17.7,344.4,0,326.7,0,290.1
		V31.7z"/>
	<path fill="#FF0000" d="M124.5,135.7c0-11.5,6.4-18.2,20.4-18.2c13.5,0,20.2,6.6,20.2,18.2v113.5c0,44.5,19.1,63.6,50.5,63.6
		c38.6,0,57.8-38.1,57.8-38.1v-139c0-11.5,6.6-18.2,20.4-18.2s20.2,6.6,20.2,18.2v191.5c0,10.9-6,17.1-16.8,17.1
		c-11.1,0-3.9-21.1-5.6-33.1L277,311h-0.7c0,0-21.3,35.2-70,35.2c-50.1,0-81.8-31.5-81.8-91.1V135.7z"/>
	<path fill="#FF0000" d="M383.8,158c-7.1-8.6-11.3-13.3-11.3-19.3c0-12.9,12.9-21.9,22.8-21.9c4.2,0,7.8,1.6,10.4,4
		c1.6,1.6,2.4,2.4,9.3,11.1l55,69.4l51-68.5c6.6-8.9,8-10.2,9.3-11.5c2.7-2.7,6.2-4.4,10.9-4.4c10,0,21.1,8.6,21.1,19.5
		c0,5.8-4,10.4-11.1,18.8L492,226.8l63.2,76.2c7.1,8.6,11.3,13.3,11.3,19.5c0,12.9-13.1,21.7-22.8,21.7c-4.2,0-1.7-1.6-4.4-4
		c-1.6-1.6-1.1-2.4-7.8-11.1l-59.6-74.9l-63,74c-6.6,8.9-7.8,10.2-9.1,11.5c-2.9,2.7-6.6,4.4-11.1,4.4c-9.5,0-20.8-8.2-20.8-19.3
		c0-6,4-10.6,11.1-19.1l63.4-76.9L383.8,158z"/>
	<path fill="#FF0000" d="M619.4,31.7c0-11.3,6.6-18.2,20.2-18.2S660,20.4,660,31.7v247.3c0,25,2.1,40.6,13.6,40.6
		c5.3,0,13.1,10.1,16.9,10.1c6.9,0,0-7.5,0,0c0,6,10.3,3.2,7.6,5.8c-4.4,4.4-12.6,8.9-29,8.9c-31.9,0-49.6-17.7-49.6-54.3V31.7z"/>
	<path fill="#FF0000" d="M840.8,114.8c61.6,0,105.7,44.1,105.7,111.7c0,75.3-44.3,119.9-111.3,119.9c-61.6,0-105.9-44.3-105.9-111.9
		C729.3,159.2,773.9,114.8,840.8,114.8z M838.6,313.4c38.1,0,66.5-28.6,66.5-82.4c0-53-30.1-83.3-67.4-83.3
		c-38.1,0-66.7,28.6-66.7,82.4C771,283.5,800.9,313.4,838.6,313.4z"/>
	<path fill="#FF0000" d="M1101.6,114.8c61.6,0,105.7,44.1,105.7,111.7c0,75.3-44.3,119.9-111.3,119.9
		c-61.6,0-105.9-44.3-105.9-111.9C990.2,159.2,1034.7,114.8,1101.6,114.8z M1099.4,313.4c38.1,0,66.5-28.6,66.5-82.4
		c0-53-30.1-83.3-67.4-83.3c-38.1,0-66.7,28.6-66.7,82.4C1031.8,283.5,1061.8,313.4,1099.4,313.4z"/>
	<path fill="#FF0000" d="M1267.9,133.9c0-10.6,6-16.8,16.8-16.8c11.1,0,16.4,6,18.2,17.7l2,15.3h0.7c0,0,21.7-35.2,70-35.2
		c54.1,0,90.6,36.6,90.6,109.9c0,76.9-44.8,121.7-118.8,121.7c-21.9,0-39-5.3-39-5.3l-0.7,0.2c0.4,8.9,0.7,18.4,0.7,28.4v60.5
		c0,11.3-6.9,18.2-20.4,18.2s-20.2-6.9-20.2-18.2V133.9z M1308.4,305.2c0,0,15.1,9.1,43.9,9.1c43,0,72.2-29.5,72.2-85.5
		c0-57.6-22.8-80.4-58.3-80.4c-38.6,0-57.8,38.1-57.8,38.1V305.2z"/>
</g>
<rect x="-28.4" y="21.1" fill="none" width="1808.9" height="547.3"/>
<text id="white" transform="matrix(1 0 0 1 -28.3714 349.7099)" fill="#FFFFFF" font-family="'RooneySans-Regular'" font-size="453.8671">luxloop</text>
</svg>
