<?xml version="1.0" encoding="utf-8"?>
<!-- Generator: Adobe Illustrator 18.1.0, SVG Export Plug-In . SVG Version: 6.00 Build 0)  -->
<!DOCTYPE svg PUBLIC "-//W3C//DTD SVG 1.0//EN" "http://www.w3.org/TR/2001/REC-SVG-20010904/DTD/svg10.dtd">
<svg version="1.0" id="ll_x5F_text" xmlns="http://www.w3.org/2000/svg" xmlns:xlink="http://www.w3.org/1999/xlink" x="0px"
	 y="0px" viewBox="0 0 199.2 60.5" enable-background="new 0 0 199.2 60.5" xml:space="preserve">
<g>
	<g>
		<path fill="#0000FF" d="M5.4,5.5c0-1.5,0.9-2.4,2.7-2.4s2.7,0.9,2.7,2.4v32.7c0,3.3,0.9,4.3,2.5,4.3c0.7,0,1.2-0.1,1.7-0.1
			c0.9,0,1.6,0.7,1.6,1.7c0,0.8-0.3,1.3-0.6,1.6c-0.6,0.6-1.7,1.2-3.8,1.2c-4.2,0-6.6-2.3-6.6-7.2V5.5z"/>
		<path fill="#0000FF" d="M21.9,19.2c0-1.5,0.8-2.4,2.7-2.4c1.8,0,2.7,0.9,2.7,2.4v15c0,5.9,2.5,8.4,6.7,8.4c5.1,0,7.6-5,7.6-5V19.2
			c0-1.5,0.9-2.4,2.7-2.4s2.7,0.9,2.7,2.4v25.3c0,1.4-0.8,2.3-2.2,2.3c-1.5,0-2.2-0.8-2.4-2.4l-0.3-2h-0.1c0,0-2.8,4.7-9.3,4.7
			c-6.6,0-10.8-4.2-10.8-12V19.2z"/>
		<path fill="#0000FF" d="M56.1,22.2c-0.9-1.1-1.5-1.8-1.5-2.5c0-1.7,1.7-2.9,3-2.9c0.6,0,0.6,0.4,0.9,0.8c0.2,0.2,0.5,0.3,1.4,1.4
			l7.5,9l6.7-9.1c0.9-1.2,1.1-1.3,1.2-1.5c0.4-0.4,0.8-0.6,1.4-0.6c1.3,0,2.8,1.1,2.8,2.6c0,0.8-0.5,1.4-1.5,2.5l-8.1,9.8l8.3,10
			c0.9,1.1,1.5,1.7,1.5,2.5c0,1.7-1.5,2.6-2.8,2.6c-0.6,0-1.1-0.2-1.5-0.5c-0.2-0.2-0.4-0.3-1.3-1.4l-7.7-10l-7.3,9.8
			c-0.9,1.2-1,1.3-1.2,1.5c-0.4,0.4-0.9,0.6-1.5,0.6c-1.3,0-2.8-1.1-2.8-2.5c0-0.8,0.5-1.4,1.5-2.5l8.4-10.2L56.1,22.2z"/>
		<path fill="#0000FF" d="M87.3,5.5c0-1.5,0.9-2.4,2.7-2.4s2.7,0.9,2.7,2.4v32.7c0,3.3,0.9,4.3,2.5,4.3c0.7,0,1.2-0.1,1.7-0.1
			c0.9,0,1.6,0.7,1.6,1.7c0,0.8-0.3,1.3-0.6,1.6c-0.6,0.6-1.7,1.2-3.8,1.2c-4.2,0-6.6-2.3-6.6-7.2V5.5z"/>
		<path fill="#0000FF" d="M116.5,16.4c8.1,0,14,5.8,14,14.8c0,10-5.9,15.8-14.7,15.8c-8.1,0-14-5.9-14-14.8
			C101.8,22.3,107.7,16.4,116.5,16.4z M116.2,42.7c5,0,8.8-3.8,8.8-10.9c0-7-4-11-8.9-11c-5,0-8.8,3.8-8.8,10.9
			C107.3,38.7,111.3,42.7,116.2,42.7z"/>
		<path fill="#0000FF" d="M151,16.4c8.1,0,14,5.8,14,14.8c0,10-5.9,15.8-14.7,15.8c-8.1,0-14-5.9-14-14.8
			C136.3,22.3,142.2,16.4,151,16.4z M150.7,42.7c5,0,8.8-3.8,8.8-10.9c0-7-4-11-8.9-11c-5,0-8.8,3.8-8.8,10.9
			C141.8,38.7,145.7,42.7,150.7,42.7z"/>
		<path fill="#0000FF" d="M173,19c0-1.4,0.8-2.2,2.2-2.2c1.5,0,2.2,0.8,2.4,2.3l0.3,2h0.1c0,0,2.9-4.7,9.3-4.7c7.1,0,12,4.8,12,14.5
			c0,10.2-5.9,16.1-15.7,16.1c-2.9,0-5.2-0.7-5.2-0.7l-0.1,0c0.1,1.2,0.1,2.4,0.1,3.8v8c0,1.5-0.9,2.4-2.7,2.4s-2.7-0.9-2.7-2.4V19z
			 M178.4,41.6c0,0,2,1.2,5.8,1.2c5.7,0,9.6-3.9,9.6-11.3c0-7.6-3-10.6-7.7-10.6c-5.1,0-7.6,5-7.6,5V41.6z"/>
	</g>
	<g>
		<path fill="#00FF00" d="M4.4,4.5c0-1.5,0.9-2.4,2.7-2.4S9.8,3,9.8,4.5v32.7c0,3.3,0.9,4.3,2.5,4.3c0.7,0,1.2-0.1,1.7-0.1
			c0.9,0,1.6,0.7,1.6,1.7c0,0.8-0.3,1.3-0.6,1.6c-0.6,0.6-1.7,1.2-3.8,1.2c-4.2,0-6.6-2.3-6.6-7.2V4.5z"/>
		<path fill="#00FF00" d="M20.9,18.3c0-1.5,0.8-2.4,2.7-2.4c1.8,0,2.7,0.9,2.7,2.4v15c0,5.9,2.5,8.4,6.7,8.4c5.1,0,7.6-5,7.6-5V18.3
			c0-1.5,0.9-2.4,2.7-2.4s2.7,0.9,2.7,2.4v25.3c0,1.4-0.8,2.3-2.2,2.3c-1.5,0-2.2-0.8-2.4-2.4l-0.3-2H41c0,0-2.8,4.7-9.3,4.7
			c-6.6,0-10.8-4.2-10.8-12V18.3z"/>
		<path fill="#00FF00" d="M55.2,21.2c-0.9-1.1-1.5-1.8-1.5-2.5c0-1.7,1.7-2.9,3-2.9c0.6,0,0.8,0.3,1.1,0.7c0.2,0.2,0.3,0.4,1.2,1.6
			l7.5,8.9l6.7-9.1c0.9-1.2,1.1-1.3,1.2-1.5c0.4-0.4,0.8-0.6,1.4-0.6c1.3,0,2.8,1.1,2.8,2.6c0,0.8-0.5,1.4-1.5,2.5l-8,9.7l8.4,10.1
			c0.9,1.1,1.4,1.7,1.4,2.5c0,1.7-1.5,2.8-2.8,2.8c-0.6,0-1-0.2-1.4-0.5c-0.2-0.2-0.4-0.3-1.2-1.5l-7.9-9.9l-7.3,9.8
			c-0.9,1.2-1,1.3-1.2,1.5c-0.4,0.4-0.9,0.6-1.5,0.6c-1.3,0-2.8-1.1-2.8-2.5c0-0.8,0.5-1.4,1.5-2.5l8.4-10.2L55.2,21.2z"/>
		<path fill="#00FF00" d="M86.3,4.5c0-1.5,0.9-2.4,2.7-2.4s2.7,0.9,2.7,2.4v32.7c0,3.3,0.9,4.3,2.5,4.3c0.7,0,1.2-0.1,1.7-0.1
			c0.9,0,1.6,0.7,1.6,1.7c0,0.8-0.3,1.3-0.6,1.6c-0.6,0.6-1.7,1.2-3.8,1.2c-4.2,0-6.6-2.3-6.6-7.2V4.5z"/>
		<path fill="#00FF00" d="M115.6,15.5c8.1,0,14,5.8,14,14.8c0,10-5.9,15.8-14.7,15.8c-8.1,0-14-5.9-14-14.8
			C100.8,21.4,106.7,15.5,115.6,15.5z M115.3,41.8c5,0,8.8-3.8,8.8-10.9c0-7-4-11-8.9-11c-5,0-8.8,3.8-8.8,10.9
			C106.4,37.8,110.3,41.8,115.3,41.8z"/>
		<path fill="#00FF00" d="M150.1,15.5c8.1,0,14,5.8,14,14.8c0,10-5.9,15.8-14.7,15.8c-8.1,0-14-5.9-14-14.8
			C135.3,21.4,141.2,15.5,150.1,15.5z M149.8,41.8c5,0,8.8-3.8,8.8-10.9c0-7-4-11-8.9-11c-5,0-8.8,3.8-8.8,10.9
			C140.8,37.8,144.8,41.8,149.8,41.8z"/>
		<path fill="#00FF00" d="M172,18c0-1.4,0.8-2.2,2.2-2.2c1.5,0,2.2,0.8,2.4,2.3l0.3,2h0.1c0,0,2.9-4.7,9.3-4.7c7.1,0,12,4.8,12,14.5
			c0,10.2-5.9,16.1-15.7,16.1c-2.9,0-5.2-0.7-5.2-0.7l-0.1,0c0.1,1.2,0.1,2.4,0.1,3.8v8c0,1.5-0.9,2.4-2.7,2.4s-2.7-0.9-2.7-2.4V18z
			 M177.4,40.7c0,0,2,1.2,5.8,1.2c5.7,0,9.6-3.9,9.6-11.3c0-7.6-3-10.6-7.7-10.6c-5.1,0-7.6,5-7.6,5V40.7z"/>
	</g>
	<g>
		<path fill="#FF0000" d="M3.5,3.4C3.5,1.9,4.3,1,6.1,1s2.7,0.9,2.7,2.4v32.7c0,3.3,0.9,4.3,2.5,4.3c0.7,0,1.2-0.1,1.7-0.1
			c0.9,0,1.6,0.7,1.6,1.7c0,0.8-0.3,1.3-0.6,1.6c-0.6,0.6-1.7,1.2-3.8,1.2c-4.2,0-6.6-2.3-6.6-7.2V3.4z"/>
		<path fill="#FF0000" d="M19.9,17.1c0-1.5,0.8-2.4,2.7-2.4c1.8,0,2.7,0.9,2.7,2.4v15c0,5.9,2.5,8.4,6.7,8.4c5.1,0,7.6-5,7.6-5V17.1
			c0-1.5,0.9-2.4,2.7-2.4s2.7,0.9,2.7,2.4v25.3c0,1.4-0.8,2.3-2.2,2.3c-1.5,0-2.2-0.8-2.4-2.4l-0.3-2H40c0,0-2.8,4.7-9.3,4.7
			c-6.6,0-10.8-4.2-10.8-12V17.1z"/>
		<path fill="#FF0000" d="M54.2,20.1c-0.9-1.1-1.5-1.8-1.5-2.5c0-1.7,1.7-2.9,3-2.9c0.6,0,1,1.2,1.4,1.5c0.2,0.2,0.3,0.3,1.2,1.5
			l7.3,8.2l6.7-9.1c0.9-1.2,1.1-1.3,1.2-1.5c0.4-0.4,0.8-0.6,1.4-0.6c1.3,0,2.8,1.1,2.8,2.6c0,0.8-0.5,1.4-1.5,2.5l-8.2,9.9l8.4,9.6
			c0.9,1.1,1.6,1.8,1.6,2.6c0,1.7-1.6,2.8-2.9,2.8c-0.6,0-1-0.2-1.4-0.5c-0.2-0.2-0.4-0.3-1.2-1.5l-7.9-9.9l-7.3,9.8
			c-0.9,1.2-1,1.3-1.2,1.5c-0.4,0.4-0.9,0.6-1.5,0.6c-1.3,0-2.8-1.1-2.8-2.5c0-0.8,0.5-1.4,1.5-2.5l8.4-10.2L54.2,20.1z"/>
		<path fill="#FF0000" d="M85.3,3.4C85.3,1.9,86.2,1,88,1s2.7,0.9,2.7,2.4v32.7c0,3.3,0.9,4.3,2.5,4.3c0.7,0,1.2-0.1,1.7-0.1
			c0.9,0,1.6,0.7,1.6,1.7c0,0.8-0.3,1.3-0.6,1.6c-0.6,0.6-1.7,1.2-3.8,1.2c-4.2,0-6.6-2.3-6.6-7.2V3.4z"/>
		<path fill="#FF0000" d="M114.6,14.4c8.1,0,14,5.8,14,14.8c0,10-5.9,15.9-14.7,15.9c-8.1,0-14-5.9-14-14.8
			C99.9,20.2,105.8,14.4,114.6,14.4z M114.3,40.6c5,0,8.8-3.8,8.8-10.9c0-7-4-11-8.9-11c-5,0-8.8,3.8-8.8,10.9
			C105.4,36.7,109.3,40.6,114.3,40.6z"/>
		<path fill="#FF0000" d="M149.1,14.4c8.1,0,14,5.8,14,14.8c0,10-5.9,15.9-14.7,15.9c-8.1,0-14-5.9-14-14.8
			C134.4,20.2,140.2,14.4,149.1,14.4z M148.8,40.6c5,0,8.8-3.8,8.8-10.9c0-7-4-11-8.9-11c-5,0-8.8,3.8-8.8,10.9
			C139.9,36.7,143.8,40.6,148.8,40.6z"/>
		<path fill="#FF0000" d="M171.1,16.9c0-1.4,0.8-2.2,2.2-2.2c1.5,0,2.2,0.8,2.4,2.3l0.3,2h0.1c0,0,2.9-4.7,9.3-4.7
			c7.1,0,12,4.8,12,14.5c0,10.2-5.9,16.1-15.7,16.1c-2.9,0-5.2-0.7-5.2-0.7l-0.1,0c0.1,1.2,0.1,2.4,0.1,3.8v8c0,1.5-0.9,2.4-2.7,2.4
			s-2.7-0.9-2.7-2.4V16.9z M176.4,39.5c0,0,2,1.2,5.8,1.2c5.7,0,9.6-3.9,9.6-11.3c0-7.6-3-10.6-7.7-10.6c-5.1,0-7.6,5-7.6,5V39.5z"
			/>
	</g>
	<g>
		<path fill="#FFFFFF" d="M2.4,2.4C2.4,0.9,3.3,0,5.1,0s2.7,0.9,2.7,2.4v32.7c0,3.3,0.9,4.3,2.5,4.3c0.7,0,1.2-0.1,1.7-0.1
			c0.9,0,1.6,0.7,1.6,1.7c0,0.8-0.3,1.3-0.6,1.6c-0.6,0.6-1.7,1.2-3.8,1.2c-4.2,0-6.6-2.3-6.6-7.2V2.4z"/>
		<path fill="#FFFFFF" d="M18.9,16.1c0-1.5,0.8-2.4,2.7-2.4c1.8,0,2.7,0.9,2.7,2.4v15c0,5.9,2.5,8.4,6.7,8.4c5.1,0,7.6-5,7.6-5V16.1
			c0-1.5,0.9-2.4,2.7-2.4s2.7,0.9,2.7,2.4v25.3c0,1.4-0.8,2.3-2.2,2.3c-1.5,0-2.2-0.8-2.4-2.4l-0.3-2H39c0,0-2.8,4.7-9.3,4.7
			c-6.6,0-10.8-4.2-10.8-12V16.1z"/>
		<path fill="#FFFFFF" d="M53.2,19.1c-0.9-1.1-1.5-1.8-1.5-2.5c0-1.7,1.7-2.9,3-2.9c0.6,0,1,0.2,1.4,0.5c0.2,0.2,0.3,0.3,1.2,1.5
			l7.3,8.2l6.7-8.1c0.9-1.2,1.1-1.3,1.2-1.5c0.4-0.4,0.8-0.6,1.4-0.6c1.3,0,2.8,1.1,2.8,2.6c0,0.8-0.5,1.4-1.5,2.5l-7.8,9.5
			l8.3,10.1c0.9,1.1,1.5,1.8,1.5,2.6c0,1.7-1.7,2.9-3,2.9c-0.6,0-1-0.2-1.4-0.5c-0.2-0.2-0.4-0.3-1.2-1.5l-7.9-9.9l-7.3,9.8
			c-0.9,1.2-1,1.3-1.2,1.5c-0.4,0.4-0.9,0.6-1.5,0.6c-1.3,0-2.8-1.1-2.8-2.5c0-0.8,0.5-1.4,1.5-2.5l8.4-10.2L53.2,19.1z"/>
		<path fill="#FFFFFF" d="M84.3,2.4C84.3,0.9,85.2,0,87,0s2.7,0.9,2.7,2.4v32.7c0,3.3,0.9,4.3,2.5,4.3c0.7,0,1.2-0.1,1.7-0.1
			c0.9,0,1.6,0.7,1.6,1.7c0,0.8-0.3,1.3-0.6,1.6c-0.6,0.6-1.7,1.2-3.8,1.2c-4.2,0-6.6-2.3-6.6-7.2V2.4z"/>
		<path fill="#FFFFFF" d="M113.6,13.4c8.1,0,14,5.8,14,14.8c0,10-5.9,15.8-14.7,15.8c-8.1,0-14-5.9-14-14.8
			C98.8,19.2,104.7,13.4,113.6,13.4z M113.3,39.6c5,0,8.8-3.8,8.8-10.9c0-7-4-11-8.9-11c-5,0-8.8,3.8-8.8,10.9
			C104.4,35.7,108.3,39.6,113.3,39.6z"/>
		<path fill="#FFFFFF" d="M148.1,13.4c8.1,0,14,5.8,14,14.8c0,10-5.9,15.8-14.7,15.8c-8.1,0-14-5.9-14-14.8
			C133.3,19.2,139.2,13.4,148.1,13.4z M147.8,39.6c5,0,8.8-3.8,8.8-10.9c0-7-4-11-8.9-11c-5,0-8.8,3.8-8.8,10.9
			C138.8,35.7,142.8,39.6,147.8,39.6z"/>
		<path fill="#FFFFFF" d="M170,15.9c0-1.4,0.8-2.2,2.2-2.2c1.5,0,2.2,0.8,2.4,2.3l0.3,2h0.1c0,0,2.9-4.7,9.3-4.7
			c7.1,0,12,4.8,12,14.5c0,10.2-5.9,16.1-15.7,16.1c-2.9,0-5.2-0.7-5.2-0.7l-0.1,0c0.1,1.2,0.1,2.4,0.1,3.8v8c0,1.5-0.9,2.4-2.7,2.4
			s-2.7-0.9-2.7-2.4V15.9z M175.4,38.6c0,0,2,1.2,5.8,1.2c5.7,0,9.6-3.9,9.6-11.3c0-7.6-3-10.6-7.7-10.6c-5.1,0-7.6,5-7.6,5V38.6z"
			/>
	</g>
</g>
</svg>
