<?xml version="1.0" encoding="utf-8"?>
<!-- Generator: Adobe Illustrator 18.1.1, SVG Export Plug-In . SVG Version: 6.00 Build 0)  -->
<!DOCTYPE svg PUBLIC "-//W3C//DTD SVG 1.0//EN" "http://www.w3.org/TR/2001/REC-SVG-20010904/DTD/svg10.dtd">
<svg version="1.0" xmlns="http://www.w3.org/2000/svg" xmlns:xlink="http://www.w3.org/1999/xlink" x="0px" y="0px"
	 viewBox="0 0 3568.2 1085.4" enable-background="new 0 0 3568.2 1085.4" xml:space="preserve">
<g id="_x34_th_Layer">
	<path fill="#FFFFFF" stroke="#231F20" stroke-width="5" stroke-miterlimit="10" d="M3099.5,252.9c0,0,42.8,11.2,57.6,41.8
		l-14.4,13.8L3099.5,252.9z"/>
	<g>
		<path fill="#FFFFFF" stroke="#231F20" stroke-width="5" stroke-miterlimit="10" d="M1150.9,594.8L998.2,798
			c-9.2,12.3-12.8,17-22.9,28.1c-12.9,11.7-27.4,11.3-38.4,11.5c-12.2,0.2-25-2.8-39.4-16.3c-13.5-12.6-18.5-40.3-18-63
			c0.3-14.8,19.8-9.7,37.4-30.6l164.3-176"/>
	</g>
	<g>
		<path fill="#FFFFFF" stroke="#231F20" stroke-width="5" stroke-miterlimit="10" d="M1136.9,499.4l130.6-202.3
			c16-22.1,11.8-40.7,26.1-44.5c23.4-6.3,48.7-5.1,62.2,8.9c15.1,15.7,21.5,27.8,25.8,39.2c3.9,10.3,0.7,20.8-4,29.3
			c-2.4,4-4.9,7.5-22.2,28.8l-159.8,197.6"/>
	</g>
	<path fill="#FFFFFF" stroke="#231F20" stroke-width="5" stroke-miterlimit="10" d="M70.9,3.5c0,0,16.1,4,43.2,26.4
		C128.7,42,142.6,58.2,147.9,78c5.5,23.4,4.7,49,4.8,40.5c0.5-12.9-1.2,537.7-1.2,537.7s-0.7,41.8,9.7,59.4
		c-1.1-0.5-6.5,14.8-12.7,7.3c-3.7-4.4-9.2-16.2-12.2-30.2c-2.4-11.1-2.5-23.7-3-35.1C132.1,633.6,70.9,3.5,70.9,3.5z"/>
	<path fill="#FFFFFF" stroke="#231F20" stroke-width="5" stroke-miterlimit="10" d="M201,738.4c0,0-0.9-10.3,10.8,0
		c4,3.5,19,18.7,23.1,24.8c16.1,24.1-0.2,49.1-4.2,54.2c-4,5.1-23.6,21.2-72.1,20s-80.4-26-113.4-61
		C52.7,781.1,171.3,768.1,201,738.4z"/>
	<path fill="#FFFFFF" stroke="#231F20" stroke-width="5" stroke-miterlimit="10" d="M1563.1,3.5c0,0,16.1,4,43.2,26.4
		c14.5,12.2,28.5,28.3,33.7,48.1c5.5,23.4,4.7,49,4.8,40.5c0.5-12.9-1.2,537.7-1.2,537.7s-0.7,41.8,9.7,59.4
		c-1.1-0.5-6.5,14.8-12.7,7.3c-3.7-4.4-9.2-16.2-12.2-30.2c-2.4-11.1-2.5-23.7-3-35.1C1624.3,633.6,1563.1,3.5,1563.1,3.5z"/>
	<path fill="#FFFFFF" stroke="#231F20" stroke-width="5" stroke-miterlimit="10" d="M1693.2,738.4c0,0-0.9-10.3,10.8,0
		c4,3.5,19,18.7,23.1,24.8c16.1,24.1-0.2,49.1-4.2,54.2c-4,5.1-23.6,21.2-72.1,20c-48.6-1.2-80.4-26-113.4-61
		C1544.8,781.1,1663.5,768.1,1693.2,738.4z"/>
	<path fill="#FFFFFF" stroke="#231F20" stroke-width="5" stroke-miterlimit="10" d="M682.1,748.5c0,0-26,88.8-190.3,89.2
		C327.5,838.2,312,659.3,312,659.3l158.9,105.6l198.6-73.7L682.1,748.5z"/>
	<path fill="#FFFFFF" stroke="#231F20" stroke-width="5" stroke-miterlimit="10" d="M377.2,292c0,0,11.9-21.1,28.3-14.3
		c18.7,7.7,46.9,38,46.9,64.1c-0.1,49.1,0.4,309.1,0.4,309.1s8.6,75.8,36.2,93.3c-11.6-6.4-52.5-26.5-61.2-92.7S377.2,292,377.2,292
		z"/>
	<path fill="#FFFFFF" stroke="#231F20" stroke-width="5" stroke-miterlimit="10" d="M734.8,292c0,0,11.9-21.1,28.3-14.3
		c18.7,7.7,46.9,38,46.9,64.1c-0.1,49.1,0.4,309.1,0.4,309.1s0.5,96.6,0.5,126.7c0,41.8-28.3,58.4-53.9,60s-45.4-6.5-61.5-31.6
		c-30.5-47.5-10.5-124.2-14.5-154.5C672.3,585.2,734.8,292,734.8,292z"/>
	<path fill="#FFFFFF" stroke="#231F20" stroke-width="5" stroke-miterlimit="10" d="M2062.1,283.4c148.3,0,254.5,106.2,254.5,268.9
		c0,181.4-106.7,288.6-267.8,288.6c-148.3,0-255-106.7-255-269.4C1793.7,390.1,1900.9,283.4,2062.1,283.4z M2056.7,761.4
		c91.8,0,160-68.8,160-198.5c0-127.5-72.6-200.6-162.2-200.6c-91.8,0-160.6,68.8-160.6,198.5C1894,689.4,1966,761.4,2056.7,761.4z"
		/>
	<path fill="#FFFFFF" stroke="#231F20" stroke-width="5" stroke-miterlimit="10" d="M2690,280.4c148.3,0,254.5,106.2,254.5,268.9
		c0,181.4-106.7,288.6-267.8,288.6c-148.3,0-255-106.7-255-269.4C2421.6,387.1,2528.9,280.4,2690,280.4z M2684.6,758.4
		c91.8,0,160-68.8,160-198.5c0-127.5-72.6-200.6-162.2-200.6c-91.8,0-160.6,68.8-160.6,198.5
		C2521.9,686.4,2593.9,758.4,2684.6,758.4z"/>
	<path fill="#FFFFFF" stroke="#231F20" stroke-width="5" stroke-miterlimit="10" d="M3187.8,748.3V471.8c0,0,38.6-69.4,101.7-86.5
		c63.1-17.1,116.5,16.5,116.5,16.5l-59.3-92.5l-144.4,57.3l-67.5,85.7l27.5,307.7L3187.8,748.3"/>
	<path fill="#FFFFFF" stroke="#231F20" stroke-width="5" stroke-miterlimit="10" d="M3071,771.5c0,0-34.3,187.9-34.3,236.5
		c9.7,66.9,51.4,82,89.7,76.3c38.3-5.8,61.1-28.5,61.1-87c0-17.5-1.6-170.3-1.6-170.3s130.4,35.5,232.6-14.9
		c102.2-50.4,125.9-132.9,125.9-132.9s37.7-83.7,18.3-200.9C3543.3,361.2,3456.9,305,3456.9,305l-31.3-21.2l17.7,262.6l-52.7,139.3
		l-112,60l-193.3-2.7L3071,771.5z"/>
	<path fill="#FFFFFF" stroke="#231F20" stroke-width="5" stroke-miterlimit="10" d="M1379.1,744.7l-4-4.9
		c9.5,12,10.9,19.4,10.9,30.5c0,30.9-27.3,50.4-50.7,50.4c-10.1,0-18.7-3.7-25.1-9.6c-2.1-2.1-3.9-3.7-8-8.6l0.2,0.2
		c17.9,20.8,20.2,22.4,23.9,26.2c6.4,5.9,16.3,8.6,26.4,8.6c23.5,0,50.1-17.2,50.1-48.2C1402.8,774.5,1396.1,765.6,1379.1,744.7z"/>
</g>
<g id="_x33_rd_Layer">
	<g>
		<path fill="#FFFFFF" stroke="#231F20" stroke-width="5" stroke-miterlimit="10" d="M1145.9,582.7L993.2,785.8
			c-16.5,22-19.2,25.3-22.5,28.6c-7.1,6.6-21,11.4-32,11.6c-9.8,0.2-24.5-3.9-36-11.5c-16.1-10.7-23.8-35.9-23.3-63.3
			c0.3-14.8,14.9-14.8,32.5-35.6l164.3-176"/>
	</g>
	<g>
		<path fill="#FFFFFF" stroke="#231F20" stroke-width="5" stroke-miterlimit="10" d="M1130,490.2l130.6-202.3
			c16-22.1,18.6-37.4,32.9-41.2c23.5-6.4,45.7-2.7,58,9.9c13.1,13.4,20.7,23.9,23.2,35c2.5,10.7,0.7,20.8-4,29.3
			c-2.4,4-4.9,7.5-22.2,28.8l-159.8,197.6"/>
	</g>
	<path fill="#FFFFFF" stroke="#231F20" stroke-width="5" stroke-miterlimit="10" d="M70.8,3.3c0,0,47.4,15.6,60.8,58.7
		c2.4,7.5,2.4,33,2.4,33l0.2,561.3c0,0-0.1,3.5,0.1,8.9c0.4,12.9,4.2,39.3,11.5,51.8c-1.3-0.6-12.8,9.9-20.5-1.8
		c-5.1-7.7-8-20.1-9.7-37c-0.3-2.5,0.5-17.6,0.3-20.4C114.8,633.6,70.8,3.3,70.8,3.3z"/>
	<path fill="#FFFFFF" stroke="#231F20" stroke-width="5" stroke-miterlimit="10" d="M188,725.7c0,0-1.1-8.9,9.2-1.2
		c4.9,3.7,19.5,18.2,24.7,26c16.1,24.1-0.2,49.1-4.2,54.2c-4,5.1-18.4,21.8-72.1,20c-47.1-4.4-82.7-26.7-100.5-48.3
		C52.7,781.1,158.4,755.3,188,725.7z"/>
	<path fill="#FFFFFF" stroke="#231F20" stroke-width="5" stroke-miterlimit="10" d="M1562.9,3.3c0,0,47.4,15.6,60.8,58.7
		c2.4,7.5,2.4,33,2.4,33l0.2,561.3c0,0-0.1,3.5,0.1,8.9c0.4,12.9,4.2,39.3,11.5,51.8c-1.3-0.6-12.8,9.9-20.5-1.8
		c-5.1-7.7-8-20.1-9.7-37c-0.3-2.5,0.5-17.6,0.3-20.4C1606.9,633.6,1562.9,3.3,1562.9,3.3z"/>
	<path fill="#FFFFFF" stroke="#231F20" stroke-width="5" stroke-miterlimit="10" d="M1680.2,725.7c0,0-1.1-8.9,9.2-1.2
		c4.9,3.7,19.5,18.2,24.7,26c16.1,24.1-0.2,49.1-4.2,54.2c-4,5.1-18.4,21.8-72.1,20c-47.1-4.4-82.7-26.7-100.5-48.3
		C1544.8,781.1,1650.5,755.3,1680.2,725.7z"/>
	<path fill="#FFFFFF" stroke="#231F20" stroke-width="5" stroke-miterlimit="10" d="M676.3,731.5c0,0-23.3,93.6-187.5,94
		C324.5,826,309,647.1,309,647.1l158.9,105.6l184.4-61.5L676.3,731.5z"/>
	<path fill="#FFFFFF" stroke="#231F20" stroke-width="5" stroke-miterlimit="10" d="M359.5,257.8c0,0,11.9-2.1,28.3,4.6
		c18.7,7.7,46.9,38,46.9,64.1c-0.1,49.1,0.4,290.1,0.4,290.1s1.1,75.8,28.6,93.3c-11.6-6.4-44.9-26.5-53.7-92.7
		C401.4,550.9,359.5,257.8,359.5,257.8z"/>
	<path fill="#FFFFFF" stroke="#231F20" stroke-width="5" stroke-miterlimit="10" d="M2044.7,272.6c148.3,0,254.5,106.2,254.5,268.9
		c0,181.4-106.7,288.6-267.8,288.6c-148.3,0-255-106.7-255-269.4C1776.3,379.3,1883.6,272.6,2044.7,272.6z M2039.3,750.6
		c91.8,0,160-68.8,160-198.5c0-127.5-72.6-200.6-162.2-200.6c-91.8,0-160.6,68.8-160.6,198.5
		C1876.6,678.6,1948.6,750.6,2039.3,750.6z"/>
	<path fill="#FFFFFF" stroke="#231F20" stroke-width="5" stroke-miterlimit="10" d="M2672.6,268.6c148.3,0,254.5,106.2,254.5,268.9
		c0,181.4-106.7,288.6-267.8,288.6c-148.3,0-255-106.7-255-269.4C2404.2,375.3,2511.5,268.6,2672.6,268.6z M2667.2,746.6
		c91.8,0,160-68.8,160-198.5c0-127.5-72.6-200.6-162.2-200.6c-91.8,0-160.6,68.8-160.6,198.5
		C2504.5,674.6,2576.6,746.6,2667.2,746.6z"/>
	<path fill="#FFFFFF" stroke="#231F20" stroke-width="5" stroke-miterlimit="10" d="M3170.6,731.8V455.3c0,0,38.6-69.4,101.7-86.5
		c63.1-17.1,116.5,16.5,116.5,16.5l-59.3-92.5L3185,350.1l-67.5,85.7l27.5,307.7L3170.6,731.8"/>
	<path fill="#FFFFFF" stroke="#231F20" stroke-width="5" stroke-miterlimit="10" d="M3103.5,254.6c0,0,32.5,9.9,45.5,47.6
		l-11.7,12.7L3103.5,254.6z"/>
	<path fill="#FFFFFF" stroke="#231F20" stroke-width="5" stroke-miterlimit="10" d="M3055,758.2c0,0-18,193.6-18,242.3
		c2.5,62.9,40,80.9,78.3,75.1s56.1-37.8,56.1-86.5c0-12.8-1.6-175.4-1.6-175.4s64.1,18.5,128.1,10.9c64-7.6,95.8-22.2,95.8-22.2
		s76.7-29.9,115.1-99c38.5-69.1,41.7-132.5,40.7-194.4s-32.3-145.3-67.9-181c-9.4-8.1-17.7-20.4-56.1-44.3
		c-9.2,75.8,47.1,189.3,47.1,189.3l-48,200l-107.3,61.3L3142,746.4L3055,758.2z"/>
	<path fill="#FFFFFF" stroke="#231F20" stroke-width="5" stroke-miterlimit="10" d="M1313.2,815.1c6.4,5.9,14.9,9.6,25.1,9.6
		c23.5,0,54.1-16.5,54.1-47.4c0-11.1-2.7-18.5-12.3-30.5l-12-17c4.7,7,4.9,15.8,4.9,22.8c0,30.9-29,50.9-52.5,50.9
		c-10.1,0-24.8-8.6-31.2-14.5c0,0,6.5,6.9,6.5,6.8l9.3,10.5C1309.2,811.4,1311,813,1313.2,815.1z"/>
	<path fill="#FFFFFF" stroke="#231F20" stroke-width="5" stroke-miterlimit="10" d="M717.1,257.8c0,0,11.9-2.1,28.3,4.6
		c18.7,7.7,46.9,38,46.9,64.1c-0.1,49.1,0.4,290.1,0.4,290.1s0.7,129.9,0.7,162.3c0,20.2-20.7,43.4-45.4,46.3
		c-24.7,2.9-44.1-0.4-60-33.3c-31.7-52.6-12.3-134.3-17.7-174.7C661.6,550.9,717.1,257.8,717.1,257.8z"/>
</g>
<g id="_x32_nd_Layer">
	<g>
		<path fill="#FFFFFF" stroke="#231F20" stroke-width="5" stroke-miterlimit="10" d="M1140.9,571.7L988.2,774.8
			c-16.5,22-19.2,25.3-22.5,28.6c-7.1,6.6-16.5,10.8-27.5,11c-23.7,0.5-59.7-15.5-58.8-62.6c0.3-14.8,9.9-26.4,27.5-47.3l164.3-176"
			/>
	</g>
	<g>
		<path fill="#FFFFFF" stroke="#231F20" stroke-width="5" stroke-miterlimit="10" d="M1122.1,483l147.8-195.9
			c16-22.1,7.6-40.7,21.9-44.6c45.4-12.3,69.7,18.7,75,41.8c2.5,10.7,0.7,20.8-4,29.3c-2.4,4-4.9,7.5-22.2,28.8l-159.8,197.6"/>
	</g>
	<path fill="#FFFFFF" stroke="#231F20" stroke-width="5" stroke-miterlimit="10" d="M53.9,2.4c0,0,7.3-2.1,16.9,0.9
		c14.8,4.6,35.1,18.3,43.2,44.5c2.4,7.5,2.4,14.2,2.4,14.2l0,594.3c0,0-0.7,40.4,9.7,58.1c-2.4-1-25.6-6.7-27.9-56.6
		C97.1,633.6,53.9,2.4,53.9,2.4z"/>
	<path fill="#FFFFFF" stroke="#231F20" stroke-width="5" stroke-miterlimit="10" d="M177.1,715.2c0,0,17.8,0.7,33.9,24.8
		c16.1,24.1-0.2,49.1-4.2,54.2c-4,5.1-18.4,21.8-72.1,20c-42-2.7-72.1-19.2-89.6-37.8C52.7,781.1,147.4,744.8,177.1,715.2z"/>
	<path fill="#FFFFFF" stroke="#231F20" stroke-width="5" stroke-miterlimit="10" d="M1546.1,2.4c0,0,7.3-2.1,16.9,0.9
		c14.8,4.6,35.1,18.3,43.2,44.5c2.4,7.5,2.4,14.2,2.4,14.2l0,594.3c0,0-0.7,40.4,9.7,58.1c-2.4-1-25.6-6.7-27.9-56.6
		C1589.3,633.6,1546.1,2.4,1546.1,2.4z"/>
	<path fill="#FFFFFF" stroke="#231F20" stroke-width="5" stroke-miterlimit="10" d="M1669.3,715.2c0,0,17.8,0.7,33.9,24.8
		c16.1,24.1-0.2,49.1-4.2,54.2c-4,5.1-18.4,21.8-72.1,20c-42-2.7-72.1-19.2-89.6-37.8C1544.8,781.1,1639.6,744.8,1669.3,715.2z"/>
	<path fill="#FFFFFF" stroke="#231F20" stroke-width="5" stroke-miterlimit="10" d="M375.8,254.8c18.7,7.7,42.3,25.9,42.2,52
		c-0.1,49.1,0,302.2,0,302.2s6.2,75.8,33.7,93.3c-11.6-6.4-44.9-26.5-53.7-92.7c-7.8-59-41.8-297.5-49.2-349.4
		C348,253.8,359.4,248.1,375.8,254.8z"/>
	<path fill="#FFFFFF" stroke="#231F20" stroke-width="5" stroke-miterlimit="10" d="M722,251.2c3.4,0.8,7.3,1.9,11.4,3.6
		c18.7,7.7,42.3,25.9,42.2,52c-0.1,49.1,0,302.2,0,302.2s0.2,120.7,0.2,153c0,25.3-14,47.4-41.1,51.6c-27.1,4.2-47.2-16.6-55.4-38.2
		c-6.4-16.9,20.7-34.5,18.4-51.8c-8-60.8,4.8-408.4,6.9-465.5C705,253,712.1,250.2,722,251.2z"/>
	<path fill="#FFFFFF" stroke="#231F20" stroke-width="5" stroke-miterlimit="10" d="M675.1,719.3c0,0-26,94.4-190.3,94.9
		C320.5,814.6,305,635.7,305,635.7l158.9,105.6l195.7-34.1L675.1,719.3z"/>
	<path fill="#FFFFFF" stroke="#231F20" stroke-width="5" stroke-miterlimit="10" d="M2027,258.5c148.3,0,254.5,106.2,254.5,268.9
		c0,181.4-106.7,288.6-267.8,288.6c-148.3,0-255-106.7-255-269.4C1758.6,365.2,1865.9,258.5,2027,258.5z M2021.6,736.5
		c91.8,0,160-68.8,160-198.5c0-127.5-72.6-200.6-162.2-200.6c-91.8,0-160.6,68.8-160.6,198.5
		C1858.9,664.5,1930.9,736.5,2021.6,736.5z"/>
	<path fill="#FFFFFF" stroke="#231F20" stroke-width="5" stroke-miterlimit="10" d="M2654.9,256.5c148.3,0,254.5,106.2,254.5,268.9
		c0,181.4-106.7,288.6-267.8,288.6c-148.3,0-255-106.7-255-269.4C2386.5,363.2,2493.8,256.5,2654.9,256.5z M2649.6,734.5
		c91.8,0,160-68.8,160-198.5c0-127.5-72.6-200.6-162.2-200.6c-91.8,0-160.6,68.8-160.6,198.5
		C2486.8,662.5,2558.9,734.5,2649.6,734.5z"/>
	<path fill="#FFFFFF" stroke="#231F20" stroke-width="5" stroke-miterlimit="10" d="M3052.7,748.2c0,0-16,211.2-16,259.9
		c6.8,49.3,33.7,62.5,72,56.8s44-47.5,44-66.3c0-14.8-1.6-194.9-1.6-194.9s76.3,16.7,133,10.6c56.7-6.1,89.9-21,89.9-21
		s94.7-29.1,135.4-137.1s15.1-218.3,15.1-218.3s-10.6-80.1-75.2-135.6c-14-12.1-25.8-20.1-25.8-20.1s11.1,96.9,8.1,162.6
		c-5.5,119.5-27.5,253-27.5,253l-119.7,59l-180.5,0.7L3052.7,748.2z"/>
	<path fill="#FFFFFF" stroke="#231F20" stroke-width="5" stroke-miterlimit="10" d="M3076.7,249.1c0,0,40.4-2.9,55.5,37.2
		c4.5,10.2,6.3,18.1,7.4,25.8c0,6.6-11.4,15.8-12.8,16.5c-1,0-1.6,0-1.6,0L3076.7,249.1z"/>
	<path fill="#FFFFFF" stroke="#231F20" stroke-width="5" stroke-miterlimit="10" d="M3152.6,710.3V433.8c0,0,38.6-69.4,101.7-86.5
		c63.1-17.1,116.5,16.5,116.5,16.5l-59.3-92.5L3167,328.6l-67.5,85.7L3127,722L3152.6,710.3"/>
	<g>
		<path fill="#FFFFFF" stroke="#231F20" stroke-width="5" stroke-miterlimit="10" d="M1370.8,738.8c0.7,0.9,1.4,1.7,2.1,2.5
			c-4.2-6-9.7-12.4-16.1-20c0.6,0.9,1.2,1.8,1.7,2.7L1370.8,738.8z"/>
		<path fill="#FFFFFF" stroke="#231F20" stroke-width="5" stroke-miterlimit="10" d="M1294.1,792.6c-0.6-0.3-1.1-0.5-1.7-0.8
			c4.9,6.1,7.3,8.5,9.3,10.5c-0.9-1.2-1.9-2.5-3-3.9L1294.1,792.6z"/>
		<path fill="#FFFFFF" stroke="#231F20" stroke-width="5" stroke-miterlimit="10" d="M1358.5,724c0.1,0.2,0.2,0.3,0.3,0.5l14.8,17.8
			c-0.2-0.3-0.5-0.7-0.7-1c-0.7-0.8-1.4-1.6-2.1-2.5L1358.5,724z"/>
		<path fill="#FFFFFF" stroke="#231F20" stroke-width="5" stroke-miterlimit="10" d="M1294.9,793c-0.3-0.1-0.5-0.2-0.8-0.3l4.6,5.8
			c1.1,1.4,2,2.7,3,3.9c0.6,0.6,1.1,1.1,1.7,1.7L1294.9,793z"/>
		<path fill="#FFFFFF" stroke="#231F20" stroke-width="5" stroke-miterlimit="10" d="M1364.7,743.7c0,30.9-31.5,52.3-54.9,52.3
			c-5.4,0-16-4.9-20.4-6.8l14.1,14.8c0,0,0,0,0,0c6.4,5.9,14.9,9.6,25.1,9.6c23.5,0,52.5-20,52.5-50.9c0-7-2.8-16.7-7.5-23.7
			l-11.2-18.7C1366.2,726.8,1364.7,736.9,1364.7,743.7z"/>
	</g>
	<path fill="#FFFFFF" stroke="#231F20" stroke-width="5" stroke-miterlimit="10" d="M1346.3,245.5"/>
</g>
<g id="Top">
	<path fill="#FFFFFF" stroke="#231F20" stroke-width="5" stroke-miterlimit="10" d="M0,43.7C0,16.5,16,0,48.5,0s49.1,16.5,49.1,43.7
		v595.4c0,60.3,17.1,77.9,44.8,77.9c12.8,0,21.3-2.1,30.4-2.1c16.5,0,28.3,12.3,28.3,30.4c0,14.4-5.3,23.5-11.7,29.9
		c-10.7,10.7-30.4,21.3-69.9,21.3C42.7,796.5,0,753.8,0,665.8V43.7z"/>
	<path fill="#FFFFFF" stroke="#231F20" stroke-width="5" stroke-miterlimit="10" d="M1492.2,43.7c0-27.2,16-43.7,48.5-43.7
		s49.1,16.5,49.1,43.7v595.4c0,60.3,17.1,77.9,44.8,77.9c12.8,0,21.3-2.1,30.4-2.1c16.5,0,28.3,12.3,28.3,30.4
		c0,14.4-5.3,23.5-11.7,29.9c-10.7,10.7-30.4,21.3-69.9,21.3c-76.8,0-119.5-42.7-119.5-130.7V43.7z"/>
	<path fill="#FFFFFF" stroke="#231F20" stroke-width="5" stroke-miterlimit="10" d="M300.9,294c0-27.7,15.5-43.7,49.1-43.7
		c32.5,0,48.5,16,48.5,43.7v273.1c0,107.2,45.9,153.1,121.6,153.1c92.8,0,139.2-91.8,139.2-91.8V294c0-27.7,16-43.7,49.1-43.7
		c33.1,0,48.5,16,48.5,43.7v460.9c0,26.1-14.4,41.1-40.5,41.1c-26.7,0-39.5-14.4-43.7-43.2l-4.8-36.8h-1.6c0,0-51.2,84.8-168.6,84.8
		c-120.6,0-196.9-75.8-196.9-219.3V294z"/>
	<path fill="#FFFFFF" stroke="#231F20" stroke-width="5" stroke-miterlimit="10" d="M2008.1,243.8c148.3,0,254.5,106.2,254.5,268.9
		c0,181.4-106.7,288.6-267.8,288.6c-148.3,0-255-106.7-255-269.4C1739.8,350.5,1847,243.8,2008.1,243.8z M2002.8,721.8
		c91.8,0,160-68.8,160-198.4c0-127.5-72.6-200.6-162.2-200.6c-91.8,0-160.6,68.8-160.6,198.5
		C1840.1,649.8,1912.1,721.8,2002.8,721.8z"/>
	<path fill="#FFFFFF" stroke="#231F20" stroke-width="5" stroke-miterlimit="10" d="M2636.1,243.8c148.3,0,254.5,106.2,254.5,268.9
		c0,181.4-106.7,288.6-267.8,288.6c-148.3,0-255-106.7-255-269.4C2367.7,350.5,2474.9,243.8,2636.1,243.8z M2630.7,721.8
		c91.8,0,160-68.8,160-198.4c0-127.5-72.6-200.6-162.2-200.6c-91.8,0-160.6,68.8-160.6,198.5C2468,649.8,2540,721.8,2630.7,721.8z"
		/>
	<path fill="#FFFFFF" stroke="#231F20" stroke-width="5" stroke-miterlimit="10" d="M3036.2,289.7c0-25.6,14.4-40.5,40.5-40.5
		c26.7,0,39.5,14.4,43.7,42.7l4.8,36.8h1.6c0,0,52.3-84.8,168.6-84.8c130.2,0,218.2,88,218.2,264.6c0,185.1-107.8,292.9-285.9,292.9
		c-52.8,0-93.9-12.8-93.9-12.8l-1.6,0.5c1.1,21.3,1.6,44.3,1.6,68.3v145.6c0,27.2-16.5,43.7-49.1,43.7s-48.5-16.5-48.5-43.7V289.7z
		 M3133.8,702.1c0,0,36.3,21.9,105.6,21.9c103.5,0,173.9-71,173.9-205.9c0-138.7-54.9-193.7-140.3-193.7
		c-92.8,0-139.2,91.8-139.2,91.8V702.1z"/>
	<path fill="#FFFFFF" stroke="#231F20" stroke-width="5" stroke-miterlimit="10" d="M918.9,337.4c-17.6-21.4-28-33-28-47.8
		c0-31.9,31.9-54.4,56.6-54.4c10.4,0,19.2,3.8,25.8,9.9c3.8,3.8,6,6,23.1,27.5l136.3,172l126.4-169.8c16.5-22,19.8-25.3,23.1-28.6
		c6.6-6.6,15.4-11,26.9-11c24.7,0,52.2,21.4,52.2,48.4c0,14.3-9.9,25.8-27.5,46.7l-146.7,177.5l156.6,189.1c17.6,21.4,28,33,28,48.4
		c0,31.9-32.4,53.9-56.6,53.9c-10.4,0-19.2-3.8-25.8-9.9c-3.8-3.8-6.6-6-23.1-27.5l-147.8-185.8L981,759.5
		c-16.5,22-19.2,25.3-22.5,28.6c-7.1,6.6-16.5,11-27.5,11c-23.6,0-51.7-20.3-51.7-47.8c0-14.8,9.9-26.4,27.5-47.3L1064,513.3
		L918.9,337.4z"/>
</g>
</svg>
