<?xml version="1.0" encoding="utf-8"?>
<!-- Generator: Adobe Illustrator 18.0.0, SVG Export Plug-In . SVG Version: 6.00 Build 0)  -->
<!DOCTYPE svg PUBLIC "-//W3C//DTD SVG 1.0//EN" "http://www.w3.org/TR/2001/REC-SVG-20010904/DTD/svg10.dtd">
<?xml-stylesheet type="text/css" href="../css/catalyst.css" ?>
<svg version="1.0" xmlns="http://www.w3.org/2000/svg" xmlns:xlink="http://www.w3.org/1999/xlink" x="0px" y="0px"
	 viewBox="0 0 100 100" enable-background="new 0 0 100 100" xml:space="preserve" class="socialLink">
<g id="Layer_1">
	<path class="socSvgStroke" id="Facebook__x28_alt_x29__3_" fill="none" stroke="#FBF49C" stroke-width="2" stroke-miterlimit="10" d="M95.3,19.4
		c0-7.9-7.1-15-15-15h-60c-7.9,0-15,7.1-15,15v60c0,7.9,7.1,15,15,15h30h14h16c7.9,0,15-7.1,15-15V19.4z"/>
</g>
<g id="Layer_2">
	<path class="socSvgFill" id="Facebook__x28_alt_x29__1_" fill="#FBF49C" d="M50.3,94.4v-34h-11v-15h11v-5.8c0-10.1,7.6-19.2,16.9-19.2h12.1v15H67.2
		c-1.3,0-2.9,1.6-2.9,4v6h15v15h-15v34H50.3z"/>
</g>
</svg>
