<?xml version="1.0" encoding="utf-8"?>
<!-- Generator: Adobe Illustrator 18.1.0, SVG Export Plug-In . SVG Version: 6.00 Build 0)  -->
<!DOCTYPE svg PUBLIC "-//W3C//DTD SVG 1.0//EN" "http://www.w3.org/TR/2001/REC-SVG-20010904/DTD/svg10.dtd">
<svg version="1.0" xmlns="http://www.w3.org/2000/svg" xmlns:xlink="http://www.w3.org/1999/xlink" x="0px" y="0px"
	 viewBox="0 0 100 100" enable-background="new 0 0 100 100" xml:space="preserve">
<g id="Layer_5">
	<path fill-rule="evenodd" clip-rule="evenodd" fill="#FFFFFF" d="M81.3,6.5c-3.6,0-50.2,0-61.2,0S5.9,14,5.9,16.4
		S5.3,42.4,5.3,42.4h29.4c2.9-5.5,8.6-9.2,15.3-9.2s12.4,3.7,15.3,9.2h28.7c0,0,0-12.5,0-23.3C93.9,8.2,84.9,6.5,81.3,6.5z
		 M84.7,28.6c0,1.9-1.5,3.5-3.5,3.5H70.9c-1.9,0-3.5-1.5-3.5-3.5V18.3c0-1.9,1.5-3.5,3.5-3.5h10.4c1.9,0,3.5,1.5,3.5,3.5V28.6z"/>
</g>
<g id="Layer_6">
	<g>
		<path fill="#FFFFFF" d="M50.1,33.2c9.4,0,17,7.6,17,17s-7.6,17-17,17s-17-7.6-17-17S40.7,33.2,50.1,33.2 M50.1,29.2
			c-11.6,0-21,9.4-21,21s9.4,21,21,21c11.6,0,21-9.4,21-21S61.7,29.2,50.1,29.2L50.1,29.2z"/>
	</g>
</g>
<g id="Layer_1">
	<g id="Facebook__x28_alt_x29__3_">
		<path fill="#FFFFFF" d="M80.3,7.4c6.3,0,12,5.7,12,12v60c0,6.3-5.7,12-12,12h-16h-14h-30c-6.3,0-12-5.7-12-12v-60
			c0-6.3,5.7-12,12-12H80.3 M80.3,4.4h-60c-7.9,0-15,7.1-15,15v60c0,7.9,7.1,15,15,15h30h14h16c7.9,0,15-7.1,15-15v-60
			C95.3,11.6,88.2,4.4,80.3,4.4L80.3,4.4z"/>
	</g>
</g>
<g id="Layer_1_copy">
	<path id="Facebook__x28_alt_x29__1_" fill="none" stroke="#FFFFFF" stroke-width="2" stroke-miterlimit="10" d="M95.3,19.4
		c0-7.9-7.1-15-15-15h-60c-7.9,0-15,7.1-15,15v60c0,7.9,7.1,15,15,15h30h14h16c7.9,0,15-7.1,15-15V19.4z"/>
</g>
</svg>
