<?xml version="1.0" encoding="utf-8"?>
<!-- Generator: Adobe Illustrator 18.1.0, SVG Export Plug-In . SVG Version: 6.00 Build 0)  -->
<!DOCTYPE svg PUBLIC "-//W3C//DTD SVG 1.0//EN" "http://www.w3.org/TR/2001/REC-SVG-20010904/DTD/svg10.dtd">
<svg version="1.0" xmlns="http://www.w3.org/2000/svg" xmlns:xlink="http://www.w3.org/1999/xlink" x="0px" y="0px"
	 viewBox="0 0 100 100" enable-background="new 0 0 100 100" xml:space="preserve">
<g id="Layer_2">
	<g>
		<defs>
			<rect id="SVGID_3_" x="5.3" y="4.4" width="90" height="90"/>
		</defs>
		<clipPath id="SVGID_1_">
			<use xlink:href="#SVGID_3_"  overflow="visible"/>
		</clipPath>
		<path clip-path="url(#SVGID_1_)" fill-rule="evenodd" clip-rule="evenodd" fill="#FFFFFF" d="M84.8,42.4H77
			c0.6,2.2,0.9,4.5,0.9,6.9C77.9,64.6,65.5,77,50.3,77C35,77,22.6,64.6,22.6,49.4c0-2.4,0.3-4.7,0.9-6.9h-7.8v38
			c0,1.9,1.5,3.5,3.5,3.5h62.2c1.9,0,3.5-1.5,3.5-3.5V42.4z M84.8,18.3c0-1.9-1.5-3.5-3.5-3.5H71c-1.9,0-3.5,1.5-3.5,3.5v10.4
			c0,1.9,1.5,3.5,3.5,3.5h10.4c1.9,0,3.5-1.5,3.5-3.5V18.3z M50.3,32.1c-9.5,0-17.3,7.7-17.3,17.3c0,9.5,7.7,17.3,17.3,17.3
			s17.3-7.7,17.3-17.3C67.5,39.8,59.8,32.1,50.3,32.1 M84.8,94.3H15.7c-3.1,0-10.4-7.7-10.4-10.4V14.8c0-3,7.6-10.4,10.4-10.4h69.1
			c2.6,0,10.4,7.2,10.4,10.4v69.1C95.2,86.8,87.7,94.3,84.8,94.3"/>
	</g>
</g>
<g id="Layer_1">
	<path id="Facebook__x28_alt_x29__3_" fill="none" stroke="#FFFFFF" stroke-width="2" stroke-miterlimit="10" d="M95.3,19.4
		c0-7.9-7.1-15-15-15h-60c-7.9,0-15,7.1-15,15v60c0,7.9,7.1,15,15,15h30h14h16c7.9,0,15-7.1,15-15V19.4z"/>
</g>
</svg>
