<?xml version="1.0" encoding="utf-8"?>
<!-- Generator: Adobe Illustrator 18.1.0, SVG Export Plug-In . SVG Version: 6.00 Build 0)  -->
<!DOCTYPE svg PUBLIC "-//W3C//DTD SVG 1.0//EN" "http://www.w3.org/TR/2001/REC-SVG-20010904/DTD/svg10.dtd">
<svg version="1.0" xmlns="http://www.w3.org/2000/svg" xmlns:xlink="http://www.w3.org/1999/xlink" x="0px" y="0px"
	 viewBox="0 0 100 100" enable-background="new 0 0 100 100" xml:space="preserve">
<g id="Layer_1">
	<path id="Facebook__x28_alt_x29__3_" fill="none" stroke="#FFFFFF" stroke-width="2" stroke-miterlimit="10" d="M95.3,19.4
		c0-7.9-7.1-15-15-15h-60c-7.9,0-15,7.1-15,15v60c0,7.9,7.1,15,15,15h30h14h16c7.9,0,15-7.1,15-15V19.4z"/>
</g>
<g id="Layer_2">
	<path id="Tumblr_2_" fill="#FFFFFF" d="M57.4,73.3c-1.2-0.7-2.3-1.9-2.8-3.1c-0.5-1.2-0.4-3.6-0.4-7.8V43.8h16.9V30.9H54.2V14.1
		H43.8c-0.5,3.7-1.3,6.8-2.6,9.2c-1.2,2.4-2.9,4.5-4.9,6.2c-2,1.7-5.4,3.1-8.2,4v10.3H38v25.4c0,3.3,0.4,5.8,1,7.6
		c0.7,1.7,2,3.4,3.8,4.9c1.8,1.5,4,2.7,6.6,3.6c2.6,0.8,4.5,1.2,7.9,1.2c2.9,0,5.7-0.3,8.2-0.9c2.5-0.6,5.4-1.6,8.5-3.1V71.2
		c-3.7,2.4-7.3,3.6-11,3.6C60.8,74.7,59,74.3,57.4,73.3z"/>
</g>
</svg>
