<?xml version="1.0" encoding="utf-8"?>
<!-- Generator: Adobe Illustrator 18.0.0, SVG Export Plug-In . SVG Version: 6.00 Build 0)  -->
<!DOCTYPE svg PUBLIC "-//W3C//DTD SVG 1.0//EN" "http://www.w3.org/TR/2001/REC-SVG-20010904/DTD/svg10.dtd">
<?xml-stylesheet type="text/css" href="../css/catalyst.css" ?>
<svg version="1.0" xmlns="http://www.w3.org/2000/svg" xmlns:xlink="http://www.w3.org/1999/xlink" x="0px" y="0px"
	 viewBox="0 0 100 100" enable-background="new 0 0 100 100" xml:space="preserve" class="socialLink">
<g id="Layer_1">
	<path class="socSvgStroke" id="Facebook__x28_alt_x29__3_" fill="none" stroke="#FBF49C" stroke-width="2" stroke-miterlimit="10" d="M95.3,19.4
		c0-7.9-7.1-15-15-15h-60c-7.9,0-15,7.1-15,15v60c0,7.9,7.1,15,15,15h30h14h16c7.9,0,15-7.1,15-15V19.4z"/>
</g>
<g id="Layer_2">
	<path class="socSvgFill" fill="#FBF49C" d="M64.6,17.1L64.6,17.1l1.9,0h1.9l1.4,0.3c0.9,0.2,1.8,0.4,2.6,0.7c0.8,0.3,1.5,0.6,2.2,1
		c0.7,0.4,1.4,0.8,1.9,1.2c0.6,0.4,1.1,0.8,1.6,1.3c0.5,0.5,1.2,0.6,2.1,0.4c1-0.2,2-0.5,3.1-0.9c1.1-0.4,2.2-0.8,3.3-1.3
		c1.1-0.5,1.7-0.8,2-0.9c0.2-0.1,0.4-0.2,0.4-0.2l0,0l0.1,0l0.1,0l0.1,0l0.1,0l0,0l0,0l0,0l0,0l0.1,0l0.1,0l0,0.1l0,0.1l0,0.1l0,0.1
		l0,0.1l0,0.1l0,0.1c0,0.1,0,0.2-0.1,0.3s-0.3,0.6-0.7,1.5s-1,1.7-1.7,2.6c-0.7,0.9-1.3,1.6-1.8,2c-0.5,0.5-0.9,0.8-1.1,1
		c-0.2,0.2-0.4,0.4-0.6,0.5l-0.4,0.2l-0.1,0l-0.1,0l0,0l0,0l0,0l0,0l-0.1,0l-0.1,0l0,0l0,0l0,0l0,0l0,0l0,0l0,0l0,0h0.2h0.2L85,27
		c1.4-0.3,2.7-0.7,4-1.1c1.3-0.4,1.9-0.6,2-0.7c0.1,0,0.1,0,0.2-0.1l0.1,0l0.1,0l0.1,0l0.1,0l0.1,0l0.1,0l0.1,0v0.1v0.1l0,0l0,0l0,0
		l0,0l0,0l0,0l0,0l0,0l0,0l0,0l0,0l0,0l0,0.1l0,0.1l0,0c0,0-0.3,0.4-0.9,1.3c-0.6,0.8-1,1.2-1,1.3c0,0-0.1,0.1-0.2,0.2
		c-0.1,0.1-0.6,0.7-1.6,1.7c-1,1-1.9,1.8-2.8,2.6c-0.9,0.8-1.4,1.7-1.4,2.8c0,1.1-0.1,2.3-0.2,3.7c-0.1,1.4-0.3,2.9-0.6,4.5
		c-0.3,1.6-0.7,3.4-1.3,5.4c-0.6,2-1.3,4-2.1,5.9c-0.8,1.9-1.7,3.7-2.6,5.2c-0.9,1.5-1.7,2.8-2.4,3.9s-1.5,2.1-2.3,3
		c-0.8,0.9-1.7,2-2.9,3.2c-1.2,1.2-1.8,1.8-1.9,1.9c-0.1,0.1-0.6,0.5-1.5,1.2c-0.8,0.7-1.8,1.4-2.7,2.1c-1,0.7-1.9,1.3-2.7,1.8
		s-1.8,1-2.9,1.6c-1.1,0.6-2.4,1.2-3.7,1.7c-1.3,0.5-2.7,1-4.2,1.4s-2.9,0.8-4.3,1s-3,0.5-4.7,0.6L38,83.8v0v0h-2.4h-2.4v0v0l-0.6,0
		c-0.4,0-0.8,0-1-0.1c-0.3,0-1.3-0.2-3.1-0.4c-1.8-0.2-3.2-0.5-4.2-0.7s-2.5-0.7-4.5-1.4s-3.7-1.4-5.1-2.1c-1.4-0.7-2.3-1.1-2.7-1.3
		c-0.4-0.2-0.8-0.4-1.2-0.7l-0.7-0.4l0,0l0,0l0,0l0,0l-0.1,0l-0.1,0l0,0l0,0l0,0l0,0l0,0l0,0h0h0v-0.1v-0.1l0.1,0l0.1,0l0.3,0
		c0.2,0,0.8,0.1,1.8,0.1s2,0,3.1,0s2.2-0.2,3.4-0.3c1.2-0.2,2.5-0.5,4.1-0.9c1.6-0.4,3-0.9,4.4-1.5c1.3-0.6,2.3-1,2.8-1.3
		c0.6-0.3,1.4-0.8,2.5-1.6l1.7-1.1l0,0l0,0l0,0l0,0l0,0l0,0l0,0l0,0l0.1,0l0.1,0l0-0.1l0-0.1l0,0l0,0l-0.6,0c-0.4,0-0.8,0-1.1-0.1
		s-1-0.1-1.7-0.3c-0.8-0.2-1.6-0.5-2.6-0.9c-0.9-0.4-1.8-0.9-2.7-1.4s-1.5-1-1.9-1.4c-0.4-0.4-0.9-0.9-1.5-1.5
		c-0.6-0.7-1.1-1.3-1.6-2s-0.9-1.5-1.3-2.4l-0.6-1.3l0-0.1l0-0.1l0-0.1l0-0.1l0.1,0l0.1,0l0.8,0.1c0.5,0.1,1.4,0.1,2.6,0.1
		s2-0.1,2.4-0.1c0.4-0.1,0.7-0.1,0.8-0.1l0.1,0l0.2,0l0.2,0l0,0l0,0l0,0l0,0l-0.1,0l-0.1,0l-0.1,0l-0.1,0l-0.1,0
		c-0.1,0-0.3-0.1-0.5-0.1c-0.2-0.1-0.9-0.3-2-0.8c-1.1-0.5-2-0.9-2.6-1.4c-0.6-0.4-1.3-0.9-1.8-1.5c-0.6-0.5-1.2-1.2-1.9-2.1
		c-0.7-0.8-1.3-1.8-1.9-2.9c-0.5-1.1-1-2.2-1.2-3.2s-0.4-2-0.5-3.1l-0.1-1.6l0.1,0l0.1,0l0.1,0l0.1,0l0.1,0l0.1,0l1.1,0.5
		c0.8,0.3,1.7,0.6,2.9,0.9s1.8,0.4,2,0.4l0.3,0h0.3h0.3l0,0l0,0l0,0l0,0l0,0l0,0l0,0l0,0l-0.1,0l-0.1,0l0,0l0,0l0,0l0,0l-0.1,0
		l-0.1,0l0,0c0,0-0.2-0.2-0.6-0.5c-0.4-0.3-0.8-0.7-1.3-1.2c-0.4-0.5-0.9-1-1.3-1.6s-0.8-1.1-1.2-1.7c-0.3-0.6-0.7-1.4-1.1-2.4
		c-0.4-0.9-0.7-1.9-0.9-2.9c-0.2-1-0.3-1.9-0.3-2.9c0-0.9,0-1.7,0.1-2.4s0.2-1.4,0.4-2.3s0.5-1.7,1-2.7l0.6-1.4l0-0.1l0-0.1l0,0l0,0
		l0,0l0,0l0,0l0,0l0,0l0,0l0,0l0,0l0,0l0,0l0,0.1l0,0.1l0,0l0,0l1,1.1c0.7,0.7,1.5,1.6,2.4,2.5s1.4,1.4,1.5,1.4
		c0.1,0,0.2,0.2,0.4,0.3c0.1,0.2,0.6,0.6,1.5,1.3c0.8,0.7,1.9,1.5,3.3,2.4s2.9,1.8,4.5,2.7c1.7,0.9,3.4,1.7,5.3,2.4
		c1.9,0.7,3.2,1.2,4,1.4c0.8,0.2,2.1,0.5,3.9,0.9s3.2,0.6,4.2,0.7c0.9,0.1,1.6,0.2,1.9,0.2l0.5,0l0-0.1l0-0.1l-0.1-0.9
		c-0.1-0.6-0.1-1.5-0.1-2.6c0-1.1,0.1-2.1,0.3-3.1c0.2-0.9,0.4-1.9,0.8-2.9c0.3-1,0.7-1.7,1-2.3c0.3-0.6,0.8-1.2,1.3-2
		c0.5-0.7,1.2-1.5,2.1-2.3c0.9-0.8,1.9-1.5,3-2.1c1.1-0.6,2.1-1.1,3.1-1.4c0.9-0.3,1.7-0.5,2.4-0.6C64.3,17.2,64.6,17.1,64.6,17.1z"
		/>
</g>
</svg>
